<svg width="33" height="34" viewBox="0 0 33 34" fill="none" xmlns="http://www.w3.org/2000/svg">
<path d="M14.6089 6.24023H16.3489C16.6089 6.24023 16.8289 6.45023 16.8289 6.72023V8.46023C16.8289 8.72023 16.6189 8.94023 16.3489 8.94023H14.6089C14.3489 8.94023 14.1289 8.73023 14.1289 8.46023V6.72023C14.1289 6.46023 14.3489 6.24023 14.6089 6.24023Z" fill="#4872F4"/>
<path d="M14.6089 11.6289H16.3489C16.6089 11.6289 16.8289 11.8389 16.8289 12.1089V13.8489C16.8289 14.1089 16.6189 14.3289 16.3489 14.3289H14.6089C14.3489 14.3289 14.1289 14.1189 14.1289 13.8489V12.1089C14.1289 11.8489 14.3489 11.6289 14.6089 11.6289Z" fill="#4872F4"/>
<path d="M25.3902 11.6289H27.1302C27.3902 11.6289 27.6102 11.8389 27.6102 12.1089V13.8489C27.6102 14.1089 27.4002 14.3289 27.1302 14.3289H25.3902C25.1302 14.3289 24.9102 14.1189 24.9102 13.8489V12.1089C24.9102 11.8489 25.1302 11.6289 25.3902 11.6289Z" fill="#4872F4"/>
<path d="M25.3902 17.0195H27.1302C27.3902 17.0195 27.6102 17.2295 27.6102 17.4995V19.2395C27.6102 19.4995 27.4002 19.7195 27.1302 19.7195H25.3902C25.1302 19.7195 24.9102 19.5095 24.9102 19.2395V17.4995C24.9102 17.2295 25.1302 17.0195 25.3902 17.0195Z" fill="#4872F4"/>
<path d="M25.3902 22.4102H27.1302C27.3902 22.4102 27.6102 22.6202 27.6102 22.8902V24.6302C27.6102 24.8902 27.4002 25.1102 27.1302 25.1102H25.3902C25.1302 25.1102 24.9102 24.9002 24.9102 24.6302V22.8902C24.9102 22.6202 25.1302 22.4102 25.3902 22.4102Z" fill="#4872F4"/>
<path d="M25.3883 27.7988H27.1283C27.3883 27.7988 27.6083 28.0088 27.6083 28.2788V30.4988H24.9183V28.2788C24.9083 28.0088 25.1283 27.7988 25.3883 27.7988Z" fill="#4872F4"/>
<path d="M16.8189 17.0195H14.1289V19.7095H16.8189V17.0195Z" fill="#4872F4"/>
<path d="M14.6089 22.4102H16.3489C16.6089 22.4102 16.8289 22.6202 16.8289 22.8902V24.6302C16.8289 24.8902 16.6189 25.1102 16.3489 25.1102H14.6089C14.3489 25.1102 14.1289 24.9002 14.1289 24.6302V22.8902C14.1289 22.6202 14.3489 22.4102 14.6089 22.4102Z" fill="#4872F4"/>
<path d="M8.75 6.24023H10.97C11.23 6.24023 11.45 6.45023 11.45 6.72023V8.46023C11.45 8.72023 11.24 8.94023 10.97 8.94023H8.75V6.24023Z" fill="#4872F4"/>
<path d="M8.75 11.6289H10.97C11.23 11.6289 11.45 11.8389 11.45 12.1089V13.8489C11.45 14.1089 11.24 14.3289 10.97 14.3289H8.75V11.6289Z" fill="#4872F4"/>
<path d="M3.35938 22.4102H5.57937C5.83937 22.4102 6.05938 22.6202 6.05938 22.8902V24.6302C6.05938 24.8902 5.84937 25.1102 5.57937 25.1102H3.35938V22.4102Z" fill="#4872F4"/>
<path d="M3.35938 27.7988H5.57937C5.83937 27.7988 6.05938 28.0088 6.05938 28.2788V30.4988H3.35938V27.7988Z" fill="#4872F4"/>
<path d="M3.36016 33.1894H0.660156V18.2494C0.660156 17.5694 1.21016 17.0194 1.89016 17.0194H4.82016C5.50016 17.0194 6.05016 16.4694 6.05016 15.7894V2.08938C6.05016 1.40938 6.60016 0.859375 7.28016 0.859375H26.3702C27.0502 0.859375 27.6002 1.40938 27.6002 2.08938V5.00938C27.6002 5.68937 28.1502 6.23937 28.8302 6.23937H31.7502C32.4302 6.23937 32.9802 6.78938 32.9802 7.46938V33.1794H30.3002V10.1694C30.3002 9.48937 29.7502 8.93937 29.0702 8.93937H23.4502C22.7702 8.93937 22.2202 9.48937 22.2202 10.1694V33.1894H19.5302V7.47937C19.5302 6.79937 20.0802 6.24937 20.7602 6.24937H23.6802C24.3602 6.24937 24.9102 5.69938 24.9102 5.01938V4.77937C24.9102 4.09937 24.3602 3.54938 23.6802 3.54938H9.98016C9.30016 3.54938 8.75016 4.09937 8.75016 4.77937V15.7894C8.75016 16.4694 9.30016 17.0194 9.98016 17.0194H10.2102C10.8902 17.0194 11.4402 17.5694 11.4402 18.2494V33.1794H8.75016V20.9494C8.75016 20.2694 8.20016 19.7194 7.52016 19.7194H4.59016C3.91016 19.7194 3.36016 20.2694 3.36016 20.9494V33.1894Z" fill="#041D36"/>
<path d="M14.611 27.7988H16.351C16.611 27.7988 16.831 28.0088 16.831 28.2788V30.4988H14.141V28.2788C14.131 28.0088 14.351 27.7988 14.611 27.7988Z" fill="#4872F4"/>
</svg>
