<?xml version="1.0" encoding="utf-8"?>
<!-- Generator: Adobe Illustrator 24.2.1, SVG Export Plug-In . SVG Version: 6.00 Build 0)  -->
<svg version="1.1" id="Layer_1" xmlns="http://www.w3.org/2000/svg" xmlns:xlink="http://www.w3.org/1999/xlink" x="0px" y="0px"
	 viewBox="0 0 512 512" style="enable-background:new 0 0 512 512;" xml:space="preserve">
<style type="text/css">
	.st0{fill:#00CEB3;}
	.st1{fill:#00AE93;}
	.st2{fill:#CA5C49;}
	.st3{fill:#9E4127;}
	.st4{fill:#A2EE00;}
	.st5{fill:#76D400;}
	.st6{fill:#00BD00;}
	.st7{fill:#041D36;}
	.st8{fill:#4872F4;}
	.st9{fill:#9BA5AF;}
	.st10{fill:#FFFFFF;}
	.st11{fill:#50E6FF;}
	.st12{fill:#35C1F1;}
	.st13{fill:#2E92ED;}
	.st14{fill:#0078D4;}
	.st15{fill:#184F85;}
	.st16{fill:#0C63AD;}
	.st17{fill:#727D86;}
	.st18{fill:url(#SVGID_1_);}
	.st19{opacity:0.45;}
	.st20{filter:url(#Adobe_OpacityMaskFilter);}
	.st21{mask:url(#SVGID_2_);}
	.st22{fill:#F6F7FB;}
	.st23{opacity:0.59;}
	.st24{filter:url(#Adobe_OpacityMaskFilter_1_);}
	.st25{mask:url(#SVGID_3_);}
	.st26{filter:url(#Adobe_OpacityMaskFilter_2_);}
	.st27{mask:url(#SVGID_4_);}
	.st28{filter:url(#Adobe_OpacityMaskFilter_3_);}
	.st29{mask:url(#SVGID_5_);}
</style>
<g>
	<g>
		<rect x="14.61" y="62.61" class="st8" width="360.35" height="401.39"/>
		<rect x="15.3" y="311.65" class="st7" width="360.35" height="151.65"/>
		<rect y="33.39" class="st7" width="388.17" height="29.22"/>
		<rect x="13.91" y="6.96" class="st8" width="360.35" height="26.43"/>
		<g>
			<rect x="69.57" y="90.43" class="st10" width="27.83" height="27.83"/>
			<rect x="125.22" y="90.43" class="st10" width="27.83" height="27.83"/>
			<rect x="180.87" y="90.43" class="st10" width="27.83" height="27.83"/>
			<rect x="236.52" y="90.43" class="st10" width="27.83" height="27.83"/>
			<rect x="292.17" y="90.43" class="st10" width="27.83" height="27.83"/>
			<rect x="69.57" y="146.09" class="st10" width="27.83" height="27.83"/>
			<rect x="125.22" y="146.09" class="st10" width="27.83" height="27.83"/>
			<rect x="180.87" y="146.09" class="st10" width="27.83" height="27.83"/>
			<rect x="236.52" y="146.09" class="st10" width="27.83" height="27.83"/>
			<rect x="292.17" y="146.09" class="st10" width="27.83" height="27.83"/>
			<rect x="69.57" y="201.74" class="st10" width="27.83" height="27.83"/>
			<rect x="125.22" y="201.74" class="st10" width="27.83" height="27.83"/>
			<rect x="180.87" y="201.74" class="st10" width="27.83" height="27.83"/>
			<rect x="236.52" y="201.74" class="st10" width="27.83" height="27.83"/>
			<rect x="292.17" y="201.74" class="st10" width="27.83" height="27.83"/>
			<rect x="69.57" y="257.39" class="st10" width="27.83" height="27.83"/>
			<rect x="125.22" y="257.39" class="st10" width="27.83" height="27.83"/>
			<rect x="180.87" y="257.39" class="st10" width="27.83" height="27.83"/>
			<rect x="236.52" y="257.39" class="st10" width="27.83" height="27.83"/>
			<rect x="292.17" y="257.39" class="st10" width="27.83" height="27.83"/>
			<rect x="69.57" y="340.87" class="st10" width="27.83" height="27.83"/>
			<rect x="125.22" y="340.87" class="st10" width="27.83" height="27.83"/>
			<rect x="180.87" y="340.87" class="st10" width="27.83" height="27.83"/>
			<rect x="236.52" y="340.87" class="st10" width="27.83" height="27.83"/>
			<rect x="292.17" y="340.87" class="st10" width="27.83" height="27.83"/>
			<rect x="69.57" y="396.52" class="st10" width="27.83" height="27.83"/>
			<rect x="125.22" y="396.52" class="st10" width="27.83" height="27.83"/>
			<rect x="180.87" y="396.52" class="st10" width="27.83" height="27.83"/>
			<rect x="236.52" y="396.52" class="st10" width="27.83" height="27.83"/>
			<rect x="292.17" y="396.52" class="st10" width="27.83" height="27.83"/>
		</g>
	</g>
	<g>
		<rect x="236.52" y="146.09" class="st7" width="275.48" height="358.96"/>
		<rect x="236.52" y="368.7" class="st8" width="275.48" height="136.35"/>
		<g>
			<rect x="276.87" y="187.83" class="st10" width="27.83" height="27.83"/>
			<rect x="332.52" y="187.83" class="st10" width="27.83" height="27.83"/>
			<rect x="388.17" y="187.83" class="st10" width="27.83" height="27.83"/>
			<rect x="443.83" y="187.83" class="st10" width="27.83" height="27.83"/>
			<rect x="276.87" y="243.48" class="st10" width="27.83" height="27.83"/>
			<rect x="332.52" y="243.48" class="st10" width="27.83" height="27.83"/>
			<rect x="388.17" y="243.48" class="st10" width="27.83" height="27.83"/>
			<rect x="443.83" y="243.48" class="st10" width="27.83" height="27.83"/>
			<rect x="276.87" y="299.13" class="st10" width="27.83" height="27.83"/>
			<rect x="332.52" y="299.13" class="st10" width="27.83" height="27.83"/>
			<rect x="388.17" y="299.13" class="st10" width="27.83" height="27.83"/>
			<rect x="443.83" y="299.13" class="st10" width="27.83" height="27.83"/>
			<rect x="388.17" y="396.18" class="st10" width="27.83" height="27.83"/>
			<rect x="443.83" y="396.18" class="st10" width="27.83" height="27.83"/>
			<rect x="276.87" y="451.83" class="st10" width="27.83" height="27.83"/>
			<rect x="332.52" y="451.83" class="st10" width="27.83" height="27.83"/>
			<rect x="388.17" y="451.83" class="st10" width="27.83" height="27.83"/>
			<rect x="443.83" y="451.83" class="st10" width="27.83" height="27.83"/>
			<rect x="276.87" y="396.18" class="st10" width="27.83" height="27.83"/>
			<rect x="332.52" y="396.18" class="st10" width="27.83" height="27.83"/>
		</g>
	</g>
</g>
</svg>
