<?xml version="1.0" encoding="utf-8"?>
<!-- Generator: Adobe Illustrator 25.4.1, SVG Export Plug-In . SVG Version: 6.00 Build 0)  -->
<svg version="1.1" id="Layer_1" xmlns="http://www.w3.org/2000/svg" xmlns:xlink="http://www.w3.org/1999/xlink" x="0px" y="0px"
	 viewBox="0 0 427.92 297.35" style="enable-background:new 0 0 427.92 297.35;" xml:space="preserve">
<style type="text/css">
	.Graphic_x0020_Style_x0020_307{fill:#FFCF4A;}
	.Graphic_x0020_Style_x0020_309{fill:#FFB114;}
	.Graphic_x0020_Style_x0020_310{fill:#DB6767;}
	.Graphic_x0020_Style_x0020_311{fill:url(#SVGID_1_);}
	.Graphic_x0020_Style_x0020_313{fill:#EB485C;}
	.Graphic_x0020_Style_x0020_318{fill:url(#SVGID_00000009561490254237040950000012222619465560326334_);}
	.Graphic_x0020_Style_x0020_319{fill:#3B546B;}
	.Graphic_x0020_Style_x0020_50{fill:#152A52;}
	.Graphic_x0020_Style_x0020_320{fill:#1A1A1A;}
	.Graphic_x0020_Style_x0020_58{fill:#102140;}
	.Graphic_x0020_Style_x0020_321{fill:#572658;}
	.Graphic_x0020_Style_x0020_322{fill:#6584C6;}
	.Graphic_x0020_Style_x0020_323{fill:#CCC4CC;}
	.Graphic_x0020_Style_x0020_93{fill:#127755;}
	.Graphic_x0020_Style_x0020_326{fill:#B080B0;}
	.st0{fill:#F5F7FA;}
	.st1{fill:#FFFFFF;}
	.st2{fill:#C2C2CC;}
	.st3{opacity:0.22;fill:#5386FF;}
	.st4{fill:#EB4D2E;}
	.st5{fill:url(#SVGID_00000044159390351950663390000005119505326187931823_);}
	.st6{fill:url(#SVGID_00000183954549981039454200000006510659478601756849_);}
	.st7{fill:url(#SVGID_00000143594875799152251640000002688114940679110033_);}
	.st8{fill:url(#SVGID_00000003825575562904752620000014378030510863680146_);}
	.st9{fill:#5386FF;}
	.st10{fill:#FAB72C;}
	.st11{fill:#8189EE;}
	.st12{fill:#548FFC;}
	.st13{fill:#C0C1BF;}
	.st14{fill:#9EA09D;}
	.st15{fill:#FEAF83;}
	.st16{fill:url(#SVGID_00000062158051154332146960000016540576373660097196_);}
	.st17{fill:url(#SVGID_00000061463058207358251380000000881094507296836542_);}
	.st18{fill:url(#SVGID_00000090974200647557253520000017353715058119996313_);}
	.st19{fill:url(#SVGID_00000124126463060270711860000003828526922256266173_);}
	.st20{fill:url(#SVGID_00000106142028422774202770000010148919498338556055_);}
	.st21{fill:url(#SVGID_00000102503322564710703790000003508679995566488218_);}
	.st22{fill:url(#SVGID_00000046306042903455460010000013062829588892733088_);}
	.st23{fill:#DD482A;}
	.st24{fill:#DFE9F2;}
	.st25{fill:url(#SVGID_00000054956474434568722280000014253058796916198819_);}
	.st26{fill:#BDD7F2;}
	.st27{opacity:0.25;fill:#BDD7F2;}
	.st28{fill:url(#SVGID_00000063634399760956826710000016637200105041233308_);}
	.st29{fill:url(#SVGID_00000041253950740878852450000012835190998939291524_);}
	.st30{fill:url(#SVGID_00000155868665865665929080000007681430139174780329_);}
	.st31{fill:url(#SVGID_00000174594694376769065420000001546275467814351272_);}
	.st32{opacity:0.59;fill:#DFE9F2;}
	.st33{fill:url(#SVGID_00000150061813397678989660000003733980377326726808_);}
	.st34{fill:url(#SVGID_00000134955044524911907370000003263077546384194484_);}
	.st35{fill:url(#SVGID_00000066476121622908296760000014678382586090307729_);}
	.st36{fill:url(#SVGID_00000139979495406346921490000007168651478707478941_);}
	.st37{fill:#2D2A7B;}
	.st38{fill:url(#SVGID_00000103264347222515017330000016050410441861726603_);}
	.st39{fill:url(#SVGID_00000027597266730513364790000015905751000919798163_);}
	.st40{fill:url(#SVGID_00000028299123798746000000000001608852351771369637_);}
	.st41{fill:url(#SVGID_00000069360312343152234390000004765958578349054104_);}
	.st42{fill:url(#SVGID_00000025429858382619098150000000825413291396607919_);}
	.st43{fill:url(#SVGID_00000022528569488446857220000009952652198606365117_);}
	.st44{fill:url(#SVGID_00000100375742705111206010000006602298430255991202_);}
	.st45{fill:url(#SVGID_00000115495121087029111660000005964497252638840502_);}
	.st46{fill:url(#SVGID_00000177470693320842793830000017677744157471271596_);}
	.st47{fill:url(#SVGID_00000091002155432395929410000012145266187545129907_);}
	.st48{fill:url(#SVGID_00000047755119817416669320000017259143510657851788_);}
	.st49{fill:url(#SVGID_00000020369090935155320170000003481824123509247150_);}
	.st50{fill:url(#SVGID_00000083090683042632240410000009199208445806037153_);}
	.st51{fill:url(#SVGID_00000090271735442250640650000005184936098177215673_);}
	.st52{fill:url(#SVGID_00000085211702071947726230000011105564942851156615_);}
	.st53{fill:url(#SVGID_00000169551845810669968960000013872928185755823013_);}
	.st54{fill:url(#SVGID_00000167362385865612131840000003491006158310084239_);}
	.st55{fill:url(#SVGID_00000080929241401009726580000013860252923515604633_);}
	.st56{fill:url(#SVGID_00000119826713359362103740000014036313900581454487_);}
	.st57{fill:url(#SVGID_00000099621490099879813260000004145134720882521010_);}
	.st58{fill:url(#SVGID_00000061449989939154191310000004868908377306794931_);}
	.st59{fill:url(#SVGID_00000040535735050414556160000004972901906098577588_);}
	.st60{fill:url(#SVGID_00000026164905313246603800000008868851182189347503_);}
	.st61{fill:url(#SVGID_00000119799855747952635170000016686273551130054800_);}
	.st62{fill:url(#SVGID_00000180354256696744035850000012592479535582007193_);}
	.st63{fill:#071D34;}
	.st64{fill:#1E8ECD;}
	.st65{fill:url(#SVGID_00000087394954005851957400000011318357960415781032_);}
	.st66{fill:url(#SVGID_00000169526305922246810180000010196656982633672638_);}
	.st67{fill:#4872F4;}
	.st68{fill:#20C3C5;}
	.st69{fill:#C8E5FC;}
	.st70{fill:#9F9FF4;}
	.st71{fill:#1E3C72;}
	.st72{fill:url(#SVGID_00000008146689357799810510000012810783870998234801_);}
	.st73{fill:url(#SVGID_00000078012279784662912700000013768870899456278656_);}
	.st74{fill:url(#SVGID_00000161609766337900356320000002273446850818539136_);}
	.st75{fill:#4DF4F4;}
	.st76{fill:url(#SVGID_00000002348124473144517430000005131178144146156164_);}
	.st77{fill:none;stroke:#1E8ECD;stroke-width:6;}
	.st78{fill:#1C92D2;}
	.st79{fill:#2A5298;}
	.st80{fill:url(#SVGID_00000086663418019462385750000009825545773594038918_);}
	.st81{fill:url(#SVGID_00000011001085528691999210000004446686864417018761_);}
	.st82{fill:#007BFF;}
	.st83{fill:#000046;}
	.st84{fill:url(#SVGID_00000103972961805230264990000003540296239390355597_);}
	.st85{fill:none;stroke:#071D34;stroke-width:3;}
	.st86{fill:#F2FCFE;}
	.st87{fill:#00C6FF;}
	.st88{fill:url(#SVGID_00000088848531090122069430000012171205533834435746_);}
	.st89{fill:url(#SVGID_00000028287817715214336750000005639243491773875643_);}
	.st90{fill:#47A5FF;}
	.st91{fill:#1CB5E0;}
	.st92{fill:#FF3F54;}
	.st93{fill:#1DAEEF;}
	.st94{fill:#56CCF2;}
	.st95{fill:#0072FF;}
	.st96{fill:url(#SVGID_00000102521744117437032610000007092782812030460848_);}
	.st97{fill:#231F20;}
	.st98{fill:url(#SVGID_00000116233470757246143950000010005272278772035471_);}
	.st99{fill:#FD5668;}
	.st100{fill:#2F80ED;}
	.st101{fill:url(#SVGID_00000135660265990803718350000009777527025896164241_);}
	.st102{fill:#228FCD;}
	.st103{fill:url(#SVGID_00000098929208493111256140000011952923696213876920_);}
	.st104{fill:#1565C0;}
	.st105{fill:#2196F3;}
	.st106{fill:#0090D8;}
	.st107{fill:#041D36;}
	.st108{fill:#4CDD75;}
	.st109{fill:url(#SVGID_00000031922326873009860430000002497280353289902218_);}
	.st110{fill:#0D47A1;}
	.st111{fill:#6DD5FA;}
	.st112{fill:url(#SVGID_00000045610996632086844850000001887966598914071193_);}
	.st113{fill:url(#SVGID_00000056411182517766520740000009384272728271576504_);}
	.st114{fill:#2980B9;}
	.st115{fill:#D4ECF9;}
	.st116{fill:url(#SVGID_00000021101558640643871410000013468432528540316044_);}
	.st117{fill:#D9F3FC;}
	.st118{fill:url(#SVGID_00000023960725989212074770000017134034958381905833_);}
	.st119{fill:#A7E0F9;}
	.st120{fill:#BBDEFB;}
	.st121{fill:#90CAF9;}
	.st122{fill:#64B5F6;}
	.st123{fill:#42A5F5;}
	.st124{fill:#1E88E5;}
	.st125{fill:#1976D2;}
	.st126{fill:#E3F2FD;}
	.st127{fill:#06BC35;}
	.st128{fill:#333333;}
	.st129{opacity:0.22;fill:#C8E5FC;}
	.st130{fill:url(#SVGID_00000166662924516732519400000001973119327076168856_);}
	.st131{fill:url(#SVGID_00000000210995859879019900000012627415877573073282_);}
	.st132{fill:url(#SVGID_00000128481141908259342870000018034640265884093584_);}
	.st133{fill:url(#SVGID_00000002381156247729566490000015040754587857127607_);}
	.st134{fill:url(#SVGID_00000124843082279664290990000007407505817056367003_);}
	.st135{fill:url(#SVGID_00000078764321758517618550000005621789333807322517_);}
	.st136{fill:url(#SVGID_00000031905316817502260290000014769597589514246838_);}
	.st137{fill:url(#SVGID_00000136391489432529587450000013431083969050001049_);}
	.st138{fill:url(#SVGID_00000096751589461428844650000006102039792569130371_);}
	.st139{fill:url(#SVGID_00000010279899581735068350000013963469403500888486_);}
	.st140{fill:url(#SVGID_00000039117783050462757400000014203043450929640860_);}
	.st141{fill:#FFDE70;}
	.st142{fill:#102140;}
	.st143{fill:#FFF7DB;}
	.st144{fill:#FFE796;}
	.st145{fill:none;stroke:#D18B0D;stroke-width:1.1042;stroke-linecap:round;stroke-linejoin:round;stroke-miterlimit:10;}
	.st146{fill:#DBD2DB;}
	.st147{fill:url(#SVGID_00000158732053088749076660000004376590757454994315_);}
	.st148{fill:#203560;}
	.st149{fill:#1B2D52;}
	.st150{fill:none;stroke:#1A1A1A;stroke-width:1.1042;stroke-linecap:round;stroke-linejoin:round;stroke-miterlimit:10;}
	.st151{fill:#C7BFC7;}
	.st152{fill:#1A1A1A;stroke:#1A1A1A;stroke-width:1.1042;stroke-linecap:round;stroke-linejoin:round;stroke-miterlimit:10;}
	.st153{fill:#E8465A;}
	.st154{fill:#DB6767;}
	.st155{fill:#FC9590;}
	.st156{fill:#D9D9D9;}
	.st157{fill:url(#SVGID_00000127011520564844410410000007400372691232064143_);}
	.st158{fill:url(#SVGID_00000152241550346703859350000007630762353264200104_);}
	.st159{fill:url(#SVGID_00000041255628966512094140000013397084941734319019_);}
	.st160{fill:url(#SVGID_00000147221691995115490410000013775185212034526080_);}
	.st161{fill:url(#SVGID_00000061463014600160337860000010029945014321407650_);}
	.st162{fill:url(#SVGID_00000072258102039657336620000013810486751817631114_);}
	.st163{fill:url(#SVGID_00000023960361412603160770000005302202920561260709_);}
	.st164{fill:url(#SVGID_00000134954648109919145800000016339123235649045933_);}
	.st165{clip-path:url(#SVGID_00000028318469197099255480000016467929584156882106_);}
	.st166{fill:none;stroke:#1A1A1A;stroke-width:0.9401;stroke-linecap:round;stroke-linejoin:round;}
	.st167{fill:none;stroke:#1A1A1A;stroke-width:0.9401;stroke-linecap:round;stroke-linejoin:round;stroke-dasharray:5.599,5.599;}
	.st168{fill:url(#SVGID_00000154425220595820331020000003613099760142728618_);}
	.st169{fill:#339E7E;}
	.st170{fill:none;stroke:#10663F;stroke-width:0.9401;stroke-linecap:round;stroke-linejoin:round;stroke-miterlimit:10;}
	.st171{fill:#00593B;}
	.st172{fill:none;stroke:#3DBE88;stroke-width:0.9401;stroke-linecap:round;stroke-linejoin:round;stroke-miterlimit:10;}
	.st173{fill:none;stroke:#1A1A1A;stroke-width:0.9401;stroke-linecap:round;stroke-linejoin:round;stroke-miterlimit:10;}
	.st174{fill:#EFEFEF;}
	.st175{fill:#152A52;}
	.st176{fill:#1A1A1A;stroke:#1A1A1A;stroke-width:0.9401;stroke-linecap:round;stroke-linejoin:round;stroke-miterlimit:10;}
	.st177{fill:#044D96;}
	.st178{fill:url(#SVGID_00000124159366930170527830000007211651054724288903_);}
	.st179{fill:url(#SVGID_00000135662860828752019860000004578209938493168317_);}
	.st180{fill:url(#SVGID_00000165941155052605429190000009272947417758274689_);}
	.st181{fill:url(#SVGID_00000145058041258149798680000003571688756423284129_);}
	.st182{fill:none;stroke:#1A1A1A;stroke-width:1.4102;stroke-linecap:round;stroke-linejoin:round;stroke-miterlimit:10;}
	.st183{fill:none;stroke:#855B87;stroke-width:0.4701;stroke-linecap:round;stroke-linejoin:round;stroke-miterlimit:10;}
	.st184{fill:none;stroke:#FFFFFF;stroke-width:0.9401;stroke-linecap:round;stroke-linejoin:round;stroke-miterlimit:10;}
	.st185{fill:url(#SVGID_00000021115534264920525450000011616236695636648364_);}
	.st186{fill:none;stroke:#0072FF;stroke-width:0.4701;stroke-linecap:round;stroke-linejoin:round;stroke-miterlimit:10;}
	.st187{fill:#6E696E;}
	.st188{fill:#EB485C;}
	.st189{clip-path:url(#SVGID_00000104683180159462803670000009317513671112496781_);}
	.st190{fill:url(#SVGID_00000124843431259672795550000005036645154150741948_);}
	.st191{fill:url(#SVGID_00000027583342224322643390000013425982032960362941_);}
	.st192{fill:url(#SVGID_00000106137789253961543590000016981588635216112570_);}
	.st193{fill:url(#SVGID_00000096042927452531715430000001009949779771813030_);}
	.st194{fill:url(#SVGID_00000011727467831725904190000011994757455130245016_);}
	.st195{fill:url(#SVGID_00000113331666304385784690000000584919017627347605_);}
	.st196{clip-path:url(#SVGID_00000075852426389904319210000013591520513497772421_);}
	.st197{fill:none;stroke:#1A1A1A;stroke-width:0.9401;stroke-linecap:round;stroke-linejoin:round;stroke-dasharray:5.6535,5.6535;}
	.st198{fill:url(#SVGID_00000103229492645041414450000014846015055309270412_);}
	.st199{fill:url(#SVGID_00000121964358511548911730000017298791743444473731_);}
	.st200{fill:url(#SVGID_00000119089591025893382420000008161779149397092781_);}
	.st201{fill:url(#SVGID_00000116942686877163726890000005411419282662750891_);}
	.st202{fill:url(#SVGID_00000018947780656071224900000002562652277645701545_);}
	.st203{fill:url(#SVGID_00000112613356972586227760000013665161750646245307_);}
	.st204{fill:none;stroke:#1A1A1A;stroke-width:0.9401;stroke-linecap:round;stroke-linejoin:round;stroke-dasharray:5.6993,5.6993;}
	.st205{fill:#1A1A1A;}
	.st206{opacity:0.19;fill:#1A1A1A;}
	.st207{fill:url(#SVGID_00000157283809005128852960000002466682613142698931_);}
	.st208{fill:url(#SVGID_00000041296389676381852610000011147171509188177841_);}
	.st209{fill:url(#SVGID_00000036945632841668661870000006017035724290221476_);}
	.st210{display:none;}
	.st211{display:inline;fill:#FFB114;}
	.st212{display:inline;fill:#6E696E;}
	.st213{display:inline;fill:#EB485C;}
	.st214{display:inline;fill:#FFCF4A;}
	.st215{fill:none;stroke:#1A1A1A;stroke-width:0.9401;stroke-linecap:round;stroke-linejoin:round;stroke-dasharray:5.6942,5.6942;}
	.st216{fill:url(#SVGID_00000098899272991701914060000014599321580129964205_);}
	.st217{fill:url(#SVGID_00000178886213690032454460000017531155403111540355_);}
	.st218{fill:url(#SVGID_00000078742233752298683030000004789656594919880605_);}
	.st219{fill:url(#SVGID_00000136397197865390316660000012252459856644035735_);}
	.st220{fill:url(#SVGID_00000011720057040547130280000007432990612133902009_);}
	.st221{fill:url(#SVGID_00000158028067053822568550000010287496560874047164_);}
</style>
<linearGradient id="SVGID_1_" gradientUnits="userSpaceOnUse" x1="-520.9575" y1="-1435.299" x2="-519.9575" y2="-1435.299">
	<stop  offset="0" style="stop-color:#4085F0"/>
	<stop  offset="1" style="stop-color:#275DC9"/>
</linearGradient>
<linearGradient id="SVGID_00000003798638738888402280000000006447481080715393_" gradientUnits="userSpaceOnUse" x1="-520.9575" y1="-1435.299" x2="-519.9575" y2="-1435.299">
	<stop  offset="0" style="stop-color:#4085F0"/>
	<stop  offset="1" style="stop-color:#275DC9"/>
</linearGradient>
<g>
	<g>
		<g>
			<path class="st166" d="M159.83,17.99c-0.94-0.08-1.88-0.14-2.81-0.2"/>
			<path class="st215" d="M151.33,17.6C24.21,16.16-71.38,213.87,136.51,237.33"/>
			<path class="st166" d="M139.34,237.64c0.93,0.1,1.87,0.19,2.81,0.28"/>
			<g>
				<path class="st205" d="M158.89,17.96c-2.7,2.18-4.39,6.88-4.85,10.22c3.83-4.14,8.61-7.59,14.11-9.22
					c-5.04-2.67-8.75-7.28-11.82-12.02C156.23,10.56,156.64,15.01,158.89,17.96z"/>
			</g>
		</g>
	</g>
	<path class="st206" d="M427.92,259.52c0-4.26-11.19-8.24-30.64-11.64c-5.31-10.92-49.9-19.44-104.12-19.44
		c-33.97,0-64.16,3.35-83.27,8.53C93.6,237.2,0,247.21,0,259.52c0,4.92,14.97,9.48,40.36,13.18c-0.67,0.99-1.01,2-1.01,3.02
		c0,11.95,46.85,21.63,104.65,21.63c47.51,0,87.63-6.54,100.4-15.51C348.14,280.28,427.92,270.88,427.92,259.52z"/>
	<path class="Graphic_x0020_Style_x0020_322" d="M96.43,81.8c-0.2-0.4-52.75,14.09-53.11,14.29c0.17-0.34,11.38-22.16,31.83-27.44
		c4.61-1.2,9.7-1.54,15.23-0.62c6.11,1.02,11.29,3.27,15.46,6.32C101.41,75.13,98.79,77.85,96.43,81.8z"/>
	<line class="st173" x1="43.32" y1="96.09" x2="43.32" y2="96.09"/>
	<g>
		<path class="Graphic_x0020_Style_x0020_326" d="M332.09,208.99l1.1,21.16c8.24-0.07,16.5-5.06,23.76-8.89
			c3.51-1.84,7.36-3.28,11.33-4.19l1.04-6.32L332.09,208.99z"/>
		<path class="Graphic_x0020_Style_x0020_321" d="M333.19,230.15l0.51,9.86c10.55,1.65,20.87,1.36,30.95-0.84l3.62-22.1
			c-3.97,0.9-7.82,2.35-11.33,4.19C349.69,225.09,341.42,230.08,333.19,230.15z"/>
		<ellipse class="Graphic_x0020_Style_x0020_320" cx="353.82" cy="209.56" rx="17.02" ry="1.8"/>
		<g>
			<g>
				<g>
					<path class="st169" d="M352.49,201c0,0,40.79,23.38,61.42-5.51c20.63-28.89,11.69-55.77-10.85-68.11
						c-22.55-12.34-53.55-2.74-63.23,12.27C330.14,154.64,356.23,195.3,352.49,201z"/>
					<path class="st170" d="M399.28,144.3c0,0-20.98,46.91-61.06,65.94"/>
					<path class="st170" d="M413.01,154.57c0,0-9.45-6.27-17.79-2.36c-2.17-9.36-11.89-18.28-11.89-18.28"/>
					<path class="st170" d="M411.76,169.75c0,0-14.22-10.45-21.1-9.2c-1.8-6.32-9.11-20.21-22.27-25.7"/>
					<path class="st170" d="M417.28,183.76c0,0-20.99-15.57-32.12-14.45c-0.28-5.8-13.13-24.77-33.05-29.09"/>
					<path class="st170" d="M403.65,187.44c0,0-11.93-11.73-24.63-11.06c-0.95-7.03-14.65-23.01-27.2-25.32"/>
					<path class="st170" d="M395.98,196.27c0,0-12.98-13.86-23.4-12.03c-0.09-7.58-9.16-17.1-20.64-21.66"/>
					<path class="st170" d="M390.52,202.23c0,0-9.82-10.11-25-11.12c-0.69-5.61-7.98-18.21-15.29-19.1"/>
				</g>
				<g>
					<path class="st171" d="M367.93,209.19c0,0,20.47-18.41,31.51-10.37c11.05,8.05,24.47,23.09,12.02,38.86
						c-12.44,15.77-31.23,18.57-42.92,2.63S371.5,219.04,367.93,209.19z"/>
					<path class="st172" d="M403.84,237.21c0,0-14.78-26.32-35.9-28.01c-16.42-1.32-16.47,0.12-16.47,0.12"/>
					<path class="st172" d="M389.5,201.31c0,0-8.61,8.42-14.87,8.98c6.81,4.68-2.02,13.22-5.68,15.16"/>
					<path class="st172" d="M399.56,203.92c0,0-6.6,8.37-18.19,9.06c3.32,4.86-1.05,15.76-12.77,19.3"/>
					<path class="st172" d="M406,212.39c0,0-8.53,8.18-17.88,5.95c0.97,4.02-2.55,17.85-12.22,19.02"/>
					<path class="st172" d="M410.22,221.71c0,0-10.77,4.37-15.71,2.79c-0.86,5.76-1.35,17.6-15.56,21.48"/>
					<path class="st172" d="M406.84,228.78c0,0-4.67,2.19-7.55,1.39c0.6,5.63-1.87,12.37-5.43,13.91"/>
				</g>
				<g>
					<path class="Graphic_x0020_Style_x0020_93" d="M350.4,203.11c0,0-1.96-28.66-16.07-30.65c-14.12-2-35.1-0.48-37.23,20.37
						s9.9,36.59,30.23,33.14C347.65,222.52,340.58,207.89,350.4,203.11z"/>
					<path class="st172" d="M303.16,198.01c0,0,30.68-9.54,47.24,5.1c6.06,5.36,2.24,7.23,2.24,7.23"/>
					<path class="st172" d="M339.97,181.54c0,0,0.33,12.56,4.61,17.52c-8.5-1.44-8.09,11.37-6.76,15.48"/>
					<path class="st172" d="M330.54,176.18c0,0-1.14,11.06,7.04,20c-6.01,1.23-10.66,12.56-4.46,23.73"/>
					<path class="st172" d="M319.57,177.85c0,0,0.45,12.32,9.07,17.44c-3.64,2.31-11.06,15.22-4.67,23.12"/>
					<path class="st172" d="M309.64,181.77c0,0,4.9,11.1,9.74,13.51c-3.54,4.94-11.78,14.16-3.95,27.39"/>
					<path class="st172" d="M307.04,189.52c0,0,1.91,5.04,4.64,6.53c-4.54,3.78-7.59,10.62-6.04,14.36"/>
				</g>
			</g>
		</g>
	</g>
	<path class="st174" d="M367.31,230.23c-7.32,15.05-15.61,28.33-25.05,33.07c-43.87,17.32-82.87,17.22-102.99-4.34
		c-54.2-56.91-103.56-13.19-115.8-31.49c-15.98-23.88,39.88-45.31,9.91-67.38c-4.9-3.61-8.73-4.94-11.9-4.78l26.35-14.8l34.35-17.74
		l5.01-2.59c3.41-0.68,7.63,0.46,13.26,4.61c29.97,22.07-38.48,55.53-22.49,79.42c7.44,11.12,29.34-2.46,68.16-10.26
		c54.66-10.98,52.11,17,88.9,37.99C350,242.32,354.57,237.4,367.31,230.23z"/>
	<path class="Graphic_x0020_Style_x0020_323" d="M137.58,154.22l50.55-29.76c0,0,21.44,8.34,15.13,22.29
		c-22.89,14.13-54.54,28.27-54.54,28.27S146.4,157.21,137.58,154.22z"/>
	<path class="st174" d="M169.22,86.48c-30.05,15.65-37.68,43.91-21.37,54.04l-26.35,14.8c-10.12,0.52-13.35,16.39-22.76,21.93
		c-3.04,1.79-6.74,2.5-11.52,1.26c-24.18-6.27-18.51-39.31,14.93-56.73c20.79-10.83,20.19-35.37,3.71-47.42
		c-4.17-3.05-9.35-5.3-15.46-6.32c-5.54-0.93-10.62-0.58-15.23,0.62l57.99-31.65l0.12-0.07c6.7-3.66,14.81-5.77,24.21-4.2
		C187.74,37.81,195.28,72.91,169.22,86.48z"/>
	<path class="Graphic_x0020_Style_x0020_323" d="M124.13,104.75c24.28-12.69,57.36-36.43,57.36-36.43s2.12-21.1-15.39-25.74
		c-20.83,10.09-52.95,28.91-52.95,28.91S131.03,84.66,124.13,104.75z"/>
	<path class="Graphic_x0020_Style_x0020_322" d="M133.39,160.09l-34.66,17.15c9.41-5.54,12.64-21.4,22.76-21.93
		C124.66,155.15,128.49,156.48,133.39,160.09z"/>
	<g>
		<path class="Graphic_x0020_Style_x0020_58" d="M242.6,218.75c-0.27,0.3-5.1-1.72-8.57,2.53s4.92,32.38,9.73,32.03
			s4.68-13.49,4.75-21.16S242.6,218.75,242.6,218.75z"/>
		<path class="st1" d="M250.29,215.7l-3.77,11.08c0,0-6.35-1.94-6.36-7.61c3.17-8.02,3.33-8.69,3.33-8.69S249.84,212.6,250.29,215.7
			z"/>
		<path class="st175" d="M289.29,145.9c-1.99,21.54-38.27,79.37-38.27,79.37c-3.72-0.32-7-3.63-9.88-9.57
			c-0.4-0.82-0.79-1.69-1.18-2.62c0,0,21.55-56.97,17.86-68.88c-2.22-7.19-18.6-16.03-31.23-21.91c-8.29-3.86-14.97-6.44-14.97-6.44
			l18.42-11.62C230.05,104.24,291.27,124.36,289.29,145.9z"/>
		<path class="Graphic_x0020_Style_x0020_320" d="M241.14,215.7c-0.4-0.82-0.79-1.69-1.18-2.62c0,0,21.55-56.97,17.86-68.88
			c-2.22-7.19-18.6-16.03-31.23-21.91v-6.99l8.84-2.08c8.5,1.69,24.06,10.17,33.62,25.18C278.26,152.88,244.1,211.48,241.14,215.7z"
			/>
		<path class="Graphic_x0020_Style_x0020_58" d="M288.66,230.23c-0.06,0.4-5.22,1.32-5.83,6.77c-0.61,5.45,21.68,24.55,25.53,21.66
			c3.85-2.9-3.37-13.88-7.47-20.36C296.8,231.82,288.66,230.23,288.66,230.23z"/>
		<path class="st1" d="M293.47,223.5l2.83,11.35c0,0-6.38,1.81-9.47-2.95c-1.68-8.46-1.91-9.11-1.91-9.11
			S291.42,221.13,293.47,223.5z"/>
		<path class="st175" d="M296.94,222.43c-0.23,0.95-0.67,1.74-1.27,2.38c-3.09,3.34-10.44,2.87-14.82,2.23
			c-2.06-0.3-3.46-0.64-3.46-0.64s-17.57-75.68-56.69-82.77c-39.11-7.08-38.34-28.14-38.34-28.14s2.98-2.83,9.46-4.98
			c7.7-2.55,20.33-4.15,38.8,1.08c12.78,3.64,23.02,11.43,31.29,21.41l0,0c0,0,0,0.01,0,0.01
			C283.91,159.57,291.99,201.63,296.94,222.43z"/>
		<path class="st142" d="M296.94,222.43c-0.23,0.95-0.67,1.74-1.27,2.38c-1.22-2.77-1.93-7.35-3.43-14.34
			c-9.42-43.89-29.89-76.49-30.33-77.45C283.91,159.57,291.99,201.63,296.94,222.43z"/>
		<path class="Graphic_x0020_Style_x0020_58" d="M280.84,227.04c-2.06-0.3-3.46-0.64-3.46-0.64s-17.57-75.68-56.69-82.77
			c-39.11-7.08-38.34-28.14-38.34-28.14s2.98-2.83,9.46-4.98c5.19,10.28,16.81,25.28,41.39,29.76
			C265.89,146.24,277.94,208.35,280.84,227.04z"/>
		<path class="st176" d="M215.2,36.97c0,0,1.49,8.36,0,9.26c-1.49,0.9-7.06-0.6-6.97-1.09c0.1-0.5,1.29-7.27,1.29-7.27L215.2,36.97z
			"/>
		<path class="st95" d="M248.27,82.32c-2.17,0.4-4.56,1.19-9.52,3.18c-14.07,3.74,2.35-32.58-21.47-39.9l-1.42,51.47
			c15.67,2.16,29.58-7.3,32.78-7.93C250.61,88.74,251.67,82.26,248.27,82.32z"/>
		<path class="st177" d="M223.3,61.96c0,0,3.94,7.07,6.03,17.91c2.09,10.85,16.42,10.85,16.42,10.85s-6.87,9.16-7.96,9.85
			s-11.21-0.87-11.21-0.87s-7.8-18.58-8-19.25C218.39,79.77,223.3,61.96,223.3,61.96z"/>
		<path class="st155" d="M248.49,83.01c0,0,6.72,0.4,8.11,2.64c1.39,2.24,1.14,7.17,1.14,7.17s-2.2,2.02-4.98,0.35
			c-2.78-1.67-2.89-4.98-4.83-5.18C245.56,86.19,247,83.45,248.49,83.01z"/>
		<path class="st95" d="M237.27,104.24c-3.54,13.32-56.31,12.9-56.31,12.9s-0.8-27.67,0.77-47.23c0.26-3.19,0.58-6.16,0.97-8.76
			C185.08,45.63,197.17,45,197.17,45c10.79-2.3,18.28-1.3,23.63,2.18c4.55,7.06,7.47,15.65,7.19,27.22
			c-0.32,5.84,0.01,10.15,0.82,13.65C230.36,94.8,233.65,98.5,237.27,104.24z"/>
		<path class="st95" d="M237.27,104.24c-3.54,13.32-56.31,12.9-56.31,12.9s-0.8-27.67,0.77-47.23c6.06,5.96,16.79,14.51,28.49,14.54
			c10.43,0.02,15.86,1.97,18.58,3.6C230.36,94.8,233.65,98.5,237.27,104.24z"/>
		<polygon class="Graphic_x0020_Style_x0020_320" points="239.28,113.22 261.05,98.98 259.92,98.98 240.83,110.05 		"/>
		<polygon class="Graphic_x0020_Style_x0020_320" points="213.5,101.97 240.97,110.27 239.28,113.22 212.21,104.24 		"/>
		<path class="Graphic_x0020_Style_x0020_319" d="M243.36,89.13c-0.9,0.2-29.86,12.84-29.86,12.84l27.47,8.3l22.29-14.07
			L243.36,89.13z"/>
		<polygon class="Graphic_x0020_Style_x0020_50" points="265.16,81.57 240.83,110.05 242.63,111.17 266.56,83.01 		"/>
		<polygon class="Graphic_x0020_Style_x0020_50" points="289.11,67.92 265.16,81.57 266.56,83.01 289.99,69.32 		"/>
		<polygon class="Graphic_x0020_Style_x0020_319" points="242.63,111.17 267.55,96.33 289.99,69.32 266.56,83.01 		"/>
		<path class="st95" d="M216.25,96.18c-7.74,4.32-38.93,19.83-46.3-5.96c-5.69-19.89,3.17-31.63,11.63-37.99
			c6.16-4.62,12.12-6.4,12.12-6.4l-10.6,25.61c-4.79,20.29,18.12,23.58,26.97,20.04c1.6-0.64,2.95-1.16,4.13-1.6
			c2.26-0.04,3.6,1.36,3.84,2.92C218.22,94.06,217.66,95.43,216.25,96.18z"/>
		<path class="st155" d="M209.64,48.4l0.6-8.88c0,0,12.66,4.29,13.06-16.58c0.24-12.66-10.97-15.78-17.49-9.12
			c-6.52,6.66-2.78,18-4.37,22.82c-1.05,3.19-4.71,7.8-6.05,10.64C194.72,48.72,205.39,54.78,209.64,48.4z"/>
	</g>
	<path class="st142" d="M188.4,48.03c0,0,6.29-1.91,9.88-2.57c8.23-1.96,7.1-10.58,6.57-16.69c-0.53-6.1,1.86-7.43,2.92-6.77
		c1.06,0.66,4.69-0.53,5.73-3.05c6.61,0.13,6.07,6.33,11.41,7.39c0,0,5.9-8.45,1.68-14.29s-10.33-3.72-10.33-3.72
		s-7.56-6.64-15.66,0.4S187.87,43.29,188.4,48.03z"/>
	<g>
		
			<linearGradient id="SVGID_00000097458162763758722010000000494544353167106688_" gradientUnits="userSpaceOnUse" x1="307.779" y1="100.3849" x2="325.5348" y2="100.3849">
			<stop  offset="0" style="stop-color:#68B2FC"/>
			<stop  offset="1" style="stop-color:#529BF7"/>
		</linearGradient>
		<polygon style="fill:url(#SVGID_00000097458162763758722010000000494544353167106688_);" points="325.53,102.71 316.66,106.29 
			307.78,109.86 309.12,100.38 310.46,90.91 318,96.81 		"/>
		
			<linearGradient id="SVGID_00000004509047683505167660000008446720225780019363_" gradientUnits="userSpaceOnUse" x1="298.4008" y1="157.3354" x2="324.7854" y2="157.3354">
			<stop  offset="0" style="stop-color:#4085F0"/>
			<stop  offset="1" style="stop-color:#275DC9"/>
		</linearGradient>
		<polygon style="fill:url(#SVGID_00000004509047683505167660000008446720225780019363_);" points="316.51,170.18 307.46,160.18 
			298.4,150.17 311.59,147.33 324.79,144.49 320.65,157.34 		"/>
	</g>
	<path class="st177" d="M208.24,71.21c0.81-2.34-0.35-13.49-1.04-18.98c-1.89,1.59-4.73,1.61-4.73,1.61l0.25,0.9
		c0,0,3.14,0.25,3.88-1c0.5,3.93,1,17.75,1,17.75S207.9,72.18,208.24,71.21z"/>
	<g>
		<g>
			<line class="st182" x1="145.67" y1="183.51" x2="188" y2="164.14"/>
			<line class="st182" x1="136.77" y1="198.77" x2="178.71" y2="179.12"/>
			<line class="st182" x1="128.73" y1="213.61" x2="172.6" y2="193.07"/>
			<line class="st182" x1="112.21" y1="118.88" x2="148.32" y2="99.7"/>
			<line class="st182" x1="90.05" y1="138.16" x2="137.58" y2="115.3"/>
			<line class="st182" x1="82.36" y1="165.13" x2="137.7" y2="136.66"/>
			<line class="st182" x1="93.78" y1="175.02" x2="110.03" y2="164.14"/>
			<line class="st182" x1="133.39" y1="128.84" x2="81.44" y2="154.12"/>
			<line class="st182" x1="104" y1="62.22" x2="148.32" y2="37.54"/>
			<line class="st182" x1="150.67" y1="219.31" x2="175.04" y2="207.9"/>
		</g>
		<g>
			<line class="st183" x1="145.67" y1="183.51" x2="188" y2="164.14"/>
			<line class="st183" x1="136.77" y1="198.77" x2="178.71" y2="179.12"/>
			<line class="st183" x1="128.73" y1="213.61" x2="172.6" y2="193.07"/>
			<line class="st183" x1="112.21" y1="118.88" x2="148.32" y2="99.7"/>
			<line class="st183" x1="90.05" y1="138.16" x2="137.58" y2="115.3"/>
			<line class="st183" x1="82.36" y1="165.13" x2="137.7" y2="136.66"/>
			<line class="st183" x1="93.78" y1="175.02" x2="110.03" y2="164.14"/>
			<line class="st183" x1="133.39" y1="128.84" x2="81.44" y2="154.12"/>
			<line class="st183" x1="104" y1="62.22" x2="148.32" y2="37.54"/>
			<line class="st183" x1="150.67" y1="219.31" x2="175.04" y2="207.9"/>
		</g>
	</g>
	<path class="st142" d="M207.14,7.02c0,0-2.02-10.25-10.65-5.97s-3.38,24.38-3.38,24.38L207.14,7.02z"/>
	<polyline class="st184" points="267.09,147.85 263.27,154.34 270.01,151.8 267.75,156.57 271.07,156.57 	"/>
	<polyline class="st184" points="286.28,141.49 283.41,145.82 287.66,145.82 284.08,149.01 286.28,150.2 	"/>
	<g>
		<path class="Graphic_x0020_Style_x0020_313" d="M366.61,57.07c0,5.73-1.98,10.99-5.28,15.14l-19.06-15.14l24.33-0.76
			C366.6,56.57,366.61,56.82,366.61,57.07z"/>
		<path class="st174" d="M342.27,57.07l12.77,20.72c-3.71,2.3-8.09,3.62-12.77,3.62c-13.44,0-24.34-10.9-24.34-24.34
			c0-13.44,10.9-24.34,24.34-24.34c6.34,0,12.11,2.42,16.44,6.39L342.27,57.07z"/>
		
			<linearGradient id="SVGID_00000047752235225457441250000001340368716931218062_" gradientUnits="userSpaceOnUse" x1="342.2662" y1="48.0981" x2="366.5927" y2="48.0981">
			<stop  offset="0" style="stop-color:#4085F0"/>
			<stop  offset="1" style="stop-color:#275DC9"/>
		</linearGradient>
		<path style="fill:url(#SVGID_00000047752235225457441250000001340368716931218062_);" d="M366.59,56.32l-24.33,0.76l16.44-17.95
			C363.39,43.42,366.39,49.52,366.59,56.32z"/>
		<path class="Graphic_x0020_Style_x0020_307" d="M361.32,72.22c-1.75,2.2-3.88,4.09-6.28,5.58l-12.77-20.72L361.32,72.22z"/>
	</g>
	<path class="st177" d="M216.25,96.18c-7.74,4.32-38.93,19.83-46.3-5.96c-5.69-19.89,3.17-31.63,11.63-37.99
		c-5.75,7.87-12.63,21.27-8.03,36.4c6.44,21.19,37.19,7.7,44.48,4.16C218.22,94.06,217.66,95.43,216.25,96.18z"/>
	<path class="st155" d="M214.56,90.72c0,0,7.66-2.74,11.64-0.95c3.98,1.79,5.13,11.55,5.13,11.55s-0.25,0.65-1.34,0
		s-2.79-6.39-2.79-6.39s-0.6,3.06-3.14,3.75s-5.32-1.39-6-2.19c-0.67-0.8-3.51-1.11-3.51-1.11S213.21,92.81,214.56,90.72z"/>
	<path class="Graphic_x0020_Style_x0020_310" d="M205.49,36.28c2.38,2.19,4.75,3.24,4.75,3.24l-0.19,2.73
		C210.06,42.25,205.4,37.8,205.49,36.28z"/>
	<polygon class="st95" points="267.17,88.41 264.87,91.81 264.87,93.82 267.17,91.11 	"/>
	<path class="st186" d="M250.29,227.9c0,0-10.2,0.93-7.62,3.45c2.59,2.52,15.13-0.66,9.02,2.26c-6.1,2.92-14.2,1.66-8.96,3.05
		s13.07,1.46,9.55,3.52s-11.15,1.73-8.03,3.05c3.12,1.33,5.57,3.58,5.57,3.58"/>
	<path class="st186" d="M300.9,232.63c0,0-12.04,6.98-6.47,6.59c5.57-0.4,11.87-4.24,10.16-1c-1.7,3.24-7.48,6.27-3.79,6.87
		c3.68,0.6,8.42-2.92,7.17,0c-1.26,2.92-9.61,3.95-4.88,4.58s5.08,0.8,5.08,0.8"/>
	<g class="st210">
		<path class="st211" d="M223.04,255.84c0,4.47-5.01,8.54-13.23,11.6l0.42-4.94c0.83-0.31,1.63-0.62,2.4-0.95
			c6.63-2.82,10.7-6.37,11.02-10.24c0.01,0.03,0.01,0.07,0.02,0.11C223.75,251.8,223.04,255.45,223.04,255.84z"/>
		<path class="st212" d="M210.24,262.5l-0.42,4.94c-9.21,3.43-22.45,5.58-37.16,5.58c-27.83,0-50.39-7.69-50.39-17.18
			c0-0.45,0.54-4.58,0.64-5.02c0,9.49,22.56,17.18,50.39,17.18C187.89,268,201.04,265.88,210.24,262.5z"/>
		<path class="st213" d="M217.97,245.22l-44.68,5.59l36.95,11.68c-9.2,3.38-22.35,5.5-36.95,5.5c-27.83,0-50.39-7.69-50.39-17.18
			c0-9.49,22.56-17.18,50.39-17.18c21.73,0,40.24,4.69,47.32,11.26L217.97,245.22z"/>
		<path class="st214" d="M223.68,250.81c0,0.17-0.01,0.34-0.02,0.5c-0.32,3.87-4.4,7.41-11.02,10.24c-0.76,0.32-1.56,0.64-2.4,0.95
			l-36.95-11.68l44.68-5.59l2.63-0.33C222.59,246.73,223.68,248.73,223.68,250.81z"/>
	</g>
</g>
</svg>
