<?xml version="1.0" encoding="utf-8"?>
<!-- Generator: Adobe Illustrator 25.4.1, SVG Export Plug-In . SVG Version: 6.00 Build 0)  -->
<svg version="1.1" xmlns="http://www.w3.org/2000/svg" xmlns:xlink="http://www.w3.org/1999/xlink" x="0px" y="0px"
	 viewBox="0 0 241.83 201" style="enable-background:new 0 0 241.83 201;" xml:space="preserve">
<style type="text/css">
	.st0{fill:#F6F7FB;}
	.st1{fill:#FFFFFF;}
	.st2{fill:#041D36;}
	.st3{fill:#FF5E5E;}
	.st4{opacity:0.3;fill:#041D36;}
	.st5{clip-path:url(#SVGID_00000161627766857401207920000003958175171555439269_);}
	.st6{fill:#4872F4;}
	.st7{opacity:0.4;fill:#041D36;}
	.st8{opacity:0.1;fill:#4872F4;}
	.st9{fill:#EAECF1;}
	.st10{clip-path:url(#SVGID_00000088125057321821987400000014979897491160416936_);}
	.st11{fill:#BFBFBF;}
	.st12{filter:url(#Adobe_OpacityMaskFilter);}
	.st13{mask:url(#SVGID_00000085248837186154255760000009773593632375814283_);}
	.st14{clip-path:url(#SVGID_00000144310559221771248550000010460219026965376156_);fill:#F3F3F3;}
	.st15{opacity:0.6;fill:#041D36;}
	.st16{fill:#EDEDED;}
	.st17{filter:url(#Adobe_OpacityMaskFilter_00000071530877215441268890000012925551615958868651_);}
	.st18{mask:url(#SVGID_00000165223531352480631580000011830161427764339900_);}
	.st19{clip-path:url(#SVGID_00000089540751020495043160000007026493191743451834_);fill:#F3F3F3;}
	.st20{filter:url(#Adobe_OpacityMaskFilter_00000175316136185734159310000016457797151480265614_);}
	.st21{mask:url(#SVGID_00000083781436120322527600000011380651986370445467_);}
	.st22{clip-path:url(#SVGID_00000172436264643669397940000017071914669041728156_);fill:#F3F3F3;}
	.st23{fill:#E5EAFA;}
	.st24{fill:#D6D3D3;}
	.st25{fill:#FF5D5D;}
	.st26{opacity:0.1;fill:#EAECF1;}
	.st27{opacity:0.1;clip-path:url(#SVGID_00000168081345509296571380000003196943061098249353_);fill:#041D36;}
	.st28{opacity:0.1;clip-path:url(#SVGID_00000109733935644080058660000009202488146937315256_);fill:#041D36;}
	.st29{fill:#06BC35;}
	.st30{fill:#FF7700;}
	.st31{fill:#BEE2FC;}
	.st32{display:none;clip-path:url(#SVGID_00000051386068292956000830000014227453361846019211_);}
	.st33{display:inline;fill:#EEDECF;}
	.st34{display:inline;}
	.st35{fill:#F7EFE4;}
	.st36{fill:#343A55;}
	.st37{fill:#E6DCCD;}
	.st38{fill:none;}
	.st39{fill:#2C3451;}
	.st40{fill:#618E77;}
	.st41{fill:#75AA8D;}
	.st42{fill:#35685E;}
	.st43{fill:#D19E66;}
	.st44{fill:#758FB3;}
	.st45{fill:#91AECE;}
	.st46{fill:#829CBF;}
	.st47{display:inline;fill:#2C3451;}
	.st48{clip-path:url(#SVGID_00000051386068292956000830000014227453361846019211_);}
	.st49{fill:#DEF0FD;}
	.st50{fill:#152C3C;}
	.st51{fill:#B6DEFB;}
	.st52{fill:#0E2536;}
	.st53{fill:#2F7DB5;}
	.st54{fill:#5696C3;}
	.st55{fill:#1E5176;}
	.st56{fill:#3FA9F5;}
	.st57{fill:#76838C;}
	.st58{fill:#97A1A8;}
	.st59{fill:#849098;}
	.st60{opacity:0.62;}
	.st61{fill:none;stroke:#FF7700;stroke-miterlimit:10;}
	.st62{opacity:0.7;fill:#FF7700;}
	.st63{display:none;clip-path:url(#SVGID_00000103222539647515797440000007166908882131662218_);}
	.st64{clip-path:url(#SVGID_00000103222539647515797440000007166908882131662218_);}
	.st65{fill:none;stroke:#06BC35;stroke-miterlimit:10;}
	.st66{opacity:0.75;fill:#06BC35;}
	.st67{display:none;}
	.st68{display:inline;fill:#FFFFFF;}
	.st69{display:none;clip-path:url(#SVGID_00000006671277793356397790000005447298659247113898_);}
	.st70{clip-path:url(#SVGID_00000006671277793356397790000005447298659247113898_);}
	.st71{display:none;clip-path:url(#SVGID_00000164492720015853606220000011764409203462854295_);}
	.st72{clip-path:url(#SVGID_00000164492720015853606220000011764409203462854295_);}
	.st73{display:none;fill:#FFFFFF;}
	.st74{font-family:'BebasNeueBold';}
	.st75{font-size:52.5155px;}
	.st76{display:inline;fill:#C4C4C4;}
	.st77{clip-path:url(#SVGID_00000109731290727193830690000002550932336758236589_);}
	.st78{fill:none;stroke:#1A1A1A;stroke-width:0.9401;stroke-linecap:round;stroke-linejoin:round;}
	.st79{fill:none;stroke:#1A1A1A;stroke-width:0.9401;stroke-linecap:round;stroke-linejoin:round;stroke-dasharray:5.6392,5.6392;}
	.st80{fill:url(#SVGID_00000149348537703894241450000001272173708169074595_);}
	.st81{fill:#B080B0;}
	.st82{fill:#572658;}
	.st83{fill:#1A1A1A;}
	.st84{fill:#339E7E;}
	.st85{fill:none;stroke:#10663F;stroke-width:0.9401;stroke-linecap:round;stroke-linejoin:round;stroke-miterlimit:10;}
	.st86{fill:#00593B;}
	.st87{fill:none;stroke:#3DBE88;stroke-width:0.9401;stroke-linecap:round;stroke-linejoin:round;stroke-miterlimit:10;}
	.st88{fill:#127755;}
	.st89{fill:#6584C6;}
	.st90{fill:none;stroke:#1A1A1A;stroke-width:0.9401;stroke-linecap:round;stroke-linejoin:round;stroke-miterlimit:10;}
	.st91{fill:#EFEFEF;}
	.st92{fill:#CCC4CC;}
	.st93{fill:#102140;}
	.st94{fill:#152A52;}
	.st95{fill:#1A1A1A;stroke:#1A1A1A;stroke-width:0.9401;stroke-linecap:round;stroke-linejoin:round;stroke-miterlimit:10;}
	.st96{fill:#0072FF;}
	.st97{fill:#044D96;}
	.st98{fill:#FC9590;}
	.st99{fill:#3B546B;}
	.st100{fill:url(#SVGID_00000041283023120328798880000005909732232021610624_);}
	.st101{fill:url(#SVGID_00000134963647972374453210000003344851723998196905_);}
	.st102{fill:url(#SVGID_00000017504561165579421270000011794828580388513176_);}
	.st103{fill:url(#SVGID_00000070112946463624942770000010467718204671260311_);}
	.st104{fill:none;stroke:#1A1A1A;stroke-width:1.4102;stroke-linecap:round;stroke-linejoin:round;stroke-miterlimit:10;}
	.st105{fill:none;stroke:#855B87;stroke-width:0.4701;stroke-linecap:round;stroke-linejoin:round;stroke-miterlimit:10;}
	.st106{fill:none;stroke:#FFFFFF;stroke-width:0.9401;stroke-linecap:round;stroke-linejoin:round;stroke-miterlimit:10;}
	.st107{fill:#EB485C;}
	.st108{fill:url(#SVGID_00000031901853524493053740000015791194780514294149_);}
	.st109{fill:#FFCF4A;}
	.st110{fill:#DB6767;}
	.st111{fill:none;stroke:#0072FF;stroke-width:0.4701;stroke-linecap:round;stroke-linejoin:round;stroke-miterlimit:10;}
	.st112{fill:#FFB114;}
	.st113{fill:#6E696E;}
	.st114{clip-path:url(#SVGID_00000090996143543178271790000002479904879800950687_);}
	.st115{fill:#B3B3B3;}
	.st116{fill:#FA9F78;}
	.st117{fill:#F0DDD3;}
	.st118{fill:#C96547;}
	.st119{fill:#808080;}
	.st120{fill:#BF6044;}
	.st121{fill:#333333;}
	.st122{fill:#C7A695;}
	.st123{clip-path:url(#SVGID_00000174586739374726587820000015751022584976021151_);}
	.st124{display:none;fill:#F6F7FB;}
	.st125{fill:#BFD1FF;}
	.st126{fill:url(#SVGID_00000034089533354881888320000012485071381428228762_);}
	.st127{display:inline;opacity:0.38;fill:url(#SVGID_00000127024464220059966540000015928459696907392665_);}
	.st128{display:inline;fill:#FFC800;}
	.st129{display:inline;fill:#608FFF;}
	.st130{fill:#203E87;}
	.st131{display:inline;fill:url(#SVGID_00000163066079678382571130000017325403135655814798_);}
	.st132{display:inline;fill:#FF9C91;}
	.st133{fill:#5D9454;}
	.st134{fill:#71B366;}
	.st135{fill:none;stroke:#2E5E26;stroke-width:0.7398;stroke-miterlimit:10;}
	.st136{fill:#FF9C91;}
	.st137{fill:url(#SVGID_00000091716708962671187510000000775864763150205587_);}
	.st138{fill:#608FFF;}
	.st139{fill:url(#SVGID_00000019641080965106882540000008136159574046955949_);}
	.st140{fill:url(#SVGID_00000122715691155650011170000018392562534352825492_);}
	.st141{fill:#3465D9;}
	.st142{display:inline;opacity:0.38;fill:url(#SVGID_00000158718382868204741720000006288207022419414175_);}
	.st143{display:inline;fill:#3465D9;}
	.st144{display:inline;fill:#FF5E00;}
	.st145{display:inline;fill:url(#SVGID_00000047758259309526189290000005725838708865391521_);}
	.st146{opacity:0.3;fill:url(#SVGID_00000163035579039766246100000011179713965962845613_);}
	.st147{fill:#FFC800;}
	.st148{fill:#FF5E00;}
	.st149{display:inline;fill:none;stroke:#FF5E00;stroke-linecap:round;stroke-linejoin:round;stroke-miterlimit:10;}
	.st150{opacity:0.3;fill:url(#SVGID_00000081616027244370501650000007789078262319078793_);}
	.st151{fill:#929292;}
	.st152{fill:url(#SVGID_00000134217325223399949710000012243714489520171433_);}
	.st153{fill:#DFDFDF;}
	.st154{fill:url(#SVGID_00000054223508215954843580000010341489909647987096_);}
	.st155{fill:url(#SVGID_00000047027988127047442120000014209922407610692026_);}
	.st156{fill:url(#SVGID_00000099640481321022004100000011660436679446047932_);}
	.st157{fill:url(#SVGID_00000084509558045637276710000005416747425087253388_);}
	.st158{fill:url(#SVGID_00000166656933819903188430000006589112677223533233_);}
	.st159{fill:url(#SVGID_00000174570481292090369730000002971015864851718077_);}
	.st160{fill:url(#SVGID_00000178892032460660728760000010228666340104350124_);}
	.st161{fill:url(#SVGID_00000081610722291723431620000011938523895315584656_);}
	.st162{fill:url(#SVGID_00000088813453087837860720000014773584280651810728_);}
	.st163{opacity:0.4;}
	.st164{fill:#3A3A5B;}
	.st165{fill:#2559C1;}
	.st166{fill:#80B4FF;}
	.st167{fill:#7398E6;}
	.st168{fill:#ECF1F9;}
	.st169{fill:#2C2C2C;}
	.st170{fill:url(#SVGID_00000023270746544629524590000009610302172283319956_);}
	.st171{fill:url(#SVGID_00000147910633271678337220000007085627253187382919_);}
	.st172{fill:none;stroke:#203E87;stroke-width:1.1172;stroke-miterlimit:10;}
	.st173{fill:#FF4A36;}
	.st174{opacity:0.3;fill:url(#SVGID_00000154396093155185471220000003440544798689208705_);}
	.st175{fill:url(#SVGID_00000054255207274723075060000014297683795828301190_);}
	.st176{opacity:0.3;fill:url(#SVGID_00000141422998146900209100000008205650851963051941_);}
	.st177{fill:url(#SVGID_00000037678702816149697120000016511440373148035245_);}
	.st178{fill:url(#SVGID_00000075134844770184899290000011388482172802040227_);}
	.st179{fill:url(#SVGID_00000144297546469914152540000005049075200213442705_);}
	.st180{fill:#747E96;}
	.st181{fill:url(#SVGID_00000084493166322402609520000016185557472284081056_);}
	.st182{display:inline;opacity:0.3;fill:url(#SVGID_00000095297371156172286070000005087763311061697449_);}
	.st183{display:inline;opacity:0.3;}
	.st184{fill:url(#SVGID_00000093898506695658811560000011069276528589034417_);}
	.st185{fill:none;stroke:#FFFFFF;stroke-width:1.2764;stroke-miterlimit:10;}
	.st186{display:inline;opacity:0.3;fill:url(#SVGID_00000166662714806951170350000009208838352584702610_);}
	.st187{fill:#182F66;}
	.st188{display:inline;fill:#203E87;}
	.st189{opacity:0.3;}
	.st190{opacity:0.3;fill:url(#SVGID_00000139984655952515808840000002380932352052215180_);}
	.st191{fill:#55A7FA;}
	.st192{fill:#E8E8DF;}
	.st193{fill:#D8D6C9;}
	.st194{fill:#F2D45B;}
	.st195{fill:#149F84;}
	.st196{fill:#26B899;}
	.st197{fill:#4EB9A1;}
	.st198{fill:#FEFEFE;}
	.st199{fill:#FE2116;}
	.st200{fill:#7F110B;}
	.st201{fill:#92130D;}
	.st202{fill:#D71C13;}
	.st203{fill:#F3F3F3;}
	.st204{fill:#F4F4F4;}
	.st205{clip-path:url(#SVGID_00000160892521927714916900000008914742955255672223_);}
	.st206{fill:url(#SVGID_00000140015535845610055450000000151284941865810075_);}
	.st207{fill:url(#SVGID_00000115501430582328983590000014582108844683152017_);}
	.st208{opacity:0.3;fill:url(#SVGID_00000181075228274598022790000013505837018087371906_);}
	.st209{fill:url(#SVGID_00000137119334198103913310000003673801538166268544_);}
	.st210{opacity:0.3;fill:url(#SVGID_00000027567241124760292010000014797611804721157529_);}
	.st211{fill:url(#SVGID_00000057130866243505188340000002725621126407262647_);}
	.st212{fill:url(#SVGID_00000140731046519372352810000008579301350018416275_);}
	.st213{fill:url(#SVGID_00000067959029183175744610000009590784339626109860_);}
	.st214{fill:url(#SVGID_00000131350906538478437380000014926885786804631956_);}
	.st215{display:inline;opacity:0.3;fill:url(#SVGID_00000111905190268033049500000007248060929574801299_);}
	.st216{fill:url(#SVGID_00000142860310037150480540000008790026072345734282_);}
	.st217{display:inline;opacity:0.3;fill:url(#SVGID_00000071561533349335687020000008426387221898440356_);}
	.st218{opacity:0.3;fill:url(#SVGID_00000147928838344116859150000009629418109644096435_);}
	.st219{clip-path:url(#SVGID_00000093874071100723846040000006159802391651844774_);}
	.st220{fill:#0F1216;}
	.st221{fill:#ED6343;}
	.st222{fill:#657283;}
	.st223{fill:#026EB7;}
	.st224{fill:#03A1FC;}
	.st225{fill:#364154;}
	.st226{fill:#131F2D;}
	.st227{fill:#525354;}
	.st228{fill:#275BC4;}
	.st229{fill:#051023;}
	.st230{fill:#2D3554;}
	.st231{clip-path:url(#SVGID_00000140006099326890139580000018264761765929386894_);}
	.st232{fill:url(#SVGID_00000141421319771453421220000008420553912927797897_);}
	.st233{fill:url(#SVGID_00000113332605286853538290000003382786281715940764_);}
	.st234{opacity:0.46;fill:#FFFFFF;}
	.st235{fill:#FFC590;}
	.st236{fill:url(#SVGID_00000042014310297439169530000017393384616007235255_);}
	.st237{fill:url(#SVGID_00000041268255501232360720000003564779006686907793_);}
	.st238{fill:url(#SVGID_00000066489653726605697400000010459484437331440566_);}
	.st239{fill:url(#SVGID_00000098201195898494966960000006619364087576904602_);}
	.st240{fill:url(#SVGID_00000110430642126982576690000004398721128249042087_);}
	.st241{fill:url(#SVGID_00000137827887607687276260000011180270072304807356_);}
	.st242{fill:url(#SVGID_00000176004276430323269400000012968130279173186441_);}
	.st243{fill:url(#SVGID_00000138557403870065310040000003573359370874960800_);}
	.st244{fill:#FFFFFE;}
	.st245{fill:url(#SVGID_00000028325809279185442630000003623470041286063529_);}
	.st246{fill:none;stroke:#FFFFFF;stroke-miterlimit:10;stroke-dasharray:5.0176,5.0176;}
	.st247{fill:#5E519D;}
	.st248{fill:url(#SVGID_00000166662578199029544730000010590104705152346512_);}
	.st249{fill:url(#SVGID_00000061464089590712886080000011247532986361794986_);}
	.st250{filter:url(#Adobe_OpacityMaskFilter_00000176012061190807247910000004057257959958302644_);}
	.st251{mask:url(#SVGID_00000057120953998140950930000009698431724609995691_);}
	.st252{fill:#150A2D;}
	.st253{fill:none;stroke:#FFFFFF;stroke-miterlimit:10;}
	.st254{fill:#FDB3BE;}
	.st255{fill:none;stroke:#003684;stroke-miterlimit:10;}
	.st256{fill:none;stroke:#004F9E;stroke-miterlimit:10;}
	.st257{clip-path:url(#SVGID_00000027573511448555095230000009065480852506645400_);}
	.st258{fill:#ECECEC;}
	.st259{fill:#E1E1E1;}
	.st260{fill:#E7E7E7;}
	.st261{fill:#F0F0F0;}
	.st262{fill:#FAFAFA;}
	.st263{opacity:0.5;fill:#E1E1E1;}
	.st264{fill:#F5F5F5;}
	.st265{opacity:0.8;fill:#FFFFFF;}
	.st266{opacity:0.3;fill:#007CFF;}
	.st267{fill:#CE5B51;}
	.st268{fill:#CD5B51;}
	.st269{fill:#007CFF;}
	.st270{fill:#1A2E35;}
	.st271{fill:#BA221F;}
	.st272{fill:#006AD3;}
	.st273{opacity:0.2;}
	.st274{display:inline;fill:#F2F2F2;}
	.st275{display:inline;fill:#FFF1D7;}
	.st276{fill:#FE9227;}
	.st277{fill:#FFD470;}
	.st278{opacity:0.39;fill:#FFD470;}
	.st279{fill:#F47A7A;}
	.st280{opacity:0.87;fill:#EF5961;}
	.st281{fill:#FF9C9C;}
	.st282{fill:#FFB6B6;}
	.st283{opacity:0.42;fill:#EF5961;}
	.st284{fill:#040430;}
	.st285{fill:#110F52;}
	.st286{fill:#F7F7F7;}
	.st287{fill:#DDDDDD;}
	.st288{fill:#EA7206;}
	.st289{opacity:0.32;fill:#EA7206;}
	.st290{fill:#FFA95C;}
	.st291{opacity:0.62;fill:#F2F2F2;}
	.st292{fill:#B2BDBB;}
	.st293{fill:#BFCAC8;}
	.st294{fill:#6F7878;}
	.st295{fill:#9AA4A3;}
	.st296{fill:#848D8D;}
	.st297{fill:#E3F3F3;}
	.st298{fill:#A82400;}
	.st299{opacity:0.43;fill:#EF5961;}
	.st300{fill:#DD3601;}
	.st301{fill:#FFFFFF;stroke:#FFD470;stroke-width:3;stroke-miterlimit:10;}
	.st302{fill:#29298B;}
	.st303{fill:#FEC435;}
	.st304{opacity:0.25;fill:#FFFFFF;}
	.st305{fill:#FFF1D7;}
	.st306{fill:#FFDDA6;}
	.st307{fill:#F7CE94;}
	.st308{opacity:0.52;}
	.st309{opacity:0.66;}
	.st310{fill:#FFB471;}
	.st311{fill:#EF5702;}
	.st312{fill:#D14A07;}
	.st313{fill:#101066;}
	.st314{fill:#00002D;}
	.st315{fill:#FF9292;}
	.st316{opacity:0.37;fill:#FE5E60;}
	.st317{fill:#FE5E60;}
	.st318{opacity:0.23;fill:#E33D01;}
	.st319{opacity:0.71;fill:#E33D01;}
	.st320{fill:#37377C;}
	.st321{opacity:0.33;}
	.st322{fill:#ED9E00;}
	.st323{fill:#FF5E60;}
	.st324{clip-path:url(#SVGID_00000077294498384826349300000002176064589245626245_);}
	.st325{fill:#053A70;}
	.st326{clip-path:url(#SVGID_00000067953572186830203450000005480525668394725549_);}
	.st327{clip-path:url(#SVGID_00000123403880932225107950000005094728656855694996_);}
	.st328{fill:#C8E5FC;}
	.st329{fill:#89CAF7;}
	.st330{fill:#B24D02;}
	.st331{clip-path:url(#SVGID_00000013884997333628017970000005289868879336882599_);}
	.st332{fill:#5E92EF;}
	.st333{fill:#C3D7FC;}
	.st334{fill:#0B6CF7;}
	.st335{fill:#0D54D3;}
	.st336{clip-path:url(#SVGID_00000002377309202301139470000016716830229733016749_);}
	.st337{fill:#F2FCFE;}
	.st338{fill:#D3EEF2;}
	.st339{fill:#026618;}
	.st340{clip-path:url(#SVGID_00000003069202733070058940000017063574124212925575_);}
	.st341{clip-path:url(#SVGID_00000115502963838343855120000004511675005180997258_);}
	.st342{clip-path:url(#SVGID_00000085223492632113497820000018301208911379259026_);}
	.st343{clip-path:url(#SVGID_00000054974666645318584230000013435368289917908352_);}
	.st344{clip-path:url(#SVGID_00000157282307103221109650000007562895342193148584_);}
	.st345{clip-path:url(#SVGID_00000015340414964031079480000012974718157717289100_);}
	.st346{clip-path:url(#SVGID_00000037652016841687097930000017591388574046348727_);}
	.st347{clip-path:url(#SVGID_00000183239762784556473570000005255384719787631254_);}
	.st348{clip-path:url(#SVGID_00000146458844968329844730000003641107926534871441_);}
	.st349{clip-path:url(#SVGID_00000109749936143796500200000012315519738714653326_);}
	.st350{clip-path:url(#SVGID_00000161590490622667422730000014355595485714954124_);}
	.st351{fill:#071D34;}
	.st352{fill:#1E8ECD;}
	.st353{fill:url(#SVGID_00000168813460689140870540000000742139194572362943_);}
	.st354{fill:url(#SVGID_00000179632480347864823610000015712951636500116659_);}
	.st355{fill:#20C3C5;}
	.st356{fill:#9F9FF4;}
	.st357{fill:#1E3C72;}
	.st358{fill:url(#SVGID_00000042720913287635345770000007374924255029759893_);}
	.st359{fill:url(#SVGID_00000053531509208743710850000000211406646246271115_);}
	.st360{fill:url(#SVGID_00000011010628423529514560000002249539767913235076_);}
	.st361{fill:#4DF4F4;}
	.st362{fill:url(#SVGID_00000124162215874924657820000012976743148767965570_);}
	.st363{fill:none;stroke:#1E8ECD;stroke-width:6;}
	.st364{fill:#1C92D2;}
	.st365{fill:#2A5298;}
	.st366{fill:url(#SVGID_00000077315233828195811190000002419648250879095469_);}
	.st367{fill:url(#SVGID_00000047018669213267595490000009269786244421090972_);}
	.st368{fill:#007BFF;}
	.st369{fill:#000046;}
	.st370{fill:url(#SVGID_00000112622516344012214510000001241823724266420136_);}
	.st371{fill:none;stroke:#071D34;stroke-width:3;}
	.st372{fill:#00C6FF;}
	.st373{fill:url(#SVGID_00000055702371368654879090000009516139334246024878_);}
	.st374{fill:url(#SVGID_00000008133863827661068560000004445858905525774007_);}
	.st375{fill:#47A5FF;}
	.st376{fill:#1CB5E0;}
	.st377{fill:#FF3F54;}
	.st378{fill:#1DAEEF;}
	.st379{fill:#56CCF2;}
	.st380{fill:url(#SVGID_00000015335387310113254940000001464093201386062523_);}
	.st381{fill:#231F20;}
	.st382{fill:url(#SVGID_00000021835188644373898450000003559657045369832601_);}
	.st383{fill:#FD5668;}
	.st384{fill:#2F80ED;}
	.st385{fill:url(#SVGID_00000183943416392768365420000013948785695917051532_);}
	.st386{fill:#228FCD;}
	.st387{fill:url(#SVGID_00000018228573894701051470000001724078126650688402_);}
	.st388{fill:#1565C0;}
	.st389{fill:#2196F3;}
	.st390{fill:#0090D8;}
	.st391{fill:#4CDD75;}
	.st392{fill:url(#SVGID_00000018935255995165691780000009648376643605745304_);}
	.st393{fill:#0D47A1;}
	.st394{fill:#6DD5FA;}
	.st395{fill:url(#SVGID_00000085248063478427891670000011211160180364138655_);}
	.st396{fill:url(#SVGID_00000157277733146054785490000017013613468725249959_);}
	.st397{fill:#2980B9;}
	.st398{fill:#D4ECF9;}
	.st399{fill:url(#SVGID_00000054260734018971832190000001151212210424919487_);}
	.st400{fill:#D9F3FC;}
	.st401{fill:url(#SVGID_00000018198777343152280760000008643173702765243532_);}
	.st402{fill:#A7E0F9;}
	.st403{fill:#FD89A3;}
	.st404{fill:#FFCD8C;}
	.st405{fill:url(#SVGID_00000148647074364690730990000011082077532569509309_);}
	.st406{fill:#6991FB;}
	.st407{fill:#78B5FF;}
	.st408{fill:url(#SVGID_00000047739981558733904260000016999679732178181531_);}
	.st409{fill:url(#SVGID_00000098899368676973150510000009015451192984219811_);}
	.st410{fill:url(#SVGID_00000175282553099865659460000012292184077804589220_);}
	.st411{fill:#711DE1;}
	.st412{fill:#1B4EBB;}
	.st413{fill:#FF8E8B;}
	.st414{fill:url(#SVGID_00000162333307655222622810000015377336532396755647_);}
	.st415{fill:#6A8FFF;}
	.st416{fill:#7DB9FF;}
	.st417{fill:url(#SVGID_00000053506951816970928960000017933341566656975748_);}
	.st418{fill:#FA85A1;}
	.st419{fill:#FFD496;}
	.st420{fill:#FF6B7A;}
	.st421{fill:#BBDEFB;}
	.st422{fill:#90CAF9;}
	.st423{fill:#64B5F6;}
	.st424{fill:#42A5F5;}
	.st425{fill:#1E88E5;}
	.st426{fill:#1976D2;}
	.st427{fill:#E3F2FD;}
	.st428{clip-path:url(#SVGID_00000088832971974844671930000006193569099337186729_);}
	.st429{clip-path:url(#SVGID_00000058590333976261773280000002091191424204853151_);}
	.st430{clip-path:url(#SVGID_00000041984518295668564070000011007234183009045918_);}
	.st431{clip-path:url(#SVGID_00000057848623252261806660000012243610229414738355_);}
	.st432{display:inline;fill:#F6F7FB;}
	.st433{display:inline;fill:#041D36;}
	.st434{display:inline;fill:#FF5E5E;}
	.st435{display:inline;opacity:0.3;fill:#041D36;}
	.st436{clip-path:url(#SVGID_00000155824977965571395590000012044243042117653132_);}
	.st437{display:inline;fill:#4872F4;}
	.st438{display:inline;opacity:0.4;fill:#041D36;}
	.st439{display:inline;opacity:0.1;fill:#4872F4;}
	.st440{display:inline;fill:#EAECF1;}
	.st441{clip-path:url(#SVGID_00000080922976006481958980000013832708221151834254_);}
	.st442{display:inline;fill:#BFBFBF;}
	.st443{display:inline;filter:url(#Adobe_OpacityMaskFilter_00000173121786464212427000000000676666317002123449_);}
	.st444{display:inline;mask:url(#SVGID_00000180359009146091365490000001523226227533598384_);}
	.st445{clip-path:url(#SVGID_00000152255054648191920840000004318982289305599673_);fill:#F3F3F3;}
	.st446{display:inline;opacity:0.6;fill:#041D36;}
	.st447{display:inline;fill:#EDEDED;}
	.st448{display:inline;filter:url(#Adobe_OpacityMaskFilter_00000078023668744965868810000004292318570679279783_);}
	.st449{display:inline;mask:url(#SVGID_00000175281101039519792410000012531356565974403465_);}
	.st450{clip-path:url(#SVGID_00000145737164383570367510000000070809403060099222_);fill:#F3F3F3;}
	.st451{display:inline;filter:url(#Adobe_OpacityMaskFilter_00000181790341437354090870000003738666264916299651_);}
	.st452{display:inline;mask:url(#SVGID_00000101795129379634237240000009986979935639413942_);}
	.st453{clip-path:url(#SVGID_00000120520440788527962700000012368647120783885472_);fill:#F3F3F3;}
	.st454{display:inline;fill:#E5EAFA;}
	.st455{display:inline;fill:#D6D3D3;}
	.st456{display:inline;fill:#FF5D5D;}
	.st457{display:inline;opacity:0.1;fill:#EAECF1;}
	.st458{clip-path:url(#SVGID_00000000197905811190665020000017450878767642399618_);}
	.st459{clip-path:url(#SVGID_00000055693713422891499160000011614376644610087324_);}
	.st460{opacity:0.1;clip-path:url(#SVGID_00000125562011127577999730000009432890631375446426_);fill:#041D36;}
	.st461{opacity:0.1;clip-path:url(#SVGID_00000149360778590655874120000004047540993744181899_);fill:#041D36;}
	.st462{display:inline;fill:#06BC35;}
	.st463{display:inline;fill:#FF7700;}
	.st464{clip-path:url(#SVGID_00000052821310013177352610000001435029062445076364_);}
	.st465{clip-path:url(#SVGID_00000003821026706286588700000012004032058773599620_);}
	.st466{clip-path:url(#SVGID_00000041292624520790058050000008522933936449132173_);}
	.st467{clip-path:url(#SVGID_00000102516722618564309990000013526192926629276570_);}
	.st468{clip-path:url(#SVGID_00000132774312778714757560000001331290962165740213_);}
	.st469{filter:url(#Adobe_OpacityMaskFilter_00000106117155456144118590000011055259525108839553_);}
	.st470{mask:url(#SVGID_00000056397861337670278850000006260056934918177172_);}
	.st471{clip-path:url(#SVGID_00000129203006591611654630000003047607221497429914_);fill:#F3F3F3;}
	.st472{filter:url(#Adobe_OpacityMaskFilter_00000094582132580127701460000012170753476913507763_);}
	.st473{mask:url(#SVGID_00000063620614990640836610000013157079628798570686_);}
	.st474{clip-path:url(#SVGID_00000103231615507003484030000014864984385247116970_);fill:#F3F3F3;}
	.st475{filter:url(#Adobe_OpacityMaskFilter_00000065767808876149431700000007957579801057063825_);}
	.st476{mask:url(#SVGID_00000082341936673436623330000011816815611983136686_);}
	.st477{clip-path:url(#SVGID_00000126292162382898067900000000909630009722961039_);fill:#F3F3F3;}
	.st478{opacity:0.1;clip-path:url(#SVGID_00000123426006290685347450000012336293524409203589_);fill:#041D36;}
	.st479{opacity:0.1;clip-path:url(#SVGID_00000082340257672907915260000010760832368448243892_);fill:#041D36;}
	.st480{clip-path:url(#SVGID_00000176035900731429820830000015315565385932555455_);}
	.st481{clip-path:url(#SVGID_00000095340468082990739170000014334735314888298393_);}
	.st482{clip-path:url(#SVGID_00000067197630365227509560000011311702998018223008_);}
	.st483{clip-path:url(#SVGID_00000114761325247677393210000004516724593196128177_);}
	.st484{clip-path:url(#SVGID_00000156563876087526675990000011210056475579127464_);}
	.st485{clip-path:url(#SVGID_00000161605869907993901000000007482000200309337509_);}
	.st486{clip-path:url(#SVGID_00000034073319775049192910000001625206758442875547_);}
	.st487{filter:url(#Adobe_OpacityMaskFilter_00000073723518472254201310000012697173402544241283_);}
	.st488{mask:url(#SVGID_00000121965878960645725970000005772728420039426972_);}
	.st489{clip-path:url(#SVGID_00000152264641774748025660000009868833889908708286_);fill:#F3F3F3;}
	.st490{filter:url(#Adobe_OpacityMaskFilter_00000075842870221789188120000009568065162259700878_);}
	.st491{mask:url(#SVGID_00000049919293184505237850000006650363451549061514_);}
	.st492{clip-path:url(#SVGID_00000155861407773469855600000005029339148156598686_);fill:#F3F3F3;}
	.st493{filter:url(#Adobe_OpacityMaskFilter_00000081614129224622102250000007273149488987379375_);}
	.st494{mask:url(#SVGID_00000047022440209766937370000011791585738995706800_);}
	.st495{clip-path:url(#SVGID_00000055692540917421395900000003946047152164786363_);fill:#F3F3F3;}
	.st496{clip-path:url(#SVGID_00000160875600170592353210000003724655387984587180_);}
	.st497{clip-path:url(#SVGID_00000068666440869611319120000013328264735617054906_);}
	.st498{opacity:0.1;clip-path:url(#SVGID_00000155849732704583995080000010161335905701679802_);fill:#041D36;}
	.st499{opacity:0.1;clip-path:url(#SVGID_00000134969210921393302080000012945226293227076507_);fill:#041D36;}
	.st500{clip-path:url(#SVGID_00000103265498862681367680000005286456305450482854_);}
	.st501{clip-path:url(#SVGID_00000089548490413038888250000013457551531562501814_);}
	.st502{display:none;clip-path:url(#SVGID_00000109711556240571831010000018229596994816955275_);}
	.st503{clip-path:url(#SVGID_00000109711556240571831010000018229596994816955275_);}
	.st504{fill:none;stroke:#FF0013;stroke-miterlimit:10;}
	.st505{opacity:0.63;fill:#FF0013;}
	.st506{opacity:0.75;fill:#FF0013;}
	.st507{display:inline;fill:#BEE2FC;}
</style>
<g id="Layer_1">
	<g>
		<path class="st31" d="M-0.1-0.08h242.03v197.86c0,1.82-1.48,3.3-3.3,3.3H3.2c-1.82,0-3.3-1.48-3.3-3.3V-0.08z"/>
		<g>
			<defs>
				<path id="SVGID_00000126319812892187463240000005845460371649869193_" d="M-0.1-0.08h242.03v197.86c0,1.82-1.48,3.3-3.3,3.3H3.2
					c-1.82,0-3.3-1.48-3.3-3.3V-0.08z"/>
			</defs>
			<clipPath id="SVGID_00000118395904402119439250000012742174030164436635_">
				<use xlink:href="#SVGID_00000126319812892187463240000005845460371649869193_"  style="overflow:visible;"/>
			</clipPath>
			<g style="display:none;clip-path:url(#SVGID_00000118395904402119439250000012742174030164436635_);">
				<rect x="-16.22" y="44.56" class="st33" width="266.09" height="156.52"/>
				<g class="st34">
					<g>
						<polygon class="st35" points="104.87,68.5 83.73,68.5 74.39,90.94 95.53,90.94 						"/>
						<polygon class="st35" points="107.02,68.5 97.68,90.94 118.82,90.94 128.16,68.5 						"/>
						<polygon class="st35" points="94.79,92.7 73.66,92.7 60.2,125.03 81.34,125.03 						"/>
						<polygon class="st35" points="83.49,125.03 104.63,125.03 118.08,92.7 96.95,92.7 						"/>
						<polygon class="st35" points="59.42,126.91 45.97,159.24 67.11,159.24 80.56,126.91 						"/>
						<polygon class="st35" points="69.26,159.24 90.4,159.24 103.85,126.91 82.71,126.91 						"/>
					</g>
					<g>
						<polygon class="st35" points="205.46,68.5 184.32,68.5 174.98,90.94 196.12,90.94 						"/>
						<polygon class="st35" points="207.61,68.5 198.27,90.94 219.41,90.94 228.75,68.5 						"/>
						<polygon class="st35" points="195.39,92.7 174.25,92.7 160.8,125.03 181.93,125.03 						"/>
						<polygon class="st35" points="184.08,125.03 205.22,125.03 218.67,92.7 197.54,92.7 						"/>
						<polygon class="st35" points="160.01,126.91 146.56,159.24 167.7,159.24 181.15,126.91 						"/>
						<polygon class="st35" points="169.85,159.24 190.99,159.24 204.44,126.91 183.3,126.91 						"/>
					</g>
				</g>
				<g class="st34">
					<g>
						
							<rect x="152.01" y="78.26" transform="matrix(-1.836970e-16 1 -1 -1.836970e-16 268.1365 -79.9854)" class="st36" width="44.1" height="31.62"/>
						
							<rect x="153.41" y="79.76" transform="matrix(-1.836970e-16 1 -1 -1.836970e-16 268.1365 -79.9854)" class="st1" width="41.3" height="28.63"/>
						
							<rect x="162.84" y="86.3" transform="matrix(-1.836970e-16 1 -1 -1.836970e-16 268.1365 -79.9854)" class="st37" width="22.43" height="15.55"/>
						<g>
							<path class="st38" d="M163.21,101.08c0,4.19,3.41,7.59,7.59,7.59c2.63,0,4.95-1.34,6.31-3.38h-10.83V94.98
								C164.42,96.37,163.21,98.58,163.21,101.08z"/>
							<polygon class="st38" points="181.84,91.49 181.84,93.84 183.39,92.91 							"/>
							<path class="st37" d="M177.11,105.29c0.81-1.21,1.28-2.66,1.28-4.21c0-1.53-0.46-2.96-1.24-4.15l-6.55,3.93l2.03-7.14
								c-0.59-0.15-1.2-0.23-1.84-0.23c-1.69,0-3.26,0.56-4.52,1.5v10.31H177.11z"/>
							<rect x="170.66" y="86.57" class="st37" width="1.14" height="1.14"/>
							<rect x="168.56" y="84.47" class="st37" width="1.86" height="1.86"/>
							<path class="st37" d="M172.7,93.49l0.43-1.52h-2.24v-1.09h2.55l1.66-5.83l6.73,6.14v-8.32h-15.55v11.84
								c1.28-0.91,2.84-1.44,4.52-1.44C171.46,93.25,172.1,93.33,172.7,93.49z M168.33,86.57v-2.33h2.33v2.1h1.37v1.6h-1.6v-1.37
								H168.33z"/>
							<path class="st37" d="M181.84,94.11l-4.48,2.69c0.81,1.23,1.28,2.7,1.28,4.27c0,1.55-0.46,3-1.24,4.21h4.44V94.11z
								 M180.78,103.27h-1.41v-1.41h1.41V103.27z"/>
							<path class="st37" d="M175.23,85.47l-1.54,5.41h5.49v1.09h-5.8l-0.45,1.58c1.76,0.5,3.27,1.6,4.29,3.06l4.61-2.77v-2.34
								L175.23,85.47z"/>
							<rect x="179.6" y="102.09" class="st37" width="0.94" height="0.94"/>
							<polygon class="st37" points="178.95,91.11 173.63,91.11 173.45,91.73 178.95,91.73 							"/>
							<polygon class="st37" points="173.38,91.11 171.13,91.11 171.13,91.73 173.2,91.73 							"/>
							<path class="st37" d="M172.87,93.77l-1.87,6.57l6.02-3.62C176.03,95.32,174.57,94.26,172.87,93.77z"/>
							<polygon class="st1" points="183.39,92.91 181.84,93.84 181.84,94.11 183.78,92.95 181.84,91.18 181.84,91.49 							"/>
							<path class="st1" d="M177.35,96.8l4.48-2.69v-0.27l-4.61,2.77c-1.02-1.46-2.53-2.56-4.29-3.06l0.45-1.58h5.8v-1.09h-5.49
								l1.54-5.41l6.61,6.02v-0.32l-6.73-6.14l-1.66,5.83h-2.55v1.09h2.24l-0.43,1.52c-0.61-0.15-1.25-0.23-1.9-0.23
								c-1.68,0-3.24,0.54-4.52,1.44v0.29c1.26-0.94,2.83-1.5,4.52-1.5c0.63,0,1.25,0.08,1.84,0.23l-2.03,7.14l6.55-3.93
								c0.78,1.19,1.24,2.62,1.24,4.15c0,1.56-0.47,3.01-1.28,4.21h0.28c0.78-1.22,1.24-2.66,1.24-4.21
								C178.63,99.5,178.16,98.03,177.35,96.8z M173.63,91.11h5.32v0.62h-5.5L173.63,91.11z M171.13,91.73v-0.62h2.25l-0.18,0.62
								H171.13z M171,100.35l1.87-6.57c1.7,0.48,3.16,1.54,4.15,2.96L171,100.35z"/>
							<path class="st1" d="M179.37,103.27h1.41v-1.41h-1.41V103.27z M179.6,102.09h0.94v0.94h-0.94V102.09z"/>
							<path class="st1" d="M172.03,87.94v-1.6h-1.37v-2.1h-2.33v2.33h2.1v1.37H172.03z M170.66,86.57h1.14v1.14h-1.14V86.57z
								 M168.56,86.34v-1.86h1.86v1.86H168.56z"/>
						</g>
					</g>
					<g>
						<g>
							<path class="st1" d="M58.65,70.41c-1.48,0-2.69-1.21-2.69-2.69c0-1.48,1.21-2.69,2.69-2.69c1.48,0,2.69,1.21,2.69,2.69
								C61.34,69.21,60.13,70.41,58.65,70.41z M58.65,65.27c-1.35,0-2.45,1.1-2.45,2.45c0,1.35,1.1,2.45,2.45,2.45
								c1.35,0,2.45-1.1,2.45-2.45C61.1,66.37,60,65.27,58.65,65.27z"/>
							<path class="st36" d="M58.65,67.72L58.65,67.72c-0.63,0-1.15-0.52-1.15-1.15v-3.46c0-0.63,0.52-1.15,1.15-1.15l0,0
								c0.63,0,1.15,0.52,1.15,1.15v3.46C59.8,67.2,59.28,67.72,58.65,67.72z"/>
							<path class="st1" d="M79.91,68.53c-6.29-2.41-13.54-3.79-21.27-3.79s-14.98,1.38-21.27,3.79H79.91z"/>
							<rect x="58.53" y="-1.41" class="st39" width="0.23" height="63.37"/>
						</g>
						<g>
							<g>
								<path class="st40" d="M100.35,113.09c0,0,3.73-2.75,2.05-4.22c-3.96-3.3-14.19,7.98-13.92,9.16
									c0.26,1.18,12.68,3.44,14.81-2.25C104.65,112.29,100.35,113.09,100.35,113.09z"/>
								<path class="st41" d="M100.35,113.09c0,0-3.12,0.25-11.88,4.94c0.26,1.18,12.68,3.44,14.81-2.25
									C104.65,112.29,100.35,113.09,100.35,113.09z"/>
								<path class="st42" d="M92.53,116.07l-0.1-0.21c9.36-4.55,15.28-4.61,17.62-0.2l-0.21,0.11
									C107.58,111.49,101.75,111.59,92.53,116.07z"/>
								<path class="st42" d="M88.96,117.93l-0.11-0.21c0.74-0.41,1.47-0.8,2.16-1.16l0.11,0.21
									C90.43,117.13,89.7,117.52,88.96,117.93z"/>
								<path class="st43" d="M114.74,115.1h-3.21h-3.21c0,0-4.39,18.25-4,20.85c0.39,2.61,2,4,2,4h5.21h5.21c0,0,1.61-1.39,2-4
									C119.13,133.35,114.74,115.1,114.74,115.1z"/>
								<rect x="108.1" y="115.85" class="st39" width="6.85" height="0.23"/>
								<rect x="104.29" y="135.62" class="st39" width="14.44" height="0.23"/>
								<g>
									<rect x="103" y="139.96" class="st36" width="17.04" height="2.7"/>
									<g>
										
											<rect x="86.09" y="159.82" transform="matrix(0.0495 -0.9988 0.9988 0.0495 -60.8088 255.9727)" class="st39" width="35.98" height="0.23"/>
										
											<rect x="118.85" y="141.94" transform="matrix(0.9987 -0.0503 0.0503 0.9987 -7.8986 6.1902)" class="st39" width="0.24" height="35.98"/>
									</g>
									<rect x="103.54" y="170.54" class="st39" width="15.97" height="0.23"/>
									<rect x="103.8" y="165.32" class="st39" width="15.44" height="0.23"/>
								</g>
								<path class="st40" d="M123.62,116.79c0,0-3.7-2.79-4.63-0.76c-2.03,4.73,8.92,13.25,9.97,12.66
									c1.05-0.59,2.46-15.05-3.6-15.47C121.63,112.89,123.62,116.79,123.62,116.79z"/>
								<path class="st41" d="M123.62,116.79c0,0-3.7-2.79-4.63-0.76c-2.03,4.73,8.92,13.25,9.97,12.66
									C128.66,125.91,125.5,117.94,123.62,116.79z"/>
								<path class="st41" d="M109.26,104.64c0,0,0.18,3.71-2.79,3.36c-2.96-0.36-0.61-11.01-0.61-11.01s9.57,5.58,7,8.01
									C111.05,106.95,109.26,104.64,109.26,104.64z"/>
								<path class="st40" d="M109.26,104.64l-3.39-7.65c0,0,9.57,5.58,7,8.01C111.05,106.95,109.26,104.64,109.26,104.64z"/>
								<path class="st40" d="M115.74,107.89c2.62-3.41,7.19-5.45,12.5-7.22c0,0-2.48,8.32-5.73,9.48
									C119.33,111.06,115.74,107.89,115.74,107.89z"/>
								<path class="st40" d="M104.47,104.71c0,0-4.66-5.22-8.07-7.73c0,0,0.65,6.15,2.72,7.74
									C101.2,106.12,104.47,104.71,104.47,104.71z"/>
								<path class="st42" d="M114.23,109.94l-0.2-0.12c2.86-4.68,8.5-7.21,14.17-9.25l0.08,0.22
									C122.64,102.81,117.04,105.32,114.23,109.94z"/>
								<path class="st42" d="M112.44,115.12l-0.23-0.03c0.19-1.51,0.62-2.94,1.25-4.24l0.21,0.1
									C113.04,112.23,112.63,113.63,112.44,115.12z"/>
								<path class="st42" d="M111.41,115.11c-0.56-7-3.18-13.26-5.29-17.28l0.21-0.11c2.11,4.04,4.75,10.33,5.31,17.37
									L111.41,115.11z"/>
								<path class="st42" d="M128.57,127.97c-0.16-0.79-0.35-1.58-0.56-2.32l0.23-0.06c0.21,0.75,0.4,1.54,0.56,2.34L128.57,127.97
									z"/>
								<path class="st42" d="M127.41,123.71c-2.11-6.07-5.9-10.27-9.66-10.69c-1.81-0.2-3.36,0.56-4.35,2.14l-0.2-0.12
									c1.04-1.67,2.66-2.47,4.57-2.25c3.84,0.43,7.71,4.68,9.85,10.84L127.41,123.71z"/>
								<path class="st40" d="M106.18,119.33c0,0,0.78-3.07-1.23-2.61c-4.61,1.18-2.31,12.68-1.29,13.12
									c1.03,0.44,10.05-5.39,6.94-10.05C108.74,116.88,106.18,119.33,106.18,119.33z"/>
								<path class="st41" d="M106.18,119.33c0,0-2.04,6.49-2.51,10.51c1.03,0.44,10.05-5.39,6.94-10.05
									C108.74,116.88,106.18,119.33,106.18,119.33z"/>
								<path class="st42" d="M110.54,115.15c-1.92-4.68-4.69-8.97-8.25-12.74l0.17-0.16c3.58,3.79,6.37,8.1,8.3,12.81
									L110.54,115.15z"/>
								<path class="st42" d="M101.13,101.23c-1.47-1.45-3.09-2.84-4.81-4.15l0.14-0.19c1.73,1.31,3.36,2.72,4.83,4.17
									L101.13,101.23z"/>
								<path class="st42" d="M103.97,128.59l-0.23-0.04c0.1-0.59,2.6-14.41,6.15-15.31c0.59-0.08,1.07,0.04,1.45,0.34
									c0.67,0.54,0.76,1.47,0.76,1.51l-0.23,0.02c0-0.01-0.08-0.88-0.67-1.35c-0.32-0.26-0.75-0.36-1.25-0.29
									C106.54,114.33,103.99,128.45,103.97,128.59z"/>
							</g>
							<g>
								<g>
									<path class="st39" d="M213.43,178.02h-2.59l-0.02-0.09l-2.19-9.77h3.59L213.43,178.02z M211.04,177.79h2.13l-1.15-9.4
										h-3.09L211.04,177.79z"/>
									<path class="st39" d="M137.27,178.02h-2.59l1.21-9.87h3.59L137.27,178.02z M134.95,177.79h2.13l2.11-9.4h-3.09
										L134.95,177.79z"/>
								</g>
								<g>
									<path class="st1" d="M206.27,178.02h-2.59l-0.02-0.09l-2.19-9.77h3.59L206.27,178.02z M203.88,177.79h2.13l-1.15-9.4h-3.09
										L203.88,177.79z"/>
									<path class="st1" d="M144.43,178.02h-2.59l1.21-9.87h3.59L144.43,178.02z M142.11,177.79h2.13l2.11-9.4h-3.09
										L142.11,177.79z"/>
								</g>
								<polygon class="st44" points="142.55,152.98 205.5,152.98 208.36,152.75 213.44,154.16 215.12,157.15 216.38,163.33 
									214.75,166.48 146.05,167.26 131.22,164.64 131.74,158.83 135.13,153.95 139.19,151.96 								"/>
								<polygon class="st45" points="215.12,157.15 215.12,157.15 213.44,154.16 208.36,152.75 205.5,152.98 142.55,152.98 
									139.19,151.96 135.13,153.95 132.91,157.15 								"/>
								<path class="st46" d="M123.11,148.61l9.02-2.84c0.77-0.25,1.2-0.74,1.42-1.56l2.71-10.86c0.32-1.27,1.1-1.94,2.36-1.99h4.11
									l-2.1,11.67l-7.27,6.45h-4.4h-3.38L123.11,148.61z"/>
								<path class="st46" d="M225.02,148.61l-9.02-2.84c-0.77-0.25-1.2-0.74-1.42-1.56l-2.71-10.86c-0.32-1.27-1.1-1.94-2.36-1.99
									h-4.11l2.1,11.67l7.27,6.45h4.4h3.38L225.02,148.61z"/>
								<path class="st46" d="M135.5,163.65v-6.15c0.01-0.87,0.36-1.66,1.16-2.06l5.89-0.89c1.06-4.64-2.27-8.83-6.17-8.49
									l-8.87,2.58l-0.4,5.65l1.31,4.38l3.25,4.32l3.26,1.19L135.5,163.65z"/>
								<path class="st46" d="M212.56,163.65v-6.15c-0.01-0.87-0.36-1.66-1.16-2.06l-5.89-0.89c-1.06-4.64,2.27-8.83,6.17-8.49
									l8.87,2.58l0.98,2.92l-2.52,4.99c0,0-1.3,5.39-1.3,5.54c0,0.16-0.9,3.73-0.9,3.73h-3.4L212.56,163.65z"/>
								<path class="st44" d="M208.43,133.49c-0.41-1.37-1.38-2.13-2.89-2.13h-62.94c-1.52,0-2.48,0.76-2.89,2.13l-3.23,13.64
									l6.09,7.42h62.95l6.15-7.42L208.43,133.49z"/>
								<path class="st36" d="M224.62,148.54h-3.24c-0.64,0-1.05,0.03-1.37,0.86l-5.83,13.02c-0.51,0.89-1.2,1.39-2.52,1.42h-44.5
									h-30.7c-1.32-0.03-2-0.52-2.52-1.42l-5.83-13.02c-0.32-0.83-0.74-0.86-1.37-0.86h-3.24c-0.67,0-0.96,0.52-0.77,1.07
									l6.85,18.35c0.38,0.94,1.42,1.81,2.87,1.81h34.71h48.51c1.44,0,2.49-0.86,2.87-1.81l6.85-18.35
									C225.58,149.06,225.29,148.54,224.62,148.54z"/>
								<rect x="136.85" y="157.03" class="st39" width="74.18" height="0.23"/>
								
									<rect x="127.36" y="147.51" transform="matrix(0.9604 -0.2785 0.2785 0.9604 -35.932 42.3316)" class="st39" width="7.3" height="0.23"/>
								
									<rect x="216.8" y="143.97" transform="matrix(0.2792 -0.9602 0.9602 0.2792 14.6074 314.7064)" class="st39" width="0.23" height="7.3"/>
								<g>
									<path class="st43" d="M207.74,140.2c3.32-0.92,10.36,0.91,11.07,2.67c0.72,1.76-5.55,13.2-8.6,13.71
										c-3.05,0.51-11.58-1.65-11.58-3.33C198.87,149.32,204.42,141.12,207.74,140.2z"/>
									<path class="st39" d="M209.46,156.23c-0.46-1.39,1.52-5.88,3.66-9.2c0.87-1.35,3.07-4.52,4.74-4.7l0.03,0.23
										c-1.1,0.12-2.77,1.8-4.56,4.6c-2.32,3.62-4.02,7.83-3.63,9L209.46,156.23z"/>
								</g>
							</g>
							<g>
								<g>
									<rect x="60.84" y="145.54" class="st1" width="5.45" height="10.69"/>
									<rect x="67.99" y="143.03" class="st1" width="5.45" height="13.2"/>
									<rect x="64.49" y="148.2" class="st35" width="5.45" height="8.03"/>
									<rect x="63.45" y="144.87" class="st39" width="0.23" height="0.67"/>
									<rect x="70.59" y="142.37" class="st39" width="0.23" height="0.67"/>
									<rect x="67.1" y="147.53" class="st39" width="0.23" height="0.67"/>
									<rect x="58.65" y="156.23" class="st46" width="17.62" height="0.76"/>
								</g>
								<g>
									<path class="st44" d="M84.59,155.63v-1.56c0-0.75,0.61-1.36,1.36-1.36h-5.33c-0.75,0-1.36,0.61-1.36,1.36v1.56
										c0,0.75,0.61,1.36,1.36,1.36h5.33C85.2,156.99,84.59,156.38,84.59,155.63z"/>
									<path class="st46" d="M85.95,152.71c-0.75,0-1.36,0.61-1.36,1.36v1.56c0,0.75,0.61,1.36,1.36,1.36h10.12v-4.28H85.95z"/>
									<path class="st1" d="M86.05,153.11c-0.61,0-1.11,0.5-1.11,1.11v1.27c0,0.61,0.5,1.11,1.11,1.11h10.02v-3.48H86.05z"/>
									<rect x="87.26" y="153.52" class="st44" width="8.3" height="0.23"/>
									<rect x="88.69" y="154.93" class="st44" width="7.38" height="0.23"/>
									<rect x="86.49" y="154.93" class="st44" width="1.18" height="0.23"/>
									<rect x="87.05" y="155.8" class="st44" width="6.17" height="0.23"/>
								</g>
								<g>
									<g>
										<path class="st39" d="M89.63,178.02h-1.04l-3.86-19.84h2.01L89.63,178.02z M88.78,177.79h0.57l-2.81-19.37h-1.52
											L88.78,177.79z"/>
										<path class="st39" d="M63.58,178.02h-1.04l2.88-19.84h2.01L63.58,178.02z M62.81,177.79h0.57l3.76-19.37h-1.52
											L62.81,177.79z"/>
									</g>
									<path class="st1" d="M76.6,178.02h-1.02l-0.49-19.84h1.98l0,0.12L76.6,178.02z M75.81,177.79h0.56l0.46-19.37h-1.5
										L75.81,177.79z"/>
									<rect x="54.34" y="156.99" class="st36" width="43.48" height="1.94"/>
								</g>
							</g>
							<g>
								<g>
									<path class="st39" d="M42.62,178.02h-2.59l-2.21-9.87h3.59L42.62,178.02z M40.23,177.79h2.13l-1.15-9.4h-3.09L40.23,177.79
										z"/>
									<path class="st39" d="M11.39,178.02H8.8l1.21-9.87h3.59L11.39,178.02z M9.07,177.79h2.13l2.11-9.4h-3.09L9.07,177.79z"/>
								</g>
								<g>
									<path class="st1" d="M35.46,178.02h-2.59l-2.21-9.87h3.59L35.46,178.02z M33.07,177.79h2.13l-1.15-9.4h-3.09L33.07,177.79z
										"/>
									<path class="st1" d="M18.55,178.02h-2.59l1.21-9.87h3.59L18.55,178.02z M16.23,177.79h2.13l2.11-9.4h-3.09L16.23,177.79z"
										/>
								</g>
								<polygon class="st44" points="16.67,152.98 34.69,152.98 37.55,152.75 42.63,154.16 44.31,157.15 45.57,163.33 
									43.94,166.48 20.17,167.26 5.34,164.64 5.86,158.83 9.25,153.95 13.3,151.96 								"/>
								<polygon class="st45" points="44.31,157.15 44.31,157.15 42.63,154.16 37.55,152.75 34.69,152.98 16.67,152.98 13.3,151.96 
									9.25,153.95 7.02,157.15 								"/>
								<path class="st46" d="M-1.23,148.61l7.49-2.84c0.77-0.25,1.2-0.74,1.42-1.56l2.71-10.86c0.32-1.27,1.1-1.94,2.36-1.99h4.11
									l-2.1,11.67l-7.27,6.45H4.61H1.23L-1.23,148.61z"/>
								<path class="st46" d="M52.67,148.61l-7.49-2.84c-0.77-0.25-1.2-0.74-1.42-1.56l-2.71-10.86c-0.32-1.27-1.1-1.94-2.36-1.99
									h-4.11l2.1,11.67l7.27,6.45h2.86h3.38L52.67,148.61z"/>
								<path class="st46" d="M9.61,163.65v-6.15c0.01-0.87,0.36-1.66,1.16-2.06l5.89-0.89c1.06-4.64-2.27-8.83-6.17-8.49
									l-7.33,2.58l-1.94,5.65l1.31,4.38l3.25,4.32l3.26,1.19L9.61,163.65z"/>
								<path class="st46" d="M41.75,163.65v-6.15c-0.01-0.87-0.36-1.66-1.16-2.06l-5.89-0.89c-1.06-4.64,2.27-8.83,6.17-8.49
									l7.33,2.58l0.98,2.92l-0.98,4.99c0,0-1.3,5.39-1.3,5.54c0,0.16-0.9,3.73-0.9,3.73h-3.4L41.75,163.65z"/>
								<path class="st44" d="M37.62,133.49c-0.41-1.37-1.38-2.13-2.89-2.13H16.71c-1.52,0-2.48,0.76-2.89,2.13l-3.23,13.64
									l6.09,7.42h18.02l6.15-7.42L37.62,133.49z"/>
								<path class="st36" d="M52.27,148.54h-3.24c-0.64,0-1.05,0.03-1.37,0.86l-4.3,13.02c-0.51,0.89-1.2,1.39-2.52,1.42h0.43
									h-30.7c-1.32-0.03-2-0.52-2.52-1.42l-4.3-13.02c-0.32-0.83-0.74-0.86-1.37-0.86h-3.24c-0.67,0-0.96,0.52-0.77,1.07
									l5.31,18.35c0.38,0.94,1.42,1.81,2.87,1.81h34.71h3.58c1.44,0,2.49-0.86,2.87-1.81l5.31-18.35
									C53.23,149.06,52.94,148.54,52.27,148.54z"/>
								<rect x="10.97" y="157.03" class="st39" width="29.25" height="0.23"/>
								
									<rect x="2.98" y="147.51" transform="matrix(0.9372 -0.3488 0.3488 0.9372 -51.1248 11.3311)" class="st39" width="5.84" height="0.23"/>
								
									<rect x="45.22" y="144.7" transform="matrix(0.3491 -0.9371 0.9371 0.3491 -108.8235 138.5779)" class="st39" width="0.23" height="5.84"/>
							</g>
							<g>
								<rect x="228.4" y="85.19" class="st39" width="0.23" height="90.23"/>
								<rect x="222.34" y="175.42" class="st36" width="12.58" height="2.49"/>
								<rect x="221.67" y="60.25" class="st43" width="13.69" height="49.89"/>
								<rect x="224.91" y="110.13" class="st1" width="0.23" height="12.63"/>
								<path class="st36" d="M225.03,126.03L225.03,126.03c-0.12,0-0.22-0.1-0.22-0.22v-3.28c0-0.12,0.1-0.22,0.22-0.22l0,0
									c0.12,0,0.22,0.1,0.22,0.22v3.28C225.25,125.93,225.15,126.03,225.03,126.03z"/>
								<rect x="221.67" y="106.35" class="st39" width="13.69" height="0.23"/>
								<rect x="221.67" y="63.89" class="st39" width="13.69" height="0.23"/>
							</g>
						</g>
						<g>
							<g>
								<rect x="33.21" y="102.99" class="st44" width="16.36" height="3.04"/>
								<rect x="32.65" y="106.03" class="st36" width="18.06" height="1.51"/>
								<g>
									<g>
										<rect x="35.04" y="102.99" class="st1" width="0.23" height="3.04"/>
										<rect x="36" y="102.99" class="st1" width="0.23" height="3.04"/>
									</g>
									<g>
										<rect x="46.54" y="102.99" class="st1" width="0.23" height="3.04"/>
										<rect x="47.5" y="102.99" class="st1" width="0.23" height="3.04"/>
									</g>
								</g>
							</g>
							<g>
								<path class="st43" d="M14.75,105.68c0.83,0.88,1.93,1.51,3.16,1.77h2.45c1.23-0.25,2.32-0.89,3.16-1.77H14.75z"/>
								<path class="st1" d="M17.91,107.56c-2.86-0.59-4.93-3.12-4.93-6.03c0-2.11,1.06-4.05,2.85-5.19l0.03-0.02h6.55l0.03,0.02
									c1.78,1.14,2.85,3.08,2.85,5.19c0,2.9-2.06,5.44-4.9,6.02L17.91,107.56z M15.93,96.57c-1.7,1.1-2.71,2.95-2.71,4.97
									c0,2.79,1.98,5.23,4.72,5.79l2.43,0c2.71-0.56,4.69-3,4.69-5.79c0-2.02-1.01-3.88-2.71-4.97H15.93z"/>
								<path class="st1" d="M13.98,101.59h-0.23c0-1.21,0.39-2.36,1.14-3.31l0.18,0.14C14.35,99.33,13.98,100.43,13.98,101.59z"/>
								<path class="st1" d="M15.61,97.83l-0.16-0.17c0.24-0.23,0.51-0.44,0.79-0.62l0.13,0.2C16.09,97.41,15.84,97.61,15.61,97.83z
									"/>
								<path class="st40" d="M17.67,105.68c-1.64-0.58-2.61-1.65-3.62-3.17c1.45,0.25,2.76,0.75,3.75,1.81
									c-0.94-1.27-1.45-3.05-1.78-5.05c1.39,1.37,2.49,2.85,2.96,4.56c-0.08-2.06,0.49-4.14,1.37-6.23
									c0.38,2.31,0.46,4.46-0.06,6.34c0.53-1.31,1.57-2.38,2.94-3.29c-0.53,1.5-1.13,2.75-1.86,3.51
									c0.62-0.73,1.53-1.19,2.55-1.55c-0.91,1.47-2.13,2.55-3.41,3.07H17.67z"/>
								<path class="st42" d="M18.25,105.7c-0.12-0.72-0.53-1.31-0.54-1.31l0.19-0.14c0.02,0.03,0.45,0.63,0.58,1.41L18.25,105.7z"
									/>
								<path class="st42" d="M19.21,105.72c-0.18-0.56-0.33-1.82-0.34-1.87l0.23-0.03c0,0.01,0.16,1.29,0.33,1.83L19.21,105.72z"/>
								<path class="st42" d="M19.78,105.74l-0.21-0.11c0.33-0.6,0.52-1.16,0.6-1.7l0.23,0.03
									C20.33,104.52,20.12,105.11,19.78,105.74z"/>
								<path class="st42" d="M20.2,105.74l-0.2-0.12c0.38-0.63,1.24-1.51,1.28-1.55l0.17,0.16
									C21.44,104.25,20.57,105.13,20.2,105.74z"/>
							</g>
							<g>
								<path class="st1" d="M11.81,113.96H9.97v-5.89h1.84V113.96z M10.21,113.73h1.37v-5.42h-1.37V113.73z"/>
								<path class="st1" d="M59.01,113.96h-1.84v-5.89h1.84V113.96z M57.41,113.73h1.37v-5.42h-1.37V113.73z"/>
							</g>
							<rect x="7.45" y="107.54" class="st1" width="54.09" height="1.3"/>
						</g>
						<g>
							<g>
								<path class="st1" d="M11.81,95.15H9.97v-5.89h1.84V95.15z M10.21,94.91h1.37v-5.42h-1.37V94.91z"/>
								<path class="st1" d="M59.01,95.15h-1.84v-5.89h1.84V95.15z M57.41,94.91h1.37v-5.42h-1.37V94.91z"/>
							</g>
							<rect x="7.45" y="88.72" class="st1" width="54.09" height="1.3"/>
							<g>
								<rect x="13.61" y="84.33" class="st43" width="16.36" height="3.02"/>
								<g>
									<g>
										<rect x="15.31" y="84.33" class="st1" width="0.23" height="3.02"/>
										<rect x="15.96" y="84.33" class="st1" width="0.23" height="3.02"/>
									</g>
									<g>
										<rect x="27.38" y="84.33" class="st1" width="0.23" height="3.02"/>
										<rect x="28.03" y="84.33" class="st1" width="0.23" height="3.02"/>
									</g>
								</g>
							</g>
							<g>
								<rect x="38.48" y="86.53" class="st43" width="17.35" height="2.19"/>
							</g>
							<rect x="12.29" y="87.35" class="st36" width="19.61" height="1.37"/>
							<rect x="12.63" y="81.71" class="st1" width="19.7" height="2.62"/>
						</g>
					</g>
				</g>
				<g class="st34">
					<path class="st43" d="M13.48,140.09c-3.3-1.02-10.38,0.6-11.15,2.34s5.16,13.36,8.19,13.96c3.03,0.6,11.62-1.31,11.67-2.99
						C22.07,149.46,16.77,141.1,13.48,140.09z"/>
					<path class="st39" d="M11.29,156.06l-0.22-0.08c0.42-1.17-1.15-5.42-3.36-9.11c-1.72-2.85-3.33-4.58-4.43-4.73l0.03-0.23
						c1.66,0.23,3.77,3.46,4.59,4.84C9.94,150.14,11.79,154.68,11.29,156.06z"/>
				</g>
				<rect x="-9.9" y="177.79" class="st47" width="253.45" height="0.23"/>
			</g>
			<g style="clip-path:url(#SVGID_00000118395904402119439250000012742174030164436635_);">
				<rect x="-16.22" y="44.56" class="st31" width="266.09" height="156.52"/>
				<g>
					<g>
						<polygon class="st49" points="104.87,68.5 83.73,68.5 74.39,90.94 95.53,90.94 						"/>
						<polygon class="st49" points="107.02,68.5 97.68,90.94 118.82,90.94 128.16,68.5 						"/>
						<polygon class="st49" points="94.79,92.7 73.66,92.7 60.2,125.03 81.34,125.03 						"/>
						<polygon class="st49" points="83.49,125.03 104.63,125.03 118.08,92.7 96.95,92.7 						"/>
						<polygon class="st49" points="59.42,126.91 45.97,159.24 67.11,159.24 80.56,126.91 						"/>
						<polygon class="st49" points="69.26,159.24 90.4,159.24 103.85,126.91 82.71,126.91 						"/>
					</g>
					<g>
						<polygon class="st49" points="205.46,68.5 184.32,68.5 174.98,90.94 196.12,90.94 						"/>
						<polygon class="st49" points="207.61,68.5 198.27,90.94 219.41,90.94 228.75,68.5 						"/>
						<polygon class="st49" points="195.39,92.7 174.25,92.7 160.8,125.03 181.93,125.03 						"/>
						<polygon class="st49" points="184.08,125.03 205.22,125.03 218.67,92.7 197.54,92.7 						"/>
						<polygon class="st49" points="160.01,126.91 146.56,159.24 167.7,159.24 181.15,126.91 						"/>
						<polygon class="st49" points="169.85,159.24 190.99,159.24 204.44,126.91 183.3,126.91 						"/>
					</g>
				</g>
				<g>
					<g>
						
							<rect x="152.01" y="78.26" transform="matrix(-1.836970e-16 1 -1 -1.836970e-16 268.1365 -79.9854)" class="st50" width="44.1" height="31.62"/>
						
							<rect x="153.41" y="79.76" transform="matrix(-1.836970e-16 1 -1 -1.836970e-16 268.1365 -79.9854)" class="st1" width="41.3" height="28.63"/>
						
							<rect x="162.84" y="86.3" transform="matrix(-1.836970e-16 1 -1 -1.836970e-16 268.1365 -79.9854)" class="st51" width="22.43" height="15.55"/>
						<g>
							<path class="st38" d="M163.21,101.08c0,4.19,3.41,7.59,7.59,7.59c2.63,0,4.95-1.34,6.31-3.38h-10.83V94.98
								C164.42,96.37,163.21,98.58,163.21,101.08z"/>
							<polygon class="st38" points="181.84,91.49 181.84,93.84 183.39,92.91 							"/>
							<path class="st51" d="M177.11,105.29c0.81-1.21,1.28-2.66,1.28-4.21c0-1.53-0.46-2.96-1.24-4.15l-6.55,3.93l2.03-7.14
								c-0.59-0.15-1.2-0.23-1.84-0.23c-1.69,0-3.26,0.56-4.52,1.5v10.31H177.11z"/>
							<rect x="170.66" y="86.57" class="st51" width="1.14" height="1.14"/>
							<rect x="168.56" y="84.47" class="st51" width="1.86" height="1.86"/>
							<path class="st51" d="M172.7,93.49l0.43-1.52h-2.24v-1.09h2.55l1.66-5.83l6.73,6.14v-8.32h-15.55v11.84
								c1.28-0.91,2.84-1.44,4.52-1.44C171.46,93.25,172.1,93.33,172.7,93.49z M168.33,86.57v-2.33h2.33v2.1h1.37v1.6h-1.6v-1.37
								H168.33z"/>
							<path class="st51" d="M181.84,94.11l-4.48,2.69c0.81,1.23,1.28,2.7,1.28,4.27c0,1.55-0.46,3-1.24,4.21h4.44V94.11z
								 M180.78,103.27h-1.41v-1.41h1.41V103.27z"/>
							<path class="st51" d="M175.23,85.47l-1.54,5.41h5.49v1.09h-5.8l-0.45,1.58c1.76,0.5,3.27,1.6,4.29,3.06l4.61-2.77v-2.34
								L175.23,85.47z"/>
							<rect x="179.6" y="102.09" class="st51" width="0.94" height="0.94"/>
							<polygon class="st51" points="178.95,91.11 173.63,91.11 173.45,91.73 178.95,91.73 							"/>
							<polygon class="st51" points="173.38,91.11 171.13,91.11 171.13,91.73 173.2,91.73 							"/>
							<path class="st51" d="M172.87,93.77l-1.87,6.57l6.02-3.62C176.03,95.32,174.57,94.26,172.87,93.77z"/>
							<polygon class="st1" points="183.39,92.91 181.84,93.84 181.84,94.11 183.78,92.95 181.84,91.18 181.84,91.49 							"/>
							<path class="st1" d="M177.35,96.8l4.48-2.69v-0.27l-4.61,2.77c-1.02-1.46-2.53-2.56-4.29-3.06l0.45-1.58h5.8v-1.09h-5.49
								l1.54-5.41l6.61,6.02v-0.32l-6.73-6.14l-1.66,5.83h-2.55v1.09h2.24l-0.43,1.52c-0.61-0.15-1.25-0.23-1.9-0.23
								c-1.68,0-3.24,0.54-4.52,1.44v0.29c1.26-0.94,2.83-1.5,4.52-1.5c0.63,0,1.25,0.08,1.84,0.23l-2.03,7.14l6.55-3.93
								c0.78,1.19,1.24,2.62,1.24,4.15c0,1.56-0.47,3.01-1.28,4.21h0.28c0.78-1.22,1.24-2.66,1.24-4.21
								C178.63,99.5,178.16,98.03,177.35,96.8z M173.63,91.11h5.32v0.62h-5.5L173.63,91.11z M171.13,91.73v-0.62h2.25l-0.18,0.62
								H171.13z M171,100.35l1.87-6.57c1.7,0.48,3.16,1.54,4.15,2.96L171,100.35z"/>
							<path class="st1" d="M179.37,103.27h1.41v-1.41h-1.41V103.27z M179.6,102.09h0.94v0.94h-0.94V102.09z"/>
							<path class="st1" d="M172.03,87.94v-1.6h-1.37v-2.1h-2.33v2.33h2.1v1.37H172.03z M170.66,86.57h1.14v1.14h-1.14V86.57z
								 M168.56,86.34v-1.86h1.86v1.86H168.56z"/>
						</g>
					</g>
					<g>
						<g>
							<path class="st1" d="M58.65,70.41c-1.48,0-2.69-1.21-2.69-2.69c0-1.48,1.21-2.69,2.69-2.69c1.48,0,2.69,1.21,2.69,2.69
								C61.34,69.21,60.13,70.41,58.65,70.41z M58.65,65.27c-1.35,0-2.45,1.1-2.45,2.45c0,1.35,1.1,2.45,2.45,2.45
								c1.35,0,2.45-1.1,2.45-2.45C61.1,66.37,60,65.27,58.65,65.27z"/>
							<path class="st50" d="M58.65,67.72L58.65,67.72c-0.63,0-1.15-0.52-1.15-1.15v-3.46c0-0.63,0.52-1.15,1.15-1.15l0,0
								c0.63,0,1.15,0.52,1.15,1.15v3.46C59.8,67.2,59.28,67.72,58.65,67.72z"/>
							<path class="st1" d="M79.91,68.53c-6.29-2.41-13.54-3.79-21.27-3.79s-14.98,1.38-21.27,3.79H79.91z"/>
							<rect x="58.53" y="-1.41" class="st52" width="0.23" height="63.37"/>
						</g>
						<g>
							<g>
								<path class="st53" d="M100.35,113.09c0,0,3.73-2.75,2.05-4.22c-3.96-3.3-14.19,7.98-13.92,9.16
									c0.26,1.18,12.68,3.44,14.81-2.25C104.65,112.29,100.35,113.09,100.35,113.09z"/>
								<path class="st54" d="M100.35,113.09c0,0-3.12,0.25-11.88,4.94c0.26,1.18,12.68,3.44,14.81-2.25
									C104.65,112.29,100.35,113.09,100.35,113.09z"/>
								<path class="st55" d="M92.53,116.07l-0.1-0.21c9.36-4.55,15.28-4.61,17.62-0.2l-0.21,0.11
									C107.58,111.49,101.75,111.59,92.53,116.07z"/>
								<path class="st55" d="M88.96,117.93l-0.11-0.21c0.74-0.41,1.47-0.8,2.16-1.16l0.11,0.21
									C90.43,117.13,89.7,117.52,88.96,117.93z"/>
								<path class="st56" d="M114.74,115.1h-3.21h-3.21c0,0-4.39,18.25-4,20.85c0.39,2.61,2,4,2,4h5.21h5.21c0,0,1.61-1.39,2-4
									C119.13,133.35,114.74,115.1,114.74,115.1z"/>
								<rect x="108.1" y="115.85" class="st52" width="6.85" height="0.23"/>
								<rect x="104.29" y="135.62" class="st52" width="14.44" height="0.23"/>
								<g>
									<rect x="103" y="139.96" class="st50" width="17.04" height="2.7"/>
									<g>
										
											<rect x="86.09" y="159.82" transform="matrix(0.0495 -0.9988 0.9988 0.0495 -60.8088 255.9727)" class="st52" width="35.98" height="0.23"/>
										
											<rect x="118.85" y="141.94" transform="matrix(0.9987 -0.0503 0.0503 0.9987 -7.8986 6.1902)" class="st52" width="0.24" height="35.98"/>
									</g>
									<rect x="103.54" y="170.54" class="st52" width="15.97" height="0.23"/>
									<rect x="103.8" y="165.32" class="st52" width="15.44" height="0.23"/>
								</g>
								<path class="st53" d="M123.62,116.79c0,0-3.7-2.79-4.63-0.76c-2.03,4.73,8.92,13.25,9.97,12.66
									c1.05-0.59,2.46-15.05-3.6-15.47C121.63,112.89,123.62,116.79,123.62,116.79z"/>
								<path class="st54" d="M123.62,116.79c0,0-3.7-2.79-4.63-0.76c-2.03,4.73,8.92,13.25,9.97,12.66
									C128.66,125.91,125.5,117.94,123.62,116.79z"/>
								<path class="st54" d="M109.26,104.64c0,0,0.18,3.71-2.79,3.36c-2.96-0.36-0.61-11.01-0.61-11.01s9.57,5.58,7,8.01
									C111.05,106.95,109.26,104.64,109.26,104.64z"/>
								<path class="st53" d="M109.26,104.64l-3.39-7.65c0,0,9.57,5.58,7,8.01C111.05,106.95,109.26,104.64,109.26,104.64z"/>
								<path class="st53" d="M115.74,107.89c2.62-3.41,7.19-5.45,12.5-7.22c0,0-2.48,8.32-5.73,9.48
									C119.33,111.06,115.74,107.89,115.74,107.89z"/>
								<path class="st53" d="M104.47,104.71c0,0-4.66-5.22-8.07-7.73c0,0,0.65,6.15,2.72,7.74
									C101.2,106.12,104.47,104.71,104.47,104.71z"/>
								<path class="st55" d="M114.23,109.94l-0.2-0.12c2.86-4.68,8.5-7.21,14.17-9.25l0.08,0.22
									C122.64,102.81,117.04,105.32,114.23,109.94z"/>
								<path class="st55" d="M112.44,115.12l-0.23-0.03c0.19-1.51,0.62-2.94,1.25-4.24l0.21,0.1
									C113.04,112.23,112.63,113.63,112.44,115.12z"/>
								<path class="st55" d="M111.41,115.11c-0.56-7-3.18-13.26-5.29-17.28l0.21-0.11c2.11,4.04,4.75,10.33,5.31,17.37
									L111.41,115.11z"/>
								<path class="st55" d="M128.57,127.97c-0.16-0.79-0.35-1.58-0.56-2.32l0.23-0.06c0.21,0.75,0.4,1.54,0.56,2.34L128.57,127.97
									z"/>
								<path class="st55" d="M127.41,123.71c-2.11-6.07-5.9-10.27-9.66-10.69c-1.81-0.2-3.36,0.56-4.35,2.14l-0.2-0.12
									c1.04-1.67,2.66-2.47,4.57-2.25c3.84,0.43,7.71,4.68,9.85,10.84L127.41,123.71z"/>
								<path class="st53" d="M106.18,119.33c0,0,0.78-3.07-1.23-2.61c-4.61,1.18-2.31,12.68-1.29,13.12
									c1.03,0.44,10.05-5.39,6.94-10.05C108.74,116.88,106.18,119.33,106.18,119.33z"/>
								<path class="st54" d="M106.18,119.33c0,0-2.04,6.49-2.51,10.51c1.03,0.44,10.05-5.39,6.94-10.05
									C108.74,116.88,106.18,119.33,106.18,119.33z"/>
								<path class="st55" d="M110.54,115.15c-1.92-4.68-4.69-8.97-8.25-12.74l0.17-0.16c3.58,3.79,6.37,8.1,8.3,12.81
									L110.54,115.15z"/>
								<path class="st55" d="M101.13,101.23c-1.47-1.45-3.09-2.84-4.81-4.15l0.14-0.19c1.73,1.31,3.36,2.72,4.83,4.17
									L101.13,101.23z"/>
								<path class="st55" d="M103.97,128.59l-0.23-0.04c0.1-0.59,2.6-14.41,6.15-15.31c0.59-0.08,1.07,0.04,1.45,0.34
									c0.67,0.54,0.76,1.47,0.76,1.51l-0.23,0.02c0-0.01-0.08-0.88-0.67-1.35c-0.32-0.26-0.75-0.36-1.25-0.29
									C106.54,114.33,103.99,128.45,103.97,128.59z"/>
							</g>
							<g>
								<g>
									<path class="st52" d="M213.43,178.02h-2.59l-0.02-0.09l-2.19-9.77h3.59L213.43,178.02z M211.04,177.79h2.13l-1.15-9.4
										h-3.09L211.04,177.79z"/>
									<path class="st52" d="M137.27,178.02h-2.59l1.21-9.87h3.59L137.27,178.02z M134.95,177.79h2.13l2.11-9.4h-3.09
										L134.95,177.79z"/>
								</g>
								<g>
									<path class="st1" d="M206.27,178.02h-2.59l-0.02-0.09l-2.19-9.77h3.59L206.27,178.02z M203.88,177.79h2.13l-1.15-9.4h-3.09
										L203.88,177.79z"/>
									<path class="st1" d="M144.43,178.02h-2.59l1.21-9.87h3.59L144.43,178.02z M142.11,177.79h2.13l2.11-9.4h-3.09
										L142.11,177.79z"/>
								</g>
								<polygon class="st57" points="142.55,152.98 205.5,152.98 208.36,152.75 213.44,154.16 215.12,157.15 216.38,163.33 
									214.75,166.48 146.05,167.26 131.22,164.64 131.74,158.83 135.13,153.95 139.19,151.96 								"/>
								<polygon class="st58" points="215.12,157.15 215.12,157.15 213.44,154.16 208.36,152.75 205.5,152.98 142.55,152.98 
									139.19,151.96 135.13,153.95 132.91,157.15 								"/>
								<path class="st59" d="M123.11,148.61l9.02-2.84c0.77-0.25,1.2-0.74,1.42-1.56l2.71-10.86c0.32-1.27,1.1-1.94,2.36-1.99h4.11
									l-2.1,11.67l-7.27,6.45h-4.4h-3.38L123.11,148.61z"/>
								<path class="st59" d="M225.02,148.61l-9.02-2.84c-0.77-0.25-1.2-0.74-1.42-1.56l-2.71-10.86c-0.32-1.27-1.1-1.94-2.36-1.99
									h-4.11l2.1,11.67l7.27,6.45h4.4h3.38L225.02,148.61z"/>
								<path class="st59" d="M135.5,163.65v-6.15c0.01-0.87,0.36-1.66,1.16-2.06l5.89-0.89c1.06-4.64-2.27-8.83-6.17-8.49
									l-8.87,2.58l-0.4,5.65l1.31,4.38l3.25,4.32l3.26,1.19L135.5,163.65z"/>
								<path class="st59" d="M212.56,163.65v-6.15c-0.01-0.87-0.36-1.66-1.16-2.06l-5.89-0.89c-1.06-4.64,2.27-8.83,6.17-8.49
									l8.87,2.58l0.98,2.92l-2.52,4.99c0,0-1.3,5.39-1.3,5.54c0,0.16-0.9,3.73-0.9,3.73h-3.4L212.56,163.65z"/>
								<path class="st57" d="M208.43,133.49c-0.41-1.37-1.38-2.13-2.89-2.13h-62.94c-1.52,0-2.48,0.76-2.89,2.13l-3.23,13.64
									l6.09,7.42h62.95l6.15-7.42L208.43,133.49z"/>
								<path class="st50" d="M224.62,148.54h-3.24c-0.64,0-1.05,0.03-1.37,0.86l-5.83,13.02c-0.51,0.89-1.2,1.39-2.52,1.42h-44.5
									h-30.7c-1.32-0.03-2-0.52-2.52-1.42l-5.83-13.02c-0.32-0.83-0.74-0.86-1.37-0.86h-3.24c-0.67,0-0.96,0.52-0.77,1.07
									l6.85,18.35c0.38,0.94,1.42,1.81,2.87,1.81h34.71h48.51c1.44,0,2.49-0.86,2.87-1.81l6.85-18.35
									C225.58,149.06,225.29,148.54,224.62,148.54z"/>
								<rect x="136.85" y="157.03" class="st52" width="74.18" height="0.23"/>
								
									<rect x="127.36" y="147.51" transform="matrix(0.9604 -0.2785 0.2785 0.9604 -35.932 42.3316)" class="st52" width="7.3" height="0.23"/>
								
									<rect x="216.8" y="143.97" transform="matrix(0.2792 -0.9602 0.9602 0.2792 14.6074 314.7064)" class="st52" width="0.23" height="7.3"/>
								<g>
									<path class="st56" d="M207.74,140.2c3.32-0.92,10.36,0.91,11.07,2.67c0.72,1.76-5.55,13.2-8.6,13.71
										c-3.05,0.51-11.58-1.65-11.58-3.33C198.87,149.32,204.42,141.12,207.74,140.2z"/>
									<path class="st52" d="M209.46,156.23c-0.46-1.39,1.52-5.88,3.66-9.2c0.87-1.35,3.07-4.52,4.74-4.7l0.03,0.23
										c-1.1,0.12-2.77,1.8-4.56,4.6c-2.32,3.62-4.02,7.83-3.63,9L209.46,156.23z"/>
								</g>
							</g>
							<g>
								<g>
									<rect x="60.84" y="145.54" class="st1" width="5.45" height="10.69"/>
									<rect x="67.99" y="143.03" class="st1" width="5.45" height="13.2"/>
									<rect x="64.49" y="148.2" class="st49" width="5.45" height="8.03"/>
									<rect x="63.45" y="144.87" class="st52" width="0.23" height="0.67"/>
									<rect x="70.59" y="142.37" class="st52" width="0.23" height="0.67"/>
									<rect x="67.1" y="147.53" class="st52" width="0.23" height="0.67"/>
									<rect x="58.65" y="156.23" class="st59" width="17.62" height="0.76"/>
								</g>
								<g>
									<path class="st57" d="M84.59,155.63v-1.56c0-0.75,0.61-1.36,1.36-1.36h-5.33c-0.75,0-1.36,0.61-1.36,1.36v1.56
										c0,0.75,0.61,1.36,1.36,1.36h5.33C85.2,156.99,84.59,156.38,84.59,155.63z"/>
									<path class="st59" d="M85.95,152.71c-0.75,0-1.36,0.61-1.36,1.36v1.56c0,0.75,0.61,1.36,1.36,1.36h10.12v-4.28H85.95z"/>
									<path class="st1" d="M86.05,153.11c-0.61,0-1.11,0.5-1.11,1.11v1.27c0,0.61,0.5,1.11,1.11,1.11h10.02v-3.48H86.05z"/>
									<rect x="87.26" y="153.52" class="st57" width="8.3" height="0.23"/>
									<rect x="88.69" y="154.93" class="st57" width="7.38" height="0.23"/>
									<rect x="86.49" y="154.93" class="st57" width="1.18" height="0.23"/>
									<rect x="87.05" y="155.8" class="st57" width="6.17" height="0.23"/>
								</g>
								<g>
									<g>
										<path class="st52" d="M89.63,178.02h-1.04l-3.86-19.84h2.01L89.63,178.02z M88.78,177.79h0.57l-2.81-19.37h-1.52
											L88.78,177.79z"/>
										<path class="st52" d="M63.58,178.02h-1.04l2.88-19.84h2.01L63.58,178.02z M62.81,177.79h0.57l3.76-19.37h-1.52
											L62.81,177.79z"/>
									</g>
									<path class="st1" d="M76.6,178.02h-1.02l-0.49-19.84h1.98l0,0.12L76.6,178.02z M75.81,177.79h0.56l0.46-19.37h-1.5
										L75.81,177.79z"/>
									<rect x="54.34" y="156.99" class="st50" width="43.48" height="1.94"/>
								</g>
							</g>
							<g>
								<g>
									<path class="st52" d="M42.62,178.02h-2.59l-2.21-9.87h3.59L42.62,178.02z M40.23,177.79h2.13l-1.15-9.4h-3.09L40.23,177.79
										z"/>
									<path class="st52" d="M11.39,178.02H8.8l1.21-9.87h3.59L11.39,178.02z M9.07,177.79h2.13l2.11-9.4h-3.09L9.07,177.79z"/>
								</g>
								<g>
									<path class="st1" d="M35.46,178.02h-2.59l-2.21-9.87h3.59L35.46,178.02z M33.07,177.79h2.13l-1.15-9.4h-3.09L33.07,177.79z
										"/>
									<path class="st1" d="M18.55,178.02h-2.59l1.21-9.87h3.59L18.55,178.02z M16.23,177.79h2.13l2.11-9.4h-3.09L16.23,177.79z"
										/>
								</g>
								<polygon class="st57" points="16.67,152.98 34.69,152.98 37.55,152.75 42.63,154.16 44.31,157.15 45.57,163.33 
									43.94,166.48 20.17,167.26 5.34,164.64 5.86,158.83 9.25,153.95 13.3,151.96 								"/>
								<polygon class="st58" points="44.31,157.15 44.31,157.15 42.63,154.16 37.55,152.75 34.69,152.98 16.67,152.98 13.3,151.96 
									9.25,153.95 7.02,157.15 								"/>
								<path class="st59" d="M-1.23,148.61l7.49-2.84c0.77-0.25,1.2-0.74,1.42-1.56l2.71-10.86c0.32-1.27,1.1-1.94,2.36-1.99h4.11
									l-2.1,11.67l-7.27,6.45H4.61H1.23L-1.23,148.61z"/>
								<path class="st59" d="M52.67,148.61l-7.49-2.84c-0.77-0.25-1.2-0.74-1.42-1.56l-2.71-10.86c-0.32-1.27-1.1-1.94-2.36-1.99
									h-4.11l2.1,11.67l7.27,6.45h2.86h3.38L52.67,148.61z"/>
								<path class="st59" d="M9.61,163.65v-6.15c0.01-0.87,0.36-1.66,1.16-2.06l5.89-0.89c1.06-4.64-2.27-8.83-6.17-8.49
									l-7.33,2.58l-1.94,5.65l1.31,4.38l3.25,4.32l3.26,1.19L9.61,163.65z"/>
								<path class="st59" d="M41.75,163.65v-6.15c-0.01-0.87-0.36-1.66-1.16-2.06l-5.89-0.89c-1.06-4.64,2.27-8.83,6.17-8.49
									l7.33,2.58l0.98,2.92l-0.98,4.99c0,0-1.3,5.39-1.3,5.54c0,0.16-0.9,3.73-0.9,3.73h-3.4L41.75,163.65z"/>
								<path class="st57" d="M37.62,133.49c-0.41-1.37-1.38-2.13-2.89-2.13H16.71c-1.52,0-2.48,0.76-2.89,2.13l-3.23,13.64
									l6.09,7.42h18.02l6.15-7.42L37.62,133.49z"/>
								<path class="st50" d="M52.27,148.54h-3.24c-0.64,0-1.05,0.03-1.37,0.86l-4.3,13.02c-0.51,0.89-1.2,1.39-2.52,1.42h0.43
									h-30.7c-1.32-0.03-2-0.52-2.52-1.42l-4.3-13.02c-0.32-0.83-0.74-0.86-1.37-0.86h-3.24c-0.67,0-0.96,0.52-0.77,1.07
									l5.31,18.35c0.38,0.94,1.42,1.81,2.87,1.81h34.71h3.58c1.44,0,2.49-0.86,2.87-1.81l5.31-18.35
									C53.23,149.06,52.94,148.54,52.27,148.54z"/>
								<rect x="10.97" y="157.03" class="st52" width="29.25" height="0.23"/>
								
									<rect x="2.98" y="147.51" transform="matrix(0.9372 -0.3488 0.3488 0.9372 -51.1248 11.3311)" class="st52" width="5.84" height="0.23"/>
								
									<rect x="45.22" y="144.7" transform="matrix(0.3491 -0.9371 0.9371 0.3491 -108.8235 138.5779)" class="st52" width="0.23" height="5.84"/>
							</g>
							<g>
								<rect x="228.4" y="85.19" class="st52" width="0.23" height="90.23"/>
								<rect x="222.34" y="175.42" class="st50" width="12.58" height="2.49"/>
								<rect x="221.67" y="60.25" class="st56" width="13.69" height="49.89"/>
								<rect x="224.91" y="110.13" class="st1" width="0.23" height="12.63"/>
								<path class="st50" d="M225.03,126.03L225.03,126.03c-0.12,0-0.22-0.1-0.22-0.22v-3.28c0-0.12,0.1-0.22,0.22-0.22l0,0
									c0.12,0,0.22,0.1,0.22,0.22v3.28C225.25,125.93,225.15,126.03,225.03,126.03z"/>
								<rect x="221.67" y="106.35" class="st52" width="13.69" height="0.23"/>
								<rect x="221.67" y="63.89" class="st52" width="13.69" height="0.23"/>
							</g>
						</g>
						<g>
							<g>
								<rect x="33.21" y="102.99" class="st57" width="16.36" height="3.04"/>
								<rect x="32.65" y="106.03" class="st50" width="18.06" height="1.51"/>
								<g>
									<g>
										<rect x="35.04" y="102.99" class="st1" width="0.23" height="3.04"/>
										<rect x="36" y="102.99" class="st1" width="0.23" height="3.04"/>
									</g>
									<g>
										<rect x="46.54" y="102.99" class="st1" width="0.23" height="3.04"/>
										<rect x="47.5" y="102.99" class="st1" width="0.23" height="3.04"/>
									</g>
								</g>
							</g>
							<g>
								<path class="st56" d="M14.75,105.68c0.83,0.88,1.93,1.51,3.16,1.77h2.45c1.23-0.25,2.32-0.89,3.16-1.77H14.75z"/>
								<path class="st1" d="M17.91,107.56c-2.86-0.59-4.93-3.12-4.93-6.03c0-2.11,1.06-4.05,2.85-5.19l0.03-0.02h6.55l0.03,0.02
									c1.78,1.14,2.85,3.08,2.85,5.19c0,2.9-2.06,5.44-4.9,6.02L17.91,107.56z M15.93,96.57c-1.7,1.1-2.71,2.95-2.71,4.97
									c0,2.79,1.98,5.23,4.72,5.79l2.43,0c2.71-0.56,4.69-3,4.69-5.79c0-2.02-1.01-3.88-2.71-4.97H15.93z"/>
								<path class="st1" d="M13.98,101.59h-0.23c0-1.21,0.39-2.36,1.14-3.31l0.18,0.14C14.35,99.33,13.98,100.43,13.98,101.59z"/>
								<path class="st1" d="M15.61,97.83l-0.16-0.17c0.24-0.23,0.51-0.44,0.79-0.62l0.13,0.2C16.09,97.41,15.84,97.61,15.61,97.83z
									"/>
								<path class="st53" d="M17.67,105.68c-1.64-0.58-2.61-1.65-3.62-3.17c1.45,0.25,2.76,0.75,3.75,1.81
									c-0.94-1.27-1.45-3.05-1.78-5.05c1.39,1.37,2.49,2.85,2.96,4.56c-0.08-2.06,0.49-4.14,1.37-6.23
									c0.38,2.31,0.46,4.46-0.06,6.34c0.53-1.31,1.57-2.38,2.94-3.29c-0.53,1.5-1.13,2.75-1.86,3.51
									c0.62-0.73,1.53-1.19,2.55-1.55c-0.91,1.47-2.13,2.55-3.41,3.07H17.67z"/>
								<path class="st55" d="M18.25,105.7c-0.12-0.72-0.53-1.31-0.54-1.31l0.19-0.14c0.02,0.03,0.45,0.63,0.58,1.41L18.25,105.7z"
									/>
								<path class="st55" d="M19.21,105.72c-0.18-0.56-0.33-1.82-0.34-1.87l0.23-0.03c0,0.01,0.16,1.29,0.33,1.83L19.21,105.72z"/>
								<path class="st55" d="M19.78,105.74l-0.21-0.11c0.33-0.6,0.52-1.16,0.6-1.7l0.23,0.03
									C20.33,104.52,20.12,105.11,19.78,105.74z"/>
								<path class="st55" d="M20.2,105.74l-0.2-0.12c0.38-0.63,1.24-1.51,1.28-1.55l0.17,0.16
									C21.44,104.25,20.57,105.13,20.2,105.74z"/>
							</g>
							<g>
								<path class="st1" d="M11.81,113.96H9.97v-5.89h1.84V113.96z M10.21,113.73h1.37v-5.42h-1.37V113.73z"/>
								<path class="st1" d="M59.01,113.96h-1.84v-5.89h1.84V113.96z M57.41,113.73h1.37v-5.42h-1.37V113.73z"/>
							</g>
							<rect x="7.45" y="107.54" class="st1" width="54.09" height="1.3"/>
						</g>
						<g>
							<g>
								<path class="st1" d="M11.81,95.15H9.97v-5.89h1.84V95.15z M10.21,94.91h1.37v-5.42h-1.37V94.91z"/>
								<path class="st1" d="M59.01,95.15h-1.84v-5.89h1.84V95.15z M57.41,94.91h1.37v-5.42h-1.37V94.91z"/>
							</g>
							<rect x="7.45" y="88.72" class="st1" width="54.09" height="1.3"/>
							<g>
								<rect x="13.61" y="84.33" class="st56" width="16.36" height="3.02"/>
								<g>
									<g>
										<rect x="15.31" y="84.33" class="st1" width="0.23" height="3.02"/>
										<rect x="15.96" y="84.33" class="st1" width="0.23" height="3.02"/>
									</g>
									<g>
										<rect x="27.38" y="84.33" class="st1" width="0.23" height="3.02"/>
										<rect x="28.03" y="84.33" class="st1" width="0.23" height="3.02"/>
									</g>
								</g>
							</g>
							<g>
								<rect x="38.48" y="86.53" class="st56" width="17.35" height="2.19"/>
							</g>
							<rect x="12.29" y="87.35" class="st50" width="19.61" height="1.37"/>
							<rect x="12.63" y="81.71" class="st1" width="19.7" height="2.62"/>
						</g>
					</g>
				</g>
				<g>
					<path class="st56" d="M13.48,140.09c-3.3-1.02-10.38,0.6-11.15,2.34s5.16,13.36,8.19,13.96c3.03,0.6,11.62-1.31,11.67-2.99
						C22.07,149.46,16.77,141.1,13.48,140.09z"/>
					<path class="st52" d="M11.29,156.06l-0.22-0.08c0.42-1.17-1.15-5.42-3.36-9.11c-1.72-2.85-3.33-4.58-4.43-4.73l0.03-0.23
						c1.66,0.23,3.77,3.46,4.59,4.84C9.94,150.14,11.79,154.68,11.29,156.06z"/>
				</g>
				<rect x="-9.9" y="177.79" class="st52" width="253.45" height="0.23"/>
			</g>
			<g style="clip-path:url(#SVGID_00000118395904402119439250000012742174030164436635_);">
				<g>
					<g>
						<g>
							<line class="st65" x1="-13.44" y1="45.86" x2="265.79" y2="-41.4"/>
							<line class="st65" x1="-14.55" y1="49.47" x2="264.68" y2="-37.79"/>
						</g>
						<g>
							<line class="st65" x1="-4.51" y1="116.9" x2="261.39" y2="33.81"/>
							<line class="st65" x1="-3.09" y1="119.67" x2="260.28" y2="37.42"/>
						</g>
					</g>
					<polygon class="st66" points="-11.54,51.47 -0.8,112.68 268.74,27.92 250.94,-29.9 					"/>
				</g>
				<text transform="matrix(0.9489 -0.3156 0.3156 0.9489 25.6556 90.3859)" class="st73 st74 st75">ON HOLD</text>
				<g class="st67">
					<path class="st68" d="M16.22,64.12c0-6.32,3.24-10.96,9.16-12.83c5.92-1.88,9.15,0.71,9.15,7.03l-0.01,20.54
						c0,6.32-3.24,10.96-9.16,12.83c-5.92,1.88-9.15-0.71-9.15-7.03L16.22,64.12z M22.23,83.14c0,2.82,1.2,3.51,3.12,2.9
						c1.92-0.61,3.12-2.06,3.13-4.88l0.01-21.33c0-2.82-1.2-3.51-3.12-2.9c-1.92,0.61-3.12,2.06-3.13,4.88L22.23,83.14z"/>
					<path class="st68" d="M43.78,56.78l-0.01,28.6l-5.43,1.72l0.02-39.49l7.56-2.4l6.18,21.67l0.01-23.64l5.37-1.7l-0.02,39.49
						L51.27,83L43.78,56.78z"/>
					<path class="st68" d="M76.32,75.06l-6.03,1.91l0.02-39.49l6.03-1.91l-0.01,16.93l6.85-2.17l0.01-16.93l6.14-1.95L89.3,70.94
						l-6.14,1.95l0.01-16.93l-6.85,2.17L76.32,75.06z"/>
					<path class="st68" d="M93.21,39.69c0-6.32,3.24-10.96,9.16-12.83c5.92-1.88,9.15,0.71,9.15,7.03l-0.01,20.54
						c0,6.32-3.24,10.96-9.16,12.83s-9.15-0.71-9.15-7.03L93.21,39.69z M99.23,58.71c0,2.82,1.2,3.51,3.12,2.9
						c1.92-0.61,3.12-2.06,3.13-4.88l0.01-21.33c0-2.82-1.2-3.51-3.12-2.9c-1.92,0.61-3.12,2.06-3.13,4.88L99.23,58.71z"/>
					<path class="st68" d="M115.41,23.16l6.03-1.91l-0.02,33.85l9.92-3.15l0,5.64l-15.95,5.06L115.41,23.16z"/>
					<path class="st68" d="M133.98,17.27l9.54-3.03c6.03-1.91,8.99,0.59,8.98,6.91l-0.01,19.97c0,6.32-2.96,10.7-8.99,12.61
						l-9.54,3.03L133.98,17.27z M140.01,21l-0.01,28.21l3.4-1.08c1.92-0.61,3.07-1.99,3.07-4.81l0.01-20.54
						c0-2.82-1.15-3.47-3.07-2.86L140.01,21z"/>
				</g>
				<g>
					<path class="st1" d="M34.25,59.67l0,1.26c0.01,3.63-1.2,6.35-3.9,8.4c3.25,0.09,4.52,2.35,4.53,6.09l0.01,2.88
						c0.01,5.45-3.12,9.41-9.18,11.4l-9.52,3.13L16.12,57.5l9.14-3.01C31.54,52.43,34.24,54.21,34.25,59.67z M22.19,60.55l0.02,9.34
						l2.37-0.78c2.26-0.74,3.63-2.1,3.63-4.93l0-1.97c-0.01-2.52-0.94-3.33-3.09-2.62L22.19,60.55z M22.21,74.94l0.02,10.85
						l3.47-1.14c2.04-0.67,3.14-1.89,3.13-4.51l-0.01-3.08c-0.01-3.28-1.16-3.91-3.92-3.01L22.21,74.94z"/>
					<path class="st1" d="M37.99,58.79c-0.01-5.65,3.23-9.95,9.18-11.91c5.95-1.96,9.2,0.21,9.21,5.86l0.03,18.37
						c0.01,5.65-3.23,9.95-9.18,11.91c-5.95,1.96-9.2-0.21-9.21-5.86L37.99,58.79z M44.09,75.52c0,2.52,1.22,3.09,3.14,2.45
						c1.93-0.63,3.14-1.99,3.13-4.52l-0.04-19.08c0-2.52-1.22-3.08-3.14-2.45c-1.93,0.63-3.14,1.99-3.13,4.51L44.09,75.52z"/>
					<path class="st1" d="M59.8,51.62c-0.01-5.65,3.23-9.95,9.18-11.91c5.95-1.96,9.2,0.21,9.21,5.86l0.03,18.37
						c0.01,5.65-3.23,9.95-9.18,11.91s-9.2-0.21-9.21-5.86L59.8,51.62z M65.89,68.35c0.01,2.52,1.22,3.08,3.15,2.45
						c1.93-0.63,3.14-1.99,3.13-4.52l-0.04-19.08c0-2.52-1.22-3.08-3.14-2.45c-1.93,0.63-3.14,1.99-3.13,4.51L65.89,68.35z"/>
					<path class="st1" d="M90.05,54.45l-1.87,3.85l0.02,10.85l-6.06,1.99l-0.07-35.33l6.06-1.99l0.03,15.39l7.9-18l6.06-1.99
						l-8.39,18.52l8.46,16.81l-6.22,2.05L90.05,54.45z"/>
					<path class="st1" d="M104.87,28.31l6.06-1.99l0.07,35.33l-6.06,1.99L104.87,28.31z"/>
					<path class="st1" d="M120.75,32.84l0.05,25.59l-5.45,1.79l-0.07-35.33l7.6-2.5l6.26,19.1l-0.04-21.15l5.4-1.77l0.07,35.33
						l-6.22,2.05L120.75,32.84z"/>
					<path class="st1" d="M147.95,29.8l8.48-2.79l0.02,11.21c0.01,5.65-3.07,9.9-9.01,11.85c-5.95,1.96-9.03-0.26-9.05-5.91
						l-0.03-18.37c-0.01-5.65,3.07-9.9,9.01-11.85c5.95-1.96,9.03,0.26,9.05,5.91l0.01,3.43l-5.73,1.88l-0.01-3.79
						c0-2.52-1.22-3.08-3.14-2.45c-1.93,0.63-3.14,1.99-3.13,4.51l0.04,19.08c0.01,2.52,1.22,3.03,3.15,2.4
						c1.93-0.63,3.14-1.94,3.13-4.46l-0.01-6.51l-2.75,0.91L147.95,29.8z"/>
				</g>
			</g>
		</g>
	</g>
</g>
<g id="Layer_2" class="st67">
</g>
</svg>
