<?xml version="1.0" encoding="utf-8"?>
<!-- Generator: Adobe Illustrator 25.4.1, SVG Export Plug-In . SVG Version: 6.00 Build 0)  -->
<svg version="1.1" id="Layer_1" xmlns="http://www.w3.org/2000/svg" xmlns:xlink="http://www.w3.org/1999/xlink" x="0px" y="0px"
	 viewBox="0 0 1080 765.34" style="enable-background:new 0 0 1080 765.34;" xml:space="preserve">
<style type="text/css">
	.st0{clip-path:url(#SVGID_00000164492085805184797160000007985853615725652155_);}
	.st1{fill:none;stroke:#1A1A1A;stroke-width:0.9401;stroke-linecap:round;stroke-linejoin:round;}
	.st2{fill:none;stroke:#1A1A1A;stroke-width:0.9401;stroke-linecap:round;stroke-linejoin:round;stroke-dasharray:5.6554,5.6554;}
	.st3{fill:url(#SVGID_00000163760867010168246120000004589580063965962420_);}
	.st4{fill:#339E7E;}
	.st5{fill:none;stroke:#10663F;stroke-width:0.9401;stroke-linecap:round;stroke-linejoin:round;stroke-miterlimit:10;}
	.st6{fill:#00593B;}
	.st7{fill:none;stroke:#3DBE88;stroke-width:0.9401;stroke-linecap:round;stroke-linejoin:round;stroke-miterlimit:10;}
	.st8{fill:none;stroke:#1A1A1A;stroke-width:0.9401;stroke-linecap:round;stroke-linejoin:round;stroke-miterlimit:10;}
	.st9{fill:#EFEFEF;}
	.st10{fill:#FFFFFF;}
	.st11{fill:#152A52;}
	.st12{fill:#102140;}
	.st13{fill:#1A1A1A;stroke:#1A1A1A;stroke-width:0.9401;stroke-linecap:round;stroke-linejoin:round;stroke-miterlimit:10;}
	.st14{fill:#0072FF;}
	.st15{fill:#044D96;}
	.st16{fill:#FC9590;}
	.st17{fill:url(#SVGID_00000103968138414810467660000013553305294160773033_);}
	.st18{fill:url(#SVGID_00000171712760891463861150000018078550715507253146_);}
	.st19{fill:url(#SVGID_00000070836778140157143400000008273769461012897725_);}
	.st20{fill:url(#SVGID_00000168096932174465112340000004799577977194937788_);}
	.st21{fill:none;stroke:#1A1A1A;stroke-width:1.4102;stroke-linecap:round;stroke-linejoin:round;stroke-miterlimit:10;}
	.st22{fill:none;stroke:#855B87;stroke-width:0.4701;stroke-linecap:round;stroke-linejoin:round;stroke-miterlimit:10;}
	.st23{fill:none;stroke:#FFFFFF;stroke-width:0.9401;stroke-linecap:round;stroke-linejoin:round;stroke-miterlimit:10;}
	.st24{fill:url(#SVGID_00000039826746751692048290000000381693298208745100_);}
	.st25{fill:none;stroke:#0072FF;stroke-width:0.4701;stroke-linecap:round;stroke-linejoin:round;stroke-miterlimit:10;}
	.st26{fill:#6E696E;}
	.st27{fill:#EB485C;}
</style>
<g>
	<g>
		<defs>
			<rect id="SVGID_1_" y="-157.33" width="1080" height="1080"/>
		</defs>
		<clipPath id="SVGID_00000000219193218327921350000017898660665467655348_">
			<use xlink:href="#SVGID_1_"  style="overflow:visible;"/>
		</clipPath>
		<g style="clip-path:url(#SVGID_00000000219193218327921350000017898660665467655348_);">
			<g>
				<g>
					<path class="st1" d="M435.2,71.38c-0.93-0.14-1.86-0.28-2.79-0.41"/>
					<path class="st2" d="M426.81,70.24C120.19,33.38-131.5,520.17,370.1,571.75"/>
					<path class="st1" d="M372.91,572.03c0.93,0.09,1.87,0.18,2.81,0.27"/>
				</g>
			</g>
			
				<linearGradient id="SVGID_00000015349461595149580580000009351824709174444193_" gradientUnits="userSpaceOnUse" x1="50.52" y1="135.9008" x2="1029.48" y2="135.9008" gradientTransform="matrix(1 0 0 -1 0 765.3415)">
				<stop  offset="0" style="stop-color:#68B2FC"/>
				<stop  offset="1" style="stop-color:#529BF7"/>
			</linearGradient>
			<path style="fill:url(#SVGID_00000015349461595149580580000009351824709174444193_);" d="M1029.48,621.71
				c0-9.74-25.61-18.85-70.11-26.62c-12.14-24.98-114.15-44.47-238.19-44.47c-77.71,0-146.77,7.65-190.51,19.51
				c-266.02,0.52-480.15,23.42-480.15,51.58c0,11.26,34.24,21.68,92.33,30.16c-1.53,2.26-2.32,4.57-2.32,6.91
				c0,27.33,107.19,49.48,239.41,49.48c108.7,0,200.47-14.97,229.69-35.48C846.98,669.22,1029.48,647.71,1029.48,621.71z"/>
			<path d="M813.51,514.24l2.51,48.42c18.84-0.17,37.76-11.58,54.35-20.33c8.03-4.2,16.85-7.51,25.92-9.58l2.37-14.45L813.51,514.24
				z"/>
			<path d="M816.03,562.66l1.17,22.56c24.14,3.77,47.75,3.12,70.81-1.92l8.29-50.55c-9.08,2.07-17.89,5.38-25.92,9.58
				C853.79,551.08,834.87,562.49,816.03,562.66z"/>
			<ellipse cx="863.23" cy="515.55" rx="38.93" ry="4.13"/>
			<g>
				<g>
					<g>
						<path class="st4" d="M860.19,495.96c0,0,93.31,53.48,140.51-12.62s26.75-127.58-24.83-155.82s-122.51-6.26-144.66,28.06
							S868.76,482.93,860.19,495.96z"/>
						<path class="st5" d="M967.24,366.25c0,0-47.99,107.33-139.7,150.85"/>
						<path class="st5" d="M998.64,389.75c0,0-21.61-14.34-40.69-5.4c-4.97-21.4-27.19-41.83-27.19-41.83"/>
						<path class="st5" d="M995.79,424.46c0,0-32.52-23.91-48.28-21.04c-4.11-14.46-20.83-46.24-50.96-58.79"/>
						<path class="st5" d="M1008.41,456.51c0,0-48.01-35.63-73.49-33.05c-0.63-13.28-30.03-56.67-75.62-66.54"/>
						<path class="st5" d="M977.22,464.94c0,0-27.29-26.83-56.34-25.3c-2.17-16.08-33.52-52.63-62.22-57.93"/>
						<path class="st5" d="M959.69,485.15c0,0-29.69-31.7-53.53-27.51c-0.2-17.35-20.96-39.13-47.21-49.55"/>
						<path class="st5" d="M947.2,498.78c0,0-22.46-23.12-57.18-25.45c-1.59-12.83-18.26-41.66-34.98-43.69"/>
					</g>
					<g>
						<path class="st6" d="M895.52,514.71c0,0,46.83-42.12,72.1-23.71c25.27,18.41,55.97,52.83,27.5,88.9s-71.45,42.48-98.18,6.02
							C870.21,549.45,903.68,537.23,895.52,514.71z"/>
						<path class="st7" d="M977.66,578.79c0,0-33.82-60.21-82.14-64.09c-37.56-3.01-37.68,0.27-37.68,0.27"/>
						<path class="st7" d="M944.86,496.67c0,0-19.7,19.26-34.02,20.54c15.58,10.71-4.62,30.25-12.99,34.68"/>
						<path class="st7" d="M967.88,502.64c0,0-15.1,19.15-41.61,20.73c7.59,11.11-2.4,36.05-29.21,44.15"/>
						<path class="st7" d="M982.61,522.01c0,0-19.51,18.71-40.91,13.61c2.21,9.2-5.84,40.84-27.94,43.52"/>
						<path class="st7" d="M992.26,543.34c0,0-24.65,9.99-35.95,6.39c-1.97,13.17-3.09,40.27-35.6,49.14"/>
						<path class="st7" d="M984.52,559.52c0,0-10.69,5.02-17.27,3.19c1.38,12.87-4.28,28.31-12.43,31.82"/>
					</g>
					<g>
						<path d="M855.4,500.79c0,0-4.48-65.56-36.77-70.13c-32.3-4.57-80.29-1.09-85.17,46.6c-4.88,47.7,22.66,83.72,69.16,75.82
							S832.94,511.73,855.4,500.79z"/>
						<path class="st7" d="M747.34,489.12c0,0,70.18-21.83,108.07,11.67c13.86,12.25,5.14,16.53,5.14,16.53"/>
						<path class="st7" d="M831.55,451.44c0,0,0.76,28.73,10.55,40.09c-19.45-3.3-18.52,26.01-15.46,35.41"/>
						<path class="st7" d="M809.98,439.19c0,0-2.6,25.31,16.1,45.74c-13.76,2.81-24.39,28.74-10.2,54.28"/>
						<path class="st7" d="M784.88,443c0,0,1.02,28.18,20.75,39.9c-8.33,5.28-25.3,34.83-10.68,52.89"/>
						<path class="st7" d="M762.15,451.96c0,0,11.2,25.38,22.28,30.9c-8.09,11.3-26.94,32.4-9.03,62.66"/>
						<path class="st7" d="M756.2,469.7c0,0,4.37,11.52,10.62,14.93c-10.38,8.64-17.36,24.31-13.81,32.86"/>
					</g>
				</g>
			</g>
			<path d="M271.13,215.14c-0.45-0.91-120.68,32.24-121.51,32.7c0.4-0.78,26.03-50.69,72.82-62.78c10.55-2.73,22.19-3.53,34.85-1.41
				c13.98,2.34,25.84,7.48,35.38,14.46C282.52,199.87,276.52,206.1,271.13,215.14z"/>
			<path class="st8" d="M149.63,247.83C149.62,247.84,149.62,247.84,149.63,247.83"/>
			<path class="st9" d="M890.83,554.71c-16.74,34.43-35.71,64.82-57.3,75.65c-100.35,39.62-189.59,39.39-235.61-9.93
				C473.92,490.23,361,590.25,333,548.4c-36.56-54.64,91.23-103.66,22.68-154.15c-11.22-8.26-19.98-11.31-27.21-10.93l60.29-33.85
				l78.59-40.58l11.47-5.92c7.81-1.55,17.45,1.05,30.33,10.54c68.56,50.49-88.03,127.04-51.46,181.68
				c17.02,25.44,67.13-5.63,155.93-23.46c125.04-25.11,119.21,38.89,203.37,86.91C851.24,582.37,861.68,571.1,890.83,554.71z"/>
			<path d="M365.27,380.82l115.65-68.09c0,0,49.05,19.08,34.61,51c-52.37,32.33-124.78,64.66-124.78,64.66
				S385.45,387.65,365.27,380.82z"/>
			<path class="st9" d="M437.66,225.84c-68.74,35.8-86.19,100.46-48.89,123.62l-60.29,33.85c-23.15,1.2-30.54,37.49-52.08,50.16
				c-6.96,4.1-15.41,5.72-26.36,2.89c-55.33-14.35-42.35-89.93,34.16-129.78c47.57-24.78,46.18-80.92,8.49-108.48
				c-9.54-6.98-21.4-12.12-35.38-14.46c-12.67-2.12-24.3-1.32-34.85,1.41l132.66-72.4l0.27-0.15c15.33-8.37,33.88-13.2,55.38-9.6
				C480.01,114.51,497.26,194.8,437.66,225.84z"/>
			<path d="M334.5,267.65c55.56-29.03,131.24-83.34,131.24-83.34s4.86-48.27-35.22-58.9c-47.66,23.07-121.13,66.14-121.13,66.14
				S350.29,221.69,334.5,267.65z"/>
			<path d="M355.69,394.25l-79.29,39.22c21.53-12.67,28.93-48.96,52.08-50.16C335.7,382.94,344.47,385.99,355.69,394.25z"/>
			<g>
				<path d="M605.51,528.45c-0.61,0.68-11.68-3.93-19.61,5.79s11.25,74.08,22.25,73.29s10.71-30.87,10.87-48.41
					S605.51,528.45,605.51,528.45z"/>
				<path class="st10" d="M623.11,521.47l-8.62,25.34c0,0-14.52-4.43-14.55-17.42c7.26-18.35,7.61-19.88,7.61-19.88
					S622.09,514.38,623.11,521.47z"/>
				<path class="st11" d="M712.33,361.79c-4.54,49.28-87.54,181.57-87.54,181.57c-8.52-0.72-16.01-8.3-22.61-21.9
					c-0.91-1.88-1.81-3.88-2.69-5.99c0,0,49.29-130.33,40.86-157.57c-5.08-16.44-42.56-36.67-71.45-50.11
					c-18.97-8.82-34.24-14.73-34.24-14.73l42.15-26.58C576.81,266.47,716.86,312.51,712.33,361.79z"/>
				<path d="M602.18,521.46c-0.91-1.88-1.81-3.88-2.69-5.99c0,0,49.29-130.33,40.86-157.57c-5.08-16.44-42.56-36.67-71.45-50.11v-16
					l20.22-4.77c19.44,3.86,55.05,23.26,76.91,57.61C687.1,377.75,608.95,511.8,602.18,521.46z"/>
				<path d="M710.9,554.71c-0.15,0.91-11.95,3.02-13.34,15.49s49.59,56.17,58.41,49.55c8.81-6.63-7.71-31.75-17.08-46.58
					S710.9,554.71,710.9,554.71z"/>
				<path class="st10" d="M721.91,539.3l6.48,25.98c0,0-14.6,4.14-21.67-6.76c-3.84-19.35-4.37-20.83-4.37-20.83
					S717.21,533.9,721.91,539.3z"/>
				<path class="st11" d="M729.83,536.87c-0.52,2.18-1.53,3.97-2.91,5.44c-7.07,7.65-23.89,6.57-33.91,5.1
					c-4.71-0.69-7.92-1.46-7.92-1.46s-40.2-173.13-129.68-189.35c-89.48-16.21-87.7-64.37-87.7-64.37s6.81-6.47,21.64-11.38
					c17.61-5.84,46.52-9.49,88.75,2.48c29.23,8.33,52.66,26.15,71.58,48.98l0.01,0.01c0,0.01,0,0.01,0.01,0.02
					C700.03,393.06,718.53,489.28,729.83,536.87z"/>
				<path class="st12" d="M729.83,536.87c-0.52,2.18-1.53,3.97-2.91,5.44c-2.79-6.34-4.42-16.82-7.84-32.8
					c-21.55-100.41-68.38-175-69.38-177.18C700.03,393.06,718.53,489.28,729.83,536.87z"/>
				<path d="M693.01,547.41c-4.71-0.69-7.92-1.46-7.92-1.46s-40.2-173.13-129.68-189.35c-89.48-16.21-87.7-64.37-87.7-64.37
					s6.81-6.47,21.64-11.38c11.88,23.51,38.46,57.83,94.69,68.08C658.82,362.57,686.37,504.66,693.01,547.41z"/>
				<path class="st13" d="M542.85,112.59c0,0,3.42,19.13,0,21.18s-16.16-1.37-15.94-2.5s2.95-16.62,2.95-16.62L542.85,112.59z"/>
				<path class="st14" d="M618.5,216.33c-4.96,0.91-10.43,2.72-21.78,7.26c-32.18,8.56,5.37-74.53-49.11-91.27l-3.25,117.75
					c35.84,4.95,67.67-16.7,74.99-18.15C623.85,231.02,626.28,216.2,618.5,216.33z"/>
				<path class="st15" d="M561.37,169.74c0,0,9.02,16.17,13.8,40.98c4.78,24.82,37.57,24.82,37.57,24.82s-15.71,20.95-18.22,22.54
					c-2.5,1.59-25.63-1.99-25.63-1.99s-17.85-42.5-18.31-44.05S561.37,169.74,561.37,169.74z"/>
				<path class="st16" d="M619.01,217.9c0,0,15.37,0.91,18.56,6.03s2.62,16.39,2.62,16.39s-5.03,4.61-11.38,0.8
					c-6.35-3.82-6.6-11.38-11.04-11.84C612.29,225.18,615.59,218.92,619.01,217.9z"/>
				<path class="st14" d="M593.34,266.47c-8.11,30.47-128.82,29.51-128.82,29.51s-1.84-63.29,1.77-108.04
					c0.59-7.29,1.32-14.09,2.23-20.03c5.42-35.5,33.07-36.96,33.07-36.96c24.68-5.26,41.83-2.98,54.06,4.99
					c10.42,16.16,17.09,35.81,16.45,62.28c-0.74,13.36,0.03,23.23,1.88,31.23C577.53,244.87,585.06,253.34,593.34,266.47z"/>
				<path class="st14" d="M593.34,266.47c-8.11,30.47-128.82,29.51-128.82,29.51s-1.84-63.29,1.77-108.04
					c13.86,13.64,38.4,33.2,65.18,33.26c23.85,0.05,36.28,4.51,42.51,8.24C577.53,244.87,585.06,253.34,593.34,266.47z"/>
				<polygon points="597.93,287.02 647.74,254.44 645.16,254.44 601.48,279.77 				"/>
				<polygon points="538.96,261.29 601.8,280.28 597.93,287.02 536,266.47 				"/>
				<path d="M607.26,231.92c-2.05,0.46-68.31,29.37-68.31,29.37l62.84,18.99l51-32.19L607.26,231.92z"/>
				<polygon points="657.13,214.61 601.48,279.77 605.6,282.34 660.34,217.9 				"/>
				<polygon points="711.92,183.39 657.13,214.61 660.34,217.9 713.95,186.59 				"/>
				<polygon points="605.6,282.34 662.59,248.37 713.95,186.59 660.34,217.9 				"/>
				<path class="st14" d="M545.25,248.04c-17.71,9.88-89.07,45.37-105.93-13.63c-13.01-45.51,7.24-72.36,26.61-86.91
					c14.09-10.58,27.72-14.65,27.72-14.65l-24.25,58.6c-10.96,46.42,41.46,53.93,61.69,45.85c3.65-1.46,6.75-2.66,9.45-3.67
					c5.16-0.1,8.25,3.12,8.78,6.67C549.75,243.19,548.48,246.31,545.25,248.04z"/>
				<path class="st16" d="M530.12,138.73l1.38-20.32c0,0,28.96,9.82,29.87-37.92c0.55-28.97-25.09-36.1-40-20.87
					c-14.91,15.24-6.36,41.18-9.99,52.2c-2.41,7.31-10.78,17.84-13.84,24.34C495.98,139.46,520.39,153.32,530.12,138.73z"/>
			</g>
			<path class="st12" d="M481.54,137.89c0,0,14.4-4.36,22.6-5.87c18.82-4.48,16.24-24.21,15.03-38.18s4.25-17,6.68-15.48
				s10.74-1.21,13.11-6.98c15.12,0.3,13.9,14.48,26.1,16.91c0,0,13.5-19.34,3.85-32.7c-9.66-13.36-23.62-8.5-23.62-8.5
				s-17.3-15.18-35.82,0.91S480.32,127.04,481.54,137.89z"/>
			<g>
				
					<linearGradient id="SVGID_00000004546884184251609570000004936430001704083618_" gradientUnits="userSpaceOnUse" x1="67.9" y1="385.2758" x2="121.51" y2="385.2758" gradientTransform="matrix(1 0 0 -1 0 765.3415)">
					<stop  offset="0" style="stop-color:#68B2FC"/>
					<stop  offset="1" style="stop-color:#529BF7"/>
				</linearGradient>
				<polygon style="fill:url(#SVGID_00000004546884184251609570000004936430001704083618_);" points="121.51,408.92 94.71,397.64 
					67.9,386.36 91.07,368.79 114.24,351.21 117.88,380.07 				"/>
				
					<linearGradient id="SVGID_00000081620037417685102260000016353703562321627020_" gradientUnits="userSpaceOnUse" x1="754.64" y1="507.6858" x2="795.26" y2="507.6858" gradientTransform="matrix(1 0 0 -1 0 765.3415)">
					<stop  offset="0" style="stop-color:#68B2FC"/>
					<stop  offset="1" style="stop-color:#529BF7"/>
				</linearGradient>
				<polygon style="fill:url(#SVGID_00000081620037417685102260000016353703562321627020_);" points="795.26,262.98 774.95,271.16 
					754.64,279.33 757.71,257.66 760.78,235.98 778.02,249.48 				"/>
				
					<linearGradient id="SVGID_00000117655323818042307660000006689276167975547555_" gradientUnits="userSpaceOnUse" x1="733.18" y1="377.3958" x2="793.54" y2="377.3958" gradientTransform="matrix(1 0 0 -1 0 765.3415)">
					<stop  offset="0" style="stop-color:#4085F0"/>
					<stop  offset="1" style="stop-color:#275DC9"/>
				</linearGradient>
				<polygon style="fill:url(#SVGID_00000117655323818042307660000006689276167975547555_);" points="774.62,417.33 753.9,394.44 
					733.18,371.56 763.36,365.06 793.54,358.56 784.08,387.94 				"/>
				
					<linearGradient id="SVGID_00000063603518506555903720000004011726127665740458_" gradientUnits="userSpaceOnUse" x1="80.5" y1="224.7807" x2="122.2" y2="224.7807" gradientTransform="matrix(1 0 0 -1 0 765.3415)">
					<stop  offset="0" style="stop-color:#4085F0"/>
					<stop  offset="1" style="stop-color:#275DC9"/>
				</linearGradient>
				<polygon style="fill:url(#SVGID_00000063603518506555903720000004011726127665740458_);" points="122.2,560.31 101.35,556.92 
					80.5,553.54 93.86,537.17 107.22,520.81 114.71,540.56 				"/>
			</g>
			<path class="st15" d="M526.91,190.92c1.86-5.35-0.8-30.85-2.39-43.42c-4.33,3.64-10.82,3.69-10.82,3.69l0.57,2.05
				c0,0,7.17,0.57,8.88-2.28c1.14,8.99,2.28,40.6,2.28,40.6S526.14,193.13,526.91,190.92z"/>
			<g>
				<g>
					<line class="st21" x1="383.77" y1="447.83" x2="480.61" y2="403.5"/>
					<line class="st21" x1="363.42" y1="482.74" x2="459.36" y2="437.79"/>
					<line class="st21" x1="345.01" y1="516.68" x2="445.39" y2="469.69"/>
					<line class="st21" x1="307.23" y1="299.98" x2="389.84" y2="256.1"/>
					<line class="st21" x1="256.53" y1="344.08" x2="365.27" y2="291.78"/>
					<line class="st21" x1="238.94" y1="405.77" x2="365.54" y2="340.65"/>
					<line class="st21" x1="265.06" y1="428.4" x2="302.24" y2="403.5"/>
					<line class="st21" x1="355.69" y1="322.75" x2="236.83" y2="380.58"/>
					<line class="st21" x1="288.44" y1="170.35" x2="389.84" y2="113.88"/>
					<line class="st21" x1="395.2" y1="529.73" x2="450.97" y2="503.63"/>
				</g>
				<g>
					<line class="st22" x1="383.77" y1="447.83" x2="480.61" y2="403.5"/>
					<line class="st22" x1="363.42" y1="482.74" x2="459.36" y2="437.79"/>
					<line class="st22" x1="345.01" y1="516.68" x2="445.39" y2="469.69"/>
					<line class="st22" x1="307.23" y1="299.98" x2="389.84" y2="256.1"/>
					<line class="st22" x1="256.53" y1="344.08" x2="365.27" y2="291.78"/>
					<line class="st22" x1="238.94" y1="405.77" x2="365.54" y2="340.65"/>
					<line class="st22" x1="265.06" y1="428.4" x2="302.24" y2="403.5"/>
					<line class="st22" x1="355.69" y1="322.75" x2="236.83" y2="380.58"/>
					<line class="st22" x1="288.44" y1="170.35" x2="389.84" y2="113.88"/>
					<line class="st22" x1="395.2" y1="529.73" x2="450.97" y2="503.63"/>
				</g>
			</g>
			<path class="st12" d="M524.4,44.05c0,0-4.62-23.45-24.36-13.66s-7.74,55.78-7.74,55.78L524.4,44.05z"/>
			<polyline class="st23" points="661.55,366.25 652.8,381.09 668.23,375.27 663.07,386.2 670.66,386.2 			"/>
			<polyline class="st23" points="705.45,351.7 698.89,361.61 708.61,361.61 700.41,368.9 705.45,371.63 			"/>
			<g>
				<path d="M889.22,158.57c0,13.1-4.52,25.14-12.09,34.64l-43.6-34.64l55.65-1.73C889.21,157.41,889.22,157.99,889.22,158.57z"/>
				<path class="st9" d="M833.53,158.57l29.23,47.41c-8.5,5.25-18.51,8.28-29.23,8.28c-30.75,0-55.68-24.93-55.68-55.68
					s24.93-55.68,55.68-55.68c14.5,0,27.7,5.54,37.61,14.62L833.53,158.57z"/>
				
					<linearGradient id="SVGID_00000177481752976752142590000004801144138918679195_" gradientUnits="userSpaceOnUse" x1="833.54" y1="627.3007" x2="889.19" y2="627.3007" gradientTransform="matrix(1 0 0 -1 0 765.3415)">
					<stop  offset="0" style="stop-color:#4085F0"/>
					<stop  offset="1" style="stop-color:#275DC9"/>
				</linearGradient>
				<path style="fill:url(#SVGID_00000177481752976752142590000004801144138918679195_);" d="M889.19,156.84l-55.65,1.73
					l37.61-41.06C881.86,127.33,888.71,141.28,889.19,156.84z"/>
				<path d="M877.13,193.21c-4.01,5.04-8.87,9.36-14.37,12.76l-29.23-47.41L877.13,193.21z"/>
			</g>
			<path class="st15" d="M545.25,248.04c-17.71,9.88-89.07,45.37-105.93-13.63c-13.01-45.51,7.24-72.36,26.61-86.91
				c-13.15,18.01-28.89,48.67-18.37,83.28c14.73,48.49,85.08,17.62,101.75,9.52C549.75,243.19,548.48,246.31,545.25,248.04z"/>
			<path class="st16" d="M541.37,235.54c0,0,17.53-6.26,26.64-2.16s11.73,26.41,11.73,26.41s-0.57,1.48-3.07,0
				s-6.38-14.62-6.38-14.62s-1.37,6.99-7.17,8.59c-5.81,1.59-12.18-3.19-13.72-5.01s-8.03-2.53-8.03-2.53
				S538.29,240.33,541.37,235.54z"/>
			<path d="M520.62,111c5.43,5.01,10.87,7.41,10.87,7.41l-0.42,6.26C531.07,124.66,520.41,114.49,520.62,111z"/>
			<polygon class="st14" points="661.73,230.27 656.48,238.05 656.48,242.63 661.73,236.45 			"/>
			<path class="st25" d="M623.11,549.38c0,0-23.34,2.13-17.42,7.89s34.61-1.52,20.64,5.16s-32.48,3.79-20.49,6.98
				s29.9,3.34,21.86,8.05s-25.5,3.95-18.37,6.98c7.13,3.04,12.75,8.2,12.75,8.2"/>
			<path class="st25" d="M738.89,560.19c0,0-27.55,15.98-14.8,15.07s27.14-9.69,23.25-2.28c-3.9,7.41-17.1,14.34-8.68,15.71
				s19.27-6.69,16.39,0s-21.99,9.04-11.16,10.47s11.63,1.82,11.63,1.82"/>
			<g>
				<path d="M560.79,613.29c0,10.23-11.46,19.55-30.26,26.54l0.97-11.31c1.91-0.7,3.73-1.43,5.48-2.17
					c15.16-6.45,24.47-14.56,25.21-23.42c0.02,0.08,0.03,0.16,0.05,0.24C562.4,604.04,560.79,612.41,560.79,613.29z"/>
				<path class="st26" d="M531.5,628.52l-0.97,11.31c-21.07,7.84-51.36,12.77-85.02,12.77c-63.67,0-115.28-17.6-115.28-39.31
					c0-1.04,1.23-10.48,1.45-11.49c0,21.71,51.62,39.31,115.28,39.31C480.37,641.11,510.44,636.27,531.5,628.52z"/>
				<path class="st27" d="M549.19,588.99l-102.22,12.8l84.53,26.73c-21.05,7.74-51.13,12.58-84.53,12.58
					c-63.66,0-115.28-17.6-115.28-39.31s51.62-39.31,115.28-39.31c49.7,0,92.06,10.72,108.25,25.76L549.19,588.99z"/>
				<path d="M562.24,601.79c0,0.38-0.02,0.77-0.05,1.15c-0.74,8.85-10.06,16.96-25.21,23.42c-1.75,0.74-3.57,1.46-5.48,2.17
					l-84.53-26.73L549.19,589l6.02-0.75C559.76,592.47,562.24,597.03,562.24,601.79z"/>
			</g>
		</g>
	</g>
</g>
</svg>
