<svg width="333" height="176" viewBox="0 0 333 176" fill="none" xmlns="http://www.w3.org/2000/svg">
<g clip-path="url(#clip0)">
<path d="M82.1399 44.12C81.5499 36.41 75.1299 30.33 67.2699 30.33C59.4099 30.33 52.9799 36.41 52.3999 44.12H82.1399Z" fill="#BAC5EB"/>
<path d="M98.3699 44.12C99.7299 41.87 100.53 39.23 100.53 36.41C100.53 28.16 93.8399 21.48 85.5999 21.48C77.3599 21.48 70.6699 28.16 70.6699 36.4C70.6699 39.23 71.4699 41.86 72.8299 44.11H98.3699V44.12Z" fill="#BAC5EB"/>
<path d="M115.99 44.12C114.86 36.99 108.71 31.53 101.26 31.53C93.8098 31.53 87.6598 36.99 86.5298 44.12H115.99Z" fill="#BAC5EB"/>
<path d="M262.01 41.8499C261.54 35.6799 256.4 30.8199 250.12 30.8199C243.83 30.8199 238.69 35.6799 238.23 41.8499H262.01Z" fill="#BAC5EB"/>
<path d="M274.99 41.85C276.08 40.05 276.72 37.94 276.72 35.68C276.72 29.09 271.37 23.74 264.78 23.74C258.19 23.74 252.84 29.09 252.84 35.68C252.84 37.94 253.48 40.05 254.57 41.85H274.99Z" fill="#BAC5EB"/>
<path d="M289.08 41.85C288.18 36.15 283.26 31.78 277.3 31.78C271.34 31.78 266.42 36.14 265.52 41.85H289.08Z" fill="#BAC5EB"/>
<path opacity="0.64" d="M59.6199 173.1C51.3899 161.77 44.5799 149.18 39.4699 135.81C35.0999 124.4 32.1899 110.47 38.5499 100.26C43.9399 91.6 54.0699 88.67 62.7399 84.29C73.4599 78.87 82.8599 70.34 89.7599 59.81C95.3999 51.2 99.3899 41.28 105.88 33.43C112.37 25.58 122.57 20 131.63 23.64C137.47 25.99 141.64 31.63 146.91 35.27C154.65 40.61 164.89 41.22 173.11 36.83C179.36 33.49 184.23 27.64 190.35 24.02C204.99 15.34 225.63 22.99 232.52 39.66C235.13 45.97 236 53.26 239.88 58.73C249.17 71.86 268.75 66.92 281.62 75.65C291.15 82.11 295.35 94.99 296.88 107.19C299.71 129.84 295.46 153.5 285 173.25C279.37 173.37 273.74 173.51 268.11 173.51L59.6199 173.1Z" fill="#BEC9EE"/>
<path d="M253.34 79.6301H230.14V171.76H253.34V79.6301Z" fill="#E7E9EB"/>
<path d="M247.96 69.5801H235.87V88.1401H247.96V69.5801Z" fill="#E7E9EB"/>
<path d="M245.55 60.2001H238.29V74.7701H245.55V60.2001Z" fill="#E7E9EB"/>
<path d="M234.63 81.8501H231.76V85.1001H234.63V81.8501Z" fill="white"/>
<path d="M238.9 81.8501H236.03V85.1001H238.9V81.8501Z" fill="white"/>
<path d="M243.17 81.8501H240.3V85.1001H243.17V81.8501Z" fill="white"/>
<path d="M247.44 81.8501H244.57V85.1001H247.44V81.8501Z" fill="white"/>
<path d="M251.71 81.8501H248.84V85.1001H251.71V81.8501Z" fill="white"/>
<path d="M234.63 86.52H231.76V89.77H234.63V86.52Z" fill="white"/>
<path d="M238.9 86.52H236.03V89.77H238.9V86.52Z" fill="white"/>
<path d="M243.17 86.52H240.3V89.77H243.17V86.52Z" fill="white"/>
<path d="M247.44 86.52H244.57V89.77H247.44V86.52Z" fill="white"/>
<path d="M251.71 86.52H248.84V89.77H251.71V86.52Z" fill="white"/>
<path d="M234.63 91.1901H231.76V94.4401H234.63V91.1901Z" fill="white"/>
<path d="M238.9 91.1901H236.03V94.4401H238.9V91.1901Z" fill="white"/>
<path d="M243.17 91.1901H240.3V94.4401H243.17V91.1901Z" fill="white"/>
<path d="M247.44 91.1901H244.57V94.4401H247.44V91.1901Z" fill="white"/>
<path d="M251.71 91.1901H248.84V94.4401H251.71V91.1901Z" fill="white"/>
<path d="M234.63 95.8601H231.76V99.1101H234.63V95.8601Z" fill="white"/>
<path d="M238.9 95.8601H236.03V99.1101H238.9V95.8601Z" fill="white"/>
<path d="M243.17 95.8601H240.3V99.1101H243.17V95.8601Z" fill="white"/>
<path d="M247.44 95.8601H244.57V99.1101H247.44V95.8601Z" fill="white"/>
<path d="M251.71 95.8601H248.84V99.1101H251.71V95.8601Z" fill="white"/>
<path d="M234.63 100.53H231.76V103.78H234.63V100.53Z" fill="white"/>
<path d="M238.9 100.53H236.03V103.78H238.9V100.53Z" fill="white"/>
<path d="M243.17 100.53H240.3V103.78H243.17V100.53Z" fill="white"/>
<path d="M247.44 100.53H244.57V103.78H247.44V100.53Z" fill="white"/>
<path d="M251.71 100.53H248.84V103.78H251.71V100.53Z" fill="white"/>
<path d="M234.63 105.2H231.76V108.45H234.63V105.2Z" fill="white"/>
<path d="M238.9 105.2H236.03V108.45H238.9V105.2Z" fill="white"/>
<path d="M243.17 105.2H240.3V108.45H243.17V105.2Z" fill="white"/>
<path d="M247.44 105.2H244.57V108.45H247.44V105.2Z" fill="white"/>
<path d="M251.71 105.2H248.84V108.45H251.71V105.2Z" fill="white"/>
<path d="M234.63 109.87H231.76V113.12H234.63V109.87Z" fill="white"/>
<path d="M238.9 109.87H236.03V113.12H238.9V109.87Z" fill="white"/>
<path d="M243.17 109.87H240.3V113.12H243.17V109.87Z" fill="white"/>
<path d="M247.44 109.87H244.57V113.12H247.44V109.87Z" fill="white"/>
<path d="M251.71 109.87H248.84V113.12H251.71V109.87Z" fill="white"/>
<path d="M234.63 114.54H231.76V117.79H234.63V114.54Z" fill="white"/>
<path d="M238.9 114.54H236.03V117.79H238.9V114.54Z" fill="white"/>
<path d="M243.17 114.54H240.3V117.79H243.17V114.54Z" fill="white"/>
<path d="M247.44 114.54H244.57V117.79H247.44V114.54Z" fill="white"/>
<path d="M251.71 114.54H248.84V117.79H251.71V114.54Z" fill="white"/>
<path d="M234.63 119.21H231.76V122.46H234.63V119.21Z" fill="white"/>
<path d="M238.9 119.21H236.03V122.46H238.9V119.21Z" fill="white"/>
<path d="M243.17 119.21H240.3V122.46H243.17V119.21Z" fill="white"/>
<path d="M247.44 119.21H244.57V122.46H247.44V119.21Z" fill="white"/>
<path d="M251.71 119.21H248.84V122.46H251.71V119.21Z" fill="white"/>
<path d="M234.63 123.88H231.76V127.13H234.63V123.88Z" fill="white"/>
<path d="M238.9 123.88H236.03V127.13H238.9V123.88Z" fill="white"/>
<path d="M243.17 123.88H240.3V127.13H243.17V123.88Z" fill="white"/>
<path d="M247.44 123.88H244.57V127.13H247.44V123.88Z" fill="white"/>
<path d="M251.71 123.88H248.84V127.13H251.71V123.88Z" fill="white"/>
<path d="M234.63 128.55H231.76V131.8H234.63V128.55Z" fill="white"/>
<path d="M238.9 128.55H236.03V131.8H238.9V128.55Z" fill="white"/>
<path d="M243.17 128.55H240.3V131.8H243.17V128.55Z" fill="white"/>
<path d="M247.44 128.55H244.57V131.8H247.44V128.55Z" fill="white"/>
<path d="M251.71 128.55H248.84V131.8H251.71V128.55Z" fill="white"/>
<path d="M234.63 133.22H231.76V136.47H234.63V133.22Z" fill="white"/>
<path d="M238.9 133.22H236.03V136.47H238.9V133.22Z" fill="white"/>
<path d="M243.17 133.22H240.3V136.47H243.17V133.22Z" fill="white"/>
<path d="M247.44 133.22H244.57V136.47H247.44V133.22Z" fill="white"/>
<path d="M251.71 133.22H248.84V136.47H251.71V133.22Z" fill="white"/>
<path d="M234.63 137.89H231.76V141.14H234.63V137.89Z" fill="white"/>
<path d="M238.9 137.89H236.03V141.14H238.9V137.89Z" fill="white"/>
<path d="M243.17 137.89H240.3V141.14H243.17V137.89Z" fill="white"/>
<path d="M247.44 137.89H244.57V141.14H247.44V137.89Z" fill="white"/>
<path d="M251.71 137.89H248.84V141.14H251.71V137.89Z" fill="white"/>
<path d="M234.63 142.56H231.76V145.81H234.63V142.56Z" fill="white"/>
<path d="M238.9 142.56H236.03V145.81H238.9V142.56Z" fill="white"/>
<path d="M243.17 142.56H240.3V145.81H243.17V142.56Z" fill="white"/>
<path d="M247.44 142.56H244.57V145.81H247.44V142.56Z" fill="white"/>
<path d="M251.71 142.56H248.84V145.81H251.71V142.56Z" fill="white"/>
<path d="M234.63 147.23H231.76V150.48H234.63V147.23Z" fill="white"/>
<path d="M238.9 147.23H236.03V150.48H238.9V147.23Z" fill="white"/>
<path d="M243.17 147.23H240.3V150.48H243.17V147.23Z" fill="white"/>
<path d="M247.44 147.23H244.57V150.48H247.44V147.23Z" fill="white"/>
<path d="M251.71 147.23H248.84V150.48H251.71V147.23Z" fill="white"/>
<path d="M234.63 151.9H231.76V155.15H234.63V151.9Z" fill="white"/>
<path d="M238.9 151.9H236.03V155.15H238.9V151.9Z" fill="white"/>
<path d="M243.17 151.9H240.3V155.15H243.17V151.9Z" fill="white"/>
<path d="M247.44 151.9H244.57V155.15H247.44V151.9Z" fill="white"/>
<path d="M251.71 151.9H248.84V155.15H251.71V151.9Z" fill="white"/>
<path d="M234.63 156.57H231.76V159.82H234.63V156.57Z" fill="white"/>
<path d="M238.9 156.57H236.03V159.82H238.9V156.57Z" fill="white"/>
<path d="M243.17 156.57H240.3V159.82H243.17V156.57Z" fill="white"/>
<path d="M247.44 156.57H244.57V159.82H247.44V156.57Z" fill="white"/>
<path d="M251.71 156.57H248.84V159.82H251.71V156.57Z" fill="white"/>
<path d="M234.63 161.24H231.76V164.49H234.63V161.24Z" fill="white"/>
<path d="M238.9 161.24H236.03V164.49H238.9V161.24Z" fill="white"/>
<path d="M243.17 161.24H240.3V164.49H243.17V161.24Z" fill="white"/>
<path d="M247.44 161.24H244.57V164.49H247.44V161.24Z" fill="white"/>
<path d="M251.71 161.24H248.84V164.49H251.71V161.24Z" fill="white"/>
<path d="M234.63 165.91H231.76V169.16H234.63V165.91Z" fill="white"/>
<path d="M238.9 165.91H236.03V169.16H238.9V165.91Z" fill="white"/>
<path d="M243.17 165.91H240.3V169.16H243.17V165.91Z" fill="white"/>
<path d="M247.44 165.91H244.57V169.16H247.44V165.91Z" fill="white"/>
<path d="M251.71 165.91H248.84V169.16H251.71V165.91Z" fill="white"/>
<path d="M101.73 87.74H80.5701V171.76H101.73V87.74Z" fill="#E7E9EB"/>
<path d="M84.67 89.76H82.05V92.72H84.67V89.76Z" fill="white"/>
<path d="M88.57 89.76H85.95V92.72H88.57V89.76Z" fill="white"/>
<path d="M92.4601 89.76H89.8401V92.72H92.4601V89.76Z" fill="white"/>
<path d="M96.36 89.76H93.74V92.72H96.36V89.76Z" fill="white"/>
<path d="M100.25 89.76H97.6301V92.72H100.25V89.76Z" fill="white"/>
<path d="M84.67 94.02H82.05V96.98H84.67V94.02Z" fill="white"/>
<path d="M88.57 94.02H85.95V96.98H88.57V94.02Z" fill="white"/>
<path d="M92.4601 94.02H89.8401V96.98H92.4601V94.02Z" fill="white"/>
<path d="M96.36 94.02H93.74V96.98H96.36V94.02Z" fill="white"/>
<path d="M100.25 94.02H97.6301V96.98H100.25V94.02Z" fill="white"/>
<path d="M84.67 98.28H82.05V101.24H84.67V98.28Z" fill="white"/>
<path d="M88.57 98.28H85.95V101.24H88.57V98.28Z" fill="white"/>
<path d="M92.4601 98.28H89.8401V101.24H92.4601V98.28Z" fill="white"/>
<path d="M96.36 98.28H93.74V101.24H96.36V98.28Z" fill="white"/>
<path d="M100.25 98.28H97.6301V101.24H100.25V98.28Z" fill="white"/>
<path d="M84.67 102.54H82.05V105.5H84.67V102.54Z" fill="white"/>
<path d="M88.57 102.54H85.95V105.5H88.57V102.54Z" fill="white"/>
<path d="M92.4601 102.54H89.8401V105.5H92.4601V102.54Z" fill="white"/>
<path d="M96.36 102.54H93.74V105.5H96.36V102.54Z" fill="white"/>
<path d="M100.25 102.54H97.6301V105.5H100.25V102.54Z" fill="white"/>
<path d="M84.67 106.8H82.05V109.76H84.67V106.8Z" fill="white"/>
<path d="M88.57 106.8H85.95V109.76H88.57V106.8Z" fill="white"/>
<path d="M92.4601 106.8H89.8401V109.76H92.4601V106.8Z" fill="white"/>
<path d="M96.36 106.8H93.74V109.76H96.36V106.8Z" fill="white"/>
<path d="M100.25 106.8H97.6301V109.76H100.25V106.8Z" fill="white"/>
<path d="M84.67 111.06H82.05V114.02H84.67V111.06Z" fill="white"/>
<path d="M88.57 111.06H85.95V114.02H88.57V111.06Z" fill="white"/>
<path d="M92.4601 111.06H89.8401V114.02H92.4601V111.06Z" fill="white"/>
<path d="M96.36 111.06H93.74V114.02H96.36V111.06Z" fill="white"/>
<path d="M100.25 111.06H97.6301V114.02H100.25V111.06Z" fill="white"/>
<path d="M84.67 115.31H82.05V118.27H84.67V115.31Z" fill="white"/>
<path d="M88.57 115.31H85.95V118.27H88.57V115.31Z" fill="white"/>
<path d="M92.4601 115.31H89.8401V118.27H92.4601V115.31Z" fill="white"/>
<path d="M96.36 115.31H93.74V118.27H96.36V115.31Z" fill="white"/>
<path d="M100.25 115.31H97.6301V118.27H100.25V115.31Z" fill="white"/>
<path d="M84.67 119.57H82.05V122.53H84.67V119.57Z" fill="white"/>
<path d="M88.57 119.57H85.95V122.53H88.57V119.57Z" fill="white"/>
<path d="M92.4601 119.57H89.8401V122.53H92.4601V119.57Z" fill="white"/>
<path d="M96.36 119.57H93.74V122.53H96.36V119.57Z" fill="white"/>
<path d="M100.25 119.57H97.6301V122.53H100.25V119.57Z" fill="white"/>
<path d="M84.67 123.83H82.05V126.79H84.67V123.83Z" fill="white"/>
<path d="M88.57 123.83H85.95V126.79H88.57V123.83Z" fill="white"/>
<path d="M92.4601 123.83H89.8401V126.79H92.4601V123.83Z" fill="white"/>
<path d="M96.36 123.83H93.74V126.79H96.36V123.83Z" fill="white"/>
<path d="M100.25 123.83H97.6301V126.79H100.25V123.83Z" fill="white"/>
<path d="M84.67 128.09H82.05V131.05H84.67V128.09Z" fill="white"/>
<path d="M88.57 128.09H85.95V131.05H88.57V128.09Z" fill="white"/>
<path d="M92.4601 128.09H89.8401V131.05H92.4601V128.09Z" fill="white"/>
<path d="M96.36 128.09H93.74V131.05H96.36V128.09Z" fill="white"/>
<path d="M100.25 128.09H97.6301V131.05H100.25V128.09Z" fill="white"/>
<path d="M84.67 132.35H82.05V135.31H84.67V132.35Z" fill="white"/>
<path d="M88.57 132.35H85.95V135.31H88.57V132.35Z" fill="white"/>
<path d="M92.4601 132.35H89.8401V135.31H92.4601V132.35Z" fill="white"/>
<path d="M96.36 132.35H93.74V135.31H96.36V132.35Z" fill="white"/>
<path d="M100.25 132.35H97.6301V135.31H100.25V132.35Z" fill="white"/>
<path d="M84.67 136.61H82.05V139.57H84.67V136.61Z" fill="white"/>
<path d="M88.57 136.61H85.95V139.57H88.57V136.61Z" fill="white"/>
<path d="M92.4601 136.61H89.8401V139.57H92.4601V136.61Z" fill="white"/>
<path d="M96.36 136.61H93.74V139.57H96.36V136.61Z" fill="white"/>
<path d="M100.25 136.61H97.6301V139.57H100.25V136.61Z" fill="white"/>
<path d="M84.67 140.87H82.05V143.83H84.67V140.87Z" fill="white"/>
<path d="M88.57 140.87H85.95V143.83H88.57V140.87Z" fill="white"/>
<path d="M92.4601 140.87H89.8401V143.83H92.4601V140.87Z" fill="white"/>
<path d="M96.36 140.87H93.74V143.83H96.36V140.87Z" fill="white"/>
<path d="M100.25 140.87H97.6301V143.83H100.25V140.87Z" fill="white"/>
<path d="M84.67 145.13H82.05V148.09H84.67V145.13Z" fill="white"/>
<path d="M88.57 145.13H85.95V148.09H88.57V145.13Z" fill="white"/>
<path d="M92.4601 145.13H89.8401V148.09H92.4601V145.13Z" fill="white"/>
<path d="M96.36 145.13H93.74V148.09H96.36V145.13Z" fill="white"/>
<path d="M100.25 145.13H97.6301V148.09H100.25V145.13Z" fill="white"/>
<path d="M84.67 149.39H82.05V152.35H84.67V149.39Z" fill="white"/>
<path d="M88.57 149.39H85.95V152.35H88.57V149.39Z" fill="white"/>
<path d="M92.4601 149.39H89.8401V152.35H92.4601V149.39Z" fill="white"/>
<path d="M96.36 149.39H93.74V152.35H96.36V149.39Z" fill="white"/>
<path d="M100.25 149.39H97.6301V152.35H100.25V149.39Z" fill="white"/>
<path d="M84.67 153.65H82.05V156.61H84.67V153.65Z" fill="white"/>
<path d="M88.57 153.65H85.95V156.61H88.57V153.65Z" fill="white"/>
<path d="M92.4601 153.65H89.8401V156.61H92.4601V153.65Z" fill="white"/>
<path d="M96.36 153.65H93.74V156.61H96.36V153.65Z" fill="white"/>
<path d="M100.25 153.65H97.6301V156.61H100.25V153.65Z" fill="white"/>
<path d="M84.67 157.91H82.05V160.87H84.67V157.91Z" fill="white"/>
<path d="M88.57 157.91H85.95V160.87H88.57V157.91Z" fill="white"/>
<path d="M92.4601 157.91H89.8401V160.87H92.4601V157.91Z" fill="white"/>
<path d="M96.36 157.91H93.74V160.87H96.36V157.91Z" fill="white"/>
<path d="M100.25 157.91H97.6301V160.87H100.25V157.91Z" fill="white"/>
<path d="M84.67 162.17H82.05V165.13H84.67V162.17Z" fill="white"/>
<path d="M88.57 162.17H85.95V165.13H88.57V162.17Z" fill="white"/>
<path d="M92.4601 162.17H89.8401V165.13H92.4601V162.17Z" fill="white"/>
<path d="M96.36 162.17H93.74V165.13H96.36V162.17Z" fill="white"/>
<path d="M100.25 162.17H97.6301V165.13H100.25V162.17Z" fill="white"/>
<path d="M84.67 166.43H82.05V169.39H84.67V166.43Z" fill="white"/>
<path d="M88.57 166.43H85.95V169.39H88.57V166.43Z" fill="white"/>
<path d="M92.4601 166.43H89.8401V169.39H92.4601V166.43Z" fill="white"/>
<path d="M96.36 166.43H93.74V169.39H96.36V166.43Z" fill="white"/>
<path d="M100.25 166.43H97.6301V169.39H100.25V166.43Z" fill="white"/>
<path d="M178.56 81.2301H155.36V173.36H178.56V81.2301Z" fill="#E7E9EB"/>
<path d="M173.19 89.7401H161.1V69.0601C161.1 66.4201 164.06 64.8701 166.23 66.3701L173.19 71.1901V89.7401Z" fill="#E7E9EB"/>
<path d="M159.54 91.1901H156.67V94.4401H159.54V91.1901Z" fill="white"/>
<path d="M163.81 91.1901H160.94V94.4401H163.81V91.1901Z" fill="white"/>
<path d="M168.08 91.1901H165.21V94.4401H168.08V91.1901Z" fill="white"/>
<path d="M172.35 91.1901H169.48V94.4401H172.35V91.1901Z" fill="white"/>
<path d="M176.62 91.1901H173.75V94.4401H176.62V91.1901Z" fill="white"/>
<path d="M159.54 100.53H156.67V103.78H159.54V100.53Z" fill="white"/>
<path d="M163.81 100.53H160.94V103.78H163.81V100.53Z" fill="white"/>
<path d="M168.08 100.53H165.21V103.78H168.08V100.53Z" fill="white"/>
<path d="M172.35 100.53H169.48V103.78H172.35V100.53Z" fill="white"/>
<path d="M176.62 100.53H173.75V103.78H176.62V100.53Z" fill="white"/>
<path d="M159.54 109.87H156.67V113.12H159.54V109.87Z" fill="white"/>
<path d="M163.81 109.87H160.94V113.12H163.81V109.87Z" fill="white"/>
<path d="M168.08 109.87H165.21V113.12H168.08V109.87Z" fill="white"/>
<path d="M172.35 109.87H169.48V113.12H172.35V109.87Z" fill="white"/>
<path d="M176.62 109.87H173.75V113.12H176.62V109.87Z" fill="white"/>
<path d="M159.54 114.54H156.67V117.79H159.54V114.54Z" fill="white"/>
<path d="M163.81 114.54H160.94V117.79H163.81V114.54Z" fill="white"/>
<path d="M168.08 114.54H165.21V117.79H168.08V114.54Z" fill="white"/>
<path d="M172.35 114.54H169.48V117.79H172.35V114.54Z" fill="white"/>
<path d="M176.62 114.54H173.75V117.79H176.62V114.54Z" fill="white"/>
<path d="M159.54 119.21H156.67V122.46H159.54V119.21Z" fill="white"/>
<path d="M163.81 119.21H160.94V122.46H163.81V119.21Z" fill="white"/>
<path d="M168.08 119.21H165.21V122.46H168.08V119.21Z" fill="white"/>
<path d="M172.35 119.21H169.48V122.46H172.35V119.21Z" fill="white"/>
<path d="M176.62 119.21H173.75V122.46H176.62V119.21Z" fill="white"/>
<path d="M159.54 128.55H156.67V131.8H159.54V128.55Z" fill="white"/>
<path d="M163.81 128.55H160.94V131.8H163.81V128.55Z" fill="white"/>
<path d="M168.08 128.55H165.21V131.8H168.08V128.55Z" fill="white"/>
<path d="M172.35 128.55H169.48V131.8H172.35V128.55Z" fill="white"/>
<path d="M176.62 128.55H173.75V131.8H176.62V128.55Z" fill="white"/>
<path d="M159.54 133.22H156.67V136.47H159.54V133.22Z" fill="white"/>
<path d="M163.81 133.22H160.94V136.47H163.81V133.22Z" fill="white"/>
<path d="M168.08 133.22H165.21V136.47H168.08V133.22Z" fill="white"/>
<path d="M172.35 133.22H169.48V136.47H172.35V133.22Z" fill="white"/>
<path d="M176.62 133.22H173.75V136.47H176.62V133.22Z" fill="white"/>
<path d="M159.54 137.89H156.67V141.14H159.54V137.89Z" fill="white"/>
<path d="M163.81 137.89H160.94V141.14H163.81V137.89Z" fill="white"/>
<path d="M168.08 137.89H165.21V141.14H168.08V137.89Z" fill="white"/>
<path d="M172.35 137.89H169.48V141.14H172.35V137.89Z" fill="white"/>
<path d="M176.62 137.89H173.75V141.14H176.62V137.89Z" fill="white"/>
<path d="M159.54 147.23H156.67V150.48H159.54V147.23Z" fill="white"/>
<path d="M163.81 147.23H160.94V150.48H163.81V147.23Z" fill="white"/>
<path d="M168.08 147.23H165.21V150.48H168.08V147.23Z" fill="white"/>
<path d="M172.35 147.23H169.48V150.48H172.35V147.23Z" fill="white"/>
<path d="M176.62 147.23H173.75V150.48H176.62V147.23Z" fill="white"/>
<path d="M159.54 151.9H156.67V155.15H159.54V151.9Z" fill="white"/>
<path d="M163.81 151.9H160.94V155.15H163.81V151.9Z" fill="white"/>
<path d="M168.08 151.9H165.21V155.15H168.08V151.9Z" fill="white"/>
<path d="M172.35 151.9H169.48V155.15H172.35V151.9Z" fill="white"/>
<path d="M176.62 151.9H173.75V155.15H176.62V151.9Z" fill="white"/>
<path d="M186.57 110.37H171.04V172.57H186.57V110.37Z" fill="#9C9AA0"/>
<path d="M186.57 114.27H171.04V117.64H186.57V114.27Z" fill="#CECCD4"/>
<path d="M186.57 122.08H171.04V127.75H186.57V122.08Z" fill="#CECCD4"/>
<path d="M186.57 132.96H171.04V136.33H186.57V132.96Z" fill="#CECCD4"/>
<path d="M186.57 140.78H171.04V146.45H186.57V140.78Z" fill="#CECCD4"/>
<path d="M186.57 151.66H171.04V155.03H186.57V151.66Z" fill="#CECCD4"/>
<path d="M186.57 159.48H171.04V165.15H186.57V159.48Z" fill="#CECCD4"/>
<path d="M179.82 110.37H177.81V172.57H179.82V110.37Z" fill="white"/>
<path d="M161.28 119.2H137.26V172.57H161.28V119.2Z" fill="#CECCD4"/>
<path d="M143.15 120.74H138.99V124.9H143.15V120.74Z" fill="#9C9AA0"/>
<path d="M148.52 120.74H144.36V124.9H148.52V120.74Z" fill="#9C9AA0"/>
<path d="M153.9 120.74H149.74V124.9H153.9V120.74Z" fill="#9C9AA0"/>
<path d="M159.27 120.74H155.11V124.9H159.27V120.74Z" fill="#9C9AA0"/>
<path d="M143.15 126.97H138.99V131.13H143.15V126.97Z" fill="#9C9AA0"/>
<path d="M148.52 126.97H144.36V131.13H148.52V126.97Z" fill="#9C9AA0"/>
<path d="M153.9 126.97H149.74V131.13H153.9V126.97Z" fill="#9C9AA0"/>
<path d="M159.27 126.97H155.11V131.13H159.27V126.97Z" fill="#9C9AA0"/>
<path d="M143.15 133.2H138.99V137.36H143.15V133.2Z" fill="#9C9AA0"/>
<path d="M148.52 133.2H144.36V137.36H148.52V133.2Z" fill="#9C9AA0"/>
<path d="M153.9 133.2H149.74V137.36H153.9V133.2Z" fill="#9C9AA0"/>
<path d="M159.27 133.2H155.11V137.36H159.27V133.2Z" fill="#9C9AA0"/>
<path d="M143.15 139.42H138.99V143.58H143.15V139.42Z" fill="#9C9AA0"/>
<path d="M148.52 139.42H144.36V143.58H148.52V139.42Z" fill="#9C9AA0"/>
<path d="M153.9 139.42H149.74V143.58H153.9V139.42Z" fill="#9C9AA0"/>
<path d="M159.27 139.42H155.11V143.58H159.27V139.42Z" fill="#9C9AA0"/>
<path d="M143.15 145.65H138.99V149.81H143.15V145.65Z" fill="#9C9AA0"/>
<path d="M148.52 145.65H144.36V149.81H148.52V145.65Z" fill="#9C9AA0"/>
<path d="M153.9 145.65H149.74V149.81H153.9V145.65Z" fill="#9C9AA0"/>
<path d="M159.27 145.65H155.11V149.81H159.27V145.65Z" fill="#9C9AA0"/>
<path d="M143.15 151.88H138.99V156.04H143.15V151.88Z" fill="#9C9AA0"/>
<path d="M148.52 151.88H144.36V156.04H148.52V151.88Z" fill="#9C9AA0"/>
<path d="M153.9 151.88H149.74V156.04H153.9V151.88Z" fill="#9C9AA0"/>
<path d="M159.27 151.88H155.11V156.04H159.27V151.88Z" fill="#9C9AA0"/>
<path d="M143.15 158.11H138.99V162.27H143.15V158.11Z" fill="#9C9AA0"/>
<path d="M148.52 158.11H144.36V162.27H148.52V158.11Z" fill="#9C9AA0"/>
<path d="M153.9 158.11H149.74V162.27H153.9V158.11Z" fill="#9C9AA0"/>
<path d="M159.27 158.11H155.11V162.27H159.27V158.11Z" fill="#9C9AA0"/>
<path d="M143.15 164.33H138.99V168.49H143.15V164.33Z" fill="#9C9AA0"/>
<path d="M153.48 164.33H144.36V172.56H153.48V164.33Z" fill="#9C9AA0"/>
<path d="M159.27 164.33H155.11V168.49H159.27V164.33Z" fill="#9C9AA0"/>
<path d="M224.73 83.8H215.1V113.43H224.73V83.8Z" fill="#E7E9EB"/>
<path d="M224.74 65.7201H218.37V90.1501H224.74V65.7201Z" fill="#E7E9EB"/>
<path d="M227.02 96.9601H204.17V173.59H227.02V96.9601Z" fill="#9C9AA0"/>
<path d="M227.02 101.76H204.17V105.91H227.02V101.76Z" fill="#CECCD4"/>
<path d="M227.02 111.39H204.17V118.37H227.02V111.39Z" fill="#CECCD4"/>
<path d="M227.02 124.8H204.17V128.96H227.02V124.8Z" fill="#CECCD4"/>
<path d="M227.02 134.43H204.17V141.42H227.02V134.43Z" fill="#CECCD4"/>
<path d="M227.02 147.84H204.17V152H227.02V147.84Z" fill="#CECCD4"/>
<path d="M227.02 157.47H204.17V164.46H227.02V157.47Z" fill="#CECCD4"/>
<path d="M223.38 139.61H207.8C206.87 139.61 206.11 138.85 206.11 137.92C206.11 136.99 206.87 136.23 207.8 136.23H223.38C224.31 136.23 225.07 136.99 225.07 137.92C225.07 138.85 224.32 139.61 223.38 139.61Z" fill="white"/>
<path d="M223.38 116.47H207.8C206.87 116.47 206.11 115.71 206.11 114.78C206.11 113.85 206.87 113.09 207.8 113.09H223.38C224.31 113.09 225.07 113.85 225.07 114.78C225.07 115.71 224.32 116.47 223.38 116.47Z" fill="white"/>
<path d="M223.38 162.75H207.8C206.87 162.75 206.11 161.99 206.11 161.06C206.11 160.13 206.87 159.37 207.8 159.37H223.38C224.31 159.37 225.07 160.13 225.07 161.06C225.07 162 224.32 162.75 223.38 162.75Z" fill="white"/>
<path d="M189.47 172.4V79.6501H199.22V172.4H199.85V79.0801H188.84V172.4H189.47Z" fill="#9C9AA0"/>
<path d="M199.53 89.3801H189.16V90.0101H199.53V89.3801Z" fill="#9C9AA0"/>
<path d="M189.47 79.7101L199.53 89.7001" stroke="#9C9AA0" stroke-width="0.6307" stroke-miterlimit="10"/>
<path d="M199.53 79.7101L189.47 89.7001" stroke="#9C9AA0" stroke-width="0.6307" stroke-miterlimit="10"/>
<path d="M199.53 99.6901H189.16V100.32H199.53V99.6901Z" fill="#9C9AA0"/>
<path d="M189.47 90.0101L199.53 100" stroke="#9C9AA0" stroke-width="0.6307" stroke-miterlimit="10"/>
<path d="M199.53 90.0101L189.47 100" stroke="#9C9AA0" stroke-width="0.6307" stroke-miterlimit="10"/>
<path d="M199.53 109.99H189.16V110.62H199.53V109.99Z" fill="#9C9AA0"/>
<path d="M189.47 100.32L199.53 110.3" stroke="#9C9AA0" stroke-width="0.6307" stroke-miterlimit="10"/>
<path d="M199.53 100.32L189.47 110.3" stroke="#9C9AA0" stroke-width="0.6307" stroke-miterlimit="10"/>
<path d="M199.53 120.29H189.16V120.92H199.53V120.29Z" fill="#9C9AA0"/>
<path d="M189.47 110.62L199.53 120.61" stroke="#9C9AA0" stroke-width="0.6307" stroke-miterlimit="10"/>
<path d="M199.53 110.62L189.47 120.61" stroke="#9C9AA0" stroke-width="0.6307" stroke-miterlimit="10"/>
<path d="M199.53 130.59H189.16V131.22H199.53V130.59Z" fill="#9C9AA0"/>
<path d="M189.47 120.92L199.53 130.91" stroke="#9C9AA0" stroke-width="0.6307" stroke-miterlimit="10"/>
<path d="M199.53 120.92L189.47 130.91" stroke="#9C9AA0" stroke-width="0.6307" stroke-miterlimit="10"/>
<path d="M199.53 140.89H189.16V141.52H199.53V140.89Z" fill="#9C9AA0"/>
<path d="M189.47 131.22L199.53 141.21" stroke="#9C9AA0" stroke-width="0.6307" stroke-miterlimit="10"/>
<path d="M199.53 131.22L189.47 141.21" stroke="#9C9AA0" stroke-width="0.6307" stroke-miterlimit="10"/>
<path d="M199.53 151.2H189.16V151.83H199.53V151.2Z" fill="#9C9AA0"/>
<path d="M189.47 141.52L199.53 151.51" stroke="#9C9AA0" stroke-width="0.6307" stroke-miterlimit="10"/>
<path d="M199.53 141.52L189.47 151.51" stroke="#9C9AA0" stroke-width="0.6307" stroke-miterlimit="10"/>
<path d="M199.53 161.5H189.16V162.13H199.53V161.5Z" fill="#9C9AA0"/>
<path d="M189.47 151.83L199.53 161.81" stroke="#9C9AA0" stroke-width="0.6307" stroke-miterlimit="10"/>
<path d="M199.53 151.83L189.47 161.81" stroke="#9C9AA0" stroke-width="0.6307" stroke-miterlimit="10"/>
<path d="M199.84 171.8H188.84V172.43H199.84V171.8Z" fill="#9C9AA0"/>
<path d="M189.47 162.13L199.53 172.12" stroke="#9C9AA0" stroke-width="0.6307" stroke-miterlimit="10"/>
<path d="M199.53 162.13L189.47 172.12" stroke="#9C9AA0" stroke-width="0.6307" stroke-miterlimit="10"/>
<path d="M132.46 89.7701H127.47V100H132.46V89.7701Z" fill="#9C9AA0"/>
<path d="M150.51 89.7701H145.52V100H150.51V89.7701Z" fill="#9C9AA0"/>
<path d="M130.34 99.2601H129.6V104.33H130.34V99.2601Z" fill="#9C9AA0"/>
<path d="M148.44 99.2601H147.7V104.33H148.44V99.2601Z" fill="#9C9AA0"/>
<path d="M130.34 110.97H129.6V112.71H130.34V110.97Z" fill="#9C9AA0"/>
<path d="M148.44 110.97H147.7V112.71H148.44V110.97Z" fill="#9C9AA0"/>
<path d="M130.17 110.97H129.77C129.06 110.97 128.48 110.39 128.48 109.68V105.37C128.48 104.66 129.06 104.08 129.77 104.08H130.17C130.88 104.08 131.46 104.66 131.46 105.37V109.68C131.46 110.39 130.88 110.97 130.17 110.97Z" stroke="#9C9AA0" stroke-width="0.6307" stroke-miterlimit="10"/>
<path d="M148.28 110.97H147.88C147.17 110.97 146.59 110.39 146.59 109.68V105.37C146.59 104.66 147.17 104.08 147.88 104.08H148.28C148.99 104.08 149.57 104.66 149.57 105.37V109.68C149.57 110.39 148.99 110.97 148.28 110.97Z" stroke="#9C9AA0" stroke-width="0.6307" stroke-miterlimit="10"/>
<path d="M149.9 116.82H128.62C127.69 116.82 126.93 116.06 126.93 115.13V114.4C126.93 113.47 127.69 112.71 128.62 112.71H149.9C150.83 112.71 151.59 113.47 151.59 114.4V115.13C151.59 116.07 150.83 116.82 149.9 116.82Z" fill="#807F83"/>
<path d="M199.59 65.7201H194.28V79.4001H199.59V65.7201Z" stroke="#9C9AA0" stroke-width="0.6307" stroke-miterlimit="10"/>
<path d="M194.28 69.9601H199.59" stroke="#9C9AA0" stroke-width="0.6307" stroke-miterlimit="10"/>
<path d="M194.34 74.78H199.59" stroke="#9C9AA0" stroke-width="0.6693" stroke-miterlimit="10"/>
<path d="M116.88 79.7101H219.56V89.4501H116.88V90.0901H220.19V79.0801H116.88V79.7101Z" fill="#9C9AA0"/>
<path d="M209.89 79.4H209.26V89.77H209.89V79.4Z" fill="#9C9AA0"/>
<path d="M199.9 79.4H199.27V89.77H199.9V79.4Z" fill="#9C9AA0"/>
<path d="M219.56 79.7101L209.57 89.7701" stroke="#9C9AA0" stroke-width="0.6307" stroke-miterlimit="10"/>
<path d="M219.56 89.7701L209.57 79.7101" stroke="#9C9AA0" stroke-width="0.6307" stroke-miterlimit="10"/>
<path d="M209.57 79.7101L199.59 89.7701" stroke="#9C9AA0" stroke-width="0.6307" stroke-miterlimit="10"/>
<path d="M209.57 89.7701L199.59 79.7101" stroke="#9C9AA0" stroke-width="0.6307" stroke-miterlimit="10"/>
<path d="M189.6 79.4H188.97V89.77H189.6V79.4Z" fill="#9C9AA0"/>
<path d="M199.27 79.7101L189.28 89.7701" stroke="#9C9AA0" stroke-width="0.6307" stroke-miterlimit="10"/>
<path d="M199.27 89.7701L189.28 79.7101" stroke="#9C9AA0" stroke-width="0.6307" stroke-miterlimit="10"/>
<path d="M179.3 79.4H178.67V89.77H179.3V79.4Z" fill="#9C9AA0"/>
<path d="M188.97 79.7101L178.98 89.7701" stroke="#9C9AA0" stroke-width="0.6307" stroke-miterlimit="10"/>
<path d="M188.97 89.7701L178.98 79.7101" stroke="#9C9AA0" stroke-width="0.6307" stroke-miterlimit="10"/>
<path d="M168.99 79.4H168.36V89.77H168.99V79.4Z" fill="#9C9AA0"/>
<path d="M178.67 79.7101L168.68 89.7701" stroke="#9C9AA0" stroke-width="0.6307" stroke-miterlimit="10"/>
<path d="M178.67 89.7701L168.68 79.7101" stroke="#9C9AA0" stroke-width="0.6307" stroke-miterlimit="10"/>
<path d="M158.69 79.4H158.06V89.77H158.69V79.4Z" fill="#9C9AA0"/>
<path d="M168.36 79.7101L158.38 89.7701" stroke="#9C9AA0" stroke-width="0.6307" stroke-miterlimit="10"/>
<path d="M168.36 89.7701L158.38 79.7101" stroke="#9C9AA0" stroke-width="0.6307" stroke-miterlimit="10"/>
<path d="M148.39 79.4H147.76V89.77H148.39V79.4Z" fill="#9C9AA0"/>
<path d="M158.06 79.7101L148.08 89.7701" stroke="#9C9AA0" stroke-width="0.6307" stroke-miterlimit="10"/>
<path d="M158.06 89.7701L148.08 79.7101" stroke="#9C9AA0" stroke-width="0.6307" stroke-miterlimit="10"/>
<path d="M138.09 79.4H137.46V89.77H138.09V79.4Z" fill="#9C9AA0"/>
<path d="M147.76 79.7101L137.77 89.7701" stroke="#9C9AA0" stroke-width="0.6307" stroke-miterlimit="10"/>
<path d="M147.76 89.7701L137.77 79.7101" stroke="#9C9AA0" stroke-width="0.6307" stroke-miterlimit="10"/>
<path d="M127.79 79.4H127.16V89.77H127.79V79.4Z" fill="#9C9AA0"/>
<path d="M137.46 79.7101L127.47 89.7701" stroke="#9C9AA0" stroke-width="0.6307" stroke-miterlimit="10"/>
<path d="M137.46 89.7701L127.47 79.7101" stroke="#9C9AA0" stroke-width="0.6307" stroke-miterlimit="10"/>
<path d="M117.48 79.0801H116.85V90.0901H117.48V79.0801Z" fill="#9C9AA0"/>
<path d="M127.16 79.7101L117.17 89.7701" stroke="#9C9AA0" stroke-width="0.6307" stroke-miterlimit="10"/>
<path d="M127.16 89.7701L117.17 79.7101" stroke="#9C9AA0" stroke-width="0.6307" stroke-miterlimit="10"/>
<path d="M219.87 83.78V89.78H245.07L242.99 87.5L219.87 83.78Z" stroke="#9C9AA0" stroke-width="0.6166" stroke-miterlimit="10"/>
<path d="M220.19 84.23L224.41 89.78L229.08 85.26L232.47 89.78L236.03 86.52L238.29 89.78L241.08 87.19L242.53 89.7L243.57 88.14" stroke="#9C9AA0" stroke-width="0.6166" stroke-miterlimit="10" stroke-linecap="round" stroke-linejoin="round"/>
<path d="M199.59 65.7201L242.99 87.5001" stroke="#9C9AA0" stroke-width="0.6693" stroke-miterlimit="10"/>
<path d="M117.33 79.4001L194.28 65.7201" stroke="#9C9AA0" stroke-width="0.6693" stroke-miterlimit="10"/>
<path d="M202.95 132.92H188.1V172.57H202.95V132.92Z" fill="#CECCD4"/>
<path d="M191.74 134.06H189.17V137.15H191.74V134.06Z" fill="#9C9AA0"/>
<path d="M195.06 134.06H192.49V137.15H195.06V134.06Z" fill="#9C9AA0"/>
<path d="M198.38 134.06H195.81V137.15H198.38V134.06Z" fill="#9C9AA0"/>
<path d="M201.71 134.06H199.14V137.15H201.71V134.06Z" fill="#9C9AA0"/>
<path d="M191.74 138.69H189.17V141.78H191.74V138.69Z" fill="#9C9AA0"/>
<path d="M195.06 138.69H192.49V141.78H195.06V138.69Z" fill="#9C9AA0"/>
<path d="M198.38 138.69H195.81V141.78H198.38V138.69Z" fill="#9C9AA0"/>
<path d="M201.71 138.69H199.14V141.78H201.71V138.69Z" fill="#9C9AA0"/>
<path d="M191.74 143.32H189.17V146.41H191.74V143.32Z" fill="#9C9AA0"/>
<path d="M195.06 143.32H192.49V146.41H195.06V143.32Z" fill="#9C9AA0"/>
<path d="M198.38 143.32H195.81V146.41H198.38V143.32Z" fill="#9C9AA0"/>
<path d="M201.71 143.32H199.14V146.41H201.71V143.32Z" fill="#9C9AA0"/>
<path d="M191.74 147.94H189.17V151.03H191.74V147.94Z" fill="#9C9AA0"/>
<path d="M195.06 147.94H192.49V151.03H195.06V147.94Z" fill="#9C9AA0"/>
<path d="M198.38 147.94H195.81V151.03H198.38V147.94Z" fill="#9C9AA0"/>
<path d="M201.71 147.94H199.14V151.03H201.71V147.94Z" fill="#9C9AA0"/>
<path d="M191.74 152.57H189.17V155.66H191.74V152.57Z" fill="#9C9AA0"/>
<path d="M195.06 152.57H192.49V155.66H195.06V152.57Z" fill="#9C9AA0"/>
<path d="M198.38 152.57H195.81V155.66H198.38V152.57Z" fill="#9C9AA0"/>
<path d="M201.71 152.57H199.14V155.66H201.71V152.57Z" fill="#9C9AA0"/>
<path d="M191.74 157.2H189.17V160.29H191.74V157.2Z" fill="#9C9AA0"/>
<path d="M195.06 157.2H192.49V160.29H195.06V157.2Z" fill="#9C9AA0"/>
<path d="M198.38 157.2H195.81V160.29H198.38V157.2Z" fill="#9C9AA0"/>
<path d="M201.71 157.2H199.14V160.29H201.71V157.2Z" fill="#9C9AA0"/>
<path d="M191.74 161.82H189.17V164.91H191.74V161.82Z" fill="#9C9AA0"/>
<path d="M195.06 161.82H192.49V164.91H195.06V161.82Z" fill="#9C9AA0"/>
<path d="M198.38 161.82H195.81V164.91H198.38V161.82Z" fill="#9C9AA0"/>
<path d="M201.71 161.82H199.14V164.91H201.71V161.82Z" fill="#9C9AA0"/>
<path d="M191.74 166.45H189.17V169.54H191.74V166.45Z" fill="#9C9AA0"/>
<path d="M198.13 166.45H192.49V172.57H198.13V166.45Z" fill="#9C9AA0"/>
<path d="M201.71 166.45H199.14V169.54H201.71V166.45Z" fill="#9C9AA0"/>
<path d="M134.33 135.56H100.19V172.22H134.33V135.56Z" fill="#9C9AA0"/>
<path d="M134.32 137.86H100.19V139.85H134.32V137.86Z" fill="#CECCD4"/>
<path d="M134.32 142.47H100.19V145.81H134.32V142.47Z" fill="#CECCD4"/>
<path d="M134.32 148.88H100.19V150.87H134.32V148.88Z" fill="#CECCD4"/>
<path d="M134.32 153.49H100.19V156.83H134.32V153.49Z" fill="#CECCD4"/>
<path d="M134.32 159.9H100.19V161.89H134.32V159.9Z" fill="#CECCD4"/>
<path d="M134.32 164.51H100.19V167.85H134.32V164.51Z" fill="#CECCD4"/>
<path d="M119.47 135.56H115.05V172.22H119.47V135.56Z" fill="white"/>
<path d="M132.13 124.75V136.43" stroke="#9C9AA0" stroke-width="0.6307" stroke-miterlimit="10"/>
<path d="M130.26 124.75V136.43" stroke="#9C9AA0" stroke-width="0.6307" stroke-miterlimit="10"/>
<path d="M128.4 124.75V136.43" stroke="#9C9AA0" stroke-width="0.6307" stroke-miterlimit="10"/>
<path d="M126.54 124.75V136.43" stroke="#9C9AA0" stroke-width="0.6307" stroke-miterlimit="10"/>
<path d="M124.68 124.75V136.43" stroke="#9C9AA0" stroke-width="0.6307" stroke-miterlimit="10"/>
<path d="M122.82 124.75V136.43" stroke="#9C9AA0" stroke-width="0.6307" stroke-miterlimit="10"/>
<path d="M112 124.75V136.43" stroke="#9C9AA0" stroke-width="0.6307" stroke-miterlimit="10"/>
<path d="M110.14 124.75V136.43" stroke="#9C9AA0" stroke-width="0.6307" stroke-miterlimit="10"/>
<path d="M108.27 124.75V136.43" stroke="#9C9AA0" stroke-width="0.6307" stroke-miterlimit="10"/>
<path d="M106.41 124.75V136.43" stroke="#9C9AA0" stroke-width="0.6307" stroke-miterlimit="10"/>
<path d="M104.55 124.75V136.43" stroke="#9C9AA0" stroke-width="0.6307" stroke-miterlimit="10"/>
<path d="M102.69 124.75V136.43" stroke="#9C9AA0" stroke-width="0.6307" stroke-miterlimit="10"/>
<path d="M126.41 163.18C127.77 162.08 129.15 160.96 130.77 160.3C133.99 158.97 137.68 159.61 140.97 160.75C142.85 161.41 144.67 162.22 146.48 163.03C147.34 163.41 148.2 163.8 148.97 164.33C149.89 164.96 150.67 165.77 151.53 166.49C155.63 169.91 161.18 170.88 166.45 171.72C163.22 173.06 159.64 173.16 156.15 173.25C144.36 173.53 132.57 173.82 120.77 174.1C119.53 174.13 117.97 173.94 117.59 172.76C117.23 171.64 117.09 171.24 117.55 170.37C118.04 169.46 119.86 168.5 120.68 167.84C122.59 166.28 124.5 164.73 126.41 163.18Z" fill="#807F83"/>
<path d="M141.07 163.61C141.29 163.98 141.41 164.42 141.68 164.75C142.66 165.95 145.15 165.33 145.65 166.79C145.75 167.09 145.73 167.43 145.82 167.74C145.94 168.13 146.23 168.45 146.52 168.74C147.66 169.92 148.8 171.1 149.93 172.27C150.19 172.54 150.46 172.81 150.81 172.93C151.17 173.05 151.57 172.98 151.95 172.9C152.91 172.71 153.93 172.5 154.66 171.85C151.77 170.83 149.18 168.99 147.27 166.6C146.89 166.12 146.52 165.61 145.99 165.29C145.53 165.01 144.99 164.9 144.52 164.66C144.16 164.48 143.85 164.22 143.53 163.99C142.19 163.01 139.67 161.46 137.94 161.74C139.01 162.27 140.39 162.49 141.07 163.61Z" fill="#908E93"/>
<path d="M132.62 161.21C132.31 162.06 132.22 162.99 131.78 163.78C131.05 165.12 129.48 165.86 128.81 167.22C128.41 168.03 128.36 168.99 127.83 169.71C127.37 170.33 126.63 170.66 125.95 171.04C124.54 171.82 123.3 172.89 122.32 174.17C124.67 174.88 127.08 173.02 129.53 173.13C129.85 173.15 130.19 173.19 130.49 173.09C131.07 172.89 131.35 172.21 131.38 171.59C131.42 170.97 131.3 170.35 131.43 169.74C131.61 168.92 132.23 168.27 132.63 167.53C133.25 166.39 133.34 165.04 133.5 163.75C133.54 163.41 133.59 163.06 133.73 162.74C134 162.1 134.82 160.9 134.19 160.19C133.47 159.41 132.88 160.5 132.62 161.21Z" fill="#908E93"/>
<path d="M146.588 161.487L146.288 161.35L145.03 164.095L145.33 164.233L146.588 161.487Z" fill="#908E93"/>
<path d="M147.39 160.14L146.78 159.86C146.55 159.75 146.27 159.89 146.21 160.14L146.02 160.96C145.97 161.15 146.07 161.35 146.25 161.43L146.6 161.59C146.78 161.67 147 161.61 147.11 161.44L147.56 160.74C147.7 160.53 147.62 160.25 147.39 160.14ZM146.97 161.17C146.9 161.27 146.77 161.31 146.66 161.26L146.45 161.16C146.34 161.11 146.28 160.99 146.31 160.88L146.43 160.39C146.47 160.24 146.63 160.16 146.77 160.22L147.14 160.39C147.28 160.45 147.33 160.62 147.24 160.75L146.97 161.17Z" fill="#FFA300"/>
<path d="M124.979 162.587L124.705 162.77L126.383 165.281L126.657 165.098L124.979 162.587Z" fill="#908E93"/>
<path d="M124.24 161.18L123.68 161.55C123.47 161.69 123.44 162 123.62 162.18L124.21 162.77C124.35 162.91 124.56 162.93 124.73 162.82L125.05 162.61C125.22 162.5 125.28 162.28 125.19 162.1L124.83 161.35C124.73 161.12 124.44 161.05 124.24 161.18ZM124.88 162.08C124.93 162.19 124.9 162.32 124.79 162.39L124.6 162.52C124.5 162.59 124.37 162.57 124.29 162.49L123.93 162.13C123.82 162.02 123.84 161.84 123.97 161.75L124.31 161.53C124.44 161.45 124.61 161.49 124.67 161.63L124.88 162.08Z" fill="#FFA300"/>
<path d="M174.2 148.16C174.2 148.16 180.93 144.54 183.53 144.35C186.12 144.16 188 145.04 190.2 144.45C192.4 143.86 196.94 144.86 198.12 146.33C199.29 147.8 200.17 150.03 200.17 150.03L198.06 156.71L184.04 156.88L175.45 154.77L173.9 151.01L174.2 148.16Z" fill="#9C9AA0"/>
<path d="M174.2 149.58C174.2 149.58 180.93 145.96 183.53 145.77C186.12 145.58 188 146.46 190.2 145.87C192.4 145.28 196.94 146.28 198.12 147.75C199.29 149.22 200.17 151.45 200.17 151.45L198.06 158.13L184.04 158.3L175.45 156.19L173.9 152.43L174.2 149.58Z" fill="#807F83"/>
<path d="M174.19 160.39H167.19V166.56H174.19V160.39Z" fill="black"/>
<path d="M173.32 161.33V166.19H192.8V161.69L173.32 161.33Z" fill="black"/>
<path d="M180.76 167.33L184.4 162.45H199.21L200.89 164.89V166.4C200.89 166.91 200.48 167.33 199.96 167.33H180.76Z" fill="#FFA300"/>
<path d="M200.16 166.6V166.66C200.16 167.62 199.38 168.4 198.42 168.4H171.05C170.09 168.4 169.31 167.62 169.31 166.66V166.6C169.31 166.53 169.32 166.45 169.33 166.38C169.43 165.52 170.16 164.86 171.05 164.86H198.42C199.31 164.86 200.04 165.52 200.14 166.38C200.15 166.45 200.16 166.52 200.16 166.6Z" fill="#FFA600"/>
<path d="M171.85 166.82V168.39H155.88C154.76 168.39 153.85 167.49 153.83 166.38V163.8C153.83 163.3 153.98 162.84 154.23 162.45C154.67 161.77 155.43 161.33 156.3 161.33H166.36C167.61 161.33 168.77 161.75 169.69 162.45C170.24 162.87 170.71 163.4 171.07 163.99C171.23 164.26 171.38 164.55 171.49 164.86C171.68 165.34 171.8 165.85 171.84 166.38C171.84 166.53 171.85 166.68 171.85 166.82Z" fill="#FFA600"/>
<path d="M200.16 166.6V166.66C200.16 167.62 199.38 168.4 198.42 168.4H155.88C154.76 168.4 153.85 167.5 153.83 166.39H200.15C200.15 166.45 200.16 166.52 200.16 166.6Z" fill="#FFB100"/>
<path d="M171.07 163.99H153.83V163.8C153.83 163.3 153.98 162.84 154.23 162.45H169.69C170.24 162.87 170.71 163.4 171.07 163.99Z" fill="#FFB100"/>
<path d="M191.45 167.33C191.45 169.7 189.53 171.62 187.16 171.62C184.79 171.62 182.87 169.7 182.87 167.33C182.87 164.96 184.79 163.04 187.16 163.04C189.53 163.04 191.45 164.96 191.45 167.33Z" fill="black"/>
<path d="M189.26 167.33C189.26 168.49 188.32 169.43 187.16 169.43C186 169.43 185.06 168.49 185.06 167.33C185.06 166.17 186 165.23 187.16 165.23C188.32 165.24 189.26 166.17 189.26 167.33Z" fill="#4C3F44"/>
<path d="M188.28 167.33C188.28 167.95 187.78 168.45 187.16 168.45C186.54 168.45 186.04 167.95 186.04 167.33C186.04 166.71 186.54 166.21 187.16 166.21C187.78 166.21 188.28 166.71 188.28 167.33Z" fill="#D78200"/>
<path d="M200.3 167.33C200.3 169.7 198.38 171.62 196.01 171.62C193.64 171.62 191.72 169.7 191.72 167.33C191.72 164.96 193.64 163.04 196.01 163.04C198.38 163.04 200.3 164.96 200.3 167.33Z" fill="black"/>
<path d="M196.01 169.43C197.17 169.43 198.11 168.49 198.11 167.33C198.11 166.17 197.17 165.23 196.01 165.23C194.85 165.23 193.91 166.17 193.91 167.33C193.91 168.49 194.85 169.43 196.01 169.43Z" fill="#4C3F44"/>
<path d="M197.13 167.33C197.13 167.95 196.63 168.45 196.01 168.45C195.39 168.45 194.89 167.95 194.89 167.33C194.89 166.71 195.39 166.21 196.01 166.21C196.63 166.21 197.13 166.71 197.13 167.33Z" fill="#D78200"/>
<path d="M201.67 166.38C201.4 166.38 201.13 166.25 200.96 166L199.14 163.3H184.44L182.4 166.04C182.12 166.42 181.58 166.49 181.21 166.21C180.83 165.93 180.76 165.4 181.04 165.02L183.34 161.94C183.5 161.73 183.75 161.6 184.02 161.6H199.59C199.87 161.6 200.14 161.74 200.3 161.98L202.37 165.06C202.63 165.45 202.53 165.98 202.14 166.24C202 166.34 201.84 166.38 201.67 166.38Z" fill="#4C3F44"/>
<path d="M169.97 150.18V159.34C169.97 160.87 168.73 162.1 167.2 162.1H155.73C154.28 162.1 153.09 160.98 152.97 159.56C152.96 159.49 152.96 159.41 152.96 159.33V156.87C152.96 156.44 153.06 156.01 153.26 155.62L153.44 155.27L156.39 149.43L156.48 149.25C156.93 148.35 157.84 147.77 158.84 147.73L164.11 147.53L167.1 147.42C168.67 147.36 169.97 148.61 169.97 150.18Z" fill="#FFA300"/>
<path d="M165.12 151.45C165.12 156.19 161.03 160.04 155.98 160.04C154.92 160.04 153.91 159.87 152.97 159.56C152.96 159.49 152.96 159.41 152.96 159.33V156.87C152.96 156.44 153.06 156.01 153.26 155.62L153.44 155.27L156.39 149.43L156.48 149.25C156.93 148.35 157.84 147.77 158.84 147.73L164.11 147.53C164.76 148.7 165.12 150.03 165.12 151.45Z" fill="#FFB100"/>
<path d="M164.33 151.56V153.36C164.33 154.53 163.38 155.48 162.2 155.48H154.35C154.02 155.48 153.71 155.41 153.44 155.28L153.72 154.74L156.08 150.06L156.39 149.44H162.2C163.38 149.43 164.33 150.38 164.33 151.56Z" fill="#3E3134"/>
<path d="M162.84 151.27V153.62C162.84 154.12 162.39 154.53 161.83 154.53H155.24C155.09 154.53 154.95 154.52 154.81 154.48L157.1 150.34H161.82C162.15 150.34 162.46 150.49 162.63 150.72C162.76 150.89 162.84 151.07 162.84 151.27Z" fill="#0087FF"/>
<path d="M160.31 150.35L157.18 154.53H155.88L159.06 150.35H160.31Z" fill="white"/>
<path d="M162.63 150.73L159.78 154.53H158.47L161.66 150.35H161.81C162.16 150.35 162.46 150.5 162.63 150.73Z" fill="white"/>
<path d="M164.33 156.4H160.08V157.16H164.33V156.4Z" fill="#FFB100"/>
<path d="M167.83 156.46H166.16V157.32H167.83V156.46Z" fill="#FFB100"/>
<path d="M167.83 149.99H166.16V150.97H167.83V149.99Z" fill="#FFB100"/>
<path d="M167.83 155.19H166.16V156.05H167.83V155.19Z" fill="#FFB100"/>
<path d="M167.83 153.92H166.16V154.78H167.83V153.92Z" fill="#FFB100"/>
<path d="M167.83 152.66H166.16V153.52H167.83V152.66Z" fill="#FFB100"/>
<path d="M167.83 151.39H166.16V152.25H167.83V151.39Z" fill="#FFB100"/>
<path d="M167.84 158.81H155.36V159.47H167.84V158.81Z" fill="#FFB100"/>
<path d="M167.84 159.87H155.36V160.2H167.84V159.87Z" fill="#FFB100"/>
<path d="M166.16 167.33C166.16 169.7 164.24 171.62 161.87 171.62C159.5 171.62 157.58 169.7 157.58 167.33C157.58 164.96 159.5 163.04 161.87 163.04C164.24 163.04 166.16 164.96 166.16 167.33Z" fill="black"/>
<path d="M163.97 167.33C163.97 168.49 163.03 169.43 161.87 169.43C160.71 169.43 159.77 168.49 159.77 167.33C159.77 166.17 160.71 165.23 161.87 165.23C163.03 165.24 163.97 166.17 163.97 167.33Z" fill="#4C3F44"/>
<path d="M162.99 167.33C162.99 167.95 162.49 168.45 161.87 168.45C161.25 168.45 160.75 167.95 160.75 167.33C160.75 166.71 161.25 166.21 161.87 166.21C162.49 166.21 162.99 166.71 162.99 167.33Z" fill="#D78200"/>
<path d="M166.99 168.18C166.52 168.18 166.14 167.8 166.14 167.33C166.14 164.98 164.23 163.07 161.88 163.07C159.53 163.07 157.62 164.98 157.62 167.33C157.62 167.8 157.24 168.18 156.77 168.18C156.3 168.18 155.92 167.8 155.92 167.33C155.92 164.04 158.59 161.37 161.88 161.37C165.17 161.37 167.84 164.04 167.84 167.33C167.84 167.8 167.45 168.18 166.99 168.18Z" fill="#4C3F44"/>
<path d="M203.13 147.95L200.28 161.19C200.27 161.24 200.25 161.29 200.23 161.34C200.12 161.6 199.86 161.78 199.56 161.78H171.93C171.52 161.78 171.19 161.45 171.19 161.04V146.57C171.19 146.16 170.86 145.83 170.45 145.83H165.63C165.23 145.83 164.9 145.5 164.9 145.1C164.9 144.69 165.23 144.36 165.63 144.36H176.12C176.36 144.36 176.59 144.48 176.72 144.68L178.16 146.75C178.3 146.95 178.52 147.06 178.76 147.06H202.4C202.88 147.06 203.23 147.49 203.13 147.95Z" fill="#FFA300"/>
<path d="M200.24 161.34C200.13 161.6 199.87 161.78 199.57 161.78H171.94C171.53 161.78 171.2 161.45 171.2 161.04V146.57C171.2 146.16 170.87 145.83 170.46 145.83H165.64C165.24 145.83 164.91 145.5 164.91 145.1C164.91 144.69 165.24 144.36 165.64 144.36H176.13C176.37 144.36 176.6 144.48 176.73 144.68L178.17 146.75C178.31 146.95 178.53 147.06 178.77 147.06H180.87L200.24 161.34Z" fill="#FFB100"/>
<path d="M179.6 160.04H174.71C173.94 160.04 173.32 159.42 173.32 158.65V156.79H179.6V160.04Z" fill="#FFBD3D"/>
<path d="M187.16 156.79H180.88V160.04H187.16V156.79Z" fill="#FFBD3D"/>
<path d="M194.73 156.79H188.45V160.04H194.73V156.79Z" fill="#FFBD3D"/>
<path d="M200.21 156.79L199.77 158.85C199.62 159.55 199.01 160.04 198.29 160.04H196.01V156.79H200.21Z" fill="#FFBD3D"/>
<path d="M179.6 155.93H173.32V151.03C173.32 150.15 174.04 149.43 174.92 149.43H179.6V155.93Z" fill="#FFBD3D"/>
<path d="M187.16 149.43H180.88V155.93H187.16V149.43Z" fill="#FFBD3D"/>
<path d="M194.73 149.43H188.45V155.93H194.73V149.43Z" fill="#FFBD3D"/>
<path d="M201.65 149.71C201.59 150.11 201.45 150.8 201.43 150.9C201.29 151.58 201.15 152.26 201.01 152.94C200.87 153.6 200.74 154.27 200.6 154.93C200.53 155.26 200.46 155.6 200.39 155.94H196.02V149.44C196.02 149.44 201.65 149.44 201.68 149.44C201.69 149.43 201.67 149.54 201.65 149.71Z" fill="#FFBD3D"/>
<path d="M174.71 159.47C174.26 159.47 173.89 159.1 173.89 158.65V157.36H179.03V159.47H174.71Z" fill="#FFA600"/>
<path d="M186.596 159.468V157.358H181.456V159.468H186.596Z" fill="#FFA600"/>
<path d="M194.159 159.464V157.354H189.019V159.464H194.159Z" fill="#FFA600"/>
<path d="M196.58 159.47V157.35H199.5L199.21 158.72C199.12 159.15 198.73 159.46 198.29 159.46H196.58V159.47Z" fill="#FFA600"/>
<path d="M173.89 155.36V151.03C173.89 150.46 174.35 150 174.92 150H179.03V155.37H173.89V155.36Z" fill="#FFA600"/>
<path d="M186.592 155.364V149.994H181.452V155.364H186.592Z" fill="#FFA600"/>
<path d="M194.156 155.36V149.99H189.016V155.36H194.156Z" fill="#FFA600"/>
<path d="M196.58 155.36V149.99H201.02C200.96 150.34 200.88 150.71 200.87 150.78L199.92 155.36H196.58Z" fill="#FFA600"/>
<path d="M232.91 151.73C232.91 151.73 227.19 148.65 224.99 148.49C222.79 148.33 221.2 149.07 219.33 148.57C217.46 148.07 213.6 148.92 212.61 150.17C211.61 151.42 210.87 153.32 210.87 153.32L212.66 158.99L224.56 159.14L231.85 157.35L233.16 154.16L232.91 151.73Z" fill="#9C9AA0"/>
<path d="M232.91 152.93C232.91 152.93 227.19 149.85 224.99 149.69C222.79 149.53 221.2 150.27 219.33 149.77C217.46 149.27 213.6 150.12 212.61 151.37C211.61 152.62 210.87 154.52 210.87 154.52L212.66 160.19L224.56 160.34L231.85 158.55L233.16 155.36L232.91 152.93Z" fill="#807F83"/>
<path d="M232.903 167.346H238.853V162.106H232.903V167.346Z" fill="black"/>
<path d="M233.65 162.91V167.03H217.11V163.21L233.65 162.91Z" fill="black"/>
<path d="M227.33 168L224.24 163.86H211.66L210.23 165.93V167.21C210.23 167.64 210.58 168 211.02 168H227.33Z" fill="#FFA300"/>
<path d="M210.87 167.38V167.43C210.87 168.24 211.53 168.91 212.34 168.91H235.58C236.39 168.91 237.05 168.25 237.05 167.43V167.38C237.05 167.32 237.05 167.25 237.04 167.2C236.95 166.47 236.33 165.91 235.58 165.91H212.34C211.59 165.91 210.97 166.47 210.88 167.2C210.87 167.26 210.87 167.32 210.87 167.38Z" fill="#FFA600"/>
<path d="M234.9 167.57V168.9H248.46C249.41 168.9 250.18 168.14 250.2 167.19V165C250.2 164.58 250.07 164.18 249.86 163.85C249.49 163.28 248.84 162.9 248.1 162.9H239.56C238.5 162.9 237.52 163.26 236.73 163.85C236.26 164.21 235.86 164.65 235.56 165.16C235.42 165.39 235.3 165.64 235.2 165.9C235.04 166.3 234.94 166.74 234.91 167.19C234.91 167.32 234.9 167.45 234.9 167.57Z" fill="#FFA600"/>
<path d="M210.87 167.38V167.43C210.87 168.24 211.53 168.91 212.34 168.91H248.47C249.42 168.91 250.19 168.15 250.21 167.2H210.88C210.87 167.26 210.87 167.32 210.87 167.38Z" fill="#FFB100"/>
<path d="M235.57 165.17H250.21V165.01C250.21 164.59 250.08 164.19 249.87 163.86H236.74C236.27 164.22 235.87 164.67 235.57 165.17Z" fill="#FFB100"/>
<path d="M218.26 168C218.26 170.01 219.89 171.64 221.9 171.64C223.91 171.64 225.54 170.01 225.54 168C225.54 165.99 223.91 164.36 221.9 164.36C219.89 164.36 218.26 165.99 218.26 168Z" fill="black"/>
<path d="M220.12 168C220.12 168.98 220.92 169.78 221.9 169.78C222.88 169.78 223.68 168.98 223.68 168C223.68 167.02 222.88 166.22 221.9 166.22C220.92 166.22 220.12 167.02 220.12 168Z" fill="#4C3F44"/>
<path d="M221.9 168.95C222.425 168.95 222.85 168.525 222.85 168C222.85 167.475 222.425 167.05 221.9 167.05C221.375 167.05 220.95 167.475 220.95 168C220.95 168.525 221.375 168.95 221.9 168.95Z" fill="#D78200"/>
<path d="M210.74 168C210.74 170.01 212.37 171.64 214.38 171.64C216.39 171.64 218.02 170.01 218.02 168C218.02 165.99 216.39 164.36 214.38 164.36C212.37 164.36 210.74 165.99 210.74 168Z" fill="black"/>
<path d="M212.6 168C212.6 168.98 213.4 169.78 214.38 169.78C215.36 169.78 216.16 168.98 216.16 168C216.16 167.02 215.36 166.22 214.38 166.22C213.4 166.22 212.6 167.02 212.6 168Z" fill="#4C3F44"/>
<path d="M213.43 168C213.43 168.52 213.85 168.95 214.38 168.95C214.9 168.95 215.33 168.53 215.33 168C215.33 167.48 214.91 167.05 214.38 167.05C213.86 167.05 213.43 167.48 213.43 168Z" fill="#D78200"/>
<path d="M209.58 167.2C209.81 167.2 210.04 167.09 210.18 166.88L211.73 164.59H224.21L225.94 166.91C226.18 167.23 226.63 167.3 226.95 167.06C227.27 166.82 227.34 166.37 227.1 166.05L225.15 163.44C225.01 163.26 224.8 163.15 224.57 163.15H211.34C211.1 163.15 210.88 163.27 210.74 163.47L208.98 166.08C208.76 166.41 208.84 166.86 209.18 167.08C209.3 167.16 209.44 167.2 209.58 167.2Z" fill="#4C3F44"/>
<path d="M236.5 153.44V161.22C236.5 162.52 237.55 163.57 238.85 163.57H248.59C249.82 163.57 250.84 162.62 250.93 161.42C250.93 161.36 250.94 161.29 250.94 161.23V159.14C250.94 158.77 250.85 158.41 250.68 158.08L250.53 157.78L248.02 152.82L247.94 152.67C247.55 151.91 246.79 151.42 245.94 151.38L241.47 151.21L238.93 151.11C237.61 151.04 236.5 152.11 236.5 153.44Z" fill="#FFA300"/>
<path d="M240.62 154.52C240.62 158.55 244.09 161.81 248.38 161.81C249.28 161.81 250.13 161.67 250.93 161.41C250.93 161.35 250.94 161.28 250.94 161.22V159.13C250.94 158.76 250.85 158.4 250.68 158.07L250.53 157.77L248.02 152.81L247.94 152.66C247.55 151.9 246.79 151.41 245.94 151.37L241.47 151.2C240.93 152.18 240.62 153.32 240.62 154.52Z" fill="#FFB100"/>
<path d="M241.29 154.61V156.14C241.29 157.14 242.1 157.94 243.1 157.94H249.76C250.04 157.94 250.3 157.88 250.54 157.77L250.3 157.31L248.3 153.34L248.04 152.81H243.11C242.1 152.8 241.29 153.61 241.29 154.61Z" fill="#3E3134"/>
<path d="M242.55 154.37V156.36C242.55 156.79 242.94 157.14 243.41 157.14H249C249.13 157.14 249.25 157.13 249.36 157.1L247.41 153.59H243.41C243.13 153.59 242.87 153.72 242.72 153.91C242.62 154.04 242.55 154.2 242.55 154.37Z" fill="#0087FF"/>
<path d="M244.7 153.59L247.36 157.14H248.47L245.76 153.59H244.7Z" fill="white"/>
<path d="M242.73 153.91L245.15 157.14H246.26L243.55 153.59H243.42C243.13 153.59 242.88 153.71 242.73 153.91Z" fill="white"/>
<path d="M241.284 159.376H244.894V158.726H241.284V159.376Z" fill="#FFB100"/>
<path d="M239.73 158.77H238.31V159.5H239.73V158.77Z" fill="#FFB100"/>
<path d="M239.73 153.28H238.31V154.12H239.73V153.28Z" fill="#FFB100"/>
<path d="M239.73 157.69H238.31V158.42H239.73V157.69Z" fill="#FFB100"/>
<path d="M239.73 156.62H238.31V157.35H239.73V156.62Z" fill="#FFB100"/>
<path d="M239.73 155.54H238.31V156.27H239.73V155.54Z" fill="#FFB100"/>
<path d="M239.73 154.47H238.31V155.2H239.73V154.47Z" fill="#FFB100"/>
<path d="M238.307 161.334H248.907V160.774H238.307V161.334Z" fill="#FFB100"/>
<path d="M238.307 161.951H248.907V161.671H238.307V161.951Z" fill="#FFB100"/>
<path d="M239.73 168C239.73 170.01 241.36 171.64 243.37 171.64C245.38 171.64 247.01 170.01 247.01 168C247.01 165.99 245.38 164.36 243.37 164.36C241.36 164.36 239.73 165.99 239.73 168Z" fill="black"/>
<path d="M241.59 168C241.59 168.98 242.39 169.78 243.37 169.78C244.35 169.78 245.15 168.98 245.15 168C245.15 167.02 244.35 166.22 243.37 166.22C242.39 166.22 241.59 167.02 241.59 168Z" fill="#4C3F44"/>
<path d="M242.42 168C242.42 168.52 242.84 168.95 243.37 168.95C243.89 168.95 244.32 168.53 244.32 168C244.32 167.48 243.9 167.05 243.37 167.05C242.85 167.05 242.42 167.48 242.42 168Z" fill="#D78200"/>
<path d="M239.03 168.73C239.43 168.73 239.75 168.41 239.75 168.01C239.75 166.02 241.37 164.4 243.36 164.4C245.35 164.4 246.97 166.02 246.97 168.01C246.97 168.41 247.29 168.73 247.69 168.73C248.09 168.73 248.41 168.41 248.41 168.01C248.41 165.22 246.14 162.95 243.35 162.95C240.56 162.95 238.29 165.22 238.29 168.01C238.31 168.4 238.63 168.73 239.03 168.73Z" fill="#4C3F44"/>
<path d="M208.34 151.54L210.76 162.79C210.77 162.83 210.78 162.88 210.8 162.92C210.9 163.14 211.12 163.29 211.37 163.29H234.83C235.18 163.29 235.46 163.01 235.46 162.66V150.37C235.46 150.02 235.74 149.74 236.09 149.74H240.19C240.53 149.74 240.81 149.46 240.81 149.12C240.81 148.77 240.53 148.49 240.19 148.49H231.28C231.08 148.49 230.88 148.59 230.77 148.76L229.55 150.51C229.43 150.68 229.24 150.77 229.04 150.77H208.97C208.55 150.79 208.26 151.16 208.34 151.54Z" fill="#FFA300"/>
<path d="M210.8 162.91C210.9 163.13 211.12 163.28 211.37 163.28H234.83C235.18 163.28 235.46 163 235.46 162.65V150.36C235.46 150.01 235.74 149.73 236.09 149.73H240.19C240.53 149.73 240.81 149.45 240.81 149.11C240.81 148.76 240.53 148.48 240.19 148.48H231.28C231.08 148.48 230.88 148.58 230.77 148.75L229.55 150.5C229.43 150.67 229.24 150.76 229.04 150.76H227.26L210.8 162.91Z" fill="#FFB100"/>
<path d="M228.32 161.81H232.47C233.12 161.81 233.65 161.28 233.65 160.63V159.05H228.32V161.81Z" fill="#FFBD3D"/>
<path d="M227.23 159.05H221.9V161.81H227.23V159.05Z" fill="#FFBD3D"/>
<path d="M220.81 159.05H215.48V161.81H220.81V159.05Z" fill="#FFBD3D"/>
<path d="M210.82 159.05L211.2 160.8C211.33 161.39 211.85 161.81 212.45 161.81H214.38V159.05H210.82Z" fill="#FFBD3D"/>
<path d="M228.32 158.32H233.65V154.16C233.65 153.41 233.04 152.8 232.29 152.8H228.32V158.32Z" fill="#FFBD3D"/>
<path d="M227.23 152.8H221.9V158.32H227.23V152.8Z" fill="#FFBD3D"/>
<path d="M220.81 152.8H215.48V158.32H220.81V152.8Z" fill="#FFBD3D"/>
<path d="M209.6 153.04C209.65 153.38 209.77 153.97 209.79 154.05C209.91 154.63 210.03 155.2 210.15 155.78C210.27 156.34 210.38 156.91 210.5 157.47C210.56 157.75 210.62 158.04 210.68 158.33H214.39V152.81C214.39 152.81 209.61 152.81 209.58 152.81C209.57 152.8 209.58 152.9 209.6 153.04Z" fill="#FFBD3D"/>
<path d="M233.17 160.63V159.53H228.8V161.32H232.47C232.86 161.33 233.17 161.01 233.17 160.63Z" fill="#FFA600"/>
<path d="M226.743 161.326V159.536H222.373V161.326H226.743Z" fill="#FFA600"/>
<path d="M220.321 161.319V159.529H215.951V161.319H220.321Z" fill="#FFA600"/>
<path d="M213.9 161.33V159.53H211.42L211.67 160.7C211.75 161.07 212.08 161.33 212.45 161.33H213.9Z" fill="#FFA600"/>
<path d="M233.17 157.84V154.16C233.17 153.68 232.78 153.28 232.29 153.28H228.8V157.84H233.17Z" fill="#FFA600"/>
<path d="M226.744 157.847V153.287H222.374V157.847H226.744Z" fill="#FFA600"/>
<path d="M220.322 157.84V153.28H215.952V157.84H220.322Z" fill="#FFA600"/>
<path d="M213.9 157.84V153.28H210.13C210.18 153.58 210.25 153.89 210.26 153.95L211.06 157.84H213.9Z" fill="#FFA600"/>
<path d="M229.08 168.45H220.42V171.53H229.08V168.45Z" fill="#88868B"/>
<path d="M224.22 170.62H220.97C220.92 170.62 220.88 170.58 220.88 170.53V169.45C220.88 169.4 220.92 169.36 220.97 169.36H224.22C224.27 169.36 224.31 169.4 224.31 169.45V170.53C224.31 170.58 224.27 170.62 224.22 170.62Z" fill="#D8D7DF"/>
<path d="M228.5 170.62H224.87C224.8 170.62 224.75 170.57 224.75 170.5V169.48C224.75 169.41 224.8 169.36 224.87 169.36H228.5C228.57 169.36 228.62 169.41 228.62 169.48V170.5C228.62 170.57 228.56 170.62 228.5 170.62Z" fill="#D8D7DF"/>
<path d="M229.08 165.38H220.42V168.46H229.08V165.38Z" fill="#9C9AA0"/>
<path d="M224.22 167.55H220.97C220.92 167.55 220.88 167.51 220.88 167.46V166.38C220.88 166.33 220.92 166.29 220.97 166.29H224.22C224.27 166.29 224.31 166.33 224.31 166.38V167.46C224.31 167.51 224.27 167.55 224.22 167.55Z" fill="#D8D7DF"/>
<path d="M228.5 167.55H224.87C224.8 167.55 224.75 167.5 224.75 167.43V166.41C224.75 166.34 224.8 166.29 224.87 166.29H228.5C228.57 166.29 228.62 166.34 228.62 166.41V167.43C228.62 167.49 228.56 167.55 228.5 167.55Z" fill="#D8D7DF"/>
<path d="M232.433 171.527V162.867H229.353V171.527H232.433Z" fill="#9C9AA0"/>
<path d="M230.26 166.67V163.42C230.26 163.37 230.3 163.33 230.35 163.33H231.43C231.48 163.33 231.52 163.37 231.52 163.42V166.67C231.52 166.72 231.48 166.76 231.43 166.76H230.35C230.3 166.76 230.26 166.72 230.26 166.67Z" fill="#D8D7DF"/>
<path d="M230.26 170.95V167.32C230.26 167.25 230.31 167.2 230.38 167.2H231.4C231.47 167.2 231.52 167.25 231.52 167.32V170.95C231.52 171.02 231.47 171.07 231.4 171.07H230.38C230.32 171.07 230.26 171.02 230.26 170.95Z" fill="#D8D7DF"/>
<path d="M235.754 171.526V162.866H232.674V171.526H235.754Z" fill="#9C9AA0"/>
<path d="M233.58 166.67V163.42C233.58 163.37 233.62 163.33 233.67 163.33H234.75C234.8 163.33 234.84 163.37 234.84 163.42V166.67C234.84 166.72 234.8 166.76 234.75 166.76H233.67C233.62 166.76 233.58 166.72 233.58 166.67Z" fill="#D8D7DF"/>
<path d="M233.58 170.95V167.32C233.58 167.25 233.63 167.2 233.7 167.2H234.72C234.79 167.2 234.84 167.25 234.84 167.32V170.95C234.84 171.02 234.79 171.07 234.72 171.07H233.7C233.64 171.07 233.58 171.02 233.58 170.95Z" fill="#D8D7DF"/>
<path d="M242.548 171.532H251.208V168.452H242.548V171.532Z" fill="#8D8B91"/>
<path d="M247.41 170.62H250.66C250.71 170.62 250.75 170.58 250.75 170.53V169.45C250.75 169.4 250.71 169.36 250.66 169.36H247.41C247.36 169.36 247.32 169.4 247.32 169.45V170.53C247.31 170.58 247.36 170.62 247.41 170.62Z" fill="#D8D7DF"/>
<path d="M243.13 170.62H246.76C246.83 170.62 246.88 170.57 246.88 170.5V169.48C246.88 169.41 246.83 169.36 246.76 169.36H243.13C243.06 169.36 243.01 169.41 243.01 169.48V170.5C243.01 170.57 243.06 170.62 243.13 170.62Z" fill="#D8D7DF"/>
<path d="M242.548 168.454H251.208V165.374H242.548V168.454Z" fill="#9C9AA0"/>
<path d="M247.41 167.55H250.66C250.71 167.55 250.75 167.51 250.75 167.46V166.38C250.75 166.33 250.71 166.29 250.66 166.29H247.41C247.36 166.29 247.32 166.33 247.32 166.38V167.46C247.31 167.51 247.36 167.55 247.41 167.55Z" fill="#D8D7DF"/>
<path d="M243.13 167.55H246.76C246.83 167.55 246.88 167.5 246.88 167.43V166.41C246.88 166.34 246.83 166.29 246.76 166.29H243.13C243.06 166.29 243.01 166.34 243.01 166.41V167.43C243.01 167.49 243.06 167.55 243.13 167.55Z" fill="#D8D7DF"/>
<path d="M242.273 171.527V162.867H239.193V171.527H242.273Z" fill="#9C9AA0"/>
<path d="M241.36 166.67V163.42C241.36 163.37 241.32 163.33 241.27 163.33H240.19C240.14 163.33 240.1 163.37 240.1 163.42V166.67C240.1 166.72 240.14 166.76 240.19 166.76H241.27C241.32 166.76 241.36 166.72 241.36 166.67Z" fill="#D8D7DF"/>
<path d="M241.36 170.95V167.32C241.36 167.25 241.31 167.2 241.24 167.2H240.22C240.15 167.2 240.1 167.25 240.1 167.32V170.95C240.1 171.02 240.15 171.07 240.22 171.07H241.24C241.31 171.07 241.36 171.02 241.36 170.95Z" fill="#D8D7DF"/>
<path d="M238.952 171.528V162.868H235.872V171.528H238.952Z" fill="#9C9AA0"/>
<path d="M238.04 166.67V163.42C238.04 163.37 238 163.33 237.95 163.33H236.87C236.82 163.33 236.78 163.37 236.78 163.42V166.67C236.78 166.72 236.82 166.76 236.87 166.76H237.95C238 166.76 238.04 166.72 238.04 166.67Z" fill="#D8D7DF"/>
<path d="M238.04 170.95V167.32C238.04 167.25 237.99 167.2 237.92 167.2H236.9C236.83 167.2 236.78 167.25 236.78 167.32V170.95C236.78 171.02 236.83 171.07 236.9 171.07H237.92C237.99 171.07 238.04 171.02 238.04 170.95Z" fill="#D8D7DF"/>
<path d="M85.8801 165.64H106.5L106.85 164.91L107.93 162.66L108.38 161.72L108.7 161.05L109.05 160.32L109.21 159.99C109.21 159.99 108.87 159.48 108.17 158.78C108.15 158.76 108.13 158.74 108.1 158.71C107.68 158.29 107.14 157.81 106.48 157.33C106.47 157.32 106.47 157.33 106.47 157.33C106.16 157.1 105.83 156.87 105.47 156.65C104.59 156.1 103.54 155.59 102.34 155.2C101.95 155.07 101.55 154.96 101.12 154.86H101.11C100.5 154.72 99.8501 154.62 99.1801 154.55C98.3301 154.47 97.4701 154.59 96.6401 154.86C96.3701 154.94 96.1001 155.05 95.8301 155.16C95.1601 155.45 94.5101 155.83 93.8701 156.27C93.0501 156.85 92.2501 157.53 91.5001 158.25C90.8901 158.85 90.3201 159.47 89.7801 160.1C89.7101 160.17 89.6601 160.25 89.5901 160.32C88.8801 161.17 88.2501 162 87.7201 162.75C87.4201 163.18 87.1501 163.57 86.9201 163.93C86.2701 164.96 85.8801 165.64 85.8801 165.64Z" fill="#FFA300"/>
<path d="M100.23 163.9C100.23 164.5 100.3 165.08 100.43 165.64C100.69 166.77 101.21 167.81 101.92 168.69C101.93 168.71 101.94 168.72 101.96 168.74C103.36 170.45 105.48 171.54 107.86 171.54C110.79 171.54 113.33 169.89 114.61 167.47C114.63 167.42 114.66 167.37 114.68 167.32C115.01 166.64 115.26 165.92 115.38 165.15C115.45 164.75 115.49 164.33 115.49 163.91C115.49 163.29 115.42 162.69 115.27 162.11C115.21 161.87 115.15 161.63 115.07 161.4C114.34 159.31 112.73 157.64 110.68 156.83C109.81 156.48 108.86 156.29 107.86 156.29C107.03 156.29 106.23 156.42 105.48 156.67C103.7 157.25 102.21 158.47 101.28 160.05C101.15 160.26 101.04 160.48 100.93 160.71C100.82 160.96 100.71 161.2 100.63 161.46C100.52 161.76 100.44 162.07 100.38 162.4C100.27 162.87 100.23 163.38 100.23 163.9Z" fill="#FFA600"/>
<path d="M101.13 163.9C101.13 167.61 104.14 170.63 107.86 170.63C111.57 170.63 114.59 167.62 114.59 163.9C114.59 160.19 111.58 157.17 107.86 157.17C104.14 157.17 101.13 160.19 101.13 163.9Z" fill="#C86B00"/>
<path d="M112.683 165.698C113.677 163.033 112.323 160.067 109.658 159.072C106.994 158.078 104.027 159.432 103.033 162.097C102.039 164.762 103.393 167.728 106.057 168.722C108.722 169.717 111.689 168.363 112.683 165.698Z" fill="#FFA300"/>
<path d="M98.2102 163.11V166.37C98.2102 167.77 99.3802 168.87 100.76 168.79C100.8 168.79 100.85 168.79 100.9 168.78L101.92 168.67L103.01 168.55L105.23 168.31L111.36 167.65L113.59 167.41L114.68 167.3L114.74 167.29C115.23 167.24 115.67 167.05 116.03 166.74C116.57 166.3 116.91 165.62 116.91 164.87V163.73C116.91 162.6 116.13 161.63 115.06 161.37C114.9 161.34 114.75 161.31 114.59 161.3L114.06 161.28L112.24 161.2L111.33 161.16L108.7 161.04L103.74 160.81L101.93 160.73L100.94 160.68L100.75 160.67C100.05 160.64 99.4102 160.91 98.9502 161.36C98.7702 161.53 98.6202 161.74 98.4902 161.96C98.3102 162.32 98.2102 162.71 98.2102 163.11Z" fill="#FFA300"/>
<path d="M98.6802 163.62V166.59C98.6802 167.72 99.5902 168.66 100.75 168.79C100.92 168.81 101.11 168.81 101.3 168.79L101.95 168.72L103.06 168.61L105.33 168.38L111.21 167.79L113.5 167.56L114.61 167.45L114.8 167.43C115.29 167.38 115.73 167.19 116.08 166.92C116.59 166.51 116.91 165.91 116.91 165.23V164.19C116.91 163.21 116.22 162.37 115.27 162.08C115.07 162.01 114.87 161.98 114.65 161.97L114.31 161.95L112.6 161.88H112.55L108.38 161.7L103.3 161.48L101.6 161.41L101.15 161.39C100.97 161.38 100.79 161.39 100.63 161.42C99.5302 161.63 98.6802 162.53 98.6802 163.62Z" fill="#FFA600"/>
<path d="M106.5 164C106.5 164.75 107.11 165.36 107.86 165.36C108.61 165.36 109.22 164.75 109.22 164C109.22 163.25 108.61 162.64 107.86 162.64C107.11 162.65 106.5 163.26 106.5 164Z" fill="#D78200"/>
<path d="M101.41 167.86L112.15 166.84C112.39 166.82 112.56 166.61 112.54 166.37C112.52 166.13 112.31 165.96 112.07 165.98L101.33 167C101.09 167.02 100.92 167.23 100.94 167.47C100.96 167.71 101.17 167.88 101.41 167.86Z" fill="#C86B00"/>
<path d="M91.1001 147.64L91.3901 148.39L91.8701 149.61L92.1801 150.39L93.1501 149.71L92.8001 148.99L92.5101 148.39L92.1201 147.56L91.1001 147.64Z" fill="#FFA600"/>
<path d="M90.0901 147.64C90.0901 148.06 90.4201 148.39 90.8301 148.39H103.45C103.86 148.39 104.19 148.06 104.19 147.64C104.19 147.23 103.86 146.9 103.45 146.9H90.8301C90.4201 146.89 90.0901 147.23 90.0901 147.64Z" fill="#FFA600"/>
<path d="M81.8202 163.36C81.8202 163.45 81.8202 163.54 81.8302 163.63C81.8502 164.05 81.8902 164.45 81.9402 164.81C81.9402 164.81 81.9302 164.81 81.9402 164.82C82.0102 165.28 82.1202 165.69 82.2302 166.07C83.1202 168.86 85.0802 169.48 85.0802 169.48L86.1702 168.63L86.6202 168.28L88.0702 167.14H88.0802L89.1602 166.29L89.9902 165.64L90.6102 165.16L92.1902 163.92L92.7002 163.53L93.1702 163.27L94.0802 162.75L94.7702 162.36L94.8102 162.34L95.7002 161.83L96.4402 161.41L96.3302 161.18L96.2302 160.98L95.5502 159.62L93.8802 156.29L93.1702 154.88L92.9802 154.5L92.6902 153.92C92.6902 153.92 92.6502 153.92 92.5802 153.93C92.3802 153.95 91.9502 153.98 91.3602 154.08C90.1302 154.26 88.2102 154.67 86.4302 155.55C84.2302 156.63 82.2302 158.41 81.9102 161.35C81.8902 161.56 81.8702 161.77 81.8502 161.97C81.8202 162.44 81.8102 162.92 81.8202 163.36Z" fill="#FFA600"/>
<path d="M95.3402 154.16C95.3402 154.16 85.3102 154.68 84.5502 161.58C83.7902 168.48 87.7302 169.74 87.7302 169.74L95.3402 163.78L99.0802 161.65L95.3402 154.16Z" fill="#FFA300"/>
<path d="M91.3701 150.99V157.49C91.3701 157.76 91.4201 158.02 91.5201 158.26C91.8201 159.05 92.5901 159.61 93.4901 159.61H98.3601C98.9801 159.61 99.5801 159.33 99.9801 158.86L101.87 156.62C102.19 156.24 102.36 155.75 102.36 155.26V149.68C102.36 149.19 102.2 148.74 101.92 148.39C101.45 147.79 100.67 147.44 99.8501 147.61L95.8201 148.39L93.0901 148.92C93.0001 148.94 92.9001 148.96 92.8201 148.99C92.4501 149.1 92.1301 149.32 91.8901 149.61C91.5601 149.99 91.3701 150.47 91.3701 150.99Z" fill="#FFA600"/>
<path d="M86.4402 155.53C86.5502 156.11 86.7002 156.66 86.9102 157.18C87.3302 158.23 87.9602 159.16 88.8702 159.85C89.1002 160.02 89.3402 160.18 89.6002 160.32C90.1102 160.61 90.7002 160.83 91.3702 160.97C92.1102 161.13 92.9602 161.21 93.9202 161.19C94.1402 161.19 94.3602 161.17 94.6002 161.16C95.1102 161.13 95.6502 161.06 96.2202 160.96C96.6802 160.89 97.1602 160.79 97.6602 160.67C97.9502 160.6 98.2202 160.54 98.5002 160.48C99.4802 160.28 100.41 160.12 101.28 160.01C101.68 159.95 102.07 159.91 102.45 159.88C103.27 159.81 104.03 159.77 104.75 159.77C106.41 159.78 107.83 159.97 109.04 160.29C109.9 160.51 110.65 160.8 111.32 161.15C111.77 161.37 112.18 161.62 112.54 161.88C112.56 161.89 112.58 161.9 112.61 161.93C113.43 162.51 114.08 163.17 114.58 163.83C114.91 164.26 115.18 164.7 115.38 165.12C115.69 165.72 115.89 166.28 116.03 166.74C116.05 166.81 116.06 166.86 116.08 166.91C116.59 166.5 116.91 165.9 116.91 165.22V163.73C116.91 162.6 116.13 161.63 115.06 161.37C114.33 159.28 112.72 157.61 110.67 156.8C109.8 156.45 108.85 156.26 107.85 156.26C107.02 156.26 106.22 156.39 105.47 156.64C104.59 156.09 103.54 155.58 102.34 155.19V149.66C102.34 149.17 102.18 148.72 101.9 148.37H103.44C103.85 148.37 104.18 148.04 104.18 147.62C104.18 147.21 103.85 146.88 103.44 146.88H90.8302C90.4202 146.88 90.0902 147.21 90.0902 147.62C90.0902 148.04 90.4202 148.37 90.8302 148.37H91.3902L91.8702 149.59C91.5502 149.97 91.3602 150.45 91.3602 150.97V154.04C90.1402 154.24 88.2202 154.65 86.4402 155.53ZM95.8002 148.39L93.0702 148.92C92.9802 148.94 92.8802 148.96 92.8002 148.99L92.5102 148.39H95.8002Z" fill="#FFB100"/>
<path d="M92.5901 154.86V151.57C92.5901 150.78 93.1501 150.11 93.9201 149.96L99.1801 148.94C100.2 148.74 101.14 149.52 101.14 150.55V154.87H92.5901V154.86Z" fill="#3E3134"/>
<path d="M93.1501 151.7V154.16H100.57V150.94C100.57 150.17 99.7501 149.59 98.8701 149.74L97.5101 149.97L96.4201 150.15L94.8901 150.4L94.3101 150.5C94.1301 150.53 93.9701 150.59 93.8301 150.66C93.4101 150.88 93.1501 151.27 93.1501 151.7Z" fill="#0087FF"/>
<path d="M96.4202 150.14L98.2802 154.16H99.4602L97.5202 149.96L96.4202 150.14Z" fill="white"/>
<path d="M93.8301 150.66L95.4501 154.16H96.6301L94.8901 150.4L94.3101 150.5C94.1301 150.53 93.9601 150.58 93.8301 150.66Z" fill="white"/>
<path d="M94.9701 166.94H97.9401V161.07H94.3901L94.9701 166.94Z" fill="#4C3F44"/>
<path d="M95.1902 161.72L95.2302 162.23L95.2802 162.83L95.3402 163.67L95.3902 164.27L95.4502 165.13L95.5002 165.72L95.5402 166.29H97.3302V161.72H95.1902Z" fill="#57494F"/>
<path d="M95.2302 162.23L95.2802 162.83H97.3302V162.23H95.2302Z" fill="#4C3F44"/>
<path d="M95.3401 163.67L95.3901 164.27H97.3301V163.67H95.3401Z" fill="#4C3F44"/>
<path d="M95.4502 165.13L95.5002 165.72H97.3302V165.13H95.4502Z" fill="#4C3F44"/>
<path d="M78.3501 163.55V164.46C78.3501 165.35 79.0701 166.07 79.9601 166.07H82.5901C83.4801 166.07 84.2001 165.35 84.2001 164.46V163.55C84.2001 163.48 84.1901 163.41 84.1801 163.35C84.1101 162.74 83.6801 162.23 83.1201 162.04C82.9601 161.98 82.7801 161.95 82.5901 161.95H79.9601C79.3801 161.95 78.8701 162.26 78.5901 162.73C78.4801 162.92 78.3901 163.13 78.3701 163.36C78.3501 163.42 78.3501 163.49 78.3501 163.55Z" fill="#FFA600"/>
<path d="M78.3501 163.63V164.46C78.3501 165.35 79.0701 166.07 79.9601 166.07H82.5901C83.4801 166.07 84.2001 165.35 84.2001 164.46V163.63H78.3501Z" fill="#4C3F44"/>
<path d="M93.6701 165.64C93.6701 168.89 91.0301 171.53 87.7801 171.53C84.5301 171.53 81.8901 168.89 81.8901 165.64C81.8901 162.39 84.5301 159.75 87.7801 159.75C91.0301 159.74 93.6701 162.38 93.6701 165.64Z" fill="black"/>
<path d="M90.6601 165.64C90.6601 167.23 89.3701 168.52 87.7801 168.52C86.1901 168.52 84.9001 167.23 84.9001 165.64C84.9001 164.05 86.1901 162.76 87.7801 162.76C89.3701 162.76 90.6601 164.05 90.6601 165.64Z" fill="#4C3F44"/>
<path d="M89.3202 165.64C89.3202 166.49 88.6302 167.18 87.7802 167.18C86.9302 167.18 86.2402 166.49 86.2402 165.64C86.2402 164.79 86.9302 164.1 87.7802 164.1C88.6302 164.1 89.3202 164.79 89.3202 165.64Z" fill="#D78200"/>
<path d="M93.3902 166.19C92.8702 166.19 92.4502 165.77 92.4502 165.25C92.4502 162.67 90.3502 160.57 87.7702 160.57C85.1902 160.57 83.0902 162.67 83.0902 165.25C83.0902 165.77 82.6702 166.19 82.1502 166.19C81.6302 166.19 81.2102 165.77 81.2102 165.25C81.2102 161.64 84.1502 158.7 87.7602 158.7C91.3702 158.7 94.3102 161.64 94.3102 165.25C94.3302 165.77 93.9102 166.19 93.3902 166.19Z" fill="#4C3F44"/>
<path d="M59.6209 172.444C69.8643 168.475 74.9509 156.954 70.982 146.711C67.0132 136.467 55.4918 131.381 45.2484 135.35C35.0049 139.318 29.9183 150.84 33.8872 161.083C37.856 171.327 49.3774 176.413 59.6209 172.444Z" fill="white"/>
<path d="M286.945 172.341C297.127 168.217 302.038 156.62 297.915 146.438C293.791 136.256 282.194 131.345 272.012 135.469C261.83 139.592 256.919 151.189 261.043 161.371C265.166 171.553 276.763 176.464 286.945 172.341Z" fill="white"/>
<path d="M280.82 175.55H53.45C52.34 175.55 51.45 174.65 51.45 173.55C51.45 172.44 52.35 171.55 53.45 171.55H280.82C281.93 171.55 282.82 172.45 282.82 173.55C282.83 174.65 281.93 175.55 280.82 175.55Z" fill="#D8D7DF"/>
<path d="M280.09 175.55C268.16 175.55 258.46 165.85 258.46 153.92C258.46 141.99 268.16 132.29 280.09 132.29C292.02 132.29 301.72 141.99 301.72 153.92C301.72 165.85 292.02 175.55 280.09 175.55ZM280.09 136.3C270.37 136.3 262.47 144.21 262.47 153.92C262.47 163.64 270.38 171.54 280.09 171.54C289.81 171.54 297.71 163.63 297.71 153.92C297.71 144.2 289.81 136.3 280.09 136.3Z" fill="#D8D7DF"/>
<path d="M52.43 175.55C40.5 175.55 30.8 165.85 30.8 153.92C30.8 141.99 40.5 132.29 52.43 132.29C64.3601 132.29 74.06 141.99 74.06 153.92C74.06 165.85 64.3601 175.55 52.43 175.55ZM52.43 136.3C42.71 136.3 34.8101 144.21 34.8101 153.92C34.8101 163.64 42.72 171.54 52.43 171.54C62.1501 171.54 70.0501 163.63 70.0501 153.92C70.0601 144.2 62.1501 136.3 52.43 136.3Z" fill="#D8D7DF"/>
<path d="M280.09 165.59C286.425 165.59 291.56 160.455 291.56 154.12C291.56 147.785 286.425 142.65 280.09 142.65C273.755 142.65 268.62 147.785 268.62 154.12C268.62 160.455 273.755 165.59 280.09 165.59Z" fill="#D8D7DF"/>
<path d="M52.43 165.59C58.7647 165.59 63.9 160.455 63.9 154.12C63.9 147.785 58.7647 142.65 52.43 142.65C46.0953 142.65 40.96 147.785 40.96 154.12C40.96 160.455 46.0953 165.59 52.43 165.59Z" fill="#D8D7DF"/>
<path opacity="0.11" d="M135.02 174.36C137.345 174.36 139.23 173.693 139.23 172.87C139.23 172.047 137.345 171.38 135.02 171.38C132.695 171.38 130.81 172.047 130.81 172.87C130.81 173.693 132.695 174.36 135.02 174.36Z" fill="black"/>
<path d="M134.49 172.06C134.44 171.96 134.26 171.88 134.17 171.45C133.67 171.68 133.27 171.61 133.04 171.52C133.02 171.77 133.01 172.11 133.02 172.39C133.03 172.58 133.04 172.74 133.07 172.87C133.17 172.94 133.32 172.99 133.53 172.99C133.89 172.99 134.31 172.99 134.51 172.99C134.59 172.71 134.55 172.17 134.49 172.06Z" fill="#263A7F"/>
<path d="M133.08 172.87C133.13 173.09 133.23 173.21 133.46 173.23C133.81 173.26 134.39 173.32 134.5 173.1C134.51 173.07 134.53 173.03 134.54 172.99C134.34 172.99 133.92 172.99 133.56 172.99C133.33 172.99 133.18 172.93 133.08 172.87Z" fill="#282F63"/>
<path d="M134.18 171.45C134.16 171.35 134.15 171.22 134.14 171.07L133.08 171.16C133.08 171.16 133.06 171.31 133.05 171.52C133.27 171.61 133.68 171.68 134.18 171.45Z" fill="#F0B4AA"/>
<path d="M135.67 172.11C135.67 172.18 135.67 172.25 135.7 172.29C135.8 172.49 136.27 172.51 136.64 172.58C137 172.65 137.39 172.92 137.76 172.91C137.86 172.91 137.95 172.89 138.02 172.87C137.74 172.75 136.93 172.43 136.53 172.34C136.15 172.26 135.81 172.16 135.67 172.11Z" fill="#282F63"/>
<path d="M136.97 170.85L136.17 170.67C136.17 170.67 136.16 170.83 136.03 171.12C136.22 171.2 136.62 171.33 137.16 171.39C137.04 171.17 136.97 170.85 136.97 170.85Z" fill="#F0B4AA"/>
<path d="M138.27 172.47C138.27 172.19 137.96 171.96 137.31 171.58C137.25 171.55 137.2 171.48 137.16 171.4C136.62 171.34 136.22 171.2 136.03 171.13C136.01 171.17 135.99 171.21 135.97 171.26C135.82 171.54 135.68 171.89 135.67 172.12C135.82 172.17 136.15 172.26 136.52 172.35C136.92 172.44 137.73 172.77 138.01 172.88C138.19 172.81 138.27 172.67 138.27 172.47Z" fill="#263A7F"/>
<path d="M132.35 163.48L132.98 171.22C132.98 171.22 133.65 171.68 134.22 171.17L134.67 163.12C134.67 163.12 136.01 166.35 136.09 166.9C136.17 167.45 136.02 170.7 136.02 170.7C136.02 170.7 136.43 171.25 137.07 170.93C137.07 170.93 137.59 168.49 137.71 167.78C137.83 167.07 137.6 165.16 137.26 164.15C136.92 163.14 136.76 162.2 136.76 162.2L136.26 161.44L132.52 161.61L132.35 163.48Z" fill="#EF7124"/>
<path d="M134.74 163.93L134.67 163.11C134.67 163.11 135.34 163.56 135.93 164.97C136.52 166.39 136.7 166.85 136.6 167.46C136.5 168.07 135.93 170.29 135.93 170.29L134.74 163.93Z" fill="#CD5A24"/>
<path d="M132.27 161.1L132.07 163.64L133.68 163.93L133.76 161.82L135.67 161.73C135.67 161.73 135.67 162.89 135.93 163.16C136.19 163.43 136.7 163.25 136.91 163.12C137.12 162.99 137.1 162.43 136.91 162.02C136.72 161.61 136.51 161.26 136.51 161.26L136.42 161.01C136.43 161.02 133.66 161.44 132.27 161.1Z" fill="#C14325"/>
<path d="M133.26 162.17C132.61 162.17 132.32 161.95 132.31 161.94C132.29 161.92 132.28 161.89 132.3 161.86C132.32 161.84 132.35 161.83 132.38 161.85C132.38 161.85 132.73 162.12 133.53 162.05C133.56 162.05 133.59 162.07 133.59 162.1C133.59 162.13 133.57 162.16 133.54 162.16C133.44 162.16 133.35 162.17 133.26 162.17Z" fill="#6D382C"/>
<path d="M133.26 162.64C132.61 162.64 132.32 162.42 132.31 162.41C132.29 162.39 132.28 162.36 132.3 162.33C132.32 162.31 132.35 162.3 132.38 162.32C132.38 162.32 132.73 162.59 133.53 162.52C133.56 162.52 133.59 162.54 133.59 162.57C133.59 162.6 133.57 162.63 133.54 162.63C133.44 162.63 133.35 162.64 133.26 162.64Z" fill="#6D382C"/>
<path d="M132.35 162.65L132.93 162.76L132.87 163.57L132.24 163.44L132.35 162.65Z" fill="#6D382C"/>
<path d="M136.47 162.06C136.27 162.13 135.9 162.05 135.68 161.72L136.66 161.49C136.65 161.49 136.86 161.92 136.47 162.06Z" fill="#6D382C"/>
<path d="M134.87 161.57C134.58 161.59 134.28 161.58 134.01 161.56L133.9 156.4L133.78 155.67L133.13 154.47C133.27 154.45 133.36 154.45 133.36 154.45L133.56 154.34L134.3 154.45C134.3 154.45 134.37 154.45 134.53 154.47L134.39 155.64L134.45 156.39L134.87 161.57Z" fill="white"/>
<path d="M133.36 161.48C133.22 161.46 133.09 161.43 132.97 161.41C132.97 160.63 132.95 157.34 132.91 156.42C132.91 156.37 132.91 156.33 132.9 156.29C132.86 155.7 132.54 154.98 132.37 154.65C132.49 154.6 132.62 154.57 132.74 154.54C132.84 154.78 133.15 155.56 133.23 156.03C133.24 156.1 133.25 156.23 133.26 156.41C133.33 157.59 133.35 160.87 133.36 161.48Z" fill="#FFBE5F"/>
<path d="M135.97 161.34C135.82 161.4 135.67 161.44 135.52 161.47C135.45 160.86 135.06 157.66 134.93 156.37C134.91 156.15 134.89 155.99 134.89 155.9C134.86 155.36 134.95 154.75 134.99 154.54C135.07 154.56 135.16 154.57 135.26 154.6C135.31 154.61 135.37 154.63 135.41 154.64C135.36 154.94 135.27 155.58 135.28 155.94C135.28 156.01 135.3 156.16 135.32 156.37C135.45 157.58 135.89 160.77 135.97 161.34Z" fill="#FFBE5F"/>
<path d="M134 161.56C133.77 161.54 133.55 161.51 133.35 161.48C133.35 160.87 133.33 157.6 133.26 156.41C133.25 156.23 133.24 156.1 133.23 156.03C133.15 155.55 132.83 154.77 132.74 154.54C132.88 154.51 133.02 154.48 133.12 154.47L133.77 155.67L133.89 156.4L134 161.56Z" fill="#F6A01A"/>
<path d="M132.29 158.65C132.44 158.62 132.53 158.59 132.53 158.59L132.47 157.71L132.3 157.7C132.3 157.12 132.31 156.64 132.31 156.43C132.31 155.88 132.04 155.23 131.91 154.93C132.03 154.81 132.2 154.72 132.38 154.65C132.54 154.98 132.87 155.7 132.91 156.29C132.91 156.32 132.91 156.37 132.92 156.42C132.96 157.35 132.98 160.63 132.98 161.41C132.56 161.32 132.28 161.23 132.28 161.23C132.28 161.23 132.28 159.92 132.29 158.65Z" fill="#F6A01A"/>
<path d="M135.72 155.14L135.84 154.87L136.79 156.11C136.79 156.11 136.43 158.62 136.44 158.71C136.45 158.8 135.81 158.44 135.81 158.44L135.72 155.14Z" fill="white"/>
<path d="M136.44 161.06C136.3 161.15 136.12 161.29 135.96 161.34C135.88 160.77 135.44 157.57 135.3 156.36C135.28 156.15 135.26 156 135.26 155.93C135.25 155.57 135.34 154.94 135.39 154.63C135.6 154.69 135.73 154.77 135.83 154.86L136 156.69L136.44 161.06Z" fill="#F6A01A"/>
<path d="M135.51 161.48C135.3 161.53 135.08 161.55 134.86 161.57L134.44 156.39L134.38 155.64L134.52 154.47C134.63 154.48 134.78 154.51 134.97 154.55C134.93 154.76 134.84 155.37 134.87 155.91C134.87 156 134.89 156.16 134.91 156.38C135.05 157.67 135.44 160.87 135.51 161.48Z" fill="#F6A01A"/>
<path opacity="0.1" d="M132.54 158.6L132.52 158.34L133.93 158.04L133.95 158.74L132.3 158.98C132.3 158.87 132.3 158.76 132.3 158.66C132.44 158.62 132.54 158.6 132.54 158.6Z" fill="black"/>
<path d="M132.29 158.84C132.29 158.78 132.29 158.71 132.29 158.65C132.44 158.62 132.53 158.59 132.53 158.59L132.47 157.71L132.33 157.7L133.92 157.65L133.94 158.75L132.29 158.84Z" fill="#FFD297"/>
<path d="M133.98 160.53L132.27 160.61C132.27 160.32 132.28 159.96 132.28 159.56L133.95 159.49L133.98 160.53Z" fill="#FFD297"/>
<path d="M134.55 157.63L136.09 157.58L136.18 158.64L134.64 158.72L134.55 157.63Z" fill="#FFD297"/>
<path d="M136.25 159.4L136.35 160.42L134.78 160.49L134.7 159.46L136.25 159.4Z" fill="#FFD297"/>
<path d="M136 156.7L135.83 154.87C135.74 154.78 135.6 154.7 135.39 154.64C135.34 154.63 135.29 154.61 135.24 154.6C135.14 154.58 135.05 154.56 134.97 154.54C134.78 154.5 134.63 154.48 134.52 154.46C134.37 154.44 134.29 154.44 134.29 154.44L133.55 154.33L133.35 154.44C133.35 154.44 133.26 154.45 133.12 154.46C133.01 154.47 132.88 154.5 132.74 154.53C132.62 154.56 132.5 154.6 132.37 154.64C132.19 154.71 132.03 154.8 131.9 154.92C132.04 155.22 132.3 155.87 132.3 156.42C132.3 156.63 132.3 157.11 132.29 157.69L132.46 157.7L132.52 158.58C132.52 158.58 132.42 158.61 132.28 158.64C132.27 159.91 132.25 161.22 132.25 161.22C132.25 161.22 132.53 161.31 132.95 161.4C133.07 161.42 133.2 161.45 133.34 161.47C133.54 161.5 133.76 161.53 133.99 161.55C134.27 161.57 134.56 161.58 134.85 161.56C135.07 161.55 135.28 161.52 135.5 161.47C135.66 161.44 135.81 161.39 135.95 161.34C136.11 161.28 136.25 161.15 136.39 161.06L136 156.7Z" fill="#FB7F43"/>
<path d="M132.77 158.52C132.77 158.52 132.44 158.63 132.29 158.66C131.84 158.76 130.91 158.91 130.69 158.6C130.4 158.19 131.47 155.83 131.73 155.18C131.77 155.09 131.83 155 131.9 154.93C132.04 155.23 132.3 155.88 132.3 156.43L131.7 157.66L132.29 157.64H132.7L132.77 158.52Z" fill="white"/>
<path opacity="0.1" d="M133.72 158.22C133.72 158.22 131.79 158.6 131.21 158.57C130.62 158.55 130.59 158.01 130.59 158.01L130.41 158.81L131.23 159.17L132.55 158.88L133.78 158.53L133.72 158.22Z" fill="black"/>
<path d="M132.91 152.13C132.91 152.13 132.9 152.82 133.44 153.37L133.66 153.44L135.14 152.78C135.14 152.78 135.46 152.42 135.31 151.91C135.15 151.4 133.62 150.96 132.91 152.13Z" fill="#1E2889"/>
<path d="M132.83 152.48H135.55L135.46 151.96H132.74L132.83 152.48Z" fill="#141E6D"/>
<path d="M133.41 153.34C133.41 153.34 133.56 153.67 133.36 154.43C133.36 154.43 133.81 154.78 134.31 154.43C134.31 154.43 134.25 154.14 134.28 153.82L133.63 153.13L133.41 153.34Z" fill="#F0B4AA"/>
<path d="M133.3 153.76C133.3 153.76 134.02 153.75 134.3 154.17L134.39 153.64L134.13 153.17L133.66 153.01L133.36 153.03L133.28 153.62L133.3 153.76Z" fill="#E4938F"/>
<path d="M135.11 152.06C135.11 152.06 135.32 153.77 134.51 153.85C133.71 153.93 133.52 152.79 133.52 152.79C133.52 152.79 133.28 152.88 133.23 152.52C133.18 152.15 133.45 152.23 133.45 152.23L133.55 152.03L135.11 152.06Z" fill="#F0B4AA"/>
<path d="M133.08 152.41H135.22L135.33 152L133.04 152.06L133.08 152.41Z" fill="#E4938F"/>
<path d="M132.83 151.9C132.83 151.9 132.82 151.72 132.95 151.37C133.08 151.02 133.53 150.72 134 150.69C134.47 150.66 135.11 150.72 135.34 151.4C135.44 151.7 135.46 151.94 135.46 151.94L132.83 151.9Z" fill="#FEBD5F"/>
<path d="M132.8 151.8H135.53V152.02H132.78L132.8 151.8Z" fill="#F4B158"/>
<path d="M133.92 150.67C133.92 150.67 134.07 151 134.09 151.44C134.12 151.88 134.08 152.04 134.08 152.04C134.08 152.04 134.42 152.07 134.43 152.01C134.44 151.95 134.18 150.91 134.18 150.91L134 150.58L133.92 150.67Z" fill="#F4B158"/>
<path d="M134.01 150.7C134.01 150.7 134.04 150.58 134.15 150.55C134.26 150.52 134.43 150.55 134.48 150.68C134.59 150.94 134.66 151.02 134.67 151.99H134.18C134.18 151.98 134.25 151.42 134.01 150.7Z" fill="#F6A427"/>
<path d="M134.04 150.53C134.04 150.53 134.19 150.74 134.23 151.02C134.27 151.29 134.27 151.94 134.27 151.94H134.06L133.94 151.14L133.92 150.75L134.04 150.53Z" fill="#EA911C"/>
<path d="M135.82 152.06C135.82 151.96 135.74 151.88 135.64 151.88H132.76C132.66 151.88 132.58 151.96 132.58 152.06V152.07C132.58 152.08 132.58 152.09 132.58 152.1H135.8C135.82 152.08 135.82 152.07 135.82 152.06Z" fill="#F6A427"/>
<path d="M132.6 152.09C132.61 152.17 132.69 152.24 132.77 152.24H135.65C135.74 152.24 135.81 152.18 135.82 152.09H132.6Z" fill="#EA911C"/>
<path d="M136.31 156.18C136.26 156.12 136.21 156.06 136.18 156C136.1 156.54 136.13 157.57 136.13 157.57L137.17 157.28V156.15C137.17 156.15 136.69 156.59 136.31 156.18Z" fill="#64C6CF"/>
<path d="M137.5 155.47C136.86 155.22 136.33 155.37 136.21 155.83C136.2 155.88 136.19 155.93 136.18 155.99C136.22 156.05 136.26 156.11 136.31 156.17C136.69 156.59 137.17 156.14 137.17 156.14V157.27L137.8 157.09L138.05 156.33C138.05 156.34 138.14 155.72 137.5 155.47Z" fill="#53B2B7"/>
<path d="M132.62 156.68V160.78C132.62 160.78 133.92 161.11 135.14 161.05C136.37 160.98 137.36 160.4 137.36 160.4L138.04 156.34C138.04 156.34 137.34 157.45 135.85 157.39C134.37 157.34 132.62 156.68 132.62 156.68Z" fill="#9BD8EA"/>
<path d="M137.53 157.85C137.52 157.85 137.27 157.96 137.26 158.45C137.25 158.93 137.49 159.2 137.64 159.2C137.79 159.2 137.98 158.83 137.96 158.37C137.94 157.91 137.71 157.78 137.53 157.85Z" fill="#F0B4AA"/>
<path d="M132.53 157.57C132.38 157.74 132.43 158.5 132.6 158.57C132.77 158.65 133.14 158.52 133.09 158.01C133.04 157.51 132.71 157.35 132.53 157.57Z" fill="#F0B4AA"/>
<path opacity="0.11" d="M256.97 174.36C259.295 174.36 261.18 173.693 261.18 172.87C261.18 172.047 259.295 171.38 256.97 171.38C254.645 171.38 252.76 172.047 252.76 172.87C252.76 173.693 254.645 174.36 256.97 174.36Z" fill="black"/>
<path d="M257.51 172.06C257.56 171.96 257.74 171.88 257.83 171.45C258.33 171.68 258.73 171.61 258.96 171.52C258.98 171.77 258.99 172.11 258.98 172.39C258.97 172.58 258.96 172.74 258.93 172.87C258.83 172.94 258.68 172.99 258.47 172.99C258.11 172.99 257.69 172.99 257.49 172.99C257.41 172.71 257.45 172.17 257.51 172.06Z" fill="#263A7F"/>
<path d="M258.92 172.87C258.87 173.09 258.77 173.21 258.54 173.23C258.19 173.26 257.61 173.32 257.5 173.1C257.49 173.07 257.47 173.03 257.46 172.99C257.66 172.99 258.08 172.99 258.44 172.99C258.67 172.99 258.82 172.93 258.92 172.87Z" fill="#282F63"/>
<path d="M257.82 171.45C257.84 171.35 257.85 171.22 257.86 171.07L258.92 171.16C258.92 171.16 258.94 171.31 258.95 171.52C258.72 171.61 258.32 171.68 257.82 171.45Z" fill="#F0B4AA"/>
<path d="M256.33 172.11C256.33 172.18 256.33 172.25 256.3 172.29C256.2 172.49 255.73 172.51 255.36 172.58C255 172.65 254.61 172.92 254.24 172.91C254.14 172.91 254.05 172.89 253.98 172.87C254.26 172.75 255.07 172.43 255.47 172.34C255.85 172.26 256.18 172.16 256.33 172.11Z" fill="#282F63"/>
<path d="M255.03 170.85L255.83 170.67C255.83 170.67 255.84 170.83 255.97 171.12C255.78 171.2 255.38 171.33 254.84 171.39C254.96 171.17 255.03 170.85 255.03 170.85Z" fill="#F0B4AA"/>
<path d="M253.73 172.47C253.73 172.19 254.04 171.96 254.69 171.58C254.75 171.55 254.8 171.48 254.84 171.4C255.38 171.34 255.78 171.2 255.97 171.13C255.99 171.17 256.01 171.21 256.03 171.26C256.18 171.54 256.32 171.89 256.33 172.12C256.18 172.17 255.85 172.26 255.48 172.35C255.08 172.44 254.27 172.77 253.99 172.88C253.81 172.81 253.73 172.67 253.73 172.47Z" fill="#263A7F"/>
<path d="M259.65 163.48L259.02 171.22C259.02 171.22 258.35 171.68 257.78 171.17L257.33 163.12C257.33 163.12 255.99 166.35 255.91 166.9C255.83 167.45 255.98 170.7 255.98 170.7C255.98 170.7 255.57 171.25 254.93 170.93C254.93 170.93 254.41 168.49 254.29 167.78C254.17 167.07 254.4 165.16 254.74 164.15C255.08 163.14 255.24 162.2 255.24 162.2L255.74 161.44L259.48 161.61L259.65 163.48Z" fill="#EF7124"/>
<path d="M257.25 163.93L257.32 163.11C257.32 163.11 256.65 163.56 256.06 164.97C255.47 166.39 255.29 166.85 255.39 167.46C255.49 168.07 256.06 170.29 256.06 170.29L257.25 163.93Z" fill="#CD5A24"/>
<path d="M259.72 161.1L259.92 163.64L258.31 163.93L258.23 161.82L256.32 161.73C256.32 161.73 256.32 162.89 256.06 163.16C255.8 163.43 255.29 163.25 255.08 163.12C254.87 162.99 254.89 162.43 255.08 162.02C255.27 161.61 255.48 161.26 255.48 161.26L255.57 161.01C255.57 161.02 258.34 161.44 259.72 161.1Z" fill="#C14325"/>
<path d="M258.73 162.17C259.38 162.17 259.67 161.95 259.68 161.94C259.7 161.92 259.71 161.89 259.69 161.86C259.67 161.84 259.64 161.83 259.61 161.85C259.61 161.85 259.26 162.12 258.46 162.05C258.43 162.05 258.4 162.07 258.4 162.1C258.4 162.13 258.42 162.16 258.45 162.16C258.55 162.16 258.65 162.17 258.73 162.17Z" fill="#6D382C"/>
<path d="M258.73 162.64C259.38 162.64 259.67 162.42 259.68 162.41C259.7 162.39 259.71 162.36 259.69 162.33C259.67 162.31 259.64 162.3 259.61 162.32C259.61 162.32 259.26 162.59 258.46 162.52C258.43 162.52 258.4 162.54 258.4 162.57C258.4 162.6 258.42 162.63 258.45 162.63C258.55 162.63 258.65 162.64 258.73 162.64Z" fill="#6D382C"/>
<path d="M259.65 162.65L259.06 162.76L259.13 163.57L259.76 163.44L259.65 162.65Z" fill="#6D382C"/>
<path d="M255.53 162.06C255.73 162.13 256.1 162.05 256.32 161.72L255.34 161.49C255.35 161.49 255.13 161.92 255.53 162.06Z" fill="#6D382C"/>
<path d="M257.13 161.57C257.42 161.59 257.72 161.58 257.99 161.56L258.1 156.4L258.22 155.67L258.87 154.47C258.73 154.45 258.64 154.45 258.64 154.45L258.44 154.34L257.7 154.45C257.7 154.45 257.63 154.45 257.47 154.47L257.61 155.64L257.55 156.39L257.13 161.57Z" fill="white"/>
<path d="M258.64 161.48C258.78 161.46 258.91 161.43 259.03 161.41C259.03 160.63 259.05 157.34 259.09 156.42C259.09 156.37 259.09 156.33 259.1 156.29C259.14 155.7 259.46 154.98 259.63 154.65C259.51 154.6 259.38 154.57 259.26 154.54C259.16 154.78 258.85 155.56 258.77 156.03C258.76 156.1 258.75 156.23 258.74 156.41C258.67 157.59 258.64 160.87 258.64 161.48Z" fill="#FFBE5F"/>
<path d="M256.03 161.34C256.18 161.4 256.33 161.44 256.48 161.47C256.55 160.86 256.94 157.66 257.07 156.37C257.09 156.15 257.11 155.99 257.11 155.9C257.14 155.36 257.05 154.75 257.01 154.54C256.93 154.56 256.84 154.57 256.74 154.6C256.69 154.61 256.63 154.63 256.59 154.64C256.64 154.94 256.73 155.58 256.72 155.94C256.72 156.01 256.7 156.16 256.68 156.37C256.55 157.58 256.11 160.77 256.03 161.34Z" fill="#FFBE5F"/>
<path d="M257.99 161.56C258.22 161.54 258.44 161.51 258.64 161.48C258.64 160.87 258.66 157.6 258.73 156.41C258.74 156.23 258.75 156.1 258.76 156.03C258.84 155.55 259.16 154.77 259.25 154.54C259.11 154.51 258.97 154.48 258.87 154.47L258.22 155.67L258.1 156.4L257.99 161.56Z" fill="#F6A01A"/>
<path d="M259.7 158.65C259.55 158.62 259.46 158.59 259.46 158.59L259.52 157.71L259.69 157.7C259.69 157.12 259.68 156.64 259.68 156.43C259.68 155.88 259.95 155.23 260.08 154.93C259.96 154.81 259.79 154.72 259.61 154.65C259.45 154.98 259.12 155.7 259.08 156.29C259.08 156.32 259.08 156.37 259.07 156.42C259.03 157.35 259.01 160.63 259.01 161.41C259.43 161.32 259.71 161.23 259.71 161.23C259.71 161.23 259.71 159.92 259.7 158.65Z" fill="#F6A01A"/>
<path d="M256.28 155.14L256.16 154.87L255.21 156.11C255.21 156.11 255.57 158.62 255.56 158.71C255.55 158.8 256.19 158.44 256.19 158.44L256.28 155.14Z" fill="white"/>
<path d="M255.55 161.06C255.69 161.15 255.87 161.29 256.03 161.34C256.11 160.77 256.55 157.57 256.69 156.36C256.71 156.15 256.73 156 256.73 155.93C256.74 155.57 256.65 154.94 256.6 154.63C256.39 154.69 256.26 154.77 256.16 154.86L255.99 156.69L255.55 161.06Z" fill="#F6A01A"/>
<path d="M256.48 161.48C256.69 161.53 256.91 161.55 257.13 161.57L257.55 156.39L257.61 155.64L257.47 154.47C257.36 154.48 257.21 154.51 257.02 154.55C257.06 154.76 257.15 155.37 257.12 155.91C257.12 156 257.1 156.16 257.08 156.38C256.95 157.67 256.56 160.87 256.48 161.48Z" fill="#F6A01A"/>
<path opacity="0.1" d="M259.46 158.6L259.48 158.34L258.07 158.04L258.05 158.74L259.7 158.98C259.7 158.87 259.7 158.76 259.7 158.66C259.55 158.62 259.46 158.6 259.46 158.6Z" fill="black"/>
<path d="M259.7 158.84C259.7 158.78 259.7 158.71 259.7 158.65C259.55 158.62 259.46 158.59 259.46 158.59L259.52 157.71L259.66 157.7L258.07 157.65L258.05 158.75L259.7 158.84Z" fill="#FFD297"/>
<path d="M258.01 160.53L259.72 160.61C259.72 160.32 259.71 159.96 259.71 159.56L258.04 159.49L258.01 160.53Z" fill="#FFD297"/>
<path d="M257.45 157.63L255.91 157.58L255.81 158.64L257.36 158.72L257.45 157.63Z" fill="#FFD297"/>
<path d="M255.74 159.4L255.65 160.42L257.22 160.49L257.3 159.46L255.74 159.4Z" fill="#FFD297"/>
<path d="M255.99 156.7L256.16 154.87C256.25 154.78 256.39 154.7 256.6 154.64C256.65 154.63 256.7 154.61 256.75 154.6C256.85 154.58 256.94 154.56 257.02 154.54C257.21 154.5 257.36 154.48 257.47 154.46C257.62 154.44 257.7 154.44 257.7 154.44L258.44 154.33L258.64 154.44C258.64 154.44 258.73 154.45 258.87 154.46C258.98 154.47 259.11 154.5 259.25 154.53C259.37 154.56 259.49 154.6 259.62 154.64C259.8 154.71 259.96 154.8 260.09 154.92C259.95 155.22 259.69 155.87 259.69 156.42C259.69 156.63 259.69 157.11 259.7 157.69L259.53 157.7L259.47 158.58C259.47 158.58 259.57 158.61 259.71 158.64C259.72 159.91 259.74 161.22 259.74 161.22C259.74 161.22 259.46 161.31 259.04 161.4C258.92 161.42 258.79 161.45 258.65 161.47C258.45 161.5 258.23 161.53 258 161.55C257.72 161.57 257.43 161.58 257.14 161.56C256.92 161.55 256.71 161.52 256.49 161.47C256.33 161.44 256.18 161.39 256.04 161.34C255.88 161.28 255.74 161.15 255.6 161.06L255.99 156.7Z" fill="#FB7F43"/>
<path d="M259.22 158.52C259.22 158.52 259.55 158.63 259.7 158.66C260.15 158.76 261.08 158.91 261.3 158.6C261.59 158.19 260.52 155.83 260.26 155.18C260.22 155.09 260.16 155 260.09 154.93C259.95 155.23 259.69 155.88 259.69 156.43L260.29 157.66L259.7 157.64H259.29L259.22 158.52Z" fill="white"/>
<path opacity="0.1" d="M258.27 158.22C258.27 158.22 260.2 158.6 260.78 158.57C261.37 158.55 261.4 158.01 261.4 158.01L261.58 158.81L260.76 159.17L259.44 158.88L258.21 158.53L258.27 158.22Z" fill="black"/>
<path d="M259.09 152.13C259.09 152.13 259.1 152.82 258.56 153.37L258.34 153.44L256.86 152.78C256.86 152.78 256.54 152.42 256.69 151.91C256.84 151.4 258.37 150.96 259.09 152.13Z" fill="#1E2889"/>
<path d="M259.16 152.48H256.45L256.54 151.96H259.26L259.16 152.48Z" fill="#141E6D"/>
<path d="M258.59 153.34C258.59 153.34 258.44 153.67 258.64 154.43C258.64 154.43 258.19 154.78 257.69 154.43C257.69 154.43 257.75 154.14 257.72 153.82L258.37 153.13L258.59 153.34Z" fill="#F0B4AA"/>
<path d="M258.7 153.76C258.7 153.76 257.98 153.75 257.7 154.17L257.61 153.64L257.87 153.17L258.34 153.01L258.64 153.03L258.72 153.62L258.7 153.76Z" fill="#E4938F"/>
<path d="M256.89 152.06C256.89 152.06 256.68 153.77 257.49 153.85C258.29 153.93 258.48 152.79 258.48 152.79C258.48 152.79 258.72 152.88 258.77 152.52C258.82 152.15 258.55 152.23 258.55 152.23L258.45 152.03L256.89 152.06Z" fill="#F0B4AA"/>
<path d="M258.92 152.41H256.78L256.67 152L258.96 152.06L258.92 152.41Z" fill="#E4938F"/>
<path d="M259.16 151.9C259.16 151.9 259.17 151.72 259.04 151.37C258.91 151.02 258.46 150.72 257.99 150.69C257.52 150.66 256.88 150.72 256.65 151.4C256.55 151.7 256.54 151.94 256.54 151.94L259.16 151.9Z" fill="#FEBD5F"/>
<path d="M259.19 151.8H256.47V152.02H259.21L259.19 151.8Z" fill="#F4B158"/>
<path d="M258.08 150.67C258.08 150.67 257.93 151 257.91 151.44C257.88 151.88 257.92 152.04 257.92 152.04C257.92 152.04 257.58 152.07 257.57 152.01C257.56 151.95 257.82 150.91 257.82 150.91L258 150.58L258.08 150.67Z" fill="#F4B158"/>
<path d="M257.99 150.7C257.99 150.7 257.96 150.58 257.85 150.55C257.74 150.52 257.57 150.55 257.52 150.68C257.41 150.94 257.34 151.02 257.33 151.99H257.82C257.81 151.98 257.75 151.42 257.99 150.7Z" fill="#F6A427"/>
<path d="M257.96 150.53C257.96 150.53 257.81 150.74 257.77 151.02C257.73 151.29 257.73 151.94 257.73 151.94H257.94L258.06 151.14L258.08 150.75L257.96 150.53Z" fill="#EA911C"/>
<path d="M256.18 152.06C256.18 151.96 256.26 151.88 256.36 151.88H259.24C259.34 151.88 259.42 151.96 259.42 152.06V152.07C259.42 152.08 259.42 152.09 259.42 152.1H256.2C256.18 152.08 256.18 152.07 256.18 152.06Z" fill="#F6A427"/>
<path d="M259.4 152.09C259.39 152.17 259.31 152.24 259.23 152.24H256.35C256.26 152.24 256.19 152.18 256.18 152.09H259.4Z" fill="#EA911C"/>
<path d="M255.69 156.18C255.74 156.12 255.79 156.06 255.82 156C255.9 156.54 255.87 157.57 255.87 157.57L254.83 157.28V156.15C254.83 156.15 255.31 156.59 255.69 156.18Z" fill="#64C6CF"/>
<path d="M254.5 155.47C255.14 155.22 255.67 155.37 255.79 155.83C255.8 155.88 255.81 155.93 255.82 155.99C255.78 156.05 255.74 156.11 255.69 156.17C255.31 156.59 254.83 156.14 254.83 156.14V157.27L254.2 157.09L253.95 156.33C253.95 156.34 253.86 155.72 254.5 155.47Z" fill="#53B2B7"/>
<path d="M259.38 156.68V160.78C259.38 160.78 258.08 161.11 256.86 161.05C255.63 160.98 254.64 160.4 254.64 160.4L253.96 156.34C253.96 156.34 254.66 157.45 256.15 157.39C257.62 157.34 259.38 156.68 259.38 156.68Z" fill="#9BD8EA"/>
<path d="M254.47 157.85C254.48 157.85 254.73 157.96 254.74 158.45C254.75 158.93 254.51 159.2 254.36 159.2C254.21 159.2 254.02 158.83 254.04 158.37C254.06 157.91 254.28 157.78 254.47 157.85Z" fill="#F0B4AA"/>
<path d="M259.47 157.57C259.62 157.74 259.57 158.5 259.4 158.57C259.23 158.64 258.86 158.52 258.91 158.01C258.95 157.51 259.28 157.35 259.47 157.57Z" fill="#F0B4AA"/>
</g>
<defs>
<clipPath id="clip0">
<rect width="332.52" height="175.55" fill="white"/>
</clipPath>
</defs>
</svg>
