<svg width="18" height="18" viewBox="0 0 18 18" fill="none" xmlns="http://www.w3.org/2000/svg">
<path d="M9 18C13.9706 18 18 13.9706 18 9C18 4.02944 13.9706 0 9 0C4.02944 0 0 4.02944 0 9C0 13.9706 4.02944 18 9 18Z" fill="#07CA03"/>
<path d="M5 10.9385V12.501H6.5625L11.1708 7.89271L9.60833 6.33021L5 10.9385ZM12.3792 6.68438C12.5417 6.52188 12.5417 6.25938 12.3792 6.09688L11.4042 5.12188C11.2417 4.95937 10.9792 4.95937 10.8167 5.12188L10.0542 5.88438L11.6167 7.44688L12.3792 6.68438Z" fill="white"/>
</svg>
