<svg width="52" height="52" viewBox="0 0 52 52" fill="none" xmlns="http://www.w3.org/2000/svg">
<path d="M49.2264 46H2.77336C1.24166 46 0 44.8181 0 43.36V10.64C0 9.18194 1.24166 8 2.77336 8H15.8869C16.8888 8 17.8129 8.51444 18.3041 9.34577L19.8335 11.934C20.3246 12.7654 21.2487 13.2798 22.2508 13.2798H49.2266C50.7583 13.2798 52 14.4618 52 15.9198V43.36C51.9998 44.8181 50.7581 46 49.2264 46Z" fill="#4872F4" fill-opacity="0.5"/>
<path d="M2.77337 45.9601H49.2266C50.7583 45.9601 52 44.7185 52 43.1868V14.3599C52 12.8282 50.7583 11.5865 49.2266 11.5865H29.1797C28.1778 11.5865 27.2537 12.127 26.7625 13.0003L25.2331 15.7194C24.742 16.5927 23.8179 17.1332 22.8158 17.1332H2.77337C1.24167 17.1332 0 18.3749 0 19.9066V43.1868C0 44.7185 1.24167 45.9601 2.77337 45.9601Z" fill="#4872F4"/>
<path d="M50.3645 11.8359C50.5215 12.1837 50.6138 12.5668 50.6138 12.9732V41.8001C50.6138 43.3317 49.3721 44.5734 47.8404 44.5734H1.38729C0.980875 44.5734 0.597782 44.4812 0.25 44.3242C0.684839 45.287 1.64879 45.9601 2.77397 45.9601H49.2272C50.7589 45.9601 52.0006 44.7185 52.0006 43.1868V14.3599C52.0006 13.2346 51.3275 12.2708 50.3645 11.8359Z" fill="#4872F4" fill-opacity="0.5"/>
</svg>
