<?xml version="1.0" encoding="utf-8"?>
<!-- Generator: Adobe Illustrator 25.2.3, SVG Export Plug-In . SVG Version: 6.00 Build 0)  -->
<svg version="1.1" id="Layer_1" xmlns="http://www.w3.org/2000/svg" xmlns:xlink="http://www.w3.org/1999/xlink" x="0px" y="0px"
	 viewBox="0 0 332.53 175.55" style="enable-background:new 0 0 332.53 175.55;" xml:space="preserve">
<style type="text/css">
	.st0{fill:#00CEB3;}
	.st1{fill:#00AE93;}
	.st2{fill:#CA5C49;}
	.st3{fill:#9E4127;}
	.st4{fill:#A2EE00;}
	.st5{fill:#76D400;}
	.st6{fill:#00BD00;}
	.st7{fill:#041D36;}
	.st8{fill:#4872F4;}
	.st9{fill:#9BA5AF;}
	.st10{fill:#FFFFFF;}
	.st11{fill:#50E6FF;}
	.st12{fill:#35C1F1;}
	.st13{fill:#2E92ED;}
	.st14{fill:#0078D4;}
	.st15{fill:#184F85;}
	.st16{fill:#0C63AD;}
	.st17{fill:#727D86;}
	.st18{fill:url(#SVGID_1_);}
	.st19{fill:#F6F7FB;}
	.st20{opacity:0.41;}
	.st21{filter:url(#Adobe_OpacityMaskFilter);}
	.st22{mask:url(#SVGID_2_);}
	.st23{opacity:0.45;}
	.st24{filter:url(#Adobe_OpacityMaskFilter_1_);}
	.st25{mask:url(#SVGID_3_);}
	.st26{opacity:0.59;}
	.st27{filter:url(#Adobe_OpacityMaskFilter_2_);}
	.st28{mask:url(#SVGID_4_);}
	.st29{filter:url(#Adobe_OpacityMaskFilter_3_);}
	.st30{mask:url(#SVGID_5_);}
	.st31{filter:url(#Adobe_OpacityMaskFilter_4_);}
	.st32{mask:url(#SVGID_6_);}
	.st33{filter:url(#Adobe_OpacityMaskFilter_5_);}
	.st34{mask:url(#SVGID_7_);}
	.st35{filter:url(#Adobe_OpacityMaskFilter_6_);}
	.st36{mask:url(#SVGID_8_);}
	.st37{filter:url(#Adobe_OpacityMaskFilter_7_);}
	.st38{mask:url(#SVGID_9_);}
	.st39{clip-path:url(#SVGID_11_);}
	.st40{fill:#BAC5EB;}
	.st41{opacity:0.64;fill:#BEC9EE;}
	.st42{fill:#E7E9EB;}
	.st43{fill:none;stroke:#9C9AA0;stroke-width:0.6693;stroke-miterlimit:10;}
	.st44{fill:#9C9AA0;}
	.st45{fill:#CECCD4;}
	.st46{fill:none;stroke:#9C9AA0;stroke-width:0.6307;stroke-miterlimit:10;}
	.st47{fill:#807F83;}
	.st48{fill:none;stroke:#9C9AA0;stroke-width:0.6166;stroke-miterlimit:10;}
	.st49{fill:none;stroke:#9C9AA0;stroke-width:0.6166;stroke-linecap:round;stroke-linejoin:round;stroke-miterlimit:10;}
	.st50{fill:#908E93;}
	.st51{fill:#FFA300;}
	.st52{fill:#FFA600;}
	.st53{fill:#FFB100;}
	.st54{fill:#4C3F44;}
	.st55{fill:#D78200;}
	.st56{fill:#3E3134;}
	.st57{fill:#0087FF;}
	.st58{fill:#FFBD3D;}
	.st59{fill:#88868B;}
	.st60{fill:#D8D7DF;}
	.st61{fill:#8D8B91;}
	.st62{fill:#C86B00;}
	.st63{fill:#57494F;}
	.st64{opacity:0.11;}
	.st65{fill:#263A7F;}
	.st66{fill:#282F63;}
	.st67{fill:#F0B4AA;}
	.st68{clip-path:url(#SVGID_13_);fill:#CD5A24;}
	.st69{fill:#C14325;}
	.st70{fill:#6D382C;}
	.st71{fill:#FFBE5F;}
	.st72{fill:#F6A01A;}
	.st73{opacity:0.1;}
	.st74{fill:#FFD297;}
	.st75{opacity:0.1;clip-path:url(#XMLID_14_);}
	.st76{clip-path:url(#SVGID_17_);fill:#141E6D;}
	.st77{clip-path:url(#SVGID_19_);fill:#E4938F;}
	.st78{clip-path:url(#SVGID_21_);fill:#E4938F;}
	.st79{clip-path:url(#XMLID_15_);fill:#F4B158;}
	.st80{clip-path:url(#SVGID_23_);fill:#EA911C;}
	.st81{fill:#F6A427;}
	.st82{fill:#EA911C;}
	.st83{fill:none;}
	.st84{fill:#64C6CF;}
	.st85{fill:#53B2B7;}
	.st86{fill:#9BD8EA;}
	.st87{clip-path:url(#SVGID_25_);fill:#CD5A24;}
	.st88{opacity:0.1;clip-path:url(#XMLID_16_);}
	.st89{clip-path:url(#SVGID_29_);fill:#141E6D;}
	.st90{clip-path:url(#SVGID_31_);fill:#E4938F;}
	.st91{clip-path:url(#SVGID_33_);fill:#E4938F;}
	.st92{clip-path:url(#XMLID_17_);fill:#F4B158;}
	.st93{clip-path:url(#SVGID_35_);fill:#EA911C;}
	.st94{clip-path:url(#SVGID_37_);}
	.st95{fill:#C9CAC9;}
	.st96{opacity:0.64;fill:#CDCECD;}
	.st97{fill:#E8E9E9;}
	.st98{fill:none;stroke:#999B9B;stroke-width:0.6693;stroke-miterlimit:10;}
	.st99{fill:#999B9B;}
	.st100{fill:#CFD0CF;}
	.st101{fill:none;stroke:#999B9B;stroke-width:0.6307;stroke-miterlimit:10;}
	.st102{fill:#7B7E7E;}
	.st103{fill:none;stroke:#999B9B;stroke-width:0.6166;stroke-miterlimit:10;}
	.st104{fill:none;stroke:#999B9B;stroke-width:0.6166;stroke-linecap:round;stroke-linejoin:round;stroke-miterlimit:10;}
	.st105{fill:#8C8F8F;}
	.st106{fill:#8F8F8F;}
	.st107{fill:#919191;}
	.st108{fill:#9C9C9C;}
	.st109{fill:#636363;}
	.st110{fill:#2E3333;}
	.st111{fill:#747673;}
	.st112{fill:#ADADAD;}
	.st113{fill:#848787;}
	.st114{fill:#DADAD9;}
	.st115{fill:#888B8B;}
	.st116{fill:#4D4D4D;}
	.st117{fill:#0F0F0F;}
	.st118{fill:#474945;}
	.st119{fill:#3E413D;}
	.st120{fill:#B0B0B0;}
	.st121{clip-path:url(#XMLID_18_);fill:#454545;}
	.st122{fill:#2E2E2E;}
	.st123{fill:#050505;}
	.st124{fill:#B3B3B3;}
	.st125{fill:#8C8C8C;}
	.st126{fill:#CCCCCC;}
	.st127{opacity:0.1;clip-path:url(#XMLID_20_);}
	.st128{clip-path:url(#XMLID_21_);fill:#30332E;}
	.st129{clip-path:url(#XMLID_22_);fill:#8C8C8C;}
	.st130{clip-path:url(#XMLID_23_);fill:#8C8C8C;}
	.st131{clip-path:url(#XMLID_24_);fill:#A3A3A3;}
	.st132{clip-path:url(#XMLID_25_);fill:#7D7D7D;}
	.st133{fill:#7D7D7D;}
	.st134{fill:#AEAFAD;}
	.st135{fill:#9C9D9B;}
	.st136{fill:#CBCCCB;}
	.st137{clip-path:url(#XMLID_26_);fill:#454545;}
	.st138{opacity:0.1;clip-path:url(#XMLID_28_);}
	.st139{clip-path:url(#XMLID_29_);fill:#30332E;}
	.st140{clip-path:url(#XMLID_30_);fill:#8C8C8C;}
	.st141{clip-path:url(#XMLID_31_);fill:#8C8C8C;}
	.st142{clip-path:url(#XMLID_32_);fill:#A3A3A3;}
	.st143{clip-path:url(#XMLID_33_);fill:#7D7D7D;}
	.st144{clip-path:url(#SVGID_39_);}
	.st145{clip-path:url(#XMLID_34_);fill:#454545;}
	.st146{opacity:0.1;clip-path:url(#XMLID_36_);}
	.st147{clip-path:url(#XMLID_37_);fill:#30332E;}
	.st148{clip-path:url(#XMLID_38_);fill:#8C8C8C;}
	.st149{clip-path:url(#XMLID_39_);fill:#8C8C8C;}
	.st150{clip-path:url(#XMLID_40_);fill:#A3A3A3;}
	.st151{clip-path:url(#XMLID_41_);fill:#7D7D7D;}
	.st152{clip-path:url(#XMLID_42_);fill:#454545;}
	.st153{opacity:0.1;clip-path:url(#XMLID_44_);}
	.st154{clip-path:url(#XMLID_45_);fill:#30332E;}
	.st155{clip-path:url(#XMLID_46_);fill:#8C8C8C;}
	.st156{clip-path:url(#XMLID_47_);fill:#8C8C8C;}
	.st157{clip-path:url(#XMLID_48_);fill:#A3A3A3;}
	.st158{clip-path:url(#XMLID_49_);fill:#7D7D7D;}
	.st159{clip-path:url(#SVGID_41_);}
	.st160{clip-path:url(#XMLID_50_);fill:#454545;}
	.st161{opacity:0.1;clip-path:url(#XMLID_52_);}
	.st162{clip-path:url(#XMLID_53_);fill:#30332E;}
	.st163{clip-path:url(#XMLID_54_);fill:#8C8C8C;}
	.st164{clip-path:url(#XMLID_55_);fill:#8C8C8C;}
	.st165{clip-path:url(#XMLID_56_);fill:#A3A3A3;}
	.st166{clip-path:url(#XMLID_57_);fill:#7D7D7D;}
	.st167{clip-path:url(#XMLID_58_);fill:#454545;}
	.st168{opacity:0.1;clip-path:url(#XMLID_60_);}
	.st169{clip-path:url(#XMLID_61_);fill:#30332E;}
	.st170{clip-path:url(#XMLID_62_);fill:#8C8C8C;}
	.st171{clip-path:url(#XMLID_63_);fill:#8C8C8C;}
	.st172{clip-path:url(#XMLID_64_);fill:#A3A3A3;}
	.st173{clip-path:url(#XMLID_65_);fill:#7D7D7D;}
	.st174{clip-path:url(#SVGID_43_);}
	.st175{clip-path:url(#XMLID_66_);fill:#454545;}
	.st176{opacity:0.1;clip-path:url(#XMLID_68_);}
	.st177{clip-path:url(#XMLID_69_);fill:#30332E;}
	.st178{clip-path:url(#XMLID_70_);fill:#8C8C8C;}
	.st179{clip-path:url(#XMLID_71_);fill:#8C8C8C;}
	.st180{clip-path:url(#XMLID_72_);fill:#A3A3A3;}
	.st181{clip-path:url(#XMLID_73_);fill:#7D7D7D;}
	.st182{clip-path:url(#XMLID_74_);fill:#454545;}
	.st183{opacity:0.1;clip-path:url(#XMLID_76_);}
	.st184{clip-path:url(#XMLID_77_);fill:#30332E;}
	.st185{clip-path:url(#XMLID_78_);fill:#8C8C8C;}
	.st186{clip-path:url(#XMLID_79_);fill:#8C8C8C;}
	.st187{clip-path:url(#XMLID_80_);fill:#A3A3A3;}
	.st188{clip-path:url(#XMLID_81_);fill:#7D7D7D;}
	.st189{clip-path:url(#SVGID_45_);}
	.st190{clip-path:url(#XMLID_82_);fill:#454545;}
	.st191{opacity:0.1;clip-path:url(#XMLID_84_);}
	.st192{clip-path:url(#XMLID_85_);fill:#30332E;}
	.st193{clip-path:url(#XMLID_86_);fill:#8C8C8C;}
	.st194{clip-path:url(#XMLID_87_);fill:#8C8C8C;}
	.st195{clip-path:url(#XMLID_88_);fill:#A3A3A3;}
	.st196{clip-path:url(#XMLID_89_);fill:#7D7D7D;}
	.st197{clip-path:url(#XMLID_90_);fill:#454545;}
	.st198{opacity:0.1;clip-path:url(#XMLID_92_);}
	.st199{clip-path:url(#XMLID_93_);fill:#30332E;}
	.st200{clip-path:url(#XMLID_94_);fill:#8C8C8C;}
	.st201{clip-path:url(#XMLID_95_);fill:#8C8C8C;}
	.st202{clip-path:url(#XMLID_96_);fill:#A3A3A3;}
	.st203{clip-path:url(#XMLID_97_);fill:#7D7D7D;}
	.st204{clip-path:url(#SVGID_47_);}
	.st205{clip-path:url(#XMLID_98_);fill:#454545;}
	.st206{opacity:0.1;clip-path:url(#XMLID_100_);}
	.st207{clip-path:url(#XMLID_101_);fill:#30332E;}
	.st208{clip-path:url(#XMLID_102_);fill:#8C8C8C;}
	.st209{clip-path:url(#XMLID_103_);fill:#8C8C8C;}
	.st210{clip-path:url(#XMLID_104_);fill:#A3A3A3;}
	.st211{clip-path:url(#XMLID_105_);fill:#7D7D7D;}
	.st212{clip-path:url(#XMLID_106_);fill:#454545;}
	.st213{opacity:0.1;clip-path:url(#XMLID_108_);}
	.st214{clip-path:url(#XMLID_109_);fill:#30332E;}
	.st215{clip-path:url(#XMLID_110_);fill:#8C8C8C;}
	.st216{clip-path:url(#XMLID_111_);fill:#8C8C8C;}
	.st217{clip-path:url(#XMLID_112_);fill:#A3A3A3;}
	.st218{clip-path:url(#XMLID_113_);fill:#7D7D7D;}
	.st219{clip-path:url(#SVGID_49_);}
	.st220{clip-path:url(#XMLID_114_);fill:#454545;}
	.st221{opacity:0.1;clip-path:url(#XMLID_116_);}
	.st222{clip-path:url(#XMLID_117_);fill:#30332E;}
	.st223{clip-path:url(#XMLID_118_);fill:#8C8C8C;}
	.st224{clip-path:url(#XMLID_119_);fill:#8C8C8C;}
	.st225{clip-path:url(#XMLID_120_);fill:#A3A3A3;}
	.st226{clip-path:url(#XMLID_121_);fill:#7D7D7D;}
	.st227{clip-path:url(#XMLID_122_);fill:#454545;}
	.st228{opacity:0.1;clip-path:url(#XMLID_124_);}
	.st229{clip-path:url(#XMLID_125_);fill:#30332E;}
	.st230{clip-path:url(#XMLID_126_);fill:#8C8C8C;}
	.st231{clip-path:url(#XMLID_127_);fill:#8C8C8C;}
	.st232{clip-path:url(#XMLID_128_);fill:#A3A3A3;}
	.st233{clip-path:url(#XMLID_129_);fill:#7D7D7D;}
	.st234{clip-path:url(#SVGID_51_);}
	.st235{clip-path:url(#XMLID_130_);fill:#454545;}
	.st236{opacity:0.1;clip-path:url(#XMLID_132_);}
	.st237{clip-path:url(#XMLID_133_);fill:#30332E;}
	.st238{clip-path:url(#XMLID_134_);fill:#8C8C8C;}
	.st239{clip-path:url(#XMLID_135_);fill:#8C8C8C;}
	.st240{clip-path:url(#XMLID_136_);fill:#A3A3A3;}
	.st241{clip-path:url(#XMLID_137_);fill:#7D7D7D;}
	.st242{clip-path:url(#XMLID_138_);fill:#454545;}
	.st243{opacity:0.1;clip-path:url(#XMLID_140_);}
	.st244{clip-path:url(#XMLID_141_);fill:#30332E;}
	.st245{clip-path:url(#XMLID_142_);fill:#8C8C8C;}
	.st246{clip-path:url(#XMLID_143_);fill:#8C8C8C;}
	.st247{clip-path:url(#XMLID_144_);fill:#A3A3A3;}
	.st248{clip-path:url(#XMLID_145_);fill:#7D7D7D;}
	.st249{clip-path:url(#SVGID_53_);}
	.st250{clip-path:url(#XMLID_146_);fill:#454545;}
	.st251{opacity:0.1;clip-path:url(#XMLID_148_);}
	.st252{clip-path:url(#XMLID_149_);fill:#30332E;}
	.st253{clip-path:url(#XMLID_150_);fill:#8C8C8C;}
	.st254{clip-path:url(#XMLID_151_);fill:#8C8C8C;}
	.st255{clip-path:url(#XMLID_152_);fill:#A3A3A3;}
	.st256{clip-path:url(#XMLID_153_);fill:#7D7D7D;}
	.st257{clip-path:url(#XMLID_154_);fill:#454545;}
	.st258{opacity:0.1;clip-path:url(#XMLID_156_);}
	.st259{clip-path:url(#XMLID_157_);fill:#30332E;}
	.st260{clip-path:url(#XMLID_158_);fill:#8C8C8C;}
	.st261{clip-path:url(#XMLID_159_);fill:#8C8C8C;}
	.st262{clip-path:url(#XMLID_160_);fill:#A3A3A3;}
	.st263{clip-path:url(#XMLID_161_);fill:#7D7D7D;}
	.st264{clip-path:url(#SVGID_55_);}
	.st265{clip-path:url(#XMLID_162_);fill:#454545;}
	.st266{opacity:0.1;clip-path:url(#XMLID_164_);}
	.st267{clip-path:url(#XMLID_165_);fill:#30332E;}
	.st268{clip-path:url(#XMLID_166_);fill:#8C8C8C;}
	.st269{clip-path:url(#XMLID_167_);fill:#8C8C8C;}
	.st270{clip-path:url(#XMLID_168_);fill:#A3A3A3;}
	.st271{clip-path:url(#XMLID_169_);fill:#7D7D7D;}
	.st272{clip-path:url(#XMLID_170_);fill:#454545;}
	.st273{opacity:0.1;clip-path:url(#XMLID_172_);}
	.st274{clip-path:url(#XMLID_173_);fill:#30332E;}
	.st275{clip-path:url(#XMLID_174_);fill:#8C8C8C;}
	.st276{clip-path:url(#XMLID_175_);fill:#8C8C8C;}
	.st277{clip-path:url(#XMLID_176_);fill:#A3A3A3;}
	.st278{clip-path:url(#XMLID_177_);fill:#7D7D7D;}
</style>
<g>
	<path class="st7" d="M168.36,175.1c-0.64,0.28-1.31,0.43-1.99,0.44c-0.03,0-0.07,0-0.1,0c-0.71,0-1.43-0.15-2.09-0.44l-64.94-28.9
		c-1.85-0.82-3.05-2.66-3.05-4.69c0-2.02,1.2-3.86,3.05-4.68l64.93-28.9c0.67-0.3,1.38-0.45,2.09-0.44h0.1
		c0.68,0.01,1.36,0.16,1.99,0.44l64.93,28.9c1.85,0.82,3.05,2.66,3.05,4.68c0,2.02-1.2,3.86-3.05,4.69"/>
	<path class="st8" d="M236.34,141.51c0,2.02-1.2,3.86-3.05,4.69l-64.93,28.9c-0.64,0.28-1.31,0.43-1.99,0.44v-68.06
		c0.68,0.01,1.36,0.16,1.99,0.44l64.93,28.9C235.14,137.65,236.34,139.49,236.34,141.51z"/>
	<path class="st9" d="M236.34,122.29c0,2.03-1.2,3.86-3.05,4.69l-64.93,28.9c-0.64,0.28-1.31,0.43-1.99,0.44c-0.03,0-0.07,0-0.1,0
		c-0.72,0-1.43-0.15-2.09-0.44l-64.94-28.9c-1.85-0.82-3.05-2.66-3.05-4.69c0-2.02,1.2-3.86,3.05-4.68l64.93-28.9
		c0.67-0.3,1.38-0.45,2.09-0.44h0.1c0.68,0.01,1.36,0.16,1.99,0.44l64.93,28.9C235.14,118.43,236.34,120.26,236.34,122.29z"/>
	<path class="st9" d="M236.34,122.29c0,2.03-1.2,3.86-3.05,4.69l-64.93,28.9c-0.64,0.28-1.31,0.43-1.99,0.44V88.26
		c0.68,0.01,1.36,0.16,1.99,0.44l64.93,28.9C235.14,118.43,236.34,120.26,236.34,122.29z"/>
	<path class="st10" d="M236.34,102.83c0,2.02-1.2,3.86-3.05,4.69l-64.93,28.9c-0.64,0.28-1.31,0.43-1.99,0.44c-0.03,0-0.07,0-0.1,0
		c-0.71,0-1.43-0.15-2.09-0.44l-64.94-28.9c-1.85-0.82-3.05-2.66-3.05-4.69c0-2.02,1.2-3.86,3.05-4.69l64.93-28.9
		c0.67-0.3,1.38-0.45,2.09-0.44h0.1c0.68,0.01,1.36,0.16,1.99,0.44l64.93,28.9C235.14,98.97,236.34,100.81,236.34,102.83z"/>
	<g>
		<path class="st10" d="M236.34,102.83c0,2.02-1.2,3.86-3.05,4.69l-64.93,28.9c-0.64,0.28-1.31,0.43-1.99,0.44V68.8
			c0.68,0.01,1.36,0.16,1.99,0.44l64.93,28.9C235.14,98.97,236.34,100.81,236.34,102.83z"/>
		<path class="st8" d="M144.25,101.31l-29.29,13.21l-15.72-7c-1.85-0.82-3.05-2.66-3.05-4.69c0-2.02,1.2-3.86,3.05-4.69l19.25-8.57
			L144.25,101.31z"/>
		<path class="st7" d="M194.92,124.59l-26.57,11.82c-0.64,0.28-1.31,0.43-1.99,0.44c-0.03,0-0.07,0-0.1,0c-0.03,0-0.06,0-0.09,0
			c-0.69-0.01-1.37-0.16-2.01-0.44l-26.43-11.76l28.52-13.1l0.1,0.05L194.92,124.59z"/>
	</g>
	<path class="st8" d="M236.34,102.83c0,2.02-1.2,3.86-3.05,4.69l-15.59,6.94l-29.22-13.13l25.69-11.69l19.12,8.51
		C235.14,98.97,236.34,100.81,236.34,102.83z"/>
	<path class="st7" d="M192.51,79.99l-26.15,11.46l-26.22-11.52l24.02-10.69c0.7-0.31,1.45-0.46,2.2-0.44
		c0.68,0.01,1.36,0.16,1.99,0.44L192.51,79.99z"/>
	<path class="st7" d="M188.48,101.32l-22.12,10.19l-0.1,0.05l-22.01-10.25l22.12-9.86L188.48,101.32z"/>
	<path class="st7" d="M188.48,101.32l-22.12,10.19V91.45L188.48,101.32z"/>
	<path class="st7" d="M192.51,79.99l-26.15,11.46V68.8c0.68,0.01,1.36,0.16,1.99,0.44L192.51,79.99z"/>
	<path class="st7" d="M194.92,124.59l-26.57,11.82c-0.64,0.28-1.31,0.43-1.99,0.44V111.6L194.92,124.59z"/>
</g>
</svg>
