<?xml version="1.0" encoding="utf-8"?>
<!-- Generator: Adobe Illustrator 25.4.1, SVG Export Plug-In . SVG Version: 6.00 Build 0)  -->
<svg version="1.1" xmlns="http://www.w3.org/2000/svg" xmlns:xlink="http://www.w3.org/1999/xlink" x="0px" y="0px"
	 viewBox="0 0 241.83 201" style="enable-background:new 0 0 241.83 201;" xml:space="preserve">
<style type="text/css">
	.st0{fill:#F6F7FB;}
	.st1{fill:#FFFFFF;}
	.st2{fill:#041D36;}
	.st3{fill:#FF5E5E;}
	.st4{opacity:0.3;fill:#041D36;}
	.st5{clip-path:url(#SVGID_00000155833135184256692780000013853054155554244516_);}
	.st6{fill:#4872F4;}
	.st7{opacity:0.4;fill:#041D36;}
	.st8{opacity:0.1;fill:#4872F4;}
	.st9{fill:#EAECF1;}
	.st10{clip-path:url(#SVGID_00000124158059967264188990000004430649356040535936_);}
	.st11{fill:#BFBFBF;}
	.st12{filter:url(#Adobe_OpacityMaskFilter);}
	.st13{mask:url(#SVGID_00000135676428244827391650000001579637250433850759_);}
	.st14{clip-path:url(#SVGID_00000098185014897817338650000015361132535794795655_);fill:#F3F3F3;}
	.st15{opacity:0.6;fill:#041D36;}
	.st16{fill:#EDEDED;}
	.st17{filter:url(#Adobe_OpacityMaskFilter_00000029725485094612649820000013167437073501493125_);}
	.st18{mask:url(#SVGID_00000074410116765736210320000011942633644271552187_);}
	.st19{clip-path:url(#SVGID_00000025443149089510051800000017378036013665424806_);fill:#F3F3F3;}
	.st20{filter:url(#Adobe_OpacityMaskFilter_00000010998652579980809420000005087033314601234098_);}
	.st21{mask:url(#SVGID_00000046337608675604756220000004712426464314618527_);}
	.st22{clip-path:url(#SVGID_00000090973944089457678070000005060956401459902363_);fill:#F3F3F3;}
	.st23{fill:#E5EAFA;}
	.st24{fill:#D6D3D3;}
	.st25{fill:#FF5D5D;}
	.st26{opacity:0.1;fill:#EAECF1;}
	.st27{opacity:0.1;clip-path:url(#SVGID_00000069370793648250538330000007354666917989669774_);fill:#041D36;}
	.st28{opacity:0.1;clip-path:url(#SVGID_00000163773341910186549730000016417315287678675622_);fill:#041D36;}
	.st29{fill:#06BC35;}
	.st30{fill:#FF7700;}
	.st31{fill:#BEE2FC;}
	.st32{display:none;clip-path:url(#SVGID_00000043458219379894444210000004193854913493583527_);}
	.st33{display:inline;fill:#EEDECF;}
	.st34{display:inline;}
	.st35{fill:#F7EFE4;}
	.st36{fill:#343A55;}
	.st37{fill:#E6DCCD;}
	.st38{fill:none;}
	.st39{fill:#2C3451;}
	.st40{fill:#618E77;}
	.st41{fill:#75AA8D;}
	.st42{fill:#35685E;}
	.st43{fill:#D19E66;}
	.st44{fill:#758FB3;}
	.st45{fill:#91AECE;}
	.st46{fill:#829CBF;}
	.st47{display:inline;fill:#2C3451;}
	.st48{clip-path:url(#SVGID_00000043458219379894444210000004193854913493583527_);}
	.st49{fill:#DEF0FD;}
	.st50{fill:#152C3C;}
	.st51{fill:#B6DEFB;}
	.st52{fill:#0E2536;}
	.st53{fill:#2F7DB5;}
	.st54{fill:#5696C3;}
	.st55{fill:#1E5176;}
	.st56{fill:#3FA9F5;}
	.st57{fill:#76838C;}
	.st58{fill:#97A1A8;}
	.st59{fill:#849098;}
	.st60{opacity:0.62;}
	.st61{fill:none;stroke:#FF7700;stroke-miterlimit:10;}
	.st62{opacity:0.7;fill:#FF7700;}
	.st63{display:none;clip-path:url(#SVGID_00000016784814809647191680000010268367944733449879_);}
	.st64{clip-path:url(#SVGID_00000016784814809647191680000010268367944733449879_);}
	.st65{fill:none;stroke:#06BC35;stroke-miterlimit:10;}
	.st66{opacity:0.75;fill:#06BC35;}
	.st67{display:none;}
	.st68{display:inline;fill:#FFFFFF;}
	.st69{display:none;clip-path:url(#SVGID_00000014610559862787935690000008545845463639393690_);}
	.st70{clip-path:url(#SVGID_00000014610559862787935690000008545845463639393690_);}
	.st71{display:none;fill:#FFFFFF;}
	.st72{font-family:'BebasNeueBold';}
	.st73{font-size:52.5062px;}
	.st74{display:none;clip-path:url(#SVGID_00000131345364108593976960000002926776198276725935_);}
	.st75{clip-path:url(#SVGID_00000131345364108593976960000002926776198276725935_);}
	.st76{display:inline;fill:#C4C4C4;}
	.st77{clip-path:url(#SVGID_00000130626258754182439570000008601647505327858877_);}
	.st78{fill:none;stroke:#1A1A1A;stroke-width:0.9401;stroke-linecap:round;stroke-linejoin:round;}
	.st79{fill:none;stroke:#1A1A1A;stroke-width:0.9401;stroke-linecap:round;stroke-linejoin:round;stroke-dasharray:5.6392,5.6392;}
	.st80{fill:url(#SVGID_00000121987895825279618430000015607702904269263239_);}
	.st81{fill:#B080B0;}
	.st82{fill:#572658;}
	.st83{fill:#1A1A1A;}
	.st84{fill:#339E7E;}
	.st85{fill:none;stroke:#10663F;stroke-width:0.9401;stroke-linecap:round;stroke-linejoin:round;stroke-miterlimit:10;}
	.st86{fill:#00593B;}
	.st87{fill:none;stroke:#3DBE88;stroke-width:0.9401;stroke-linecap:round;stroke-linejoin:round;stroke-miterlimit:10;}
	.st88{fill:#127755;}
	.st89{fill:#6584C6;}
	.st90{fill:none;stroke:#1A1A1A;stroke-width:0.9401;stroke-linecap:round;stroke-linejoin:round;stroke-miterlimit:10;}
	.st91{fill:#EFEFEF;}
	.st92{fill:#CCC4CC;}
	.st93{fill:#102140;}
	.st94{fill:#152A52;}
	.st95{fill:#1A1A1A;stroke:#1A1A1A;stroke-width:0.9401;stroke-linecap:round;stroke-linejoin:round;stroke-miterlimit:10;}
	.st96{fill:#0072FF;}
	.st97{fill:#044D96;}
	.st98{fill:#FC9590;}
	.st99{fill:#3B546B;}
	.st100{fill:url(#SVGID_00000114050060640721024740000013868454315948885128_);}
	.st101{fill:url(#SVGID_00000109014151485545665330000011929063228970208187_);}
	.st102{fill:url(#SVGID_00000152227453718038952260000014810004827378472846_);}
	.st103{fill:url(#SVGID_00000160873562215069105160000013325572246530695578_);}
	.st104{fill:none;stroke:#1A1A1A;stroke-width:1.4102;stroke-linecap:round;stroke-linejoin:round;stroke-miterlimit:10;}
	.st105{fill:none;stroke:#855B87;stroke-width:0.4701;stroke-linecap:round;stroke-linejoin:round;stroke-miterlimit:10;}
	.st106{fill:none;stroke:#FFFFFF;stroke-width:0.9401;stroke-linecap:round;stroke-linejoin:round;stroke-miterlimit:10;}
	.st107{fill:#EB485C;}
	.st108{fill:url(#SVGID_00000016796595934168334210000009070768328488339381_);}
	.st109{fill:#FFCF4A;}
	.st110{fill:#DB6767;}
	.st111{fill:none;stroke:#0072FF;stroke-width:0.4701;stroke-linecap:round;stroke-linejoin:round;stroke-miterlimit:10;}
	.st112{fill:#FFB114;}
	.st113{fill:#6E696E;}
	.st114{clip-path:url(#SVGID_00000179638692090369351440000009907791834325199524_);}
	.st115{fill:#B3B3B3;}
	.st116{fill:#FA9F78;}
	.st117{fill:#F0DDD3;}
	.st118{fill:#C96547;}
	.st119{fill:#808080;}
	.st120{fill:#BF6044;}
	.st121{fill:#333333;}
	.st122{fill:#C7A695;}
	.st123{clip-path:url(#SVGID_00000088101547894175547670000015700655003482138767_);}
	.st124{display:none;fill:#F6F7FB;}
	.st125{fill:#BFD1FF;}
	.st126{fill:url(#SVGID_00000007401410108090438900000008646039622826889151_);}
	.st127{display:inline;opacity:0.38;fill:url(#SVGID_00000165222861444507853770000011400421526741530754_);}
	.st128{display:inline;fill:#FFC800;}
	.st129{display:inline;fill:#608FFF;}
	.st130{fill:#203E87;}
	.st131{display:inline;fill:url(#SVGID_00000114783210893450014710000001565612108867841940_);}
	.st132{display:inline;fill:#FF9C91;}
	.st133{fill:#5D9454;}
	.st134{fill:#71B366;}
	.st135{fill:none;stroke:#2E5E26;stroke-width:0.7398;stroke-miterlimit:10;}
	.st136{fill:#FF9C91;}
	.st137{fill:url(#SVGID_00000156577507811261666970000008965534267904782740_);}
	.st138{fill:#608FFF;}
	.st139{fill:url(#SVGID_00000140695877476404082300000008897177531041361587_);}
	.st140{fill:url(#SVGID_00000045590569530661555910000001345107714566791344_);}
	.st141{fill:#3465D9;}
	.st142{display:inline;opacity:0.38;fill:url(#SVGID_00000152957354630856214230000001548875513858359455_);}
	.st143{display:inline;fill:#3465D9;}
	.st144{display:inline;fill:#FF5E00;}
	.st145{display:inline;fill:url(#SVGID_00000145027139232673315080000015456290874554019503_);}
	.st146{opacity:0.3;fill:url(#SVGID_00000003084414537372036380000010947221030951235255_);}
	.st147{fill:#FFC800;}
	.st148{fill:#FF5E00;}
	.st149{display:inline;fill:none;stroke:#FF5E00;stroke-linecap:round;stroke-linejoin:round;stroke-miterlimit:10;}
	.st150{opacity:0.3;fill:url(#SVGID_00000015355981846372125080000017277878172824025742_);}
	.st151{fill:#929292;}
	.st152{fill:url(#SVGID_00000102515187254720402880000013806776979977536681_);}
	.st153{fill:#DFDFDF;}
	.st154{fill:url(#SVGID_00000116934503120083978350000013350138890303252352_);}
	.st155{fill:url(#SVGID_00000132058826566677120260000004392121436936114319_);}
	.st156{fill:url(#SVGID_00000139283141989726340180000009192542333011793572_);}
	.st157{fill:url(#SVGID_00000138572452783647162740000008436823266378202752_);}
	.st158{fill:url(#SVGID_00000098936574095641733330000006635866227173869991_);}
	.st159{fill:url(#SVGID_00000010991213840699275560000010861940098616837543_);}
	.st160{fill:url(#SVGID_00000181081097943121376040000018326699301781326488_);}
	.st161{fill:url(#SVGID_00000080205233676289575170000014523038108097294496_);}
	.st162{fill:url(#SVGID_00000049208825639621772030000002273482830600852107_);}
	.st163{opacity:0.4;}
	.st164{fill:#3A3A5B;}
	.st165{fill:#2559C1;}
	.st166{fill:#80B4FF;}
	.st167{fill:#7398E6;}
	.st168{fill:#ECF1F9;}
	.st169{fill:#2C2C2C;}
	.st170{fill:url(#SVGID_00000137105649663570887190000002070408910150483087_);}
	.st171{fill:url(#SVGID_00000182515341522762320900000003251132954616287919_);}
	.st172{fill:none;stroke:#203E87;stroke-width:1.1172;stroke-miterlimit:10;}
	.st173{fill:#FF4A36;}
	.st174{opacity:0.3;fill:url(#SVGID_00000073716200350552069890000012045985338558900130_);}
	.st175{fill:url(#SVGID_00000036933434054187963450000014256234746681238683_);}
	.st176{opacity:0.3;fill:url(#SVGID_00000084525085746036803880000007198919628720274568_);}
	.st177{fill:url(#SVGID_00000026865639689383060180000013134186965677528503_);}
	.st178{fill:url(#SVGID_00000057112801680196811800000012291372650040038021_);}
	.st179{fill:url(#SVGID_00000048461965091430395380000001617021254355565971_);}
	.st180{fill:#747E96;}
	.st181{fill:url(#SVGID_00000082357996847944839730000017307959211740009122_);}
	.st182{display:inline;opacity:0.3;fill:url(#SVGID_00000025401018051310035190000016496948872216234935_);}
	.st183{display:inline;opacity:0.3;}
	.st184{fill:url(#SVGID_00000132794243979655826440000004058009073628518330_);}
	.st185{fill:none;stroke:#FFFFFF;stroke-width:1.2764;stroke-miterlimit:10;}
	.st186{display:inline;opacity:0.3;fill:url(#SVGID_00000120532344923910223250000012528955919895197877_);}
	.st187{fill:#182F66;}
	.st188{display:inline;fill:#203E87;}
	.st189{opacity:0.3;}
	.st190{opacity:0.3;fill:url(#SVGID_00000021801953506393251740000002375245610202673085_);}
	.st191{fill:#55A7FA;}
	.st192{fill:#E8E8DF;}
	.st193{fill:#D8D6C9;}
	.st194{fill:#F2D45B;}
	.st195{fill:#149F84;}
	.st196{fill:#26B899;}
	.st197{fill:#4EB9A1;}
	.st198{fill:#FEFEFE;}
	.st199{fill:#FE2116;}
	.st200{fill:#7F110B;}
	.st201{fill:#92130D;}
	.st202{fill:#D71C13;}
	.st203{fill:#F3F3F3;}
	.st204{fill:#F4F4F4;}
	.st205{clip-path:url(#SVGID_00000130607451082634952190000008392849549659389109_);}
	.st206{fill:url(#SVGID_00000040571453154417719330000004368153372609956539_);}
	.st207{fill:url(#SVGID_00000155112547723633312940000013728917000010718619_);}
	.st208{opacity:0.3;fill:url(#SVGID_00000055673742178783697530000017386086986940720788_);}
	.st209{fill:url(#SVGID_00000055696447374527740720000006546414100411450274_);}
	.st210{opacity:0.3;fill:url(#SVGID_00000162342931364985887240000018204307136006113440_);}
	.st211{fill:url(#SVGID_00000130605931116852251630000009006302997715411592_);}
	.st212{fill:url(#SVGID_00000099653679536961353660000008729056582054666680_);}
	.st213{fill:url(#SVGID_00000103233767820001022770000008637882063104285571_);}
	.st214{fill:url(#SVGID_00000058566218672348021670000008380647428060450432_);}
	.st215{display:inline;opacity:0.3;fill:url(#SVGID_00000108996910623966048850000009568496612390368654_);}
	.st216{fill:url(#SVGID_00000011736169920363755450000002264778928320072070_);}
	.st217{display:inline;opacity:0.3;fill:url(#SVGID_00000121995619869812898060000009137754823165994898_);}
	.st218{opacity:0.3;fill:url(#SVGID_00000126317269986309878280000012112453301554371764_);}
	.st219{clip-path:url(#SVGID_00000136405380030564535030000007943525760860511624_);}
	.st220{fill:#0F1216;}
	.st221{fill:#ED6343;}
	.st222{fill:#657283;}
	.st223{fill:#026EB7;}
	.st224{fill:#03A1FC;}
	.st225{fill:#364154;}
	.st226{fill:#131F2D;}
	.st227{fill:#525354;}
	.st228{fill:#275BC4;}
	.st229{fill:#051023;}
	.st230{fill:#2D3554;}
	.st231{clip-path:url(#SVGID_00000042713714520019346870000012705217307170811816_);}
	.st232{fill:url(#SVGID_00000027581920981235718780000009483699487632807040_);}
	.st233{fill:url(#SVGID_00000132788094229824100800000001270512077651074205_);}
	.st234{opacity:0.46;fill:#FFFFFF;}
	.st235{fill:#FFC590;}
	.st236{fill:url(#SVGID_00000103961178573505261090000013720155272124591524_);}
	.st237{fill:url(#SVGID_00000016067073023688508910000006527788729364322992_);}
	.st238{fill:url(#SVGID_00000095335364868416927550000005871885214012168340_);}
	.st239{fill:url(#SVGID_00000067207461045381093730000012952569419694440358_);}
	.st240{fill:url(#SVGID_00000125592598846171506100000016085013746082490769_);}
	.st241{fill:url(#SVGID_00000168118078839326943180000009570863164282561419_);}
	.st242{fill:url(#SVGID_00000160884534947916606630000008054409418223018136_);}
	.st243{fill:url(#SVGID_00000029025410708906467230000016644810573807240090_);}
	.st244{fill:#FFFFFE;}
	.st245{fill:url(#SVGID_00000145052289631428629290000006929339026723726525_);}
	.st246{fill:none;stroke:#FFFFFF;stroke-miterlimit:10;stroke-dasharray:5.0176,5.0176;}
	.st247{fill:#5E519D;}
	.st248{fill:url(#SVGID_00000099663062665688437300000009014570734336929193_);}
	.st249{fill:url(#SVGID_00000062884430184851001070000001610191053975509938_);}
	.st250{filter:url(#Adobe_OpacityMaskFilter_00000089543099404298963260000006843984282483027632_);}
	.st251{mask:url(#SVGID_00000133497395486431580010000004033020408987096450_);}
	.st252{fill:#150A2D;}
	.st253{fill:none;stroke:#FFFFFF;stroke-miterlimit:10;}
	.st254{fill:#FDB3BE;}
	.st255{fill:none;stroke:#003684;stroke-miterlimit:10;}
	.st256{fill:none;stroke:#004F9E;stroke-miterlimit:10;}
	.st257{clip-path:url(#SVGID_00000091728541049884568220000005873758274158803072_);}
	.st258{fill:#ECECEC;}
	.st259{fill:#E1E1E1;}
	.st260{fill:#E7E7E7;}
	.st261{fill:#F0F0F0;}
	.st262{fill:#FAFAFA;}
	.st263{opacity:0.5;fill:#E1E1E1;}
	.st264{fill:#F5F5F5;}
	.st265{opacity:0.8;fill:#FFFFFF;}
	.st266{opacity:0.3;fill:#007CFF;}
	.st267{fill:#CE5B51;}
	.st268{fill:#CD5B51;}
	.st269{fill:#007CFF;}
	.st270{fill:#1A2E35;}
	.st271{fill:#BA221F;}
	.st272{fill:#006AD3;}
	.st273{opacity:0.2;}
	.st274{display:inline;fill:#F2F2F2;}
	.st275{display:inline;fill:#FFF1D7;}
	.st276{fill:#FE9227;}
	.st277{fill:#FFD470;}
	.st278{opacity:0.39;fill:#FFD470;}
	.st279{fill:#F47A7A;}
	.st280{opacity:0.87;fill:#EF5961;}
	.st281{fill:#FF9C9C;}
	.st282{fill:#FFB6B6;}
	.st283{opacity:0.42;fill:#EF5961;}
	.st284{fill:#040430;}
	.st285{fill:#110F52;}
	.st286{fill:#F7F7F7;}
	.st287{fill:#DDDDDD;}
	.st288{fill:#EA7206;}
	.st289{opacity:0.32;fill:#EA7206;}
	.st290{fill:#FFA95C;}
	.st291{opacity:0.62;fill:#F2F2F2;}
	.st292{fill:#B2BDBB;}
	.st293{fill:#BFCAC8;}
	.st294{fill:#6F7878;}
	.st295{fill:#9AA4A3;}
	.st296{fill:#848D8D;}
	.st297{fill:#E3F3F3;}
	.st298{fill:#A82400;}
	.st299{opacity:0.43;fill:#EF5961;}
	.st300{fill:#DD3601;}
	.st301{fill:#FFFFFF;stroke:#FFD470;stroke-width:3;stroke-miterlimit:10;}
	.st302{fill:#29298B;}
	.st303{fill:#FEC435;}
	.st304{opacity:0.25;fill:#FFFFFF;}
	.st305{fill:#FFF1D7;}
	.st306{fill:#FFDDA6;}
	.st307{fill:#F7CE94;}
	.st308{opacity:0.52;}
	.st309{opacity:0.66;}
	.st310{fill:#FFB471;}
	.st311{fill:#EF5702;}
	.st312{fill:#D14A07;}
	.st313{fill:#101066;}
	.st314{fill:#00002D;}
	.st315{fill:#FF9292;}
	.st316{opacity:0.37;fill:#FE5E60;}
	.st317{fill:#FE5E60;}
	.st318{opacity:0.23;fill:#E33D01;}
	.st319{opacity:0.71;fill:#E33D01;}
	.st320{fill:#37377C;}
	.st321{opacity:0.33;}
	.st322{fill:#ED9E00;}
	.st323{fill:#FF5E60;}
	.st324{clip-path:url(#SVGID_00000005235235201433120710000004822828618458375861_);}
	.st325{fill:#053A70;}
	.st326{clip-path:url(#SVGID_00000079463188250227878550000003562213046848981640_);}
	.st327{clip-path:url(#SVGID_00000116939273186185257310000017257042770583667634_);}
	.st328{fill:#C8E5FC;}
	.st329{fill:#89CAF7;}
	.st330{fill:#B24D02;}
	.st331{clip-path:url(#SVGID_00000138548711068392781360000007167750997151012743_);}
	.st332{fill:#5E92EF;}
	.st333{fill:#C3D7FC;}
	.st334{fill:#0B6CF7;}
	.st335{fill:#0D54D3;}
	.st336{clip-path:url(#SVGID_00000070830595349844843800000010591325012751661737_);}
	.st337{fill:#F2FCFE;}
	.st338{fill:#D3EEF2;}
	.st339{fill:#026618;}
	.st340{clip-path:url(#SVGID_00000042738721887041578590000011222438282739702175_);}
	.st341{clip-path:url(#SVGID_00000158006223957862791400000004872598966366138760_);}
	.st342{clip-path:url(#SVGID_00000166678078081699175270000007031796833039048371_);}
	.st343{clip-path:url(#SVGID_00000170994133993001008080000006063873453369004691_);}
	.st344{clip-path:url(#SVGID_00000076562576563403526160000006291551186752430233_);}
	.st345{clip-path:url(#SVGID_00000000918667668598360740000013910420638262282118_);}
	.st346{clip-path:url(#SVGID_00000039821258501831254090000006420267497547264171_);}
	.st347{clip-path:url(#SVGID_00000060708695291396140870000011306567503331491208_);}
	.st348{clip-path:url(#SVGID_00000018919466170683476970000007106432851546486956_);}
	.st349{clip-path:url(#SVGID_00000018923981102437671020000008722911336918470800_);}
	.st350{clip-path:url(#SVGID_00000158736932618015040160000014108324978432001942_);}
	.st351{fill:#071D34;}
	.st352{fill:#1E8ECD;}
	.st353{fill:url(#SVGID_00000121960233380478182000000002199260135451288734_);}
	.st354{fill:url(#SVGID_00000012430238487079745370000003559623810308404662_);}
	.st355{fill:#20C3C5;}
	.st356{fill:#9F9FF4;}
	.st357{fill:#1E3C72;}
	.st358{fill:url(#SVGID_00000101088829223873829960000004020754095457277073_);}
	.st359{fill:url(#SVGID_00000101806429684882147780000003965863215321978240_);}
	.st360{fill:url(#SVGID_00000141440631358511992270000012773808032083128486_);}
	.st361{fill:#4DF4F4;}
	.st362{fill:url(#SVGID_00000118373968165429801650000011983649981738737025_);}
	.st363{fill:none;stroke:#1E8ECD;stroke-width:6;}
	.st364{fill:#1C92D2;}
	.st365{fill:#2A5298;}
	.st366{fill:url(#SVGID_00000090978021674290359190000003997521044270512539_);}
	.st367{fill:url(#SVGID_00000163040333072728540400000016895057179217985466_);}
	.st368{fill:#007BFF;}
	.st369{fill:#000046;}
	.st370{fill:url(#SVGID_00000117647780636983948350000004491027833374516659_);}
	.st371{fill:none;stroke:#071D34;stroke-width:3;}
	.st372{fill:#00C6FF;}
	.st373{fill:url(#SVGID_00000087388962645007991240000006594442935225547402_);}
	.st374{fill:url(#SVGID_00000091006670568980810210000013858405983788674188_);}
	.st375{fill:#47A5FF;}
	.st376{fill:#1CB5E0;}
	.st377{fill:#FF3F54;}
	.st378{fill:#1DAEEF;}
	.st379{fill:#56CCF2;}
	.st380{fill:url(#SVGID_00000080195331388828776990000012179293977779199125_);}
	.st381{fill:#231F20;}
	.st382{fill:url(#SVGID_00000070812606759308307840000008579016535656493227_);}
	.st383{fill:#FD5668;}
	.st384{fill:#2F80ED;}
	.st385{fill:url(#SVGID_00000047775351659378225120000001133994242565737663_);}
	.st386{fill:#228FCD;}
	.st387{fill:url(#SVGID_00000173147966710481422820000003616587877649602201_);}
	.st388{fill:#1565C0;}
	.st389{fill:#2196F3;}
	.st390{fill:#0090D8;}
	.st391{fill:#4CDD75;}
	.st392{fill:url(#SVGID_00000177483938046865428910000009597401370096195512_);}
	.st393{fill:#0D47A1;}
	.st394{fill:#6DD5FA;}
	.st395{fill:url(#SVGID_00000124880372164479330560000008144763112437897609_);}
	.st396{fill:url(#SVGID_00000023996963499317457830000016385581905655342518_);}
	.st397{fill:#2980B9;}
	.st398{fill:#D4ECF9;}
	.st399{fill:url(#SVGID_00000108991659524534263840000000855954283479289770_);}
	.st400{fill:#D9F3FC;}
	.st401{fill:url(#SVGID_00000136410950050170294850000006596592852837699976_);}
	.st402{fill:#A7E0F9;}
	.st403{fill:#FD89A3;}
	.st404{fill:#FFCD8C;}
	.st405{fill:url(#SVGID_00000097475904794596548710000016854270981593503924_);}
	.st406{fill:#6991FB;}
	.st407{fill:#78B5FF;}
	.st408{fill:url(#SVGID_00000083777181559404476930000013386083571311100085_);}
	.st409{fill:url(#SVGID_00000069391438712991355140000016287366101700203932_);}
	.st410{fill:url(#SVGID_00000008855411126615976480000006549288270020403584_);}
	.st411{fill:#711DE1;}
	.st412{fill:#1B4EBB;}
	.st413{fill:#FF8E8B;}
	.st414{fill:url(#SVGID_00000052824535865345689830000007285109215172692128_);}
	.st415{fill:#6A8FFF;}
	.st416{fill:#7DB9FF;}
	.st417{fill:url(#SVGID_00000127757190047901036870000013538747572818408371_);}
	.st418{fill:#FA85A1;}
	.st419{fill:#FFD496;}
	.st420{fill:#FF6B7A;}
	.st421{fill:#BBDEFB;}
	.st422{fill:#90CAF9;}
	.st423{fill:#64B5F6;}
	.st424{fill:#42A5F5;}
	.st425{fill:#1E88E5;}
	.st426{fill:#1976D2;}
	.st427{fill:#E3F2FD;}
	.st428{clip-path:url(#SVGID_00000067951514309358897890000007420177914382311566_);}
	.st429{clip-path:url(#SVGID_00000016764566318092095570000016777920196965901974_);}
	.st430{clip-path:url(#SVGID_00000123417315563860887160000002844960622598832783_);}
	.st431{clip-path:url(#SVGID_00000150094412534154817090000009970472307202954161_);}
	.st432{display:inline;fill:#F6F7FB;}
	.st433{display:inline;fill:#041D36;}
	.st434{display:inline;fill:#FF5E5E;}
	.st435{display:inline;opacity:0.3;fill:#041D36;}
	.st436{clip-path:url(#SVGID_00000026150043752587862910000007432641146184908957_);}
	.st437{display:inline;fill:#4872F4;}
	.st438{display:inline;opacity:0.4;fill:#041D36;}
	.st439{display:inline;opacity:0.1;fill:#4872F4;}
	.st440{display:inline;fill:#EAECF1;}
	.st441{clip-path:url(#SVGID_00000066514713665198353710000007680534414876440753_);}
	.st442{display:inline;fill:#BFBFBF;}
	.st443{display:inline;filter:url(#Adobe_OpacityMaskFilter_00000056402051155261561480000000793862884514011533_);}
	.st444{display:inline;mask:url(#SVGID_00000159435968462830700980000000157049801207925167_);}
	.st445{clip-path:url(#SVGID_00000132773628669732780540000007963084367886856833_);fill:#F3F3F3;}
	.st446{display:inline;opacity:0.6;fill:#041D36;}
	.st447{display:inline;fill:#EDEDED;}
	.st448{display:inline;filter:url(#Adobe_OpacityMaskFilter_00000007403110708530124010000014190011509878223776_);}
	.st449{display:inline;mask:url(#SVGID_00000085229164925983344330000006263092092514639493_);}
	.st450{clip-path:url(#SVGID_00000120547682130197368750000002471610517912743855_);fill:#F3F3F3;}
	.st451{display:inline;filter:url(#Adobe_OpacityMaskFilter_00000050648343820284193150000008449609510624185738_);}
	.st452{display:inline;mask:url(#SVGID_00000003805305366855237800000006212987104779451543_);}
	.st453{clip-path:url(#SVGID_00000032606941115619421730000005426010599759981467_);fill:#F3F3F3;}
	.st454{display:inline;fill:#E5EAFA;}
	.st455{display:inline;fill:#D6D3D3;}
	.st456{display:inline;fill:#FF5D5D;}
	.st457{display:inline;opacity:0.1;fill:#EAECF1;}
	.st458{clip-path:url(#SVGID_00000143588022252505090710000012953269003069367441_);}
	.st459{clip-path:url(#SVGID_00000150823898841704351010000002373792064085998008_);}
	.st460{opacity:0.1;clip-path:url(#SVGID_00000158719947610159170600000017761391857750988956_);fill:#041D36;}
	.st461{opacity:0.1;clip-path:url(#SVGID_00000047020158307917135160000016614820487496809660_);fill:#041D36;}
	.st462{display:inline;fill:#06BC35;}
	.st463{display:inline;fill:#FF7700;}
	.st464{clip-path:url(#SVGID_00000057106292425196741060000008974994345684060576_);}
	.st465{clip-path:url(#SVGID_00000029754665806138100220000017435999604028439456_);}
	.st466{clip-path:url(#SVGID_00000145757269965258453190000014444459731436251558_);}
	.st467{clip-path:url(#SVGID_00000146497711892924632240000001784342904225489851_);}
	.st468{clip-path:url(#SVGID_00000170244152586652183670000006567559156554879633_);}
	.st469{filter:url(#Adobe_OpacityMaskFilter_00000092418312060897700410000014343386906896906420_);}
	.st470{mask:url(#SVGID_00000065767877352924867160000016846402068226065804_);}
	.st471{clip-path:url(#SVGID_00000023246243324526082600000017302488081682024372_);fill:#F3F3F3;}
	.st472{filter:url(#Adobe_OpacityMaskFilter_00000019659910386507682820000005236674773222709403_);}
	.st473{mask:url(#SVGID_00000087401388563313975890000004489182300936010117_);}
	.st474{clip-path:url(#SVGID_00000165914894177465594720000012496033167464004230_);fill:#F3F3F3;}
	.st475{filter:url(#Adobe_OpacityMaskFilter_00000081606982550823281890000005987396878636591033_);}
	.st476{mask:url(#SVGID_00000146501017823223186100000013240369001762523572_);}
	.st477{clip-path:url(#SVGID_00000087414119031150012100000009234806849161361826_);fill:#F3F3F3;}
	.st478{opacity:0.1;clip-path:url(#SVGID_00000000915956365959995760000017881831765494482854_);fill:#041D36;}
	.st479{opacity:0.1;clip-path:url(#SVGID_00000113338833716985635920000007868757950989115523_);fill:#041D36;}
	.st480{clip-path:url(#SVGID_00000180354133001854816640000001806361633866717866_);}
	.st481{clip-path:url(#SVGID_00000071537138645948068200000004971926537418829470_);}
	.st482{clip-path:url(#SVGID_00000087385706176210812430000005783194248173755307_);}
	.st483{clip-path:url(#SVGID_00000132768393876785127950000014099897590744762025_);}
	.st484{clip-path:url(#SVGID_00000072993937053651385010000013571204224903519895_);}
	.st485{clip-path:url(#SVGID_00000068661831001481012460000006278717531653067909_);}
	.st486{clip-path:url(#SVGID_00000113353775236209675060000009430260276260903611_);}
	.st487{filter:url(#Adobe_OpacityMaskFilter_00000015345793857440656190000012160199771776774818_);}
	.st488{mask:url(#SVGID_00000159445280167111121810000005528961116413677995_);}
	.st489{clip-path:url(#SVGID_00000057132477357009203570000000273527033396257674_);fill:#F3F3F3;}
	.st490{filter:url(#Adobe_OpacityMaskFilter_00000084505081738621048430000011761541452533960895_);}
	.st491{mask:url(#SVGID_00000042698141383092759020000013192212655400028605_);}
	.st492{clip-path:url(#SVGID_00000068640883366760444040000013453716909281758143_);fill:#F3F3F3;}
	.st493{filter:url(#Adobe_OpacityMaskFilter_00000106851310507731043140000000171565239167963058_);}
	.st494{mask:url(#SVGID_00000173874466161793179110000018310615898711558020_);}
	.st495{clip-path:url(#SVGID_00000119806449663333977320000009356057843662624439_);fill:#F3F3F3;}
	.st496{clip-path:url(#SVGID_00000093873615358204200330000016949281531707983775_);}
	.st497{clip-path:url(#SVGID_00000065761258703944651600000001019383213994095033_);}
	.st498{opacity:0.1;clip-path:url(#SVGID_00000155134145305423669630000007998054690144360598_);fill:#041D36;}
	.st499{opacity:0.1;clip-path:url(#SVGID_00000134928161507277964820000017834169548101084072_);fill:#041D36;}
	.st500{clip-path:url(#SVGID_00000139973143550492141840000003401647312684841621_);}
	.st501{clip-path:url(#SVGID_00000074436124857031262270000012325651756508275855_);}
	.st502{display:none;clip-path:url(#SVGID_00000038393469175588840030000008059325953910455709_);}
	.st503{clip-path:url(#SVGID_00000038393469175588840030000008059325953910455709_);}
	.st504{fill:none;stroke:#FF0013;stroke-miterlimit:10;}
	.st505{opacity:0.63;fill:#FF0013;}
	.st506{opacity:0.75;fill:#FF0013;}
	.st507{display:inline;fill:#BEE2FC;}
</style>
<g id="Layer_1">
	<g>
		<path class="st31" d="M-0.08-0.06h241.99v197.82c0,1.82-1.48,3.3-3.3,3.3H3.23c-1.82,0-3.3-1.48-3.3-3.3V-0.06z"/>
		<g>
			<defs>
				<path id="SVGID_00000114775001246631346870000000259110907748072069_" d="M-0.08-0.06h241.99v197.82c0,1.82-1.48,3.3-3.3,3.3
					H3.23c-1.82,0-3.3-1.48-3.3-3.3V-0.06z"/>
			</defs>
			<clipPath id="SVGID_00000158007522006891070900000000792425994182636449_">
				<use xlink:href="#SVGID_00000114775001246631346870000000259110907748072069_"  style="overflow:visible;"/>
			</clipPath>
			<g style="display:none;clip-path:url(#SVGID_00000158007522006891070900000000792425994182636449_);">
				<rect x="-16.19" y="44.57" class="st33" width="266.05" height="156.5"/>
				<g class="st34">
					<g>
						<polygon class="st35" points="104.87,68.5 83.73,68.5 74.4,90.94 95.53,90.94 						"/>
						<polygon class="st35" points="107.02,68.5 97.68,90.94 118.82,90.94 128.15,68.5 						"/>
						<polygon class="st35" points="94.8,92.7 73.67,92.7 60.22,125.03 81.35,125.03 						"/>
						<polygon class="st35" points="83.5,125.03 104.64,125.03 118.09,92.7 96.95,92.7 						"/>
						<polygon class="st35" points="59.43,126.91 45.98,159.23 67.12,159.23 80.57,126.91 						"/>
						<polygon class="st35" points="69.27,159.23 90.4,159.23 103.85,126.91 82.72,126.91 						"/>
					</g>
					<g>
						<polygon class="st35" points="205.44,68.5 184.31,68.5 174.97,90.94 196.1,90.94 						"/>
						<polygon class="st35" points="207.59,68.5 198.26,90.94 219.39,90.94 228.73,68.5 						"/>
						<polygon class="st35" points="195.37,92.7 174.24,92.7 160.79,125.03 181.92,125.03 						"/>
						<polygon class="st35" points="184.07,125.03 205.21,125.03 218.66,92.7 197.52,92.7 						"/>
						<polygon class="st35" points="160.01,126.91 146.56,159.23 167.69,159.23 181.14,126.91 						"/>
						<polygon class="st35" points="169.84,159.23 190.98,159.23 204.43,126.91 183.29,126.91 						"/>
					</g>
				</g>
				<g class="st34">
					<g>
						
							<rect x="152.01" y="78.27" transform="matrix(-1.836970e-16 1 -1 -1.836970e-16 268.1282 -79.9748)" class="st36" width="44.09" height="31.62"/>
						
							<rect x="153.4" y="79.76" transform="matrix(-1.836970e-16 1 -1 -1.836970e-16 268.1282 -79.9748)" class="st1" width="41.29" height="28.63"/>
						
							<rect x="162.84" y="86.3" transform="matrix(-1.836970e-16 1 -1 -1.836970e-16 268.1282 -79.9748)" class="st37" width="22.43" height="15.55"/>
						<g>
							<path class="st38" d="M163.21,101.08c0,4.19,3.41,7.59,7.59,7.59c2.63,0,4.95-1.34,6.31-3.38h-10.83V94.98
								C164.41,96.37,163.21,98.58,163.21,101.08z"/>
							<polygon class="st38" points="181.83,91.5 181.83,93.84 183.38,92.91 							"/>
							<path class="st37" d="M177.1,105.29c0.81-1.21,1.28-2.66,1.28-4.21c0-1.53-0.46-2.96-1.24-4.15l-6.54,3.93l2.03-7.14
								c-0.59-0.15-1.2-0.23-1.84-0.23c-1.69,0-3.26,0.56-4.52,1.5v10.31H177.1z"/>
							<rect x="170.65" y="86.57" class="st37" width="1.13" height="1.14"/>
							<rect x="168.56" y="84.48" class="st37" width="1.86" height="1.86"/>
							<path class="st37" d="M172.7,93.49l0.43-1.52h-2.24v-1.09h2.55l1.66-5.83l6.73,6.13v-8.32h-15.55V94.7
								c1.28-0.91,2.84-1.44,4.52-1.44C171.45,93.25,172.09,93.34,172.7,93.49z M168.32,86.57v-2.33h2.33v2.1h1.37v1.6h-1.6v-1.37
								H168.32z"/>
							<path class="st37" d="M181.83,94.11l-4.48,2.69c0.81,1.23,1.28,2.7,1.28,4.27c0,1.55-0.46,3-1.24,4.21h4.44V94.11z
								 M180.77,103.27h-1.41v-1.41h1.41V103.27z"/>
							<path class="st37" d="M175.22,85.47l-1.54,5.4h5.49v1.09h-5.8l-0.45,1.58c1.76,0.5,3.27,1.6,4.29,3.06l4.61-2.77V91.5
								L175.22,85.47z"/>
							<rect x="179.59" y="102.09" class="st37" width="0.94" height="0.94"/>
							<polygon class="st37" points="178.94,91.11 173.62,91.11 173.44,91.73 178.94,91.73 							"/>
							<polygon class="st37" points="173.37,91.11 171.12,91.11 171.12,91.73 173.19,91.73 							"/>
							<path class="st37" d="M172.86,93.77l-1.87,6.57l6.02-3.62C176.02,95.32,174.56,94.26,172.86,93.77z"/>
							<polygon class="st1" points="183.38,92.91 181.83,93.84 181.83,94.11 183.77,92.95 181.83,91.18 181.83,91.5 							"/>
							<path class="st1" d="M177.34,96.8l4.48-2.69v-0.27l-4.61,2.77c-1.02-1.46-2.53-2.56-4.29-3.06l0.45-1.58h5.8v-1.09h-5.49
								l1.54-5.4l6.61,6.02v-0.32l-6.73-6.13l-1.66,5.83h-2.55v1.09h2.24l-0.43,1.52c-0.61-0.15-1.25-0.23-1.9-0.23
								c-1.68,0-3.24,0.54-4.52,1.44v0.29c1.26-0.94,2.83-1.5,4.52-1.5c0.63,0,1.25,0.08,1.84,0.23l-2.03,7.14l6.54-3.93
								c0.78,1.19,1.24,2.62,1.24,4.15c0,1.56-0.47,3.01-1.28,4.21h0.28c0.78-1.22,1.24-2.66,1.24-4.21
								C178.62,99.5,178.15,98.03,177.34,96.8z M173.62,91.11h5.32v0.62h-5.5L173.62,91.11z M171.12,91.73v-0.62h2.25l-0.18,0.62
								H171.12z M170.99,100.35l1.87-6.57c1.7,0.48,3.16,1.54,4.15,2.96L170.99,100.35z"/>
							<path class="st1" d="M179.36,103.27h1.41v-1.41h-1.41V103.27z M179.59,102.09h0.94v0.94h-0.94V102.09z"/>
							<path class="st1" d="M172.02,87.94v-1.6h-1.37v-2.1h-2.33v2.33h2.1v1.37H172.02z M170.65,86.57h1.13v1.14h-1.13V86.57z
								 M168.56,86.34v-1.86h1.86v1.86H168.56z"/>
						</g>
					</g>
					<g>
						<g>
							<path class="st1" d="M58.66,70.42c-1.48,0-2.69-1.21-2.69-2.69c0-1.48,1.21-2.69,2.69-2.69c1.48,0,2.69,1.21,2.69,2.69
								C61.35,69.21,60.14,70.42,58.66,70.42z M58.66,65.27c-1.35,0-2.45,1.1-2.45,2.45c0,1.35,1.1,2.45,2.45,2.45
								c1.35,0,2.45-1.1,2.45-2.45C61.11,66.38,60.01,65.27,58.66,65.27z"/>
							<path class="st36" d="M58.66,67.73L58.66,67.73c-0.63,0-1.15-0.52-1.15-1.15v-3.46c0-0.63,0.52-1.15,1.15-1.15l0,0
								c0.63,0,1.15,0.52,1.15,1.15v3.46C59.81,67.21,59.29,67.73,58.66,67.73z"/>
							<path class="st1" d="M79.92,68.53c-6.29-2.41-13.54-3.79-21.26-3.79s-14.97,1.38-21.26,3.79H79.92z"/>
							<rect x="58.54" y="-1.4" class="st39" width="0.23" height="63.36"/>
						</g>
						<g>
							<g>
								<path class="st40" d="M100.35,113.08c0,0,3.73-2.75,2.05-4.22c-3.96-3.3-14.19,7.98-13.92,9.16s12.68,3.44,14.81-2.25
									C104.66,112.28,100.35,113.08,100.35,113.08z"/>
								<path class="st41" d="M100.35,113.08c0,0-3.12,0.25-11.88,4.94c0.26,1.18,12.68,3.44,14.81-2.25
									C104.66,112.28,100.35,113.08,100.35,113.08z"/>
								<path class="st42" d="M92.54,116.07l-0.1-0.21c9.35-4.55,15.28-4.61,17.62-0.2l-0.21,0.11
									C107.58,111.49,101.76,111.59,92.54,116.07z"/>
								<path class="st42" d="M88.97,117.93l-0.11-0.21c0.74-0.41,1.47-0.8,2.16-1.16l0.11,0.21
									C90.43,117.13,89.71,117.52,88.97,117.93z"/>
								<path class="st43" d="M114.74,115.1h-3.21h-3.21c0,0-4.39,18.24-4,20.85c0.39,2.61,2,4,2,4h5.21h5.21c0,0,1.61-1.39,2-4
									C119.13,133.34,114.74,115.1,114.74,115.1z"/>
								<rect x="108.1" y="115.84" class="st39" width="6.85" height="0.23"/>
								<rect x="104.29" y="135.62" class="st39" width="14.44" height="0.23"/>
								<g>
									<rect x="103.01" y="139.95" class="st36" width="17.04" height="2.7"/>
									<g>
										
											<rect x="86.09" y="159.81" transform="matrix(0.0495 -0.9988 0.9988 0.0495 -60.7954 255.9656)" class="st39" width="35.98" height="0.23"/>
										
											<rect x="118.85" y="141.93" transform="matrix(0.9987 -0.0503 0.0503 0.9987 -7.898 6.1902)" class="st39" width="0.24" height="35.98"/>
									</g>
									<rect x="103.54" y="170.53" class="st39" width="15.97" height="0.23"/>
									<rect x="103.8" y="165.31" class="st39" width="15.44" height="0.23"/>
								</g>
								<path class="st40" d="M123.62,116.79c0,0-3.7-2.79-4.63-0.76c-2.03,4.73,8.92,13.25,9.97,12.66
									c1.05-0.59,2.46-15.05-3.6-15.47C121.63,112.89,123.62,116.79,123.62,116.79z"/>
								<path class="st41" d="M123.62,116.79c0,0-3.7-2.79-4.63-0.76c-2.03,4.73,8.92,13.25,9.97,12.66
									C128.66,125.91,125.5,117.93,123.62,116.79z"/>
								<path class="st41" d="M109.27,104.63c0,0,0.18,3.71-2.78,3.36c-2.96-0.36-0.61-11.01-0.61-11.01s9.57,5.58,7,8.01
									C111.05,106.95,109.27,104.63,109.27,104.63z"/>
								<path class="st40" d="M109.27,104.63l-3.39-7.65c0,0,9.57,5.58,7,8.01C111.05,106.95,109.27,104.63,109.27,104.63z"/>
								<path class="st40" d="M115.74,107.89c2.62-3.41,7.19-5.45,12.5-7.22c0,0-2.48,8.32-5.73,9.48
									C119.33,111.06,115.74,107.89,115.74,107.89z"/>
								<path class="st40" d="M104.47,104.71c0,0-4.66-5.22-8.07-7.73c0,0,0.65,6.15,2.72,7.74
									C101.2,106.12,104.47,104.71,104.47,104.71z"/>
								<path class="st42" d="M114.23,109.93l-0.2-0.12c2.86-4.67,8.5-7.21,14.17-9.25l0.08,0.22
									C122.64,102.81,117.05,105.32,114.23,109.93z"/>
								<path class="st42" d="M112.44,115.12l-0.23-0.03c0.19-1.51,0.62-2.94,1.25-4.24l0.21,0.1
									C113.04,112.23,112.63,113.63,112.44,115.12z"/>
								<path class="st42" d="M111.41,115.11c-0.56-7-3.18-13.26-5.28-17.28l0.21-0.11c2.11,4.04,4.75,10.32,5.31,17.37
									L111.41,115.11z"/>
								<path class="st42" d="M128.57,127.96c-0.16-0.79-0.35-1.58-0.56-2.32l0.23-0.06c0.21,0.75,0.4,1.54,0.56,2.34L128.57,127.96
									z"/>
								<path class="st42" d="M127.41,123.71c-2.11-6.07-5.9-10.27-9.65-10.68c-1.81-0.2-3.36,0.56-4.35,2.14l-0.2-0.12
									c1.04-1.67,2.66-2.47,4.57-2.25c3.84,0.43,7.71,4.68,9.85,10.84L127.41,123.71z"/>
								<path class="st40" d="M106.18,119.33c0,0,0.78-3.07-1.23-2.61c-4.61,1.18-2.31,12.68-1.29,13.12
									c1.03,0.44,10.05-5.39,6.94-10.05C108.74,116.88,106.18,119.33,106.18,119.33z"/>
								<path class="st41" d="M106.18,119.33c0,0-2.04,6.49-2.51,10.51c1.03,0.44,10.05-5.39,6.94-10.05
									C108.74,116.88,106.18,119.33,106.18,119.33z"/>
								<path class="st42" d="M110.55,115.15c-1.92-4.68-4.69-8.97-8.25-12.74l0.17-0.16c3.58,3.79,6.37,8.1,8.3,12.81
									L110.55,115.15z"/>
								<path class="st42" d="M101.14,101.23c-1.47-1.45-3.08-2.84-4.81-4.15l0.14-0.19c1.73,1.31,3.36,2.72,4.83,4.17
									L101.14,101.23z"/>
								<path class="st42" d="M103.97,128.58l-0.23-0.04c0.1-0.59,2.6-14.41,6.15-15.31c0.59-0.08,1.07,0.04,1.45,0.34
									c0.67,0.54,0.76,1.47,0.76,1.51l-0.23,0.02c0-0.01-0.08-0.88-0.67-1.35c-0.32-0.26-0.75-0.36-1.25-0.29
									C106.54,114.33,104,128.44,103.97,128.58z"/>
							</g>
							<g>
								<g>
									<path class="st39" d="M213.42,178.01h-2.58l-0.02-0.09l-2.19-9.77h3.59L213.42,178.01z M211.02,177.77h2.13l-1.15-9.39
										h-3.09L211.02,177.77z"/>
									<path class="st39" d="M137.27,178.01h-2.58l1.21-9.86h3.59L137.27,178.01z M134.95,177.77h2.13l2.11-9.39h-3.09
										L134.95,177.77z"/>
								</g>
								<g>
									<path class="st1" d="M206.26,178.01h-2.58l-0.02-0.09l-2.19-9.77h3.59L206.26,178.01z M203.86,177.77h2.13l-1.15-9.39
										h-3.09L203.86,177.77z"/>
									<path class="st1" d="M144.43,178.01h-2.58l1.21-9.86h3.59L144.43,178.01z M142.11,177.77h2.13l2.11-9.39h-3.09
										L142.11,177.77z"/>
								</g>
								<polygon class="st44" points="142.55,152.97 205.49,152.97 208.34,152.74 213.43,154.15 215.1,157.14 216.36,163.32 
									214.74,166.47 146.05,167.25 131.22,164.63 131.74,158.82 135.13,153.94 139.18,151.95 								"/>
								<polygon class="st45" points="215.1,157.14 215.1,157.14 213.43,154.15 208.34,152.74 205.49,152.97 142.55,152.97 
									139.18,151.95 135.13,153.94 132.9,157.14 								"/>
								<path class="st46" d="M123.11,148.6l9.02-2.84c0.77-0.25,1.2-0.74,1.42-1.56l2.71-10.86c0.32-1.27,1.1-1.94,2.36-1.98h4.11
									l-2.1,11.67l-7.27,6.45h-4.4h-3.38L123.11,148.6z"/>
								<path class="st46" d="M225.01,148.6l-9.02-2.84c-0.77-0.25-1.2-0.74-1.42-1.56l-2.71-10.86c-0.32-1.27-1.1-1.94-2.36-1.98
									h-4.11l2.1,11.67l7.27,6.45h4.4h3.38L225.01,148.6z"/>
								<path class="st46" d="M135.5,163.64v-6.15c0.01-0.87,0.36-1.66,1.16-2.06l5.89-0.89c1.06-4.64-2.27-8.83-6.17-8.49
									l-8.87,2.58l-0.4,5.65l1.31,4.38l3.25,4.32l3.26,1.19L135.5,163.64z"/>
								<path class="st46" d="M212.54,163.64v-6.15c-0.01-0.87-0.36-1.66-1.16-2.06l-5.89-0.89c-1.06-4.64,2.27-8.83,6.17-8.49
									l8.87,2.58l0.98,2.92l-2.52,4.99c0,0-1.3,5.38-1.3,5.54c0,0.16-0.9,3.73-0.9,3.73h-3.39L212.54,163.64z"/>
								<path class="st44" d="M208.41,133.49c-0.41-1.37-1.38-2.13-2.89-2.13h-62.93c-1.52,0-2.48,0.76-2.89,2.13l-3.23,13.64
									l6.09,7.42h62.94l6.15-7.42L208.41,133.49z"/>
								<path class="st36" d="M224.6,148.53h-3.24c-0.63,0-1.05,0.03-1.37,0.86l-5.83,13.01c-0.51,0.89-1.2,1.39-2.52,1.41h-44.49
									h-30.7c-1.32-0.03-2-0.52-2.52-1.41l-5.83-13.01c-0.32-0.83-0.74-0.86-1.37-0.86h-3.24c-0.67,0-0.96,0.52-0.77,1.07
									l6.85,18.34c0.38,0.94,1.42,1.81,2.87,1.81h34.71h48.5c1.44,0,2.49-0.86,2.87-1.81l6.85-18.34
									C225.56,149.05,225.28,148.53,224.6,148.53z"/>
								<rect x="136.85" y="157.02" class="st39" width="74.17" height="0.23"/>
								
									<rect x="127.36" y="147.5" transform="matrix(0.9604 -0.2785 0.2785 0.9604 -35.9298 42.3308)" class="st39" width="7.3" height="0.23"/>
								
									<rect x="216.79" y="143.96" transform="matrix(0.2792 -0.9602 0.9602 0.2792 14.6031 314.684)" class="st39" width="0.23" height="7.3"/>
								<g>
									<path class="st43" d="M207.73,140.2c3.32-0.92,10.36,0.91,11.07,2.66c0.72,1.76-5.55,13.2-8.6,13.7
										c-3.05,0.51-11.58-1.65-11.58-3.33C198.86,149.31,204.4,141.12,207.73,140.2z"/>
									<path class="st39" d="M209.44,156.22c-0.46-1.39,1.52-5.88,3.65-9.2c0.87-1.35,3.07-4.52,4.74-4.7l0.03,0.23
										c-1.1,0.12-2.76,1.8-4.56,4.6c-2.32,3.62-4.02,7.82-3.63,9L209.44,156.22z"/>
								</g>
							</g>
							<g>
								<g>
									<rect x="60.85" y="145.53" class="st1" width="5.45" height="10.69"/>
									<rect x="68" y="143.03" class="st1" width="5.45" height="13.19"/>
									<rect x="64.5" y="148.19" class="st35" width="5.45" height="8.03"/>
									<rect x="63.46" y="144.87" class="st39" width="0.23" height="0.67"/>
									<rect x="70.6" y="142.36" class="st39" width="0.23" height="0.67"/>
									<rect x="67.1" y="147.53" class="st39" width="0.23" height="0.67"/>
									<rect x="58.66" y="156.22" class="st46" width="17.61" height="0.76"/>
								</g>
								<g>
									<path class="st44" d="M84.59,155.62v-1.56c0-0.75,0.61-1.36,1.36-1.36h-5.33c-0.75,0-1.36,0.61-1.36,1.36v1.56
										c0,0.75,0.61,1.36,1.36,1.36h5.33C85.21,156.98,84.59,156.37,84.59,155.62z"/>
									<path class="st46" d="M85.95,152.7c-0.75,0-1.36,0.61-1.36,1.36v1.56c0,0.75,0.61,1.36,1.36,1.36h10.12v-4.28H85.95z"/>
									<path class="st1" d="M86.06,153.1c-0.61,0-1.11,0.5-1.11,1.11v1.27c0,0.61,0.5,1.11,1.11,1.11h10.02v-3.48H86.06z"/>
									<rect x="87.27" y="153.51" class="st44" width="8.3" height="0.23"/>
									<rect x="88.7" y="154.92" class="st44" width="7.38" height="0.23"/>
									<rect x="86.5" y="154.92" class="st44" width="1.18" height="0.23"/>
									<rect x="87.06" y="155.79" class="st44" width="6.17" height="0.23"/>
								</g>
								<g>
									<g>
										<path class="st39" d="M89.63,178.01h-1.04l-3.85-19.83h2.01L89.63,178.01z M88.79,177.77h0.57l-2.81-19.36h-1.52
											L88.79,177.77z"/>
										<path class="st39" d="M63.59,178.01h-1.04l2.88-19.83h2.01L63.59,178.01z M62.82,177.77h0.57l3.76-19.36h-1.52
											L62.82,177.77z"/>
									</g>
									<path class="st1" d="M76.61,178.01h-1.02l-0.49-19.83h1.98l0,0.12L76.61,178.01z M75.82,177.77h0.56l0.46-19.36h-1.5
										L75.82,177.77z"/>
									<rect x="54.35" y="156.98" class="st36" width="43.47" height="1.94"/>
								</g>
							</g>
							<g>
								<g>
									<path class="st39" d="M42.64,178.01h-2.58l-2.21-9.86h3.59L42.64,178.01z M40.24,177.77h2.13l-1.15-9.39h-3.09
										L40.24,177.77z"/>
									<path class="st39" d="M11.41,178.01H8.82l1.21-9.86h3.59L11.41,178.01z M9.09,177.77h2.13l2.11-9.39h-3.09L9.09,177.77z"/>
								</g>
								<g>
									<path class="st1" d="M35.48,178.01h-2.58l-2.21-9.86h3.59L35.48,178.01z M33.08,177.77h2.13l-1.15-9.39h-3.09L33.08,177.77
										z"/>
									<path class="st1" d="M18.57,178.01h-2.58l1.21-9.86h3.59L18.57,178.01z M16.25,177.77h2.13l2.11-9.39H17.4L16.25,177.77z"
										/>
								</g>
								<polygon class="st44" points="16.69,152.97 34.71,152.97 37.56,152.74 42.65,154.15 44.32,157.14 45.58,163.32 
									43.96,166.47 20.19,167.25 5.36,164.63 5.88,158.82 9.27,153.94 13.32,151.95 								"/>
								<polygon class="st45" points="44.32,157.14 44.32,157.14 42.65,154.15 37.56,152.74 34.71,152.97 16.69,152.97 
									13.32,151.95 9.27,153.94 7.04,157.14 								"/>
								<path class="st46" d="M-1.21,148.6l7.48-2.84c0.77-0.25,1.2-0.74,1.42-1.56l2.71-10.86c0.32-1.27,1.1-1.94,2.36-1.98h4.11
									l-2.1,11.67l-7.27,6.45H4.63H1.25L-1.21,148.6z"/>
								<path class="st46" d="M52.69,148.6l-7.48-2.84c-0.77-0.25-1.2-0.74-1.42-1.56l-2.71-10.86c-0.32-1.27-1.1-1.94-2.36-1.98
									h-4.11l2.1,11.67l7.27,6.45h2.86h3.38L52.69,148.6z"/>
								<path class="st46" d="M9.63,163.64v-6.15c0.01-0.87,0.36-1.66,1.16-2.06l5.89-0.89c1.06-4.64-2.27-8.83-6.17-8.49
									l-7.33,2.58l-1.94,5.65l1.31,4.38l3.25,4.32l3.26,1.19L9.63,163.64z"/>
								<path class="st46" d="M41.76,163.64v-6.15c-0.01-0.87-0.36-1.66-1.16-2.06l-5.89-0.89c-1.06-4.64,2.27-8.83,6.17-8.49
									l7.33,2.58l0.98,2.92l-0.98,4.99c0,0-1.3,5.38-1.3,5.54c0,0.16-0.9,3.73-0.9,3.73h-3.39L41.76,163.64z"/>
								<path class="st44" d="M37.63,133.49c-0.41-1.37-1.38-2.13-2.89-2.13H16.72c-1.52,0-2.48,0.76-2.89,2.13l-3.23,13.64
									l6.09,7.42h18.02l6.15-7.42L37.63,133.49z"/>
								<path class="st36" d="M52.28,148.53h-3.24c-0.63,0-1.05,0.03-1.37,0.86l-4.29,13.01c-0.51,0.89-1.2,1.39-2.52,1.41h0.43
									H10.6c-1.32-0.03-2-0.52-2.52-1.41l-4.29-13.01c-0.32-0.83-0.74-0.86-1.37-0.86h-3.24c-0.67,0-0.96,0.52-0.77,1.07
									l5.31,18.34c0.38,0.94,1.42,1.81,2.87,1.81h34.71h3.58c1.44,0,2.49-0.86,2.87-1.81l5.31-18.34
									C53.24,149.05,52.96,148.53,52.28,148.53z"/>
								<rect x="10.99" y="157.02" class="st39" width="29.25" height="0.23"/>
								
									<rect x="3" y="147.5" transform="matrix(0.9372 -0.3488 0.3488 0.9372 -51.1206 11.3377)" class="st39" width="5.84" height="0.23"/>
								
									<rect x="45.24" y="144.7" transform="matrix(0.3491 -0.9371 0.9371 0.3491 -108.8069 138.585)" class="st39" width="0.23" height="5.84"/>
							</g>
							<g>
								<rect x="228.38" y="85.19" class="st39" width="0.23" height="90.21"/>
								<rect x="222.32" y="175.4" class="st36" width="12.58" height="2.49"/>
								<rect x="221.65" y="60.25" class="st43" width="13.69" height="49.88"/>
								<rect x="224.9" y="110.13" class="st1" width="0.23" height="12.63"/>
								<path class="st36" d="M225.01,126.02L225.01,126.02c-0.12,0-0.22-0.1-0.22-0.22v-3.28c0-0.12,0.1-0.22,0.22-0.22l0,0
									c0.12,0,0.22,0.1,0.22,0.22v3.28C225.23,125.93,225.13,126.02,225.01,126.02z"/>
								<rect x="221.65" y="106.35" class="st39" width="13.69" height="0.23"/>
								<rect x="221.65" y="63.9" class="st39" width="13.69" height="0.23"/>
							</g>
						</g>
						<g>
							<g>
								<rect x="33.22" y="102.99" class="st44" width="16.36" height="3.04"/>
								<rect x="32.66" y="106.03" class="st36" width="18.06" height="1.51"/>
								<g>
									<g>
										<rect x="35.05" y="102.99" class="st1" width="0.23" height="3.04"/>
										<rect x="36.01" y="102.99" class="st1" width="0.23" height="3.04"/>
									</g>
									<g>
										<rect x="46.55" y="102.99" class="st1" width="0.23" height="3.04"/>
										<rect x="47.51" y="102.99" class="st1" width="0.23" height="3.04"/>
									</g>
								</g>
							</g>
							<g>
								<path class="st43" d="M14.77,105.68c0.83,0.88,1.92,1.51,3.16,1.77h2.45c1.23-0.25,2.32-0.89,3.16-1.77H14.77z"/>
								<path class="st1" d="M17.92,107.56c-2.86-0.59-4.93-3.12-4.93-6.03c0-2.11,1.06-4.05,2.85-5.19l0.03-0.02h6.55l0.03,0.02
									c1.78,1.14,2.85,3.08,2.85,5.19c0,2.9-2.06,5.44-4.9,6.02L17.92,107.56z M15.94,96.57c-1.7,1.1-2.71,2.95-2.71,4.97
									c0,2.79,1.98,5.23,4.71,5.79l2.43,0c2.71-0.56,4.69-3,4.69-5.79c0-2.02-1.01-3.87-2.71-4.97H15.94z"/>
								<path class="st1" d="M14,101.59h-0.23c0-1.21,0.39-2.36,1.14-3.31l0.18,0.14C14.37,99.33,14,100.43,14,101.59z"/>
								<path class="st1" d="M15.62,97.83l-0.16-0.17c0.24-0.23,0.51-0.44,0.79-0.62l0.13,0.2C16.11,97.41,15.86,97.61,15.62,97.83z
									"/>
								<path class="st40" d="M17.69,105.68c-1.64-0.58-2.61-1.65-3.62-3.17c1.45,0.25,2.76,0.75,3.75,1.81
									c-0.94-1.27-1.45-3.05-1.78-5.05c1.39,1.37,2.49,2.85,2.96,4.56c-0.08-2.06,0.49-4.14,1.36-6.23
									c0.38,2.31,0.46,4.46-0.06,6.34c0.53-1.31,1.57-2.38,2.94-3.29c-0.53,1.5-1.13,2.75-1.86,3.51
									c0.62-0.73,1.53-1.19,2.55-1.55c-0.91,1.47-2.13,2.55-3.41,3.07H17.69z"/>
								<path class="st42" d="M18.27,105.7c-0.12-0.72-0.53-1.31-0.54-1.31l0.19-0.14c0.02,0.03,0.45,0.63,0.58,1.41L18.27,105.7z"
									/>
								<path class="st42" d="M19.23,105.72c-0.18-0.56-0.33-1.82-0.34-1.87l0.23-0.03c0,0.01,0.16,1.29,0.33,1.83L19.23,105.72z"/>
								<path class="st42" d="M19.8,105.74l-0.21-0.11c0.33-0.6,0.52-1.16,0.6-1.7l0.23,0.03C20.35,104.52,20.14,105.11,19.8,105.74
									z"/>
								<path class="st42" d="M20.22,105.74l-0.2-0.12c0.38-0.63,1.24-1.51,1.28-1.54l0.17,0.16
									C21.46,104.25,20.59,105.13,20.22,105.74z"/>
							</g>
							<g>
								<path class="st1" d="M11.83,113.96H9.99v-5.89h1.84V113.96z M10.23,113.73h1.37v-5.42h-1.37V113.73z"/>
								<path class="st1" d="M59.02,113.96h-1.84v-5.89h1.84V113.96z M57.42,113.73h1.37v-5.42h-1.37V113.73z"/>
							</g>
							<rect x="7.47" y="107.54" class="st1" width="54.08" height="1.3"/>
						</g>
						<g>
							<g>
								<path class="st1" d="M11.83,95.15H9.99v-5.89h1.84V95.15z M10.23,94.91h1.37v-5.42h-1.37V94.91z"/>
								<path class="st1" d="M59.02,95.15h-1.84v-5.89h1.84V95.15z M57.42,94.91h1.37v-5.42h-1.37V94.91z"/>
							</g>
							<rect x="7.47" y="88.72" class="st1" width="54.08" height="1.3"/>
							<g>
								<rect x="13.63" y="84.34" class="st43" width="16.36" height="3.02"/>
								<g>
									<g>
										<rect x="15.33" y="84.34" class="st1" width="0.23" height="3.02"/>
										<rect x="15.98" y="84.34" class="st1" width="0.23" height="3.02"/>
									</g>
									<g>
										<rect x="27.39" y="84.34" class="st1" width="0.23" height="3.02"/>
										<rect x="28.05" y="84.34" class="st1" width="0.23" height="3.02"/>
									</g>
								</g>
							</g>
							<g>
								<rect x="38.49" y="86.53" class="st43" width="17.35" height="2.19"/>
							</g>
							<rect x="12.31" y="87.35" class="st36" width="19.61" height="1.37"/>
							<rect x="12.65" y="81.72" class="st1" width="19.69" height="2.62"/>
						</g>
					</g>
				</g>
				<g class="st34">
					<path class="st43" d="M13.5,140.08c-3.3-1.02-10.38,0.6-11.15,2.34c-0.77,1.74,5.16,13.36,8.19,13.95
						c3.03,0.6,11.62-1.31,11.67-2.99C22.09,149.45,16.79,141.1,13.5,140.08z"/>
					<path class="st39" d="M11.31,156.05l-0.22-0.08c0.42-1.16-1.15-5.42-3.36-9.1c-1.72-2.85-3.33-4.58-4.42-4.73l0.03-0.23
						c1.66,0.23,3.76,3.46,4.59,4.84C9.96,150.13,11.81,154.68,11.31,156.05z"/>
				</g>
				<rect x="-9.87" y="177.77" class="st47" width="253.41" height="0.23"/>
			</g>
			<g style="clip-path:url(#SVGID_00000158007522006891070900000000792425994182636449_);">
				<rect x="-16.19" y="44.57" class="st31" width="266.05" height="156.5"/>
				<g>
					<g>
						<polygon class="st49" points="104.87,68.5 83.73,68.5 74.4,90.94 95.53,90.94 						"/>
						<polygon class="st49" points="107.02,68.5 97.68,90.94 118.82,90.94 128.15,68.5 						"/>
						<polygon class="st49" points="94.8,92.7 73.67,92.7 60.22,125.03 81.35,125.03 						"/>
						<polygon class="st49" points="83.5,125.03 104.64,125.03 118.09,92.7 96.95,92.7 						"/>
						<polygon class="st49" points="59.43,126.91 45.98,159.23 67.12,159.23 80.57,126.91 						"/>
						<polygon class="st49" points="69.27,159.23 90.4,159.23 103.85,126.91 82.72,126.91 						"/>
					</g>
					<g>
						<polygon class="st49" points="205.44,68.5 184.31,68.5 174.97,90.94 196.1,90.94 						"/>
						<polygon class="st49" points="207.59,68.5 198.26,90.94 219.39,90.94 228.73,68.5 						"/>
						<polygon class="st49" points="195.37,92.7 174.24,92.7 160.79,125.03 181.92,125.03 						"/>
						<polygon class="st49" points="184.07,125.03 205.21,125.03 218.66,92.7 197.52,92.7 						"/>
						<polygon class="st49" points="160.01,126.91 146.56,159.23 167.69,159.23 181.14,126.91 						"/>
						<polygon class="st49" points="169.84,159.23 190.98,159.23 204.43,126.91 183.29,126.91 						"/>
					</g>
				</g>
				<g>
					<g>
						
							<rect x="152.01" y="78.27" transform="matrix(-1.836970e-16 1 -1 -1.836970e-16 268.1282 -79.9748)" class="st50" width="44.09" height="31.62"/>
						
							<rect x="153.4" y="79.76" transform="matrix(-1.836970e-16 1 -1 -1.836970e-16 268.1282 -79.9748)" class="st1" width="41.29" height="28.63"/>
						
							<rect x="162.84" y="86.3" transform="matrix(-1.836970e-16 1 -1 -1.836970e-16 268.1282 -79.9748)" class="st51" width="22.43" height="15.55"/>
						<g>
							<path class="st38" d="M163.21,101.08c0,4.19,3.41,7.59,7.59,7.59c2.63,0,4.95-1.34,6.31-3.38h-10.83V94.98
								C164.41,96.37,163.21,98.58,163.21,101.08z"/>
							<polygon class="st38" points="181.83,91.5 181.83,93.84 183.38,92.91 							"/>
							<path class="st51" d="M177.1,105.29c0.81-1.21,1.28-2.66,1.28-4.21c0-1.53-0.46-2.96-1.24-4.15l-6.54,3.93l2.03-7.14
								c-0.59-0.15-1.2-0.23-1.84-0.23c-1.69,0-3.26,0.56-4.52,1.5v10.31H177.1z"/>
							<rect x="170.65" y="86.57" class="st51" width="1.13" height="1.14"/>
							<rect x="168.56" y="84.48" class="st51" width="1.86" height="1.86"/>
							<path class="st51" d="M172.7,93.49l0.43-1.52h-2.24v-1.09h2.55l1.66-5.83l6.73,6.13v-8.32h-15.55V94.7
								c1.28-0.91,2.84-1.44,4.52-1.44C171.45,93.25,172.09,93.34,172.7,93.49z M168.32,86.57v-2.33h2.33v2.1h1.37v1.6h-1.6v-1.37
								H168.32z"/>
							<path class="st51" d="M181.83,94.11l-4.48,2.69c0.81,1.23,1.28,2.7,1.28,4.27c0,1.55-0.46,3-1.24,4.21h4.44V94.11z
								 M180.77,103.27h-1.41v-1.41h1.41V103.27z"/>
							<path class="st51" d="M175.22,85.47l-1.54,5.4h5.49v1.09h-5.8l-0.45,1.58c1.76,0.5,3.27,1.6,4.29,3.06l4.61-2.77V91.5
								L175.22,85.47z"/>
							<rect x="179.59" y="102.09" class="st51" width="0.94" height="0.94"/>
							<polygon class="st51" points="178.94,91.11 173.62,91.11 173.44,91.73 178.94,91.73 							"/>
							<polygon class="st51" points="173.37,91.11 171.12,91.11 171.12,91.73 173.19,91.73 							"/>
							<path class="st51" d="M172.86,93.77l-1.87,6.57l6.02-3.62C176.02,95.32,174.56,94.26,172.86,93.77z"/>
							<polygon class="st1" points="183.38,92.91 181.83,93.84 181.83,94.11 183.77,92.95 181.83,91.18 181.83,91.5 							"/>
							<path class="st1" d="M177.34,96.8l4.48-2.69v-0.27l-4.61,2.77c-1.02-1.46-2.53-2.56-4.29-3.06l0.45-1.58h5.8v-1.09h-5.49
								l1.54-5.4l6.61,6.02v-0.32l-6.73-6.13l-1.66,5.83h-2.55v1.09h2.24l-0.43,1.52c-0.61-0.15-1.25-0.23-1.9-0.23
								c-1.68,0-3.24,0.54-4.52,1.44v0.29c1.26-0.94,2.83-1.5,4.52-1.5c0.63,0,1.25,0.08,1.84,0.23l-2.03,7.14l6.54-3.93
								c0.78,1.19,1.24,2.62,1.24,4.15c0,1.56-0.47,3.01-1.28,4.21h0.28c0.78-1.22,1.24-2.66,1.24-4.21
								C178.62,99.5,178.15,98.03,177.34,96.8z M173.62,91.11h5.32v0.62h-5.5L173.62,91.11z M171.12,91.73v-0.62h2.25l-0.18,0.62
								H171.12z M170.99,100.35l1.87-6.57c1.7,0.48,3.16,1.54,4.15,2.96L170.99,100.35z"/>
							<path class="st1" d="M179.36,103.27h1.41v-1.41h-1.41V103.27z M179.59,102.09h0.94v0.94h-0.94V102.09z"/>
							<path class="st1" d="M172.02,87.94v-1.6h-1.37v-2.1h-2.33v2.33h2.1v1.37H172.02z M170.65,86.57h1.13v1.14h-1.13V86.57z
								 M168.56,86.34v-1.86h1.86v1.86H168.56z"/>
						</g>
					</g>
					<g>
						<g>
							<path class="st1" d="M58.66,70.42c-1.48,0-2.69-1.21-2.69-2.69c0-1.48,1.21-2.69,2.69-2.69c1.48,0,2.69,1.21,2.69,2.69
								C61.35,69.21,60.14,70.42,58.66,70.42z M58.66,65.27c-1.35,0-2.45,1.1-2.45,2.45c0,1.35,1.1,2.45,2.45,2.45
								c1.35,0,2.45-1.1,2.45-2.45C61.11,66.38,60.01,65.27,58.66,65.27z"/>
							<path class="st50" d="M58.66,67.73L58.66,67.73c-0.63,0-1.15-0.52-1.15-1.15v-3.46c0-0.63,0.52-1.15,1.15-1.15l0,0
								c0.63,0,1.15,0.52,1.15,1.15v3.46C59.81,67.21,59.29,67.73,58.66,67.73z"/>
							<path class="st1" d="M79.92,68.53c-6.29-2.41-13.54-3.79-21.26-3.79s-14.97,1.38-21.26,3.79H79.92z"/>
							<rect x="58.54" y="-1.4" class="st52" width="0.23" height="63.36"/>
						</g>
						<g>
							<g>
								<path class="st53" d="M100.35,113.08c0,0,3.73-2.75,2.05-4.22c-3.96-3.3-14.19,7.98-13.92,9.16s12.68,3.44,14.81-2.25
									C104.66,112.28,100.35,113.08,100.35,113.08z"/>
								<path class="st54" d="M100.35,113.08c0,0-3.12,0.25-11.88,4.94c0.26,1.18,12.68,3.44,14.81-2.25
									C104.66,112.28,100.35,113.08,100.35,113.08z"/>
								<path class="st55" d="M92.54,116.07l-0.1-0.21c9.35-4.55,15.28-4.61,17.62-0.2l-0.21,0.11
									C107.58,111.49,101.76,111.59,92.54,116.07z"/>
								<path class="st55" d="M88.97,117.93l-0.11-0.21c0.74-0.41,1.47-0.8,2.16-1.16l0.11,0.21
									C90.43,117.13,89.71,117.52,88.97,117.93z"/>
								<path class="st56" d="M114.74,115.1h-3.21h-3.21c0,0-4.39,18.24-4,20.85c0.39,2.61,2,4,2,4h5.21h5.21c0,0,1.61-1.39,2-4
									C119.13,133.34,114.74,115.1,114.74,115.1z"/>
								<rect x="108.1" y="115.84" class="st52" width="6.85" height="0.23"/>
								<rect x="104.29" y="135.62" class="st52" width="14.44" height="0.23"/>
								<g>
									<rect x="103.01" y="139.95" class="st50" width="17.04" height="2.7"/>
									<g>
										
											<rect x="86.09" y="159.81" transform="matrix(0.0495 -0.9988 0.9988 0.0495 -60.7954 255.9656)" class="st52" width="35.98" height="0.23"/>
										
											<rect x="118.85" y="141.93" transform="matrix(0.9987 -0.0503 0.0503 0.9987 -7.898 6.1902)" class="st52" width="0.24" height="35.98"/>
									</g>
									<rect x="103.54" y="170.53" class="st52" width="15.97" height="0.23"/>
									<rect x="103.8" y="165.31" class="st52" width="15.44" height="0.23"/>
								</g>
								<path class="st53" d="M123.62,116.79c0,0-3.7-2.79-4.63-0.76c-2.03,4.73,8.92,13.25,9.97,12.66
									c1.05-0.59,2.46-15.05-3.6-15.47C121.63,112.89,123.62,116.79,123.62,116.79z"/>
								<path class="st54" d="M123.62,116.79c0,0-3.7-2.79-4.63-0.76c-2.03,4.73,8.92,13.25,9.97,12.66
									C128.66,125.91,125.5,117.93,123.62,116.79z"/>
								<path class="st54" d="M109.27,104.63c0,0,0.18,3.71-2.78,3.36c-2.96-0.36-0.61-11.01-0.61-11.01s9.57,5.58,7,8.01
									C111.05,106.95,109.27,104.63,109.27,104.63z"/>
								<path class="st53" d="M109.27,104.63l-3.39-7.65c0,0,9.57,5.58,7,8.01C111.05,106.95,109.27,104.63,109.27,104.63z"/>
								<path class="st53" d="M115.74,107.89c2.62-3.41,7.19-5.45,12.5-7.22c0,0-2.48,8.32-5.73,9.48
									C119.33,111.06,115.74,107.89,115.74,107.89z"/>
								<path class="st53" d="M104.47,104.71c0,0-4.66-5.22-8.07-7.73c0,0,0.65,6.15,2.72,7.74
									C101.2,106.12,104.47,104.71,104.47,104.71z"/>
								<path class="st55" d="M114.23,109.93l-0.2-0.12c2.86-4.67,8.5-7.21,14.17-9.25l0.08,0.22
									C122.64,102.81,117.05,105.32,114.23,109.93z"/>
								<path class="st55" d="M112.44,115.12l-0.23-0.03c0.19-1.51,0.62-2.94,1.25-4.24l0.21,0.1
									C113.04,112.23,112.63,113.63,112.44,115.12z"/>
								<path class="st55" d="M111.41,115.11c-0.56-7-3.18-13.26-5.28-17.28l0.21-0.11c2.11,4.04,4.75,10.32,5.31,17.37
									L111.41,115.11z"/>
								<path class="st55" d="M128.57,127.96c-0.16-0.79-0.35-1.58-0.56-2.32l0.23-0.06c0.21,0.75,0.4,1.54,0.56,2.34L128.57,127.96
									z"/>
								<path class="st55" d="M127.41,123.71c-2.11-6.07-5.9-10.27-9.65-10.68c-1.81-0.2-3.36,0.56-4.35,2.14l-0.2-0.12
									c1.04-1.67,2.66-2.47,4.57-2.25c3.84,0.43,7.71,4.68,9.85,10.84L127.41,123.71z"/>
								<path class="st53" d="M106.18,119.33c0,0,0.78-3.07-1.23-2.61c-4.61,1.18-2.31,12.68-1.29,13.12
									c1.03,0.44,10.05-5.39,6.94-10.05C108.74,116.88,106.18,119.33,106.18,119.33z"/>
								<path class="st54" d="M106.18,119.33c0,0-2.04,6.49-2.51,10.51c1.03,0.44,10.05-5.39,6.94-10.05
									C108.74,116.88,106.18,119.33,106.18,119.33z"/>
								<path class="st55" d="M110.55,115.15c-1.92-4.68-4.69-8.97-8.25-12.74l0.17-0.16c3.58,3.79,6.37,8.1,8.3,12.81
									L110.55,115.15z"/>
								<path class="st55" d="M101.14,101.23c-1.47-1.45-3.08-2.84-4.81-4.15l0.14-0.19c1.73,1.31,3.36,2.72,4.83,4.17
									L101.14,101.23z"/>
								<path class="st55" d="M103.97,128.58l-0.23-0.04c0.1-0.59,2.6-14.41,6.15-15.31c0.59-0.08,1.07,0.04,1.45,0.34
									c0.67,0.54,0.76,1.47,0.76,1.51l-0.23,0.02c0-0.01-0.08-0.88-0.67-1.35c-0.32-0.26-0.75-0.36-1.25-0.29
									C106.54,114.33,104,128.44,103.97,128.58z"/>
							</g>
							<g>
								<g>
									<path class="st52" d="M213.42,178.01h-2.58l-0.02-0.09l-2.19-9.77h3.59L213.42,178.01z M211.02,177.77h2.13l-1.15-9.39
										h-3.09L211.02,177.77z"/>
									<path class="st52" d="M137.27,178.01h-2.58l1.21-9.86h3.59L137.27,178.01z M134.95,177.77h2.13l2.11-9.39h-3.09
										L134.95,177.77z"/>
								</g>
								<g>
									<path class="st1" d="M206.26,178.01h-2.58l-0.02-0.09l-2.19-9.77h3.59L206.26,178.01z M203.86,177.77h2.13l-1.15-9.39
										h-3.09L203.86,177.77z"/>
									<path class="st1" d="M144.43,178.01h-2.58l1.21-9.86h3.59L144.43,178.01z M142.11,177.77h2.13l2.11-9.39h-3.09
										L142.11,177.77z"/>
								</g>
								<polygon class="st57" points="142.55,152.97 205.49,152.97 208.34,152.74 213.43,154.15 215.1,157.14 216.36,163.32 
									214.74,166.47 146.05,167.25 131.22,164.63 131.74,158.82 135.13,153.94 139.18,151.95 								"/>
								<polygon class="st58" points="215.1,157.14 215.1,157.14 213.43,154.15 208.34,152.74 205.49,152.97 142.55,152.97 
									139.18,151.95 135.13,153.94 132.9,157.14 								"/>
								<path class="st59" d="M123.11,148.6l9.02-2.84c0.77-0.25,1.2-0.74,1.42-1.56l2.71-10.86c0.32-1.27,1.1-1.94,2.36-1.98h4.11
									l-2.1,11.67l-7.27,6.45h-4.4h-3.38L123.11,148.6z"/>
								<path class="st59" d="M225.01,148.6l-9.02-2.84c-0.77-0.25-1.2-0.74-1.42-1.56l-2.71-10.86c-0.32-1.27-1.1-1.94-2.36-1.98
									h-4.11l2.1,11.67l7.27,6.45h4.4h3.38L225.01,148.6z"/>
								<path class="st59" d="M135.5,163.64v-6.15c0.01-0.87,0.36-1.66,1.16-2.06l5.89-0.89c1.06-4.64-2.27-8.83-6.17-8.49
									l-8.87,2.58l-0.4,5.65l1.31,4.38l3.25,4.32l3.26,1.19L135.5,163.64z"/>
								<path class="st59" d="M212.54,163.64v-6.15c-0.01-0.87-0.36-1.66-1.16-2.06l-5.89-0.89c-1.06-4.64,2.27-8.83,6.17-8.49
									l8.87,2.58l0.98,2.92l-2.52,4.99c0,0-1.3,5.38-1.3,5.54c0,0.16-0.9,3.73-0.9,3.73h-3.39L212.54,163.64z"/>
								<path class="st57" d="M208.41,133.49c-0.41-1.37-1.38-2.13-2.89-2.13h-62.93c-1.52,0-2.48,0.76-2.89,2.13l-3.23,13.64
									l6.09,7.42h62.94l6.15-7.42L208.41,133.49z"/>
								<path class="st50" d="M224.6,148.53h-3.24c-0.63,0-1.05,0.03-1.37,0.86l-5.83,13.01c-0.51,0.89-1.2,1.39-2.52,1.41h-44.49
									h-30.7c-1.32-0.03-2-0.52-2.52-1.41l-5.83-13.01c-0.32-0.83-0.74-0.86-1.37-0.86h-3.24c-0.67,0-0.96,0.52-0.77,1.07
									l6.85,18.34c0.38,0.94,1.42,1.81,2.87,1.81h34.71h48.5c1.44,0,2.49-0.86,2.87-1.81l6.85-18.34
									C225.56,149.05,225.28,148.53,224.6,148.53z"/>
								<rect x="136.85" y="157.02" class="st52" width="74.17" height="0.23"/>
								
									<rect x="127.36" y="147.5" transform="matrix(0.9604 -0.2785 0.2785 0.9604 -35.9298 42.3308)" class="st52" width="7.3" height="0.23"/>
								
									<rect x="216.79" y="143.96" transform="matrix(0.2792 -0.9602 0.9602 0.2792 14.6031 314.684)" class="st52" width="0.23" height="7.3"/>
								<g>
									<path class="st56" d="M207.73,140.2c3.32-0.92,10.36,0.91,11.07,2.66c0.72,1.76-5.55,13.2-8.6,13.7
										c-3.05,0.51-11.58-1.65-11.58-3.33C198.86,149.31,204.4,141.12,207.73,140.2z"/>
									<path class="st52" d="M209.44,156.22c-0.46-1.39,1.52-5.88,3.65-9.2c0.87-1.35,3.07-4.52,4.74-4.7l0.03,0.23
										c-1.1,0.12-2.76,1.8-4.56,4.6c-2.32,3.62-4.02,7.82-3.63,9L209.44,156.22z"/>
								</g>
							</g>
							<g>
								<g>
									<rect x="60.85" y="145.53" class="st1" width="5.45" height="10.69"/>
									<rect x="68" y="143.03" class="st1" width="5.45" height="13.19"/>
									<rect x="64.5" y="148.19" class="st49" width="5.45" height="8.03"/>
									<rect x="63.46" y="144.87" class="st52" width="0.23" height="0.67"/>
									<rect x="70.6" y="142.36" class="st52" width="0.23" height="0.67"/>
									<rect x="67.1" y="147.53" class="st52" width="0.23" height="0.67"/>
									<rect x="58.66" y="156.22" class="st59" width="17.61" height="0.76"/>
								</g>
								<g>
									<path class="st57" d="M84.59,155.62v-1.56c0-0.75,0.61-1.36,1.36-1.36h-5.33c-0.75,0-1.36,0.61-1.36,1.36v1.56
										c0,0.75,0.61,1.36,1.36,1.36h5.33C85.21,156.98,84.59,156.37,84.59,155.62z"/>
									<path class="st59" d="M85.95,152.7c-0.75,0-1.36,0.61-1.36,1.36v1.56c0,0.75,0.61,1.36,1.36,1.36h10.12v-4.28H85.95z"/>
									<path class="st1" d="M86.06,153.1c-0.61,0-1.11,0.5-1.11,1.11v1.27c0,0.61,0.5,1.11,1.11,1.11h10.02v-3.48H86.06z"/>
									<rect x="87.27" y="153.51" class="st57" width="8.3" height="0.23"/>
									<rect x="88.7" y="154.92" class="st57" width="7.38" height="0.23"/>
									<rect x="86.5" y="154.92" class="st57" width="1.18" height="0.23"/>
									<rect x="87.06" y="155.79" class="st57" width="6.17" height="0.23"/>
								</g>
								<g>
									<g>
										<path class="st52" d="M89.63,178.01h-1.04l-3.85-19.83h2.01L89.63,178.01z M88.79,177.77h0.57l-2.81-19.36h-1.52
											L88.79,177.77z"/>
										<path class="st52" d="M63.59,178.01h-1.04l2.88-19.83h2.01L63.59,178.01z M62.82,177.77h0.57l3.76-19.36h-1.52
											L62.82,177.77z"/>
									</g>
									<path class="st1" d="M76.61,178.01h-1.02l-0.49-19.83h1.98l0,0.12L76.61,178.01z M75.82,177.77h0.56l0.46-19.36h-1.5
										L75.82,177.77z"/>
									<rect x="54.35" y="156.98" class="st50" width="43.47" height="1.94"/>
								</g>
							</g>
							<g>
								<g>
									<path class="st52" d="M42.64,178.01h-2.58l-2.21-9.86h3.59L42.64,178.01z M40.24,177.77h2.13l-1.15-9.39h-3.09
										L40.24,177.77z"/>
									<path class="st52" d="M11.41,178.01H8.82l1.21-9.86h3.59L11.41,178.01z M9.09,177.77h2.13l2.11-9.39h-3.09L9.09,177.77z"/>
								</g>
								<g>
									<path class="st1" d="M35.48,178.01h-2.58l-2.21-9.86h3.59L35.48,178.01z M33.08,177.77h2.13l-1.15-9.39h-3.09L33.08,177.77
										z"/>
									<path class="st1" d="M18.57,178.01h-2.58l1.21-9.86h3.59L18.57,178.01z M16.25,177.77h2.13l2.11-9.39H17.4L16.25,177.77z"
										/>
								</g>
								<polygon class="st57" points="16.69,152.97 34.71,152.97 37.56,152.74 42.65,154.15 44.32,157.14 45.58,163.32 
									43.96,166.47 20.19,167.25 5.36,164.63 5.88,158.82 9.27,153.94 13.32,151.95 								"/>
								<polygon class="st58" points="44.32,157.14 44.32,157.14 42.65,154.15 37.56,152.74 34.71,152.97 16.69,152.97 
									13.32,151.95 9.27,153.94 7.04,157.14 								"/>
								<path class="st59" d="M-1.21,148.6l7.48-2.84c0.77-0.25,1.2-0.74,1.42-1.56l2.71-10.86c0.32-1.27,1.1-1.94,2.36-1.98h4.11
									l-2.1,11.67l-7.27,6.45H4.63H1.25L-1.21,148.6z"/>
								<path class="st59" d="M52.69,148.6l-7.48-2.84c-0.77-0.25-1.2-0.74-1.42-1.56l-2.71-10.86c-0.32-1.27-1.1-1.94-2.36-1.98
									h-4.11l2.1,11.67l7.27,6.45h2.86h3.38L52.69,148.6z"/>
								<path class="st59" d="M9.63,163.64v-6.15c0.01-0.87,0.36-1.66,1.16-2.06l5.89-0.89c1.06-4.64-2.27-8.83-6.17-8.49
									l-7.33,2.58l-1.94,5.65l1.31,4.38l3.25,4.32l3.26,1.19L9.63,163.64z"/>
								<path class="st59" d="M41.76,163.64v-6.15c-0.01-0.87-0.36-1.66-1.16-2.06l-5.89-0.89c-1.06-4.64,2.27-8.83,6.17-8.49
									l7.33,2.58l0.98,2.92l-0.98,4.99c0,0-1.3,5.38-1.3,5.54c0,0.16-0.9,3.73-0.9,3.73h-3.39L41.76,163.64z"/>
								<path class="st57" d="M37.63,133.49c-0.41-1.37-1.38-2.13-2.89-2.13H16.72c-1.52,0-2.48,0.76-2.89,2.13l-3.23,13.64
									l6.09,7.42h18.02l6.15-7.42L37.63,133.49z"/>
								<path class="st50" d="M52.28,148.53h-3.24c-0.63,0-1.05,0.03-1.37,0.86l-4.29,13.01c-0.51,0.89-1.2,1.39-2.52,1.41h0.43
									H10.6c-1.32-0.03-2-0.52-2.52-1.41l-4.29-13.01c-0.32-0.83-0.74-0.86-1.37-0.86h-3.24c-0.67,0-0.96,0.52-0.77,1.07
									l5.31,18.34c0.38,0.94,1.42,1.81,2.87,1.81h34.71h3.58c1.44,0,2.49-0.86,2.87-1.81l5.31-18.34
									C53.24,149.05,52.96,148.53,52.28,148.53z"/>
								<rect x="10.99" y="157.02" class="st52" width="29.25" height="0.23"/>
								
									<rect x="3" y="147.5" transform="matrix(0.9372 -0.3488 0.3488 0.9372 -51.1206 11.3377)" class="st52" width="5.84" height="0.23"/>
								
									<rect x="45.24" y="144.7" transform="matrix(0.3491 -0.9371 0.9371 0.3491 -108.8069 138.585)" class="st52" width="0.23" height="5.84"/>
							</g>
							<g>
								<rect x="228.38" y="85.19" class="st52" width="0.23" height="90.21"/>
								<rect x="222.32" y="175.4" class="st50" width="12.58" height="2.49"/>
								<rect x="221.65" y="60.25" class="st56" width="13.69" height="49.88"/>
								<rect x="224.9" y="110.13" class="st1" width="0.23" height="12.63"/>
								<path class="st50" d="M225.01,126.02L225.01,126.02c-0.12,0-0.22-0.1-0.22-0.22v-3.28c0-0.12,0.1-0.22,0.22-0.22l0,0
									c0.12,0,0.22,0.1,0.22,0.22v3.28C225.23,125.93,225.13,126.02,225.01,126.02z"/>
								<rect x="221.65" y="106.35" class="st52" width="13.69" height="0.23"/>
								<rect x="221.65" y="63.9" class="st52" width="13.69" height="0.23"/>
							</g>
						</g>
						<g>
							<g>
								<rect x="33.22" y="102.99" class="st57" width="16.36" height="3.04"/>
								<rect x="32.66" y="106.03" class="st50" width="18.06" height="1.51"/>
								<g>
									<g>
										<rect x="35.05" y="102.99" class="st1" width="0.23" height="3.04"/>
										<rect x="36.01" y="102.99" class="st1" width="0.23" height="3.04"/>
									</g>
									<g>
										<rect x="46.55" y="102.99" class="st1" width="0.23" height="3.04"/>
										<rect x="47.51" y="102.99" class="st1" width="0.23" height="3.04"/>
									</g>
								</g>
							</g>
							<g>
								<path class="st56" d="M14.77,105.68c0.83,0.88,1.92,1.51,3.16,1.77h2.45c1.23-0.25,2.32-0.89,3.16-1.77H14.77z"/>
								<path class="st1" d="M17.92,107.56c-2.86-0.59-4.93-3.12-4.93-6.03c0-2.11,1.06-4.05,2.85-5.19l0.03-0.02h6.55l0.03,0.02
									c1.78,1.14,2.85,3.08,2.85,5.19c0,2.9-2.06,5.44-4.9,6.02L17.92,107.56z M15.94,96.57c-1.7,1.1-2.71,2.95-2.71,4.97
									c0,2.79,1.98,5.23,4.71,5.79l2.43,0c2.71-0.56,4.69-3,4.69-5.79c0-2.02-1.01-3.87-2.71-4.97H15.94z"/>
								<path class="st1" d="M14,101.59h-0.23c0-1.21,0.39-2.36,1.14-3.31l0.18,0.14C14.37,99.33,14,100.43,14,101.59z"/>
								<path class="st1" d="M15.62,97.83l-0.16-0.17c0.24-0.23,0.51-0.44,0.79-0.62l0.13,0.2C16.11,97.41,15.86,97.61,15.62,97.83z
									"/>
								<path class="st53" d="M17.69,105.68c-1.64-0.58-2.61-1.65-3.62-3.17c1.45,0.25,2.76,0.75,3.75,1.81
									c-0.94-1.27-1.45-3.05-1.78-5.05c1.39,1.37,2.49,2.85,2.96,4.56c-0.08-2.06,0.49-4.14,1.36-6.23
									c0.38,2.31,0.46,4.46-0.06,6.34c0.53-1.31,1.57-2.38,2.94-3.29c-0.53,1.5-1.13,2.75-1.86,3.51
									c0.62-0.73,1.53-1.19,2.55-1.55c-0.91,1.47-2.13,2.55-3.41,3.07H17.69z"/>
								<path class="st55" d="M18.27,105.7c-0.12-0.72-0.53-1.31-0.54-1.31l0.19-0.14c0.02,0.03,0.45,0.63,0.58,1.41L18.27,105.7z"
									/>
								<path class="st55" d="M19.23,105.72c-0.18-0.56-0.33-1.82-0.34-1.87l0.23-0.03c0,0.01,0.16,1.29,0.33,1.83L19.23,105.72z"/>
								<path class="st55" d="M19.8,105.74l-0.21-0.11c0.33-0.6,0.52-1.16,0.6-1.7l0.23,0.03C20.35,104.52,20.14,105.11,19.8,105.74
									z"/>
								<path class="st55" d="M20.22,105.74l-0.2-0.12c0.38-0.63,1.24-1.51,1.28-1.54l0.17,0.16
									C21.46,104.25,20.59,105.13,20.22,105.74z"/>
							</g>
							<g>
								<path class="st1" d="M11.83,113.96H9.99v-5.89h1.84V113.96z M10.23,113.73h1.37v-5.42h-1.37V113.73z"/>
								<path class="st1" d="M59.02,113.96h-1.84v-5.89h1.84V113.96z M57.42,113.73h1.37v-5.42h-1.37V113.73z"/>
							</g>
							<rect x="7.47" y="107.54" class="st1" width="54.08" height="1.3"/>
						</g>
						<g>
							<g>
								<path class="st1" d="M11.83,95.15H9.99v-5.89h1.84V95.15z M10.23,94.91h1.37v-5.42h-1.37V94.91z"/>
								<path class="st1" d="M59.02,95.15h-1.84v-5.89h1.84V95.15z M57.42,94.91h1.37v-5.42h-1.37V94.91z"/>
							</g>
							<rect x="7.47" y="88.72" class="st1" width="54.08" height="1.3"/>
							<g>
								<rect x="13.63" y="84.34" class="st56" width="16.36" height="3.02"/>
								<g>
									<g>
										<rect x="15.33" y="84.34" class="st1" width="0.23" height="3.02"/>
										<rect x="15.98" y="84.34" class="st1" width="0.23" height="3.02"/>
									</g>
									<g>
										<rect x="27.39" y="84.34" class="st1" width="0.23" height="3.02"/>
										<rect x="28.05" y="84.34" class="st1" width="0.23" height="3.02"/>
									</g>
								</g>
							</g>
							<g>
								<rect x="38.49" y="86.53" class="st56" width="17.35" height="2.19"/>
							</g>
							<rect x="12.31" y="87.35" class="st50" width="19.61" height="1.37"/>
							<rect x="12.65" y="81.72" class="st1" width="19.69" height="2.62"/>
						</g>
					</g>
				</g>
				<g>
					<path class="st56" d="M13.5,140.08c-3.3-1.02-10.38,0.6-11.15,2.34c-0.77,1.74,5.16,13.36,8.19,13.95
						c3.03,0.6,11.62-1.31,11.67-2.99C22.09,149.45,16.79,141.1,13.5,140.08z"/>
					<path class="st52" d="M11.31,156.05l-0.22-0.08c0.42-1.16-1.15-5.42-3.36-9.1c-1.72-2.85-3.33-4.58-4.42-4.73l0.03-0.23
						c1.66,0.23,3.76,3.46,4.59,4.84C9.96,150.13,11.81,154.68,11.31,156.05z"/>
				</g>
				<rect x="-9.87" y="177.77" class="st52" width="253.41" height="0.23"/>
			</g>
			<g style="clip-path:url(#SVGID_00000158007522006891070900000000792425994182636449_);">
				<g>
					<g class="st60">
						<g>
							<line class="st61" x1="-13.41" y1="45.87" x2="265.77" y2="-41.37"/>
							<line class="st61" x1="-14.53" y1="49.48" x2="264.66" y2="-37.76"/>
						</g>
						<g>
							<line class="st61" x1="-4.49" y1="116.89" x2="261.36" y2="33.82"/>
							<line class="st61" x1="-3.06" y1="119.67" x2="260.25" y2="37.43"/>
						</g>
					</g>
					<polygon class="st62" points="-11.51,51.47 -0.78,112.68 268.72,27.93 250.92,-29.88 					"/>
				</g>
				<text transform="matrix(0.9489 -0.3156 0.3156 0.9489 25.6728 90.3885)" class="st71 st72 st73">ON HOLD</text>
				<g>
					<path class="st1" d="M16.23,64.13c0-6.32,3.24-10.95,9.16-12.83c5.92-1.88,9.15,0.71,9.15,7.02l-0.01,20.53
						c0,6.32-3.24,10.95-9.16,12.83c-5.92,1.88-9.15-0.71-9.15-7.02L16.23,64.13z M22.25,83.14c0,2.82,1.2,3.51,3.12,2.9
						c1.92-0.61,3.12-2.06,3.13-4.88l0.01-21.32c0-2.82-1.2-3.51-3.12-2.9c-1.92,0.61-3.12,2.06-3.13,4.88L22.25,83.14z"/>
					<path class="st1" d="M43.79,56.79l-0.01,28.6l-5.42,1.72l0.02-39.49l7.56-2.4l6.18,21.67l0.01-23.64l5.37-1.7l-0.02,39.49
						l-6.19,1.96L43.79,56.79z"/>
					<path class="st1" d="M76.32,75.06l-6.03,1.91l0.02-39.49l6.03-1.91L76.33,52.5l6.85-2.17l0.01-16.92l6.14-1.95l-0.02,39.49
						l-6.14,1.95l0.01-16.92l-6.85,2.17L76.32,75.06z"/>
					<path class="st1" d="M93.21,39.7c0-6.32,3.24-10.95,9.16-12.83c5.92-1.88,9.15,0.71,9.15,7.02l-0.01,20.53
						c0,6.32-3.24,10.95-9.16,12.83c-5.92,1.88-9.15-0.71-9.15-7.02L93.21,39.7z M99.23,58.71c0,2.82,1.2,3.51,3.12,2.9
						c1.92-0.61,3.12-2.06,3.13-4.88l0.01-21.32c0-2.82-1.2-3.51-3.12-2.9c-1.92,0.61-3.12,2.06-3.13,4.88L99.23,58.71z"/>
					<path class="st1" d="M115.41,23.18l6.03-1.91l-0.02,33.85l9.92-3.15l0,5.64l-15.94,5.06L115.41,23.18z"/>
					<path class="st1" d="M133.98,17.28l9.53-3.03c6.03-1.91,8.98,0.59,8.98,6.91l-0.01,19.97c0,6.32-2.96,10.7-8.99,12.61
						l-9.53,3.03L133.98,17.28z M140,21.01l-0.01,28.2l3.4-1.08c1.92-0.61,3.07-1.99,3.07-4.81l0.01-20.53
						c0-2.82-1.15-3.47-3.07-2.86L140,21.01z"/>
				</g>
			</g>
		</g>
	</g>
</g>
<g id="Layer_2" class="st67">
</g>
</svg>
