
<?xml version="1.0" encoding="utf-8"?>
<!-- Generator: Adobe Illustrator 26.3.1, SVG Export Plug-In . SVG Version: 6.00 Build 0)  -->
<svg version="1.1" id="Layer_1" xmlns="http://www.w3.org/2000/svg" xmlns:xlink="http://www.w3.org/1999/xlink" x="0px" y="0px"
	 viewBox="0 0 119 22" style="enable-background:new 0 0 119 22;" xml:space="preserve">
<style type="text/css">
	.st0{fill:#4064AF;}
	.st1{fill:#664D9F;}
	.st2{fill:#100F0E;}
	.st3{font-size:15.5198px;}
</style>
<g>
	<g>
		<g>
			<path class="st0" d="M0.6,8.9v2.8c1.2-0.2,2.2,1.2,3.2,2.3V6L0.6,8.9z"/>
			<path class="st0" d="M0.6,4.5v3.3l3.2-2.8V1.6L0.6,4.5z"/>
			<path class="st0" d="M5,1.6v13.3c1,0.7,2,0.6,3.2-1.5V4.6L5,1.6z"/>
		</g>
		<path class="st1" d="M8.2,14.5v1.7c0,2.1-1.7,3.8-3.8,3.8c-2.1,0-3.8-1.7-3.8-3.8v-3.5C3.2,12.3,5.1,19.8,8.2,14.5z"/>
	</g>
	<text transform="matrix(1 0 0 1 12.5683 16.5749)"><tspan x="0" y="0" class="st2 st3">Build </tspan><tspan x="45.6" y="0" class="st2 st3">Formula</tspan></text>
</g>
</svg>
