<svg width="28" height="33" viewBox="0 0 28 33" fill="none" xmlns="http://www.w3.org/2000/svg">
<path d="M6.27078 13.4512H11.1508V16.1312H6.27078C6.01078 16.1312 5.80078 15.9212 5.80078 15.6612V13.9312C5.80078 13.6612 6.01078 13.4512 6.27078 13.4512Z" fill="#4872F4"/>
<path d="M6.27078 18.8008H11.1508V21.4808H6.27078C6.01078 21.4808 5.80078 21.2708 5.80078 21.0108V19.2808C5.80078 19.0208 6.01078 18.8008 6.27078 18.8008Z" fill="#4872F4"/>
<path d="M6.27078 24.1602H11.1508V26.8402H6.27078C6.01078 26.8402 5.80078 26.6302 5.80078 26.3702V24.6402C5.80078 24.3702 6.01078 24.1602 6.27078 24.1602Z" fill="#4872F4"/>
<path d="M19.0978 10.7696H16.9778C16.7178 10.7696 16.5078 10.5596 16.5078 10.2996V8.56961C16.5078 8.30961 16.7178 8.09961 16.9778 8.09961H18.4278L19.0978 10.7696Z" fill="#4872F4"/>
<path d="M20.4378 16.1309H16.9778C16.7178 16.1309 16.5078 15.9209 16.5078 15.6609V13.9309C16.5078 13.6709 16.7178 13.4609 16.9778 13.4609H19.7678L20.4378 16.1309Z" fill="#4872F4"/>
<path d="M21.7778 21.4805H16.9778C16.7178 21.4805 16.5078 21.2705 16.5078 21.0105V19.2805C16.5078 19.0205 16.7178 18.8105 16.9778 18.8105H21.1078L21.7778 21.4805Z" fill="#4872F4"/>
<path d="M23.1178 26.8302H16.9778C16.7178 26.8302 16.5078 26.6202 16.5078 26.3602V24.6302C16.5078 24.3702 16.7178 24.1602 16.9778 24.1602H22.4478L23.1178 26.8302Z" fill="#4872F4"/>
<path d="M18.2292 0.0605469H12.3792C11.6992 0.0605469 11.1592 0.610547 11.1592 1.28055V4.65055C11.1592 5.11055 10.8992 5.54055 10.4792 5.74055L1.12922 10.4205C0.719219 10.6305 0.449219 11.0505 0.449219 11.5105V32.1705H27.2192L19.4192 0.970547C19.2792 0.450547 18.7892 0.0605469 18.2292 0.0605469ZM9.92922 29.5105H4.34922C3.66922 29.5105 3.12922 28.9605 3.12922 28.2905V13.1905C3.12922 12.7305 3.38922 12.3005 3.80922 12.1005L9.38922 9.31055C10.1992 8.90055 11.1592 9.49055 11.1592 10.4005V28.3005C11.1492 28.9605 10.5992 29.5105 9.92922 29.5105ZM15.0492 2.74055H16.1292C16.6892 2.74055 17.1792 3.12055 17.3192 3.67055L23.3992 27.9905C23.5892 28.7605 23.0092 29.5105 22.2092 29.5105H15.0492C14.3692 29.5105 13.8292 28.9605 13.8292 28.2905V3.97055C13.8292 3.29055 14.3792 2.74055 15.0492 2.74055Z" fill="#041D36"/>
</svg>
