<svg width="109" height="108" viewBox="0 0 109 108" fill="none" xmlns="http://www.w3.org/2000/svg">
<rect x="0.5" width="108" height="108" rx="15.8824" fill="#FF5D5D"/>
<path d="M21.7183 67.8166C20.9814 67.8166 20.3842 67.6006 19.9268 67.1686C19.4948 66.7112 19.2788 66.1013 19.2788 65.3389V43.0401C19.2788 42.3032 19.4821 41.7314 19.8887 41.3248C20.3207 40.9182 20.9051 40.7149 21.6421 40.7149H31.019C33.8905 40.7149 36.1268 41.4392 37.7277 42.8877C39.3287 44.3107 40.1291 46.3182 40.1291 48.9102C40.1291 51.5022 39.3287 53.5225 37.7277 54.9709C36.1268 56.4194 33.8905 57.1437 31.019 57.1437H24.196V65.3389C24.196 66.1013 23.9672 66.7112 23.5098 67.1686C23.0778 67.6006 22.4807 67.8166 21.7183 67.8166ZM30.4091 53.37C33.7889 53.37 35.4788 51.8961 35.4788 48.9484C35.4788 46.0006 33.7889 44.5267 30.4091 44.5267H24.196V53.37H30.4091ZM46.8057 67.5879C46.0687 67.5879 45.4843 67.3846 45.0523 66.978C44.6457 66.5714 44.4424 65.9997 44.4424 65.2627V43.0401C44.4424 42.3032 44.6457 41.7314 45.0523 41.3248C45.4843 40.9182 46.0687 40.7149 46.8057 40.7149H54.353C58.7492 40.7149 62.1544 41.8966 64.5685 44.2599C67.008 46.5978 68.2278 49.8886 68.2278 54.1324C68.2278 58.4015 67.008 61.7178 64.5685 64.0811C62.1544 66.4189 58.7492 67.5879 54.353 67.5879H46.8057ZM54.048 63.5855C60.2231 63.5855 63.3106 60.4345 63.3106 54.1324C63.3106 47.8557 60.2231 44.7173 54.048 44.7173H49.3596V63.5855H54.048ZM75.619 67.8166C74.8821 67.8166 74.2849 67.5879 73.8275 67.1305C73.3955 66.6731 73.1795 66.0759 73.1795 65.3389V43.0401C73.1795 42.3032 73.3828 41.7314 73.7894 41.3248C74.2214 40.9182 74.8059 40.7149 75.5428 40.7149H88.9221C90.4722 40.7149 91.2473 41.3757 91.2473 42.6971C91.2473 43.9931 90.4722 44.6411 88.9221 44.6411H78.0205V51.9597H88.1597C89.7099 51.9597 90.4849 52.6204 90.4849 53.9418C90.4849 55.2378 89.7099 55.8858 88.1597 55.8858H78.0205V65.3389C78.0205 66.0759 77.8045 66.6731 77.3725 67.1305C76.9405 67.5879 76.356 67.8166 75.619 67.8166Z" fill="white"/>
</svg>
