<?xml version="1.0" encoding="utf-8"?>
<!-- Generator: Adobe Illustrator 24.2.1, SVG Export Plug-In . SVG Version: 6.00 Build 0)  -->
<svg version="1.1" id="Layer_1" xmlns="http://www.w3.org/2000/svg" xmlns:xlink="http://www.w3.org/1999/xlink" x="0px" y="0px"
	 viewBox="0 0 512 512" style="enable-background:new 0 0 512 512;" xml:space="preserve">
<style type="text/css">
	.st0{fill:#00CEB3;}
	.st1{fill:#00AE93;}
	.st2{fill:#CA5C49;}
	.st3{fill:#9E4127;}
	.st4{fill:#A2EE00;}
	.st5{fill:#76D400;}
	.st6{fill:#00BD00;}
	.st7{fill:#041D36;}
	.st8{fill:#4872F4;}
	.st9{fill:#9BA5AF;}
	.st10{fill:#FFFFFF;}
	.st11{fill:#50E6FF;}
	.st12{fill:#35C1F1;}
	.st13{fill:#2E92ED;}
	.st14{fill:#0078D4;}
	.st15{fill:#184F85;}
	.st16{fill:#0C63AD;}
	.st17{fill:#727D86;}
	.st18{fill:url(#SVGID_1_);}
	.st19{opacity:0.45;}
	.st20{filter:url(#Adobe_OpacityMaskFilter);}
	.st21{mask:url(#SVGID_2_);}
	.st22{fill:#F6F7FB;}
	.st23{opacity:0.59;}
	.st24{filter:url(#Adobe_OpacityMaskFilter_1_);}
	.st25{mask:url(#SVGID_3_);}
	.st26{filter:url(#Adobe_OpacityMaskFilter_2_);}
	.st27{mask:url(#SVGID_4_);}
	.st28{filter:url(#Adobe_OpacityMaskFilter_3_);}
	.st29{mask:url(#SVGID_5_);}
</style>
<g>
	<path class="st7" d="M263.65,432.25c-2.32,1.03-4.79,1.57-7.28,1.61c-0.12,0.01-0.25,0.01-0.37,0.01c-2.61,0-5.21-0.54-7.64-1.62
		L11.13,326.66C4.37,323.65,0,316.93,0,309.54c0-7.39,4.37-14.11,11.13-17.11l237.22-105.59c2.43-1.09,5.04-1.63,7.65-1.62h0.37
		c2.49,0.04,4.96,0.59,7.28,1.62l237.22,105.59c6.76,3.01,11.13,9.73,11.13,17.11c0,7.39-4.37,14.11-11.13,17.13"/>
	<path class="st8" d="M512,309.54c0,7.39-4.37,14.11-11.13,17.13L263.65,432.25c-2.32,1.03-4.79,1.57-7.28,1.61V185.21
		c2.49,0.04,4.96,0.59,7.28,1.62l237.22,105.59C507.63,295.43,512,302.15,512,309.54z"/>
	<path class="st9" d="M512,239.3c0,7.4-4.37,14.12-11.13,17.13L263.65,362.02c-2.32,1.03-4.79,1.57-7.28,1.61
		c-0.12,0.01-0.25,0.01-0.37,0.01c-2.61,0-5.21-0.54-7.64-1.62L11.13,256.42C4.37,253.41,0,246.7,0,239.3
		c0-7.39,4.37-14.1,11.13-17.11l237.22-105.59c2.43-1.09,5.04-1.63,7.65-1.62h0.37c2.49,0.04,4.96,0.59,7.28,1.62l237.22,105.59
		C507.63,225.2,512,231.91,512,239.3z"/>
	<path class="st9" d="M512,239.3c0,7.4-4.37,14.12-11.13,17.13L263.65,362.02c-2.32,1.03-4.79,1.57-7.28,1.61V114.97
		c2.49,0.04,4.96,0.59,7.28,1.62l237.22,105.59C507.63,225.2,512,231.91,512,239.3z"/>
	<path class="st10" d="M512,168.21c0,7.39-4.37,14.11-11.13,17.12L263.65,290.92c-2.32,1.03-4.79,1.57-7.28,1.61
		c-0.12,0.01-0.25,0.01-0.37,0.01c-2.61,0-5.21-0.54-7.64-1.62L11.13,185.33C4.37,182.32,0,175.6,0,168.21
		c0-7.39,4.37-14.11,11.13-17.12L248.35,45.5c2.43-1.09,5.04-1.63,7.65-1.62h0.37c2.49,0.04,4.96,0.59,7.28,1.62l237.22,105.59
		C507.63,154.1,512,160.82,512,168.21z"/>
	<g>
		<path class="st10" d="M512,168.21c0,7.39-4.37,14.11-11.13,17.12L263.65,290.92c-2.32,1.03-4.79,1.57-7.28,1.61V43.88
			c2.49,0.04,4.96,0.59,7.28,1.62l237.22,105.59C507.63,154.1,512,160.82,512,168.21z"/>
		<path class="st8" d="M175.57,162.65L68.56,210.89l-57.43-25.56C4.37,182.32,0,175.6,0,168.21c0-7.39,4.37-14.11,11.13-17.12
			l70.33-31.31L175.57,162.65z"/>
		<path class="st7" d="M360.7,247.73l-97.05,43.2c-2.32,1.03-4.79,1.57-7.28,1.61c-0.12,0.01-0.25,0.01-0.37,0.01
			c-0.1,0-0.21,0-0.31-0.01c-2.51-0.03-5-0.57-7.33-1.61l-96.56-42.97L256,200.09l0.37,0.17L360.7,247.73z"/>
	</g>
	<path class="st8" d="M512,168.21c0,7.39-4.37,14.11-11.13,17.12l-56.95,25.35l-106.75-47.97l93.84-42.71l69.86,31.1
		C507.63,154.1,512,160.82,512,168.21z"/>
	<path class="st7" d="M351.89,84.77l-95.52,41.86l-95.78-42.07l87.76-39.05c2.54-1.14,5.29-1.68,8.02-1.62
		c2.49,0.04,4.96,0.59,7.28,1.62L351.89,84.77z"/>
	<path class="st7" d="M337.17,162.71l-80.8,37.22l-0.37,0.17l-80.43-37.45l80.8-36.02L337.17,162.71z"/>
	<path class="st7" d="M337.17,162.71l-80.8,37.22v-73.3L337.17,162.71z"/>
	<path class="st7" d="M351.89,84.77l-95.52,41.86V43.88c2.49,0.04,4.96,0.59,7.28,1.62L351.89,84.77z"/>
	<path class="st7" d="M360.7,247.73l-97.05,43.2c-2.32,1.03-4.79,1.57-7.28,1.61v-92.27L360.7,247.73z"/>
</g>
</svg>
