<svg width="25" height="23" viewBox="0 0 25 23" fill="none" xmlns="http://www.w3.org/2000/svg">
<path d="M11.4997 19.5302V15.5302C11.4997 12.6002 9.11969 10.2202 6.17969 10.2202V7.56016C8.10969 7.56016 9.86969 8.24016 11.2497 9.38016C10.8097 7.35016 9.79969 5.54016 8.37969 4.12016L10.2597 2.24016C11.1397 3.12016 11.8997 4.13016 12.5097 5.23016C13.1797 3.60016 14.1697 2.13016 15.3997 0.910156L17.2797 2.79016C15.3497 4.71016 14.1597 7.38016 14.1597 10.3102V11.5802C15.2697 10.7402 16.6397 10.2202 18.1497 10.2202H19.4797V12.8802H18.1497C15.9497 12.8802 14.1597 14.6702 14.1597 16.8702V19.5302H11.4997Z" fill="#4872F4"/>
<path d="M22.1394 16.8105V19.5305H3.52937V16.8105H0.859375V22.1905H24.7894V16.8105H22.1394Z" fill="#041D36"/>
</svg>
