<?xml version="1.0" encoding="utf-8"?>
<!-- Generator: Adobe Illustrator 25.2.3, SVG Export Plug-In . SVG Version: 6.00 Build 0)  -->
<svg version="1.1" id="Layer_1" xmlns="http://www.w3.org/2000/svg" xmlns:xlink="http://www.w3.org/1999/xlink" x="0px" y="0px"
	 viewBox="0 0 80 80" style="enable-background:new 0 0 80 80;" xml:space="preserve">
<style type="text/css">
	.st0{fill:#00CEB3;}
	.st1{fill:#00AE93;}
	.st2{fill:#CA5C49;}
	.st3{fill:#9E4127;}
	.st4{fill:#A2EE00;}
	.st5{fill:#76D400;}
	.st6{fill:#00BD00;}
	.st7{fill:#041D36;}
	.st8{fill:#4872F4;}
	.st9{fill:#9BA5AF;}
	.st10{fill:#FFFFFF;}
	.st11{fill:#50E6FF;}
	.st12{fill:#35C1F1;}
	.st13{fill:#2E92ED;}
	.st14{fill:#0078D4;}
	.st15{fill:#184F85;}
	.st16{fill:#0C63AD;}
	.st17{fill:#727D86;}
	.st18{fill:url(#SVGID_1_);}
	.st19{fill:#F6F7FB;}
	.st20{opacity:0.41;}
	.st21{filter:url(#Adobe_OpacityMaskFilter);}
	.st22{mask:url(#SVGID_2_);}
	.st23{opacity:0.45;}
	.st24{filter:url(#Adobe_OpacityMaskFilter_1_);}
	.st25{mask:url(#SVGID_3_);}
	.st26{opacity:0.59;}
	.st27{filter:url(#Adobe_OpacityMaskFilter_2_);}
	.st28{mask:url(#SVGID_4_);}
	.st29{filter:url(#Adobe_OpacityMaskFilter_3_);}
	.st30{mask:url(#SVGID_5_);}
	.st31{filter:url(#Adobe_OpacityMaskFilter_4_);}
	.st32{mask:url(#SVGID_6_);}
</style>
<g>
	<polygon class="st8" points="8.22,36.42 39.29,4.66 72.53,36.42 68.75,52.96 34.11,55.11 	"/>
	<rect x="8.22" y="36.42" class="st8" width="64.32" height="43.58"/>
	<path class="st7" d="M1.07,38.25l38-37.32l40.92,39.93c0.01,0.01,0.01,0.02,0,0.03l-5.37,5.16c-0.01,0.01-0.02,0.01-0.03,0
		L39.07,10.52L6.38,43.21L1.07,38.25z"/>
	<g>
		<line x1="72.53" y1="43.98" x2="64.98" y2="36.42"/>
		<polyline class="st10" points="61.13,36.42 72.53,47.82 72.53,43.98 64.98,36.42 39.07,10.52 13.17,36.42 8.22,41.37 8.22,45.22 
			17.01,36.42 39.07,14.36 61.13,36.42 		"/>
	</g>
	<rect x="18.57" y="46.05" class="st10" width="21.53" height="33.95"/>
</g>
</svg>
