<?xml version="1.0" encoding="utf-8"?>
<!-- Generator: Adobe Illustrator 25.2.3, SVG Export Plug-In . SVG Version: 6.00 Build 0)  -->
<svg version="1.1" id="Layer_1" xmlns="http://www.w3.org/2000/svg" xmlns:xlink="http://www.w3.org/1999/xlink" x="0px" y="0px"
	 viewBox="0 0 80 80" style="enable-background:new 0 0 80 80;" xml:space="preserve">
<style type="text/css">
	.st0{fill:#00CEB3;}
	.st1{fill:#00AE93;}
	.st2{fill:#CA5C49;}
	.st3{fill:#9E4127;}
	.st4{fill:#A2EE00;}
	.st5{fill:#76D400;}
	.st6{fill:#00BD00;}
	.st7{fill:#041D36;}
	.st8{fill:#4872F4;}
	.st9{fill:#9BA5AF;}
	.st10{fill:#FFFFFF;}
	.st11{fill:#50E6FF;}
	.st12{fill:#35C1F1;}
	.st13{fill:#2E92ED;}
	.st14{fill:#0078D4;}
	.st15{fill:#184F85;}
	.st16{fill:#0C63AD;}
	.st17{fill:#727D86;}
	.st18{fill:url(#SVGID_1_);}
	.st19{fill:#F6F7FB;}
	.st20{opacity:0.41;}
	.st21{filter:url(#Adobe_OpacityMaskFilter);}
	.st22{mask:url(#SVGID_2_);}
	.st23{opacity:0.45;}
	.st24{filter:url(#Adobe_OpacityMaskFilter_1_);}
	.st25{mask:url(#SVGID_3_);}
	.st26{opacity:0.59;}
	.st27{filter:url(#Adobe_OpacityMaskFilter_2_);}
	.st28{mask:url(#SVGID_4_);}
	.st29{filter:url(#Adobe_OpacityMaskFilter_3_);}
	.st30{mask:url(#SVGID_5_);}
	.st31{filter:url(#Adobe_OpacityMaskFilter_4_);}
	.st32{mask:url(#SVGID_6_);}
</style>
<g>
	<path class="st7" d="M41.2,70.22c-0.36,0.16-0.75,0.25-1.14,0.25c-0.02,0-0.04,0-0.06,0c-0.41,0-0.81-0.08-1.19-0.25L1.74,53.72
		C0.68,53.25,0,52.2,0,51.04c0-1.15,0.68-2.2,1.74-2.67l37.07-16.5c0.38-0.17,0.79-0.25,1.2-0.25h0.06
		c0.39,0.01,0.78,0.09,1.14,0.25l37.07,16.5c1.06,0.47,1.74,1.52,1.74,2.67c0,1.16-0.68,2.21-1.74,2.68"/>
	<path class="st8" d="M80,51.04c0,1.16-0.68,2.21-1.74,2.68L41.2,70.22c-0.36,0.16-0.75,0.25-1.14,0.25V31.62
		c0.39,0.01,0.78,0.09,1.14,0.25l37.07,16.5C79.32,48.84,80,49.89,80,51.04z"/>
	<path class="st9" d="M80,40.07c0,1.16-0.68,2.21-1.74,2.68L41.2,59.24c-0.36,0.16-0.75,0.25-1.14,0.25c-0.02,0-0.04,0-0.06,0
		c-0.41,0-0.81-0.08-1.19-0.25L1.74,42.74C0.68,42.27,0,41.22,0,40.07c0-1.15,0.68-2.2,1.74-2.67l37.07-16.5
		c0.38-0.17,0.79-0.25,1.2-0.25h0.06c0.39,0.01,0.78,0.09,1.14,0.25l37.07,16.5C79.32,37.86,80,38.91,80,40.07z"/>
	<path class="st9" d="M80,40.07c0,1.16-0.68,2.21-1.74,2.68L41.2,59.24c-0.36,0.16-0.75,0.25-1.14,0.25V20.64
		c0.39,0.01,0.78,0.09,1.14,0.25l37.07,16.5C79.32,37.86,80,38.91,80,40.07z"/>
	<path class="st10" d="M80,28.96c0,1.16-0.68,2.21-1.74,2.68L41.2,48.13c-0.36,0.16-0.75,0.25-1.14,0.25c-0.02,0-0.04,0-0.06,0
		c-0.41,0-0.81-0.08-1.19-0.25L1.74,31.63C0.68,31.16,0,30.11,0,28.96c0-1.15,0.68-2.2,1.74-2.67L38.8,9.79
		c0.38-0.17,0.79-0.25,1.2-0.25h0.06c0.39,0.01,0.78,0.09,1.14,0.25l37.07,16.5C79.32,26.75,80,27.8,80,28.96z"/>
	<g>
		<path class="st10" d="M80,28.96c0,1.16-0.68,2.21-1.74,2.68L41.2,48.13c-0.36,0.16-0.75,0.25-1.14,0.25V9.53
			c0.39,0.01,0.78,0.09,1.14,0.25l37.07,16.5C79.32,26.75,80,27.8,80,28.96z"/>
		<path class="st8" d="M27.43,28.09l-16.72,7.54l-8.97-3.99C0.68,31.16,0,30.11,0,28.96c0-1.15,0.68-2.2,1.74-2.67l10.99-4.89
			L27.43,28.09z"/>
		<path class="st7" d="M56.36,41.38L41.2,48.13c-0.36,0.16-0.75,0.25-1.14,0.25c-0.02,0-0.04,0-0.06,0c-0.02,0-0.03,0-0.05,0
			c-0.39,0-0.78-0.09-1.15-0.25l-15.09-6.71L40,33.94l0.06,0.03L56.36,41.38z"/>
	</g>
	<path class="st8" d="M80,28.96c0,1.16-0.68,2.21-1.74,2.68l-8.9,3.96l-16.68-7.5l14.66-6.67l10.92,4.86
		C79.32,26.75,80,27.8,80,28.96z"/>
	<path class="st7" d="M54.98,15.92l-14.92,6.54l-14.97-6.57l13.71-6.1c0.4-0.18,0.83-0.26,1.25-0.25c0.39,0.01,0.78,0.09,1.14,0.25
		L54.98,15.92z"/>
	<path class="st7" d="M52.68,28.1l-12.63,5.82L40,33.94l-12.57-5.85l12.62-5.63L52.68,28.1z"/>
	<path class="st7" d="M52.68,28.1l-12.63,5.82V22.46L52.68,28.1z"/>
	<path class="st7" d="M54.98,15.92l-14.92,6.54V9.53c0.39,0.01,0.78,0.09,1.14,0.25L54.98,15.92z"/>
	<path class="st7" d="M56.36,41.38L41.2,48.13c-0.36,0.16-0.75,0.25-1.14,0.25V33.97L56.36,41.38z"/>
</g>
</svg>
