<svg width="18" height="18" viewBox="0 0 18 18" fill="none" xmlns="http://www.w3.org/2000/svg">
<path d="M9 18C13.9706 18 18 13.9706 18 9C18 4.02944 13.9706 0 9 0C4.02944 0 0 4.02944 0 9C0 13.9706 4.02944 18 9 18Z" fill="#A848F4"/>
<path d="M13.0594 13.5902H11.1334L9.77441 11.5832C9.25241 10.8092 8.85641 10.3502 8.59541 10.2152C8.33441 10.0802 7.92941 10.0082 7.38041 10.0082H6.48041V13.5812H4.94141V4.41016H9.18941C10.1344 4.41016 10.8994 4.61716 11.4754 5.02216C12.1414 5.49016 12.4654 6.18316 12.4654 7.08316C12.4654 7.85716 12.2134 8.49616 11.7184 8.98216C11.2594 9.44116 10.6294 9.72016 9.84641 9.82816C10.3504 9.92716 10.8634 10.3502 11.3764 11.1062L13.0594 13.5902ZM10.8904 7.14616C10.8904 6.18316 10.1614 5.70616 8.69441 5.70616H6.48941V8.73016H8.20841C9.00941 8.73016 9.60341 8.64916 9.99041 8.49616C10.5934 8.26216 10.8904 7.81216 10.8904 7.14616Z" fill="white"/>
</svg>
