<?xml version="1.0" encoding="utf-8"?>
<!-- Generator: Adobe Illustrator 25.4.1, SVG Export Plug-In . SVG Version: 6.00 Build 0)  -->
<svg version="1.1" id="Layer_1" xmlns="http://www.w3.org/2000/svg" xmlns:xlink="http://www.w3.org/1999/xlink" x="0px" y="0px"
	 viewBox="0 0 221 135.7" style="enable-background:new 0 0 221 135.7;" xml:space="preserve">
<style type="text/css">
	.st0{fill:#ECECEC;}
	.st1{fill:#E1E1E1;}
	.st2{fill:#E7E7E7;}
	.st3{fill:#F0F0F0;}
	.st4{fill:#FAFAFA;}
	.st5{fill:#FFFFFF;}
	.st6{opacity:0.5;fill:#E1E1E1;enable-background:new    ;}
	.st7{fill:#F5F5F5;}
	.st8{fill:#0072FF;}
	.st9{opacity:0.8;fill:#FFFFFF;enable-background:new    ;}
	.st10{opacity:0.3;fill:#007CFF;enable-background:new    ;}
	.st11{fill:#CE5B51;}
	.st12{fill:#CD5B51;}
	.st13{fill:#007CFF;}
	.st14{fill:#1A2E35;}
	.st15{fill:#BA221F;}
	.st16{fill:#006AD3;}
	.st17{opacity:0.2;enable-background:new    ;}
	.st18{opacity:0.3;enable-background:new    ;}
	.st19{fill:#4872F4;}
</style>
<g>
	<g>
		<g>
			<rect x="41.1" y="91.4" class="st0" width="137.2" height="0.1"/>
			<rect x="150" y="95.8" class="st0" width="14.6" height="0.1"/>
			<rect x="115.9" y="95" class="st0" width="16.1" height="0.1"/>
			<rect x="145.4" y="94.6" class="st0" width="5.3" height="0.1"/>
			<rect x="68.6" y="93.8" class="st0" width="11.9" height="0.1"/>
			<rect x="62.9" y="93.8" class="st0" width="4.3" height="0.1"/>
			<rect x="77.2" y="94.9" class="st0" width="14.9" height="0.1"/>
			<path class="st0" d="M106.1,79.2h-53c-0.9,0-1.6-0.7-1.6-1.6V3.1c0-0.9,0.7-1.6,1.6-1.6h53c0.9,0,1.6,0.7,1.6,1.6v74.5
				C107.7,78.5,107,79.2,106.1,79.2z M53.2,1.6c-0.8,0-1.5,0.7-1.5,1.5v74.5c0,0.8,0.7,1.5,1.5,1.5h53c0.8,0,1.5-0.7,1.5-1.5V3.1
				c0-0.8-0.7-1.5-1.5-1.5H53.2L53.2,1.6z"/>
			<path class="st0" d="M165.5,79.2h-53c-0.9,0-1.6-0.7-1.6-1.6V3.1c0-0.9,0.7-1.6,1.6-1.6h53c0.9,0,1.6,0.7,1.6,1.6v74.5
				C167.1,78.5,166.3,79.2,165.5,79.2z M112.5,1.6c-0.8,0-1.5,0.7-1.5,1.5v74.5c0,0.8,0.7,1.5,1.5,1.5h53c0.8,0,1.5-0.7,1.5-1.5V3.1
				c0-0.8-0.7-1.5-1.5-1.5H112.5L112.5,1.6z"/>
		</g>
		<g>
			<g>
				<path class="st0" d="M73.9,74.9H56.1c-0.5,0-0.9-0.4-0.9-0.9v-1.7c0-0.5,0.4-0.9,0.9-0.9h17.8c0.5,0,0.9,0.4,0.9,0.9v1.7
					C74.7,74.6,74.3,74.9,73.9,74.9z"/>
				<polygon class="st1" points="60.7,74.9 57.9,74.9 54.8,91.4 57.5,91.4 				"/>
				<polygon class="st1" points="66.1,74.9 63.4,74.9 61.9,91.4 64.6,91.4 				"/>
				<polygon class="st1" points="69.3,74.9 72.1,74.9 75.2,91.4 72.4,91.4 				"/>
			</g>
			<g>
				<rect x="95.2" y="5.9" class="st2" width="64.1" height="55.9"/>
				<rect x="96.1" y="5.9" class="st3" width="65.2" height="55.9"/>
				<rect x="95.2" y="61.8" class="st2" width="64.1" height="1.1"/>
				<rect x="97.1" y="61.8" class="st3" width="65.2" height="1.1"/>
				<rect x="98.8" y="7.6" class="st4" width="59.7" height="52.4"/>
				<polygon class="st5" points="117.9,60 129.1,7.6 136.6,7.6 125.4,60 				"/>
				<polygon class="st5" points="109.2,60 120.4,7.6 127.9,7.6 116.6,60 				"/>
				<path class="st3" d="M100.2,7.8v49c0,0.1,0.1,0.2,0.2,0.2h0.3c0.1,0,0.2-0.1,0.2-0.2v-49c0-0.1-0.1-0.2-0.2-0.2h-0.3
					C100.3,7.6,100.2,7.7,100.2,7.8z"/>
				<polygon class="st5" points="137.1,60 148.3,7.6 151.2,7.6 140,60 				"/>
				<rect x="158.2" y="7.6" class="st2" width="0.3" height="52.4"/>
				<polygon class="st6" points="161.9,9.8 97.7,9.8 97.5,8.3 161.6,8.3 				"/>
				<polygon class="st6" points="161.9,14.9 97.7,14.9 97.5,13.5 161.6,13.5 				"/>
				<polygon class="st6" points="161.9,20.1 97.7,20.1 97.5,18.6 161.6,18.6 				"/>
				<polygon class="st6" points="161.9,25.2 97.7,25.2 97.5,23.7 161.6,23.7 				"/>
				<polygon class="st6" points="161.9,30.4 97.7,30.4 97.5,28.9 161.6,28.9 				"/>
				<polygon class="st6" points="161.9,35.5 97.7,35.5 97.5,34 161.6,34 				"/>
				<polygon class="st6" points="161.9,12.4 97.7,12.4 97.5,10.9 161.6,10.9 				"/>
				<polygon class="st6" points="161.9,17.5 97.7,17.5 97.5,16 161.6,16 				"/>
				<polygon class="st6" points="161.9,22.6 97.7,22.6 97.5,21.2 161.6,21.2 				"/>
				<polygon class="st6" points="161.9,27.8 97.7,27.8 97.5,26.3 161.6,26.3 				"/>
				<polygon class="st6" points="161.9,32.9 97.7,32.9 97.5,31.5 161.6,31.5 				"/>
				<polygon class="st6" points="161.9,38.1 97.7,38.1 97.5,36.6 161.6,36.6 				"/>
			</g>
			<g>
				<g>
					<g>
						<rect x="150.8" y="66" class="st2" width="8.5" height="25.4"/>
						<polygon class="st0" points="154.1,91.4 159.3,91.4 159.3,88.5 148.7,88.5 						"/>
						<rect x="125.4" y="66" class="st2" width="8.5" height="25.4"/>
						<rect x="129.4" y="66" class="st0" width="30" height="24.8"/>
						<polygon class="st0" points="134.5,91.4 129.4,91.4 129.4,88.5 139.9,88.5 						"/>
						<rect x="133.4" y="68.9" class="st4" width="21.9" height="12.8"/>
						<rect x="133.4" y="82.9" class="st4" width="21.9" height="6.1"/>
						<path class="st0" d="M146.4,69.5h-4.1c-0.7,0-1.2-0.5-1.2-1.2l0,0h6.5l0,0C147.6,69,147,69.5,146.4,69.5z"/>
						<path class="st0" d="M146.4,83.6h-4.1c-0.7,0-1.2-0.5-1.2-1.2l0,0h6.5l0,0C147.6,83.1,147,83.6,146.4,83.6z"/>
					</g>
				</g>
				<g>
					<g>
						<rect x="118.6" y="66" class="st2" width="8.5" height="25.4"/>
						<polygon class="st0" points="121.9,91.4 127.1,91.4 127.1,88.5 116.5,88.5 						"/>
						<rect x="93.1" y="66" class="st2" width="8.5" height="25.4"/>
						<rect x="97.1" y="66" class="st0" width="30" height="24.8"/>
						<polygon class="st0" points="102.3,91.4 97.1,91.4 97.1,88.5 107.7,88.5 						"/>
						<rect x="101.1" y="68.9" class="st4" width="21.9" height="12.8"/>
						<rect x="101.1" y="82.9" class="st4" width="21.9" height="6.1"/>
						<path class="st0" d="M114.1,69.5H110c-0.7,0-1.2-0.5-1.2-1.2l0,0h6.5l0,0C115.3,69,114.8,69.5,114.1,69.5z"/>
						<path class="st0" d="M114.1,83.6H110c-0.7,0-1.2-0.5-1.2-1.2l0,0h6.5l0,0C115.3,83.1,114.8,83.6,114.1,83.6z"/>
					</g>
				</g>
				<rect x="97.2" y="64.9" class="st3" width="62.1" height="1.1"/>
				<rect x="93.1" y="64.9" class="st1" width="4" height="1.1"/>
			</g>
			<g>
				<path class="st2" d="M64.3,67.4c-0.4-10-0.8-19.9,0.1-24.9l1.4-1c0,0-0.3,0.9-0.4,16.2c-0.2,15.3-0.3,7.4-0.2,9.6L64.3,67.4
					L64.3,67.4z"/>
				<path class="st2" d="M66.5,32.1c2.1-5.5,7.1-10.9,12.4-13.1c2.1-0.9-0.9,18-8.6,19.2c-3.7,0.6-4.9,10.1-5.5,14.7
					C64.6,43.9,64.3,37.6,66.5,32.1z"/>
				<path class="st2" d="M66,46.1c1.5-2.4,3.9-5.7,7.5-5.7c4,0,0.5,6.7-4.3,8.8c-2.3,1-4.3,4.3-4.8,6.4C64.5,51.4,64.5,48.5,66,46.1
					z"/>
				<path class="st2" d="M62.4,38.9c-2.6-4.6-8.4-9.2-14.6-11.3c-2.4-0.8-2.7,12.8,10.4,16.1c4.2,1,5.9,8.5,6.8,12.3
					C64.9,48.6,65,43.5,62.4,38.9z"/>
				<path class="st2" d="M63.8,49.8c-1.6-3-6.1-4.4-10.2-4.1c-1.6,0.1-1.8,6.1,7.1,8.4c2.7,0.7,3.8,5.4,4.3,7.8
					C64.9,57.4,65.5,52.8,63.8,49.8z"/>
				<path class="st2" d="M64,34.4c-1.3-4.1-5.1-7.8-8.5-9.3c-1.4-0.6-1.8,6.2,5.7,12.9c2.2,2,3,7.9,3.3,10.9
					C64.6,43.5,65.3,38.5,64,34.4z"/>
				<g>
					<path class="st3" d="M64.7,71.5L64.7,71.5c-2.7,0-5-0.2-5.1-3.9l-0.4-4.8h11.2l-0.4,4.8C69.6,71.3,67.4,71.5,64.7,71.5z"/>
					<polygon class="st3" points="70.3,64.8 59,64.8 58.7,62.5 70.6,62.5 					"/>
				</g>
			</g>
		</g>
		
			<ellipse id="_x3C_Path_x3E__00000037664471295573106710000000078826394700469901_" class="st7" cx="109.7" cy="100.7" rx="53.2" ry="3.1"/>
		<g>
			<g>
				
					<rect x="60.9" y="13.3" transform="matrix(0.9988 -4.860178e-02 4.860178e-02 0.9988 -0.7082 2.9843)" class="st8" width="0.3" height="5.5"/>
				
					<rect x="61.2" y="20.7" transform="matrix(0.9988 -4.870131e-02 4.870131e-02 0.9988 -1.0009 3.0109)" class="st8" width="0.3" height="2.7"/>
				<path class="st8" d="M147.2,69.3H64.9c-0.3,0-0.5-0.2-0.5-0.5l-3-60.7c0-0.3,0.2-0.5,0.5-0.5h82.3c0.3,0,0.5,0.2,0.5,0.5l3,60.7
					C147.7,69,147.5,69.3,147.2,69.3z"/>
				<path class="st9" d="M65.4,67.8L62.5,9.1c0-0.3,0.2-0.5,0.5-0.5h80.4c0.3,0,0.5,0.2,0.5,0.5l2.8,58.7c0,0.3-0.2,0.5-0.5,0.5
					H65.8C65.6,68.3,65.4,68.1,65.4,67.8z"/>
				<path class="st5" d="M85.5,65c-0.1,0-0.2-0.1-0.3-0.2l-2.6-52.6c0-0.1,0.1-0.3,0.2-0.3s0.3,0.1,0.3,0.2l2.6,52.6
					C85.8,64.9,85.7,65,85.5,65C85.5,65,85.5,65,85.5,65z"/>
				<path class="st5" d="M126.2,65c-0.1,0-0.2-0.1-0.3-0.2l-2.6-52.6c0-0.1,0.1-0.3,0.2-0.3s0.3,0.1,0.3,0.2l2.6,52.6
					C126.4,64.9,126.4,65,126.2,65L126.2,65z"/>
				<path class="st5" d="M105.8,65c-0.1,0-0.2-0.1-0.3-0.2L103,12.3c0-0.1,0.1-0.3,0.2-0.3c0.1,0,0.3,0.1,0.3,0.2l2.6,52.6
					C106.1,64.9,106,65,105.8,65L105.8,65z"/>
				<path class="st5" d="M141.7,17.6H65.4c-0.1,0-0.3-0.1-0.3-0.3c0-0.1,0.1-0.3,0.3-0.3h76.3c0.1,0,0.3,0.1,0.3,0.3
					S141.8,17.6,141.7,17.6z"/>
				<path class="st5" d="M67.7,14.6c0.4-0.2,0.8-0.1,1.1,0.1c0.3,0.2,0.4,0.5,0.8,0.6c0.4,0.1,0.5-0.2,0.8-0.4
					c0.3-0.2,0.9-0.1,1.3-0.1c1,0.1,2.1,0.2,3.1,0.3c1,0.1,2.1,0.3,3.1,0.1c0.3-0.1,0.2-0.6-0.2-0.5c-1,0.2-2.2,0-3.2-0.1
					c-1-0.1-2.1-0.2-3.2-0.3c-0.4,0-0.8-0.1-1.1,0.1c-0.2,0.1-0.3,0.2-0.4,0.3c-0.1,0.1-0.1,0.1-0.2,0.1c-0.1,0-0.2-0.2-0.2-0.2
					c-0.5-0.5-1.3-0.8-2-0.5C67.2,14.1,67.3,14.7,67.7,14.6L67.7,14.6z"/>
				<path class="st5" d="M86.2,15.4c0.4-0.3,1-0.7,1.4-0.1c0.2,0.3,0.3,0.7,0.8,0.6c0.4-0.1,0.7-0.6,1-0.9c0.4-0.4,0.9-0.5,1.4-0.2
					c0.4,0.3,0.8,0.5,1.4,0.6c0.5,0.1,0.9,0,1.4-0.2c0.3-0.1,0.5-0.3,0.8-0.3c0.3,0,0.6,0.1,0.9,0.1c0.7,0.1,1.3-0.1,1.9-0.2
					c0.3-0.1,0.2-0.6-0.2-0.5c-0.7,0.1-1.4,0.2-2.1,0.1c-0.3-0.1-0.5-0.1-0.8-0.1c-0.3,0.1-0.5,0.1-0.7,0.2
					c-0.5,0.3-1.1,0.4-1.8,0.1c-0.5-0.2-0.8-0.6-1.4-0.7c-0.4-0.1-0.9,0.1-1.2,0.4c-0.2,0.2-0.4,0.3-0.5,0.5
					c-0.1,0.1-0.2,0.2-0.3,0.3c-0.1,0.1-0.2,0.1-0.2-0.1c-0.2-0.4-0.4-0.7-0.8-0.8c-0.5-0.1-1,0.2-1.4,0.5
					C85.7,15.1,85.9,15.6,86.2,15.4L86.2,15.4z"/>
				<path class="st5" d="M107.2,15.2c0.3-0.2,0.7-0.3,1-0.4c0.3-0.1,0.7-0.3,1-0.3c0.3,0,0.6,0.2,0.9,0.2c0.2,0.1,0.5,0.1,0.7-0.1
					c0.2-0.1,0.4-0.3,0.6-0.3c0.3-0.1,0.4,0.2,0.7,0.3c0.2,0.1,0.4,0.1,0.7,0.1c0.2,0,0.5-0.1,0.7,0c0.2,0.1,0.2,0.4,0.4,0.5
					c0.2,0.1,0.4,0.1,0.5,0c0.2-0.1,0.3-0.3,0.5-0.4c0.2-0.2,0.5-0.1,0.8,0c0.3,0.1,0.5,0.1,0.8,0.1c0.3-0.1,0.6-0.2,0.9-0.2
					c0.5,0.1,0.7,0.6,1.3,0.3c0.3-0.2,0.1-0.7-0.3-0.5c-0.1,0.1-0.5-0.3-0.7-0.3c-0.2-0.1-0.5-0.1-0.8-0.1c-0.3,0.1-0.6,0.2-0.9,0.1
					c-0.3-0.1-0.5-0.2-0.8-0.2c-0.2,0-0.4,0.1-0.7,0.2c-0.1,0.1-0.3,0.4-0.5,0.4c-0.1,0-0.2-0.2-0.2-0.3c-0.1-0.1-0.1-0.2-0.2-0.2
					c-0.2-0.1-0.4-0.1-0.7-0.1c-0.2,0-0.5,0.1-0.8,0.1c-0.2-0.1-0.4-0.3-0.6-0.4c-0.5-0.2-0.8,0.3-1.3,0.4c-0.3,0.1-0.6-0.1-0.9-0.2
					c-0.3-0.1-0.6-0.1-0.9,0c-0.7,0.2-1.3,0.4-1.9,0.7C106.6,14.9,106.9,15.4,107.2,15.2L107.2,15.2z"/>
				<path class="st5" d="M125.9,15c0.5-0.2,1-0.3,1.5-0.4c0.2-0.1,0.5-0.2,0.7-0.2c0.3-0.1,0.4,0.1,0.7,0.1c0.4,0.2,0.8,0.2,1.3,0.2
					c0.5,0,1,0,1.5,0c2-0.1,4.1-0.1,6.1-0.1c0.4,0,0.4-0.5,0-0.5c-2.1,0.1-4.2,0.1-6.2,0.1c-0.5,0-1,0-1.5,0c-0.2,0-0.5,0-0.7-0.1
					c-0.2-0.1-0.4-0.2-0.7-0.2c-0.4-0.1-0.9,0.1-1.3,0.2c-0.5,0.2-1,0.3-1.6,0.4C125.4,14.6,125.6,15.2,125.9,15L125.9,15z"/>
			</g>
			<g>
				<path class="st10" d="M86,36.8l-13.2,0.7c-0.8-4.6-1.1-9.7-1-13.5l13-0.5C84.8,27.7,85.3,32.2,86,36.8z"/>
				<path class="st8" d="M86.3,36.2L73,36.9c-0.8-4.6-1.3-9-1.4-13.3l13.2-0.7C85.1,27.1,85.5,31.6,86.3,36.2z"/>
				<polygon class="st10" points="102.7,41.7 89.3,40.9 89.3,27.7 102.7,28.5 				"/>
				<polygon class="st5" points="102.5,41.4 89.2,40.6 89.3,27.3 102.7,28.1 				"/>
				<path class="st10" d="M115.4,39.1l13.3-0.4c0.3-3.1-1.1-10.8-1.9-13.5L113.8,26C114.9,30.9,115.4,35.4,115.4,39.1z"/>
				<path class="st8" d="M115.6,38.7l12.9-0.7c0.3-3.1-0.5-8.1-1.5-13.3l-13.2,0.8C114.9,30.4,115.6,35,115.6,38.7z"/>
				<g>
					<path class="st10" d="M78.8,59.5l13.6-1.4c-0.1-3.1-1.6-10.3-2.6-13L77,46.7C78.4,51.5,78.4,55.9,78.8,59.5z"/>
					<path class="st8" d="M79.1,59.4l13.1-1.4c0.2-3.1-1-8-2.2-13.2L77,46.3C78,51.1,79,55.6,79.1,59.4z"/>
				</g>
				<path class="st10" d="M111.9,44.7l13.2,2.5c1-2.9,1.3-10.7,1-13.5l-12.9-2C113.3,36.7,112.7,41.2,111.9,44.7z"/>
				<path class="st5" d="M112.2,44.4l12.9,2.2c1-2.9,1.3-7.9,1.4-13.1l-13.2-2.1C113.3,36.3,113.1,40.8,112.2,44.4z"/>
			</g>
		</g>
		<g>
			<path class="st11" d="M143.4,32.4c0.3,0.3,0.5,0.5,0.7,0.8s0.4,0.5,0.7,0.8c0.4,0.5,0.8,1.1,1.3,1.7c0.4,0.6,0.8,1.1,1.1,1.8
				c0.3,0.6,0.7,1.3,0.9,2l0.1,0.3v0.1l0.1,0.1l0.1,0.2c0.1,0.1,0.1,0.2,0.1,0.3c0,0.1,0.1,0.2,0.1,0.3c0.1,0.4,0.1,0.8,0.1,1.2
				c0,0.8-0.1,1.4-0.2,2.1c-0.3,1.4-0.6,2.7-1,4l-1.4-0.3c0.1-1.3,0.2-2.6,0.2-3.9c0-0.7,0-1.3,0-1.9c0-0.3-0.1-0.5-0.1-0.8
				l-0.1-0.2l-0.1-0.1l-0.2-0.3c-0.5-1-1.2-2.1-2-3.1c-0.4-0.5-0.8-1-1.1-1.5c-0.2-0.3-0.4-0.5-0.6-0.7l-0.6-0.7L143.4,32.4z"/>
			<path class="st12" d="M145.8,47.1l-1,1.1l2,1.1c0,0,0.7-0.9,0.4-1.8L145.8,47.1z"/>
			<polygon class="st12" points="143.5,49.7 145.4,50.4 146.8,49.3 144.8,48.1 			"/>
			<path class="st13" d="M149,54.2l-12.6-2.7c0.7-4.4,1.6-8.6,2.7-12.6l12.6,2.7C150.6,45.4,149.8,49.7,149,54.2z"/>
			
				<rect x="136.6" y="40.1" transform="matrix(0.2854 -0.9584 0.9584 0.2854 57.5684 170.2889)" class="st5" width="12.9" height="12.9"/>
			<path class="st14" d="M136.3,24.2c0,0.2-0.1,0.3-0.2,0.3c-0.1,0-0.2-0.1-0.2-0.3c0-0.2,0.1-0.3,0.2-0.3
				C136.1,23.9,136.3,24,136.3,24.2z"/>
			<path class="st15" d="M136.1,24.5c0,0-0.4,0.9-0.8,1.3c0.3,0.3,0.8,0.2,0.8,0.2L136.1,24.5z"/>
			<path class="st14" d="M136.9,23.3C136.9,23.3,136.9,23.3,136.9,23.3c0.1-0.1,0.1-0.2,0.1-0.2c-0.4-0.3-0.8-0.2-0.8-0.2
				c-0.1,0-0.1,0.1-0.1,0.1c0,0.1,0.1,0.1,0.1,0.1l0,0C136.1,23.1,136.5,23,136.9,23.3C136.8,23.3,136.9,23.3,136.9,23.3z"/>
			<path class="st12" d="M141,26.5c-0.3,1.4-0.5,3.4,0.5,4.4c0,0-0.4,1.5-3.1,1.5c-3,0-1.4-1.3-1.4-1.3c1.2-0.4,1.3-1.8,1-2.9
				L141,26.5z"/>
			<path class="st13" d="M134.8,98.8c-0.3,0-0.5-0.1-0.6-0.2c0-0.1-0.1-0.1,0-0.2c0.1-0.1,0.1-0.1,0.2-0.1c0.3-0.1,1,0.3,1,0.3
				s0,0,0,0.1c0,0,0,0.1-0.1,0.1C135.2,98.8,135,98.8,134.8,98.8z M134.5,98.4c-0.1,0-0.1,0-0.1,0s-0.1,0.1-0.1,0.1
				c-0.1,0.1,0,0.1,0,0.1c0.1,0.1,0.6,0.1,1,0.1C135.1,98.6,134.7,98.4,134.5,98.4z"/>
			<path class="st13" d="M135.4,98.7C135.3,98.7,135.3,98.7,135.4,98.7c-0.3-0.1-0.7-0.5-0.7-0.8c0-0.1,0.1-0.1,0.2-0.1
				s0.2,0,0.3,0.1C135.4,98.1,135.4,98.7,135.4,98.7L135.4,98.7L135.4,98.7z M134.9,98L134.9,98c-0.1,0-0.1,0.1-0.1,0.1
				c0,0.1,0.3,0.5,0.5,0.6c0-0.2-0.1-0.5-0.3-0.6C135,98,134.9,98,134.9,98z"/>
			<polygon class="st12" points="137.6,98.7 135.7,98.7 135.5,94.1 137.5,94.1 			"/>
			<path class="st14" d="M135.5,98.5h2.1c0.1,0,0.2,0.1,0.2,0.1l0.4,1.8c0.1,0.2-0.1,0.3-0.3,0.3c-0.8,0-1.9-0.1-2.9-0.1
				c-1.1,0-1.9,0.1-3.2,0.1c-0.8,0-1-0.8-0.7-0.9c1.5-0.3,2.5-0.4,3.9-1.2C135.2,98.5,135.4,98.5,135.5,98.5z"/>
			<g>
				<path class="st13" d="M142.3,31.1c1.9,0,4.5,4.8,4.5,4.8l-3,3c0,0-1.9-0.9-3-3.1C139.8,33.5,140.4,31.1,142.3,31.1z"/>
				<path class="st8" d="M142.3,31.1c1.9,0,4.5,4.8,4.5,4.8l-3,3c0,0-1.9-0.9-3-3.1C139.8,33.5,140.4,31.1,142.3,31.1z"/>
			</g>
			<g>
				<path class="st13" d="M133.3,33.3c-0.4,2.1-0.8,6.5,0.3,15.2h10.6c0.1-1.4-0.6-7.5,0.3-14.1c0.2-1.8-1.1-3.4-2.9-3.5
					c-0.1,0-0.1,0-0.1,0c-1.4-0.1-3.3-0.1-4.5,0c-0.5,0.1-1,0.1-1.4,0.2C134.5,31.2,133.5,32.2,133.3,33.3z"/>
				<path class="st8" d="M133.3,33.3c-0.4,2.1-0.8,6.5,0.3,15.2h10.6c0.1-1.4-0.6-7.5,0.3-14.1c0.2-1.8-1.1-3.4-2.9-3.5
					c-0.1,0-0.1,0-0.1,0c-1.4-0.1-3.3-0.1-4.5,0c-0.5,0.1-1,0.1-1.4,0.2C134.5,31.2,133.5,32.2,133.3,33.3z"/>
			</g>
			<path class="st16" d="M135.8,37.7l-1.4-1c-1.4,0.4-1.4,1.8-1.4,3.7C134.1,40.2,135.5,39,135.8,37.7z"/>
			<g>
				<polygon class="st17" points="135.5,94.1 135.5,96.5 137.6,96.5 137.5,94.1 				"/>
			</g>
			<path class="st12" d="M141.6,24.1c-0.2,2-0.3,3.1-1.3,4c-1.6,1.4-3.9,0.4-4.3-1.5c-0.3-1.8,0.1-4.6,2.1-5.4
				C139.9,20.6,141.8,22.1,141.6,24.1z"/>
			<path class="st14" d="M137.4,24.9c-0.6,0.1-0.9-1.3-0.3-1.9c-0.5-0.3-1.4-0.7-1.6-1.3c-0.3-0.7,0.5-1.5,1.2-1.5
				c-0.2-0.4,0.3-1.7,1.7-1.2c1.5,0.5,2.1,1.1,2.1,1.1s0.5-1.6,1.5-0.3c0.9,1.1,0.5,2.1,0.5,2.1s1.3,1.3,1,2.2s-1.1,1.3-1.1,1.3
				s0.2,2.2-1.4,2.7s-2.6-0.5-2.5-1.2C137.6,27.1,136.5,25.7,137.4,24.9z"/>
			<path class="st12" d="M138.1,24.7c-0.1,0.5-0.3,1-0.7,1.3c-0.5,0.4-0.9,0.1-0.9-0.4s0.2-1.4,0.7-1.6
				C137.8,23.7,138.2,24.2,138.1,24.7z"/>
			<polygon class="st12" points="154.4,96.2 152.6,96.8 150.9,92.3 152.6,91.7 			"/>
			<path class="st13" d="M151.8,97.2c-0.2,0.2-0.4,0.3-0.5,0.2c-0.1,0-0.1-0.1-0.1-0.2c0-0.1,0-0.1,0.1-0.2c0.2-0.3,1-0.4,1-0.4h0.1
				v0.1C152.2,96.8,152,97,151.8,97.2z M151.4,97L151.4,97c-0.1,0.1-0.1,0.1-0.1,0.2c0,0.1,0.1,0.1,0.1,0.1c0.2,0.1,0.5-0.3,0.8-0.5
				C151.9,96.8,151.5,96.9,151.4,97z"/>
			<path class="st13" d="M152.3,96.7L152.3,96.7c-0.3,0.1-0.9,0-1-0.2c0-0.1-0.1-0.1,0.1-0.2c0.1-0.1,0.2-0.1,0.3-0.1
				C152,96.2,152.3,96.6,152.3,96.7C152.3,96.7,152.3,96.7,152.3,96.7L152.3,96.7z M151.4,96.4L151.4,96.4c-0.1,0.1-0.1,0.1-0.1,0.1
				c0.1,0.1,0.5,0.2,0.8,0.2c-0.1-0.1-0.4-0.3-0.5-0.3C151.5,96.3,151.5,96.3,151.4,96.4z"/>
			<path class="st14" d="M152.3,96.4l1.7-1.3c0.1-0.1,0.2-0.1,0.2,0l1.5,1.1c0.2,0.1,0.2,0.3,0,0.4c-0.6,0.5-1.8,1.4-2.6,2.1
				c-0.9,0.8-0.2,0.3-1.2,1.1c-0.6,0.5-1.4,0.1-1.1-0.2c0.9-1.3,1.1-2,1.2-2.8C152,96.6,152.1,96.4,152.3,96.4z"/>
			<path class="st12" d="M123.5,38.2l-0.8-1.6l-2.1,1.3c0,0,0.7,1.4,2.1,1.3L123.5,38.2z"/>
			<path class="st12" d="M120.7,36.1l-0.5,0.4c-0.3,0.3-0.3,0.7,0,1l0.4,0.3l2.1-1.3l-1.3-0.5C121.2,35.9,120.9,35.9,120.7,36.1z"/>
			<g>
				<polygon class="st17" points="150.9,92.3 151.8,94.6 153.5,94 152.6,91.7 				"/>
			</g>
			<path class="st14" d="M137.4,48.5c0,0,3.3,15.2,4.5,20.8c1.4,6.2,8.6,24.9,8.6,24.9l3.2-1.8c0,0-3.4-14.7-5.9-22.7
				c-0.9-6.6-3.7-21.3-3.7-21.3L137.4,48.5L137.4,48.5z"/>
			<path class="st13" d="M149.7,93.3l0.7,1.3l3.9-1.5l-0.3-1.2L149.7,93.3z"/>
			<path class="st18" d="M139.3,55.5c2.5,0.3,2.8,9.1,2.7,14.2c-0.1-0.2-0.1-0.3-0.1-0.5c-0.7-3.1-2-9-3-13.7
				C139,55.5,139.2,55.5,139.3,55.5z"/>
			<path class="st14" d="M133.6,48.5c0,0-0.8,14.8-0.7,20.8c0.2,6.3,1.9,26.7,1.9,26.7h3.3c0,0,0.5-20.1,0.8-26.3
				c0.3-6.7,1.6-21.3,1.6-21.3L133.6,48.5L133.6,48.5z"/>
			<path class="st13" d="M134.2,94.7l0.2,1.4h4l0.1-1.3L134.2,94.7z"/>
			<path class="st11" d="M136.5,34.3c-0.4,0.8-1,1.6-1.5,2.4s-1.1,1.4-1.8,2.1c-0.6,0.7-1.3,1.3-2,1.9c-0.7,0.6-1.4,1.1-2,1.7
				l-0.2,0.2l-0.2,0.1c-0.5,0.2-1,0.2-1.4,0.2s-0.8-0.2-1.1-0.3c-0.7-0.3-1.2-0.7-1.8-1c-0.5-0.4-0.9-0.8-1.4-1.3
				c-0.2-0.2-0.4-0.4-0.6-0.7c-0.2-0.2-0.4-0.4-0.5-0.7l1.1-1c0.4,0.3,0.9,0.7,1.3,0.9c0.4,0.3,0.9,0.6,1.4,0.8
				c0.4,0.2,0.9,0.4,1.3,0.5c0.2,0.1,0.4,0.1,0.5,0.1c0.1,0,0.2-0.1,0.3-0.1l-0.4,0.3c0.7-0.6,1.3-1.2,1.9-1.8
				c0.6-0.6,1.1-1.2,1.7-1.8c0.5-0.6,1.1-1.3,1.5-1.9c0.5-0.7,0.9-1.3,1.4-2L136.5,34.3z"/>
			<g>
				<path class="st13" d="M137.9,33.9c-0.2,2.8-3.4,5.2-3.4,5.2l-4.2-2.3c0,0,1.6-3.3,3.7-4.9C136.5,29.9,138,31.7,137.9,33.9z"/>
				<path class="st8" d="M137.9,33.9c-0.2,2.8-3.4,5.2-3.4,5.2l-4.2-2.3c0,0,1.6-3.3,3.7-4.9C136.5,29.9,138,31.7,137.9,33.9z"/>
			</g>
		</g>
	</g>
	<g>
		
			<image style="overflow:visible;opacity:0.1;enable-background:new    ;" width="397" height="43" xlink:href="9D26A161.png"  transform="matrix(0.547 0 0 0.547 1.9321 112.132)">
		</image>
		<g>
			<g>
				<path class="st19" d="M9.9,128c-0.8,0-1.1-0.4-1.1-1.2V117H5.2c-0.7,0-1-0.3-1-1s0.3-1,1-1h9.4c0.7,0,1,0.3,1,1s-0.3,1-1,1H11
					v9.8C11,127.6,10.7,128,9.9,128z"/>
				<path class="st19" d="M16.5,128c-0.8,0-1.1-0.4-1.1-1.1V120c0-0.8,0.4-1.1,1.1-1.1c0.7,0,1.1,0.4,1.1,1.1v0.5
					c0.4-1,1.4-1.6,2.8-1.8c0.5-0.1,0.8,0.2,0.9,0.9c0.1,0.7-0.3,1-0.9,1.1l-0.4,0.1c-1.5,0.2-2.2,0.9-2.2,2.3v3.8
					C17.6,127.6,17.2,128,16.5,128z"/>
				<path class="st19" d="M25.3,128c-0.7,0-1.2-0.1-1.7-0.4c-0.5-0.3-0.9-0.6-1.2-1c-0.3-0.4-0.4-0.9-0.4-1.4c0-0.7,0.2-1.1,0.5-1.6
					c0.3-0.4,0.9-0.7,1.6-0.8c0.8-0.2,1.8-0.3,3.1-0.3h0.7v-0.4c0-0.6-0.1-1-0.4-1.3s-0.7-0.4-1.4-0.4c-0.3,0-0.7,0.1-1.1,0.1
					c-0.4,0.1-0.8,0.2-1.3,0.4c-0.3,0.1-0.5,0.2-0.7,0.1c-0.2-0.1-0.3-0.3-0.4-0.5c-0.1-0.2-0.1-0.4,0.1-0.7
					c0.1-0.2,0.3-0.4,0.5-0.5c0.5-0.2,1.1-0.4,1.6-0.5c0.5-0.1,1-0.2,1.4-0.2c1.3,0,2.2,0.3,2.9,0.9c0.6,0.6,0.9,1.5,0.9,2.8v4.4
					c0,0.8-0.3,1.1-1,1.1c-0.7,0-1.1-0.4-1.1-1.1v-0.4c-0.2,0.5-0.5,0.9-1,1.1C26.4,127.9,25.9,128,25.3,128z M25.8,126.5
					c0.6,0,1.1-0.2,1.5-0.6c0.4-0.4,0.6-0.9,0.6-1.6v-0.4h-0.6c-1.1,0-1.9,0.1-2.4,0.3c-0.4,0.2-0.7,0.5-0.7,1c0,0.4,0.1,0.7,0.4,1
					C24.9,126.3,25.3,126.5,25.8,126.5z"/>
				<path class="st19" d="M36.4,128c-0.9,0-1.8-0.2-2.5-0.5c-0.7-0.4-1.2-0.9-1.6-1.6c-0.4-0.7-0.5-1.5-0.5-2.5s0.2-1.8,0.5-2.5
					c0.4-0.7,0.9-1.2,1.6-1.6c0.7-0.4,1.5-0.5,2.5-0.5c0.4,0,0.8,0.1,1.3,0.2c0.5,0.1,0.9,0.3,1.3,0.5c0.2,0.2,0.4,0.3,0.4,0.5
					c0.1,0.2,0,0.4-0.1,0.7c-0.1,0.2-0.3,0.3-0.4,0.4c-0.2,0.1-0.4,0.1-0.7-0.1c-0.5-0.3-1.1-0.5-1.6-0.5c-0.8,0-1.4,0.3-1.9,0.8
					c-0.4,0.5-0.7,1.2-0.7,2.1c0,0.9,0.2,1.6,0.7,2.1c0.4,0.5,1,0.8,1.9,0.8c0.5,0,1-0.2,1.6-0.4c0.3-0.2,0.5-0.2,0.7-0.1
					c0.2,0.1,0.3,0.2,0.4,0.4c0.1,0.2,0.1,0.4,0.1,0.7c-0.1,0.2-0.2,0.4-0.4,0.5c-0.4,0.2-0.8,0.4-1.3,0.5
					C37.2,128,36.8,128,36.4,128z"/>
				<path class="st19" d="M42.1,128c-0.8,0-1.1-0.4-1.1-1.1V116c0-0.8,0.4-1.1,1.1-1.1c0.8,0,1.1,0.4,1.1,1.1v6.7h0.1l3-3.2
					c0.2-0.2,0.4-0.4,0.7-0.5c0.2-0.1,0.4-0.2,0.8-0.2s0.5,0.1,0.7,0.3c0.2,0.2,0.2,0.4,0.2,0.6c0,0.2-0.1,0.4-0.3,0.7l-2.7,2.9
					l3.1,3.3c0.2,0.2,0.3,0.5,0.3,0.7c0,0.2-0.1,0.4-0.3,0.6s-0.4,0.2-0.7,0.2c-0.3,0-0.6-0.1-0.8-0.2c-0.2-0.2-0.4-0.3-0.7-0.6
					l-3.2-3.3h-0.1v3C43.2,127.6,42.8,128,42.1,128z"/>
				<path class="st19" d="M57.9,131.3c-0.4,0-0.7-0.2-0.9-0.4c-0.2-0.3-0.2-0.7,0-1l1-2.3l-3.1-7.2c-0.2-0.4-0.2-0.8,0-1
					c0.2-0.3,0.5-0.4,1-0.4c0.3,0,0.5,0.1,0.7,0.2c0.2,0.2,0.3,0.4,0.4,0.7l2.2,5.5l2.2-5.5c0.1-0.3,0.3-0.5,0.5-0.7
					c0.2-0.1,0.4-0.2,0.7-0.2c0.4,0,0.7,0.2,0.8,0.4c0.2,0.3,0.2,0.7,0,1L59,130.5c-0.2,0.3-0.3,0.5-0.5,0.7
					C58.4,131.3,58.2,131.3,57.9,131.3z"/>
				<path class="st19" d="M69.1,128c-0.9,0-1.7-0.2-2.4-0.5c-0.7-0.4-1.2-0.9-1.6-1.6c-0.4-0.7-0.5-1.5-0.5-2.5s0.2-1.8,0.5-2.5
					c0.4-0.7,0.9-1.2,1.6-1.6c0.7-0.4,1.5-0.5,2.4-0.5c0.9,0,1.7,0.2,2.4,0.5c0.7,0.4,1.2,0.9,1.6,1.6c0.4,0.7,0.5,1.5,0.5,2.5
					s-0.2,1.8-0.5,2.5c-0.4,0.7-0.9,1.3-1.6,1.6C70.8,127.8,70,128,69.1,128z M69.1,126.3c0.7,0,1.2-0.3,1.6-0.8
					c0.4-0.5,0.6-1.2,0.6-2.2c0-1-0.2-1.7-0.6-2.2c-0.4-0.5-1-0.7-1.6-0.7c-0.7,0-1.2,0.2-1.6,0.7s-0.6,1.2-0.6,2.2
					c0,1,0.2,1.7,0.6,2.2C67.8,126,68.4,126.3,69.1,126.3z"/>
				<path class="st19" d="M78.8,128c-2.2,0-3.3-1.2-3.3-3.7v-4.4c0-0.8,0.4-1.1,1.1-1.1c0.8,0,1.1,0.4,1.1,1.1v4.4
					c0,0.7,0.1,1.1,0.4,1.4c0.3,0.3,0.7,0.4,1.2,0.4c0.6,0,1.1-0.2,1.5-0.6c0.4-0.4,0.6-1,0.6-1.6v-4c0-0.8,0.4-1.1,1.1-1.1
					c0.8,0,1.1,0.4,1.1,1.1v6.9c0,0.8-0.4,1.1-1.1,1.1c-0.7,0-1.1-0.4-1.1-1.1v-0.3C80.9,127.5,80,128,78.8,128z"/>
				<path class="st19" d="M87.2,128c-0.8,0-1.1-0.4-1.1-1.1V120c0-0.8,0.4-1.1,1.1-1.1s1.1,0.4,1.1,1.1v0.5c0.4-1,1.4-1.6,2.8-1.8
					c0.5-0.1,0.8,0.2,0.9,0.9c0.1,0.7-0.3,1-0.9,1.1l-0.4,0.1c-1.5,0.2-2.2,0.9-2.2,2.3v3.8C88.4,127.6,88,128,87.2,128z"/>
				<path class="st19" d="M101.7,128c-0.6,0-1-0.3-1.4-1l-2.9-6.7c-0.2-0.4-0.2-0.8,0-1s0.5-0.4,1-0.4c0.3,0,0.5,0.1,0.7,0.2
					s0.3,0.4,0.4,0.7l2.2,5.5l2.2-5.5c0.1-0.3,0.3-0.5,0.5-0.7s0.4-0.2,0.7-0.2c0.4,0,0.7,0.2,0.8,0.4c0.2,0.3,0.2,0.7,0,1l-3,6.7
					C102.8,127.7,102.4,128,101.7,128z"/>
				<path class="st19" d="M108.9,117.1c-0.4,0-0.8-0.1-1-0.3c-0.2-0.2-0.3-0.5-0.3-0.9c0-0.4,0.1-0.7,0.3-0.9c0.2-0.2,0.5-0.3,1-0.3
					c0.9,0,1.4,0.4,1.4,1.2S109.8,117.1,108.9,117.1z M108.9,128c-0.4,0-0.7-0.1-0.8-0.3c-0.2-0.2-0.3-0.5-0.3-0.9V120
					c0-0.8,0.4-1.3,1.1-1.3c0.8,0,1.1,0.4,1.1,1.3v6.7c0,0.4-0.1,0.7-0.3,0.9C109.6,127.8,109.2,128,108.9,128z"/>
				<path class="st19" d="M115.6,128c-0.5,0-1.1-0.1-1.6-0.2c-0.6-0.1-1.1-0.3-1.6-0.5c-0.3-0.2-0.4-0.3-0.5-0.5
					c-0.1-0.2-0.1-0.4,0-0.6c0.1-0.2,0.2-0.3,0.4-0.4c0.2-0.1,0.4-0.1,0.7,0.1c0.5,0.2,0.9,0.4,1.4,0.5c0.4,0.1,0.8,0.1,1.3,0.1
					c0.6,0,1-0.1,1.3-0.3c0.3-0.2,0.4-0.5,0.4-0.8c0-0.5-0.4-0.8-1.1-1l-1.8-0.3c-1.5-0.3-2.3-1.1-2.3-2.4c0-0.6,0.2-1.1,0.5-1.5
					c0.3-0.4,0.8-0.8,1.4-1c0.6-0.2,1.2-0.3,2-0.3c1.1,0,2,0.2,2.8,0.7c0.2,0.1,0.4,0.3,0.4,0.5c0.1,0.2,0,0.4-0.1,0.6
					c-0.1,0.2-0.2,0.3-0.4,0.4c-0.2,0.1-0.4,0.1-0.7-0.1c-0.4-0.2-0.8-0.3-1.1-0.4c-0.3-0.1-0.7-0.1-1-0.1c-0.6,0-1,0.1-1.3,0.3
					c-0.3,0.2-0.4,0.5-0.4,0.8c0,0.5,0.3,0.9,1,1l1.8,0.3c0.8,0.2,1.4,0.4,1.8,0.8s0.6,0.9,0.6,1.6c0,0.9-0.3,1.6-1,2.1
					C117.7,127.8,116.8,128,115.6,128z"/>
				<path class="st19" d="M122.4,117.1c-0.4,0-0.8-0.1-1-0.3c-0.2-0.2-0.3-0.5-0.3-0.9c0-0.4,0.1-0.7,0.3-0.9c0.2-0.2,0.5-0.3,1-0.3
					c0.9,0,1.4,0.4,1.4,1.2S123.3,117.1,122.4,117.1z M122.4,128c-0.4,0-0.7-0.1-0.8-0.3c-0.2-0.2-0.3-0.5-0.3-0.9V120
					c0-0.8,0.4-1.3,1.1-1.3c0.8,0,1.1,0.4,1.1,1.3v6.7c0,0.4-0.1,0.7-0.3,0.9C123.1,127.8,122.8,128,122.4,128z"/>
				<path class="st19" d="M130,128c-2.4,0-3.6-1.1-3.6-3.5v-3.9h-0.9c-0.6,0-0.9-0.3-0.9-0.9c0-0.5,0.3-0.9,0.9-0.9h0.9v-1.6
					c0-0.8,0.4-1.1,1.1-1.1c0.8,0,1.1,0.4,1.1,1.1v1.6h1.9c0.6,0,0.9,0.3,0.9,0.9c0,0.5-0.3,0.9-0.9,0.9h-1.9v3.8
					c0,0.6,0.1,1,0.4,1.3s0.7,0.4,1.3,0.4c0.2,0,0.4,0,0.5-0.1c0.2-0.1,0.3-0.1,0.4-0.1s0.3,0.1,0.4,0.1s0.2,0.3,0.2,0.6
					c0,0.2-0.1,0.4-0.1,0.7c-0.1,0.2-0.2,0.3-0.4,0.4c-0.2,0.1-0.4,0.1-0.6,0.1C130.5,128,130.2,128,130,128z"/>
				<path class="st19" d="M136.9,128c-0.9,0-1.7-0.2-2.4-0.5c-0.7-0.4-1.2-0.9-1.6-1.6c-0.4-0.7-0.5-1.5-0.5-2.5s0.2-1.8,0.5-2.5
					c0.4-0.7,0.9-1.2,1.6-1.6c0.7-0.4,1.5-0.5,2.4-0.5s1.7,0.2,2.4,0.5c0.7,0.4,1.2,0.9,1.6,1.6c0.4,0.7,0.5,1.5,0.5,2.5
					s-0.2,1.8-0.5,2.5c-0.4,0.7-0.9,1.3-1.6,1.6C138.6,127.8,137.8,128,136.9,128z M136.9,126.3c0.7,0,1.2-0.3,1.6-0.8
					c0.4-0.5,0.6-1.2,0.6-2.2c0-1-0.2-1.7-0.6-2.2c-0.4-0.5-1-0.7-1.6-0.7s-1.2,0.2-1.6,0.7s-0.6,1.2-0.6,2.2c0,1,0.2,1.7,0.6,2.2
					C135.7,126,136.2,126.3,136.9,126.3z"/>
				<path class="st19" d="M144.5,128c-0.8,0-1.1-0.4-1.1-1.1V120c0-0.8,0.4-1.1,1.1-1.1c0.7,0,1.1,0.4,1.1,1.1v0.5
					c0.4-1,1.4-1.6,2.8-1.8c0.5-0.1,0.8,0.2,0.9,0.9c0.1,0.7-0.3,1-0.9,1.1l-0.4,0.1c-1.5,0.2-2.2,0.9-2.2,2.3v3.8
					C145.7,127.6,145.3,128,144.5,128z"/>
				<path class="st19" d="M153.7,128c-0.5,0-1.1-0.1-1.6-0.2c-0.6-0.1-1.1-0.3-1.6-0.5c-0.3-0.2-0.4-0.3-0.5-0.5
					c-0.1-0.2-0.1-0.4,0-0.6s0.2-0.3,0.4-0.4c0.2-0.1,0.4-0.1,0.7,0.1c0.5,0.2,0.9,0.4,1.4,0.5c0.4,0.1,0.8,0.1,1.3,0.1
					c0.6,0,1-0.1,1.3-0.3c0.3-0.2,0.4-0.5,0.4-0.8c0-0.5-0.4-0.8-1.1-1l-1.8-0.3c-1.5-0.3-2.3-1.1-2.3-2.4c0-0.6,0.2-1.1,0.5-1.5
					c0.3-0.4,0.8-0.8,1.4-1c0.6-0.2,1.2-0.3,2-0.3c1.1,0,2,0.2,2.8,0.7c0.2,0.1,0.4,0.3,0.4,0.5c0.1,0.2,0,0.4-0.1,0.6
					c-0.1,0.2-0.2,0.3-0.4,0.4s-0.4,0.1-0.7-0.1c-0.4-0.2-0.8-0.3-1.1-0.4c-0.3-0.1-0.7-0.1-1-0.1c-0.6,0-1,0.1-1.3,0.3
					c-0.3,0.2-0.4,0.5-0.4,0.8c0,0.5,0.3,0.9,1,1l1.8,0.3c0.8,0.2,1.4,0.4,1.8,0.8c0.4,0.4,0.6,0.9,0.6,1.6c0,0.9-0.3,1.6-1,2.1
					C155.7,127.8,154.8,128,153.7,128z"/>
				<path class="st19" d="M167.5,128c-0.5,0-1.1-0.1-1.6-0.2c-0.6-0.1-1.1-0.3-1.6-0.5c-0.3-0.2-0.4-0.3-0.5-0.5
					c-0.1-0.2-0.1-0.4,0-0.6c0.1-0.2,0.2-0.3,0.4-0.4c0.2-0.1,0.4-0.1,0.7,0.1c0.5,0.2,0.9,0.4,1.4,0.5c0.4,0.1,0.8,0.1,1.3,0.1
					c0.6,0,1-0.1,1.3-0.3c0.3-0.2,0.4-0.5,0.4-0.8c0-0.5-0.4-0.8-1.1-1l-1.8-0.3c-1.5-0.3-2.3-1.1-2.3-2.4c0-0.6,0.2-1.1,0.5-1.5
					c0.3-0.4,0.8-0.8,1.4-1s1.2-0.3,2-0.3c1.1,0,2,0.2,2.8,0.7c0.2,0.1,0.4,0.3,0.4,0.5c0.1,0.2,0,0.4-0.1,0.6
					c-0.1,0.2-0.2,0.3-0.4,0.4c-0.2,0.1-0.4,0.1-0.7-0.1c-0.4-0.2-0.8-0.3-1.1-0.4c-0.3-0.1-0.7-0.1-1-0.1c-0.6,0-1,0.1-1.3,0.3
					c-0.3,0.2-0.4,0.5-0.4,0.8c0,0.5,0.3,0.9,1,1l1.8,0.3c0.8,0.2,1.4,0.4,1.8,0.8c0.4,0.4,0.6,0.9,0.6,1.6c0,0.9-0.3,1.6-1,2.1
					C169.6,127.8,168.6,128,167.5,128z"/>
				<path class="st19" d="M177.1,128c-2.4,0-3.6-1.1-3.6-3.5v-3.9h-0.9c-0.6,0-0.9-0.3-0.9-0.9c0-0.5,0.3-0.9,0.9-0.9h0.9v-1.6
					c0-0.8,0.4-1.1,1.1-1.1s1.1,0.4,1.1,1.1v1.6h1.9c0.6,0,0.9,0.3,0.9,0.9c0,0.5-0.3,0.9-0.9,0.9h-1.9v3.8c0,0.6,0.1,1,0.4,1.3
					s0.7,0.4,1.3,0.4c0.2,0,0.4,0,0.5-0.1c0.2-0.1,0.3-0.1,0.4-0.1c0.2,0,0.3,0.1,0.4,0.1c0.1,0.1,0.2,0.3,0.2,0.6
					c0,0.2-0.1,0.4-0.1,0.7c-0.1,0.2-0.2,0.3-0.4,0.4c-0.2,0.1-0.4,0.1-0.6,0.1C177.5,128,177.3,128,177.1,128z"/>
				<path class="st19" d="M182.9,128c-0.7,0-1.2-0.1-1.7-0.4s-0.9-0.6-1.2-1c-0.3-0.4-0.4-0.9-0.4-1.4c0-0.7,0.2-1.1,0.5-1.6
					s0.9-0.7,1.6-0.8s1.8-0.3,3.1-0.3h0.7v-0.4c0-0.6-0.1-1-0.4-1.3s-0.7-0.4-1.4-0.4c-0.3,0-0.7,0.1-1.1,0.1
					c-0.4,0.1-0.8,0.2-1.3,0.4c-0.3,0.1-0.5,0.2-0.7,0.1c-0.2-0.1-0.3-0.3-0.4-0.5c-0.1-0.2-0.1-0.4,0.1-0.7
					c0.1-0.2,0.3-0.4,0.5-0.5c0.5-0.2,1.1-0.4,1.6-0.5c0.5-0.1,1-0.2,1.4-0.2c1.3,0,2.2,0.3,2.9,0.9c0.6,0.6,0.9,1.5,0.9,2.8v4.4
					c0,0.8-0.3,1.1-1,1.1c-0.7,0-1.1-0.4-1.1-1.1v-0.4c-0.2,0.5-0.5,0.9-1,1.1C184.1,127.9,183.6,128,182.9,128z M183.4,126.5
					c0.6,0,1.1-0.2,1.5-0.6s0.6-0.9,0.6-1.6v-0.4h-0.6c-1.1,0-1.9,0.1-2.4,0.3c-0.5,0.2-0.7,0.5-0.7,1c0,0.4,0.1,0.7,0.4,1
					C182.5,126.3,182.9,126.5,183.4,126.5z"/>
				<path class="st19" d="M194.1,128c-2.4,0-3.6-1.1-3.6-3.5v-3.9h-0.9c-0.6,0-0.9-0.3-0.9-0.9c0-0.5,0.3-0.9,0.9-0.9h0.9v-1.6
					c0-0.8,0.4-1.1,1.1-1.1s1.1,0.4,1.1,1.1v1.6h1.9c0.6,0,0.9,0.3,0.9,0.9c0,0.5-0.3,0.9-0.9,0.9h-1.9v3.8c0,0.6,0.1,1,0.4,1.3
					s0.7,0.4,1.3,0.4c0.2,0,0.4,0,0.5-0.1c0.2-0.1,0.3-0.1,0.4-0.1c0.2,0,0.3,0.1,0.4,0.1c0.1,0.1,0.2,0.3,0.2,0.6
					c0,0.2-0.1,0.4-0.1,0.7c-0.1,0.2-0.2,0.3-0.4,0.4c-0.2,0.1-0.4,0.1-0.6,0.1C194.5,128,194.2,128,194.1,128z"/>
				<path class="st19" d="M200.2,128c-2.2,0-3.3-1.2-3.3-3.7v-4.4c0-0.8,0.4-1.1,1.1-1.1s1.1,0.4,1.1,1.1v4.4c0,0.7,0.1,1.1,0.4,1.4
					c0.3,0.3,0.7,0.4,1.2,0.4c0.6,0,1.1-0.2,1.5-0.6c0.4-0.4,0.6-1,0.6-1.6v-4c0-0.8,0.4-1.1,1.1-1.1c0.8,0,1.1,0.4,1.1,1.1v6.9
					c0,0.8-0.4,1.1-1.1,1.1c-0.7,0-1.1-0.4-1.1-1.1v-0.3C202.3,127.5,201.4,128,200.2,128z"/>
				<path class="st19" d="M210.8,128c-0.5,0-1.1-0.1-1.6-0.2c-0.6-0.1-1.1-0.3-1.6-0.5c-0.3-0.2-0.4-0.3-0.5-0.5
					c-0.1-0.2-0.1-0.4,0-0.6c0.1-0.2,0.2-0.3,0.4-0.4c0.2-0.1,0.4-0.1,0.7,0.1c0.5,0.2,0.9,0.4,1.4,0.5c0.4,0.1,0.8,0.1,1.3,0.1
					c0.6,0,1-0.1,1.3-0.3c0.3-0.2,0.4-0.5,0.4-0.8c0-0.5-0.4-0.8-1.1-1l-1.8-0.3c-1.5-0.3-2.3-1.1-2.3-2.4c0-0.6,0.2-1.1,0.5-1.5
					c0.3-0.4,0.8-0.8,1.4-1s1.2-0.3,2-0.3c1.1,0,2,0.2,2.8,0.7c0.2,0.1,0.4,0.3,0.4,0.5c0.1,0.2,0,0.4-0.1,0.6
					c-0.1,0.2-0.2,0.3-0.4,0.4s-0.4,0.1-0.7-0.1c-0.4-0.2-0.7-0.3-1.1-0.4c-0.3-0.1-0.7-0.1-1-0.1c-0.6,0-1,0.1-1.3,0.3
					c-0.3,0.2-0.4,0.5-0.4,0.8c0,0.5,0.3,0.9,1,1l1.8,0.3c0.8,0.2,1.4,0.4,1.8,0.8c0.4,0.4,0.6,0.9,0.6,1.6c0,0.9-0.3,1.6-1,2.1
					C212.8,127.8,211.9,128,210.8,128z"/>
			</g>
		</g>
	</g>
</g>
</svg>
