<svg width="33" height="33" viewBox="0 0 33 33" fill="none" xmlns="http://www.w3.org/2000/svg">
<path d="M18.6067 18.8594H22.9967C23.2567 18.8594 23.4667 19.0694 23.4667 19.3294V23.7194C23.4667 23.9794 23.2567 24.1894 22.9967 24.1894H18.6067C18.3467 24.1894 18.1367 23.9794 18.1367 23.7194V19.3294C18.1367 19.0694 18.3467 18.8594 18.6067 18.8594Z" fill="#041D36"/>
<path d="M26.5867 0.189453H7.01672C6.49672 0.189453 6.02672 0.529453 5.85672 1.01945L2.13672 12.1895C2.13672 14.3995 3.92672 16.1895 6.13672 16.1895C7.16672 16.1895 8.09672 15.7895 8.80672 15.1495C9.51672 15.7895 10.4467 16.1895 11.4767 16.1895C12.5067 16.1895 13.4367 15.7895 14.1467 15.1495C14.8567 15.7895 15.7867 16.1895 16.8167 16.1895C17.8467 16.1895 18.7767 15.7895 19.4867 15.1495C20.1967 15.7895 21.1267 16.1895 22.1567 16.1895C23.1867 16.1895 24.1167 15.7895 24.8267 15.1495C25.5367 15.7895 26.4667 16.1895 27.4967 16.1895C29.7067 16.1895 31.4967 14.3995 31.4967 12.1895L27.7467 1.01945C27.5867 0.519453 27.1167 0.189453 26.5867 0.189453ZM27.4667 13.5195C26.7267 13.5195 26.1367 12.9195 26.1367 12.1895C26.1367 11.4595 25.5367 10.8595 24.8067 10.8595C24.0667 10.8595 23.4767 11.4595 23.4767 12.1895C23.4767 12.9195 22.8767 13.5195 22.1467 13.5195C21.4067 13.5195 20.8167 12.9195 20.8167 12.1895C20.8167 11.4595 20.2167 10.8595 19.4867 10.8595C18.7467 10.8595 18.1567 11.4595 18.1567 12.1895C18.1567 12.9195 17.5567 13.5195 16.8267 13.5195C16.0867 13.5195 15.4967 12.9195 15.4967 12.1895C15.4967 11.4595 14.8967 10.8595 14.1667 10.8595C13.4267 10.8595 12.8367 11.4595 12.8367 12.1895C12.8367 12.9195 12.2367 13.5195 11.5067 13.5195C10.7667 13.5195 10.1767 12.9195 10.1767 12.1895C10.1767 11.4595 9.57672 10.8595 8.84672 10.8595C8.11672 10.8595 7.51672 11.4595 7.51672 12.1895C7.51672 12.9195 6.91672 13.5195 6.18672 13.5195C5.44672 13.5195 4.85672 12.9195 4.85672 12.1895L7.96672 2.85945H25.6967L28.8067 12.1895C28.8067 12.9295 28.2067 13.5195 27.4667 13.5195Z" fill="#4872F4"/>
<path d="M28.8086 29.4392V15.9592C28.3886 16.1092 27.9486 16.1892 27.4786 16.1892C27.0086 16.1892 26.5586 16.0992 26.1486 15.9492V29.4392H15.4686V19.3292C15.4686 19.0692 15.2586 18.8592 14.9986 18.8592H10.6086C10.3486 18.8592 10.1386 19.0692 10.1386 19.3292V29.4392H7.46859V15.9492C7.04859 16.0992 6.60859 16.1892 6.13859 16.1892C5.66859 16.1892 5.21859 16.1092 4.80859 15.9592V29.4392H2.05859C1.36859 29.4392 0.808594 29.9992 0.808594 30.6892V32.1892H32.8486V30.6892C32.8486 29.9992 32.2886 29.4392 31.5986 29.4392H28.8086Z" fill="#041D36"/>
</svg>
