<svg width="124" height="124" viewBox="0 0 124 124" fill="none" xmlns="http://www.w3.org/2000/svg">
<g opacity="0.4">
<path d="M82.6668 82.6667L62.0002 62L41.3335 82.6667" stroke="#041D36" stroke-width="3.44444" stroke-linecap="round" stroke-linejoin="round"/>
<path d="M62 62V108.5" stroke="#041D36" stroke-width="3.44444" stroke-linecap="round" stroke-linejoin="round"/>
<path d="M105.345 95.0121C110.385 92.2648 114.366 87.9176 116.66 82.6566C118.954 77.3956 119.431 71.5204 118.015 65.9583C116.599 60.3962 113.372 55.4639 108.842 51.9399C104.311 48.4159 98.7366 46.5009 92.9971 46.4971H86.4871C84.9232 40.4481 82.0084 34.8325 77.9618 30.0722C73.9152 25.3119 68.8421 21.531 63.124 19.0135C57.4058 16.4961 51.1913 15.3078 44.9477 15.5378C38.7041 15.7678 32.594 17.4103 27.0765 20.3417C21.5591 23.2731 16.778 27.4171 13.0927 32.4622C9.40733 37.5074 6.91367 43.3223 5.79917 49.4699C4.68467 55.6175 4.97832 61.9378 6.65804 67.9556C8.33777 73.9734 11.3599 79.532 15.4971 84.2137" stroke="#041D36" stroke-width="3.44444" stroke-linecap="round" stroke-linejoin="round"/>
<path d="M82.6668 82.6667L62.0002 62L41.3335 82.6667" stroke="#041D36" stroke-width="3.44444" stroke-linecap="round" stroke-linejoin="round"/>
</g>
</svg>
