<?xml version="1.0" encoding="utf-8"?>
<!-- Generator: Adobe Illustrator 25.4.1, SVG Export Plug-In . SVG Version: 6.00 Build 0)  -->
<svg version="1.1" id="Layer_1" xmlns="http://www.w3.org/2000/svg" xmlns:xlink="http://www.w3.org/1999/xlink" x="0px" y="0px"
	 viewBox="0 0 388.1 246.9" style="enable-background:new 0 0 388.1 246.9;" xml:space="preserve">
<style type="text/css">
	.st0{fill:#808080;}
	.st1{fill:#EFEFEF;}
	.st2{fill:#0F1216;}
	.st3{fill:#FC9590;}
	.st4{fill:#ED6343;}
	.st5{fill:#0072FF;}
	.st6{fill:#657283;}
	.st7{fill:#044D96;}
	.st8{fill:#FFFFFF;}
	.st9{fill:#026EB7;}
	.st10{fill:#03A1FC;}
	.st11{fill:#364154;}
	.st12{fill:#131F2D;}
	.st13{fill:#525354;}
	.st14{fill:#275BC4;}
	.st15{fill:#051023;}
	.st16{fill:#608FFF;}
	.st17{fill:#152A52;}
	.st18{fill:#2D3554;}
	.st19{fill:#4872F4;}
</style>
<g>
	<g>
		<g>
			<path class="st0" d="M107.8,93.4c0,0-1-9.8-3.3-18.6c-0.5-1.8,0.9-3.6,2.7-3.6h25l4.1,22.2C136.3,93.4,107.3,94.2,107.8,93.4z"/>
			<path class="st1" d="M110.2,93.4c0,0-1-9.8-3.3-18.6c-0.5-1.8,0.9-3.6,2.7-3.6h25l4.1,22.2C138.7,93.4,109.7,94.2,110.2,93.4z"/>
		</g>
		<g>
			<path class="st2" d="M146.5,26.6c0,0-7-1.1-10.8,4.8c-4,6.1-7.9,14.1-5.3,16.4c2.2,2,1.9,3.7,0,4.7c-8.3,4.2-3.7,8.2-0.7,9.6
				s28.1,4.6,29.2,3c5.3-8.4-3.4-12-1.9-14.6C158.1,48.3,165.9,28.8,146.5,26.6z"/>
			<path class="st3" d="M155.8,68.2c-1.8,1.4-2.9,6.4-5.8,7.2c-10.9,3.1-16.7-9.8-18.6-16.1c1.5-0.9,2.9-1.2,3.7-1.3
				c0.8-0.1,1.6-0.2,2.3-0.3c1.2-1,2.8-5,2.9-11l0.5,0.1l8.8,1.9c0,0-0.3,2.8-0.3,5.4c0,2-0.1,2.5,0,2.8c0.7,0.1,1.5,1.9,1.5,1.9
				s0,0,0,0C150.9,58.9,153.6,62.9,155.8,68.2z"/>
			<path class="st4" d="M149.6,48.7c0,0-0.3,2.8-0.3,5.4c-4.9-0.2-7.5-4.8-8.5-7.3L149.6,48.7z"/>
			<g>
				<path class="st5" d="M194.3,94.3c0,0-5.2,0.2-10.8,0.2c-0.7,0-1.3,0-2,0c-4.6,0-9.1-0.2-11-0.7c-1.9-0.5-9-5.4-14.8-11.2l0,0
					c-0.5,1.1-0.8,1.9-0.8,1.9c-0.2,1.3-0.5,2.6-0.8,3.9c-1.3,4.9-3.5,8.9-3.5,9.1l-3.1,0l-24,0c0,0,4.5-7,3.3-24.9
					c0-0.5,4.2-14.9,4.2-14.9s3.3-0.6,7.1-0.9c0.4,0.3,1.1,9.8,5.8,10.4c0.8,0.1,5.7,7.6,5.7,7.6l1.5-7.7l-1.8-10.2
					c2.3,0.7,3.5,0.9,5.4,1.7c1.3,0.5,2.4,1.5,3,2.7c3.3,6,14,25.5,15.1,26c1,0.4,4.9,1.2,9,2l0,0c5.5,1,11.4,2,11.4,2L194.3,94.3z"
					/>
				<polygon class="st6" points="152.3,97.5 150.6,97.5 150.6,97.5 				"/>
			</g>
			<path class="st3" d="M151,51.3c0,0-11.7-0.2-11.4-7.5c0.2-7.3-1.1-12.2,6.4-12.4s8.8,2.7,9.3,5.1C155.8,39,154.1,51.2,151,51.3z"
				/>
			<path class="st7" d="M183.5,94.5c-0.7,0-1.3,0-2,0c-4.6,0-9.1-0.2-11-0.7c-1.9-0.5-9-5.4-14.8-11.2l0,0c0,0,1.2-4.6,1.7-5.4
				c0.5-0.8,2.6,6.8,7.4,9.9c4.8,3.1,12.4,5.2,16,4.4C183.3,90.8,183.6,93,183.5,94.5z"/>
			<path class="st8" d="M148.7,47.3c0,0,0.1,0.9,2,1c0,0,1.6,0.1,1.7-0.8C152.4,47.5,150.9,46.6,148.7,47.3z"/>
			<path class="st3" d="M168.4,88.7c0,0,4.7-0.8,5.1-0.6c0.8,0.3,3.5,1.7,3.9,2.1c0.5,0.4,1.7,2.2,1.7,2.2s-0.4,0.2-0.7,0
				c-0.2-0.2-1.9-1.6-1.9-1.6l1.8,2.2c0,0-0.5,0-0.8-0.2c-0.2-0.2-1.9-1.6-1.9-1.6l-0.5,0c0,0,0.5,0.4,0.9,0.7
				c0.3,0.3,0.5,0.7,0.5,0.7s-0.5,0-0.6-0.1c-0.1,0-1.6-1.1-1.6-1.1l0.8,0.9c0,0-0.5,0-0.6-0.1s-1.3-0.9-1.5-0.9
				c-0.2,0-1.5,0.1-2.1-0.1c-0.6-0.2-2.4-0.7-2.4-0.7L168.4,88.7z"/>
			<path class="st7" d="M139.1,54.5c0,0-3.7,1.9-4.5,2.7c0,0,3.5,9,8.6,13.1l1.4-1v2.2l5.1,3.3C149.6,74.8,138.8,57.2,139.1,54.5z"
				/>
			<path class="st7" d="M154.1,88.4c-1.3,4.9-3.5,8.9-3.5,9.1h1.7l-1.7,0h-16c0,0,1.9,0,1.9,0c0-0.2,2.7-7.6-1.9-10.6
				c-4.6-3-6.2-10.6-6.2-10.6l14.5-3.5c0,0,6,8.7,7.7,10.4c1.3,1.3,4.4,1.4,4.4,1.4L154.1,88.4z"/>
			<path class="st7" d="M149.2,56.8c0,0,1.7,12.3,0.4,18c0,0,2.1-3.8,2.4-4.5l-0.4-2.1l1.3,0.5c0,0-1.1-9.8-2.2-11.4
				c-0.5-0.7-1.5-1.7-1.5-1.7L149.2,56.8z"/>
			<path class="st3" d="M194.3,94.3c0,0-6.5,0.2-12.8,0.2c-1.6-2.4,0.4-5.4,0.4-5.4l0,0c5.5,1,11.4,2,11.4,2L194.3,94.3z"/>
			<path class="st3" d="M169.6,90.8c0,0-11.8,1.7-18.2,2.1l1.1-6.2c4.3,0.7,15.9,2.1,15.9,2.1L169.6,90.8z"/>
			<path class="st5" d="M134.6,57.1c0,0-7,0.2-9.2,2.5c-2.2,2.4,2.2,15.6,2.2,15.6s13.1,16.1,19.7,17.2c0,0,2.9,0.4,4.2,0.4
				c0,0,1.5-3.1,1.1-6.2c0,0-2.8-0.8-2.9-1.1C149.5,85.2,134.6,57.1,134.6,57.1z"/>
			<path class="st2" d="M153.4,32.2c0,0-2.8,10.4-15.2,10.1c0,0-1.3-9.8,5.4-11.3C150.3,29.4,153.4,32.2,153.4,32.2z"/>
			<path class="st2" d="M155.3,39.5c0,0,0.7-3.1-3.8-5.6c0,0,3.2-3.6,4.6-1.5C157.4,34.4,155.3,39.5,155.3,39.5z"/>
			<path class="st9" d="M139.5,53.1c0,0-2.2,1.2-2.7,2.6c0,0,2.1,5.5,9.2,7.4C146,63.1,140.8,57.1,139.5,53.1z"/>
			<path class="st9" d="M149.2,54.5c0,0,0.2,6.9-3.2,8.6c0,0,4.3-0.5,4.8-4.4C151.1,56.5,150.4,55,149.2,54.5z"/>
			<path class="st9" d="M146.4,62.5c0,0-1.6,4.8-1.2,6s3.2,6.8,3.2,8.6c0,0,2-2.8,2-6.2C150.4,67.4,146.4,62.5,146.4,62.5z"/>
			<path class="st10" d="M146.7,62.6c0,0-0.4,3.3,0,4.2c0.4,1,2.3,2.1,4.2,2.3c0,0,0.5-1.4-0.3-2.4C149.8,65.7,146.9,64,146.7,62.6z
				"/>
			<path class="st9" d="M145.2,62.7c0,0,0.2-0.9,0.6-1.1s1.6,0.4,1.7,0.7s-0.1,1.1-0.7,1.2C146.2,63.6,145.1,63.1,145.2,62.7z"/>
		</g>
		<g>
			<g>
				<polygon class="st11" points="213.5,86.1 170.4,86.1 174.6,55.3 217.7,55.3 				"/>
				<polygon class="st12" points="214.5,86.1 171.4,86.1 175.7,55.3 218.7,55.3 				"/>
			</g>
			<g>
				<polygon class="st11" points="200.2,68.6 196.5,93.4 187.9,93.4 188.1,92.3 191.6,68.6 				"/>
				<polygon class="st6" points="197.2,93.4 188.5,93.4 192.2,68.6 200.8,68.6 				"/>
				<path class="st6" d="M189.3,93.4h14.3l0,0c0-0.6-0.5-1.1-1.1-1.1h-13L189.3,93.4z"/>
				<path class="st11" d="M194.7,93.4L194.7,93.4h-6.8l0.2-1.1h5.5C194.2,92.3,194.7,92.8,194.7,93.4z"/>
			</g>
		</g>
		<rect x="74.1" y="95.4" class="st1" width="226.3" height="89"/>
		<path class="st13" d="M299.6,100.5H74.3c-2,0-3.6-1.6-3.6-3.5l0,0c0-2,1.6-3.5,3.6-3.5h225.2c2,0,3.5,1.6,3.5,3.5l0,0
			C303.1,98.9,301.5,100.5,299.6,100.5z"/>
		<rect x="74.1" y="123.1" class="st1" width="226.3" height="34.1"/>
		<rect x="153.3" y="91.9" class="st12" width="32.6" height="1.5"/>
		<g>
			<g>
				<g>
					<path class="st0" d="M262.7,184.6L262.7,184.6c0.5,0,0.9-0.4,0.9-0.8l-1.2-54l-3.6-0.4l3.1,54.4
						C261.8,184.3,262.2,184.6,262.7,184.6z"/>
				</g>
				<g>
					<path class="st0" d="M283.9,184.6L283.9,184.6c0.5,0,0.9-0.4,0.9-0.8l-1.2-54l-3.6-0.4l3.1,54.4
						C283.1,184.3,283.5,184.6,283.9,184.6z"/>
				</g>
				<g>
					<path class="st0" d="M225.3,184.6L225.3,184.6c-0.5,0-0.9-0.4-0.9-0.8l1.2-54l3.6-0.4l-3.1,54.4
						C226.2,184.3,225.8,184.6,225.3,184.6z"/>
				</g>
				<path class="st0" d="M286.3,130.1V90.4c0-7-5.2-12.6-11.7-12.6h-26.5c-6.5,0-11.7,5.7-11.7,12.6v41.2L286.3,130.1z"/>
				<path class="st0" d="M231.7,135.6h48.8c3.2,0,5.8-2.6,5.8-5.8l0,0h-54.6V135.6z"/>
				<path class="st0" d="M225.9,135.6h38c1.6,0,2.9-1.3,2.9-2.9l0,0c0-1.6-1.3-2.9-2.9-2.9h-38c-1.6,0-2.9,1.3-2.9,2.9l0,0
					C223,134.3,224.3,135.6,225.9,135.6z"/>
			</g>
			<g>
				<path class="st14" d="M177.1,184.7h24.6c1.2-1.4,1.9-8.2,1.7-10c0-0.4-0.5-2-0.5-2s-9.1-3.8-10.2,1.3c0,0.2-0.1,0.3-0.1,0.5
					c-1.5,4.8-8,7-11.8,7.6C178.3,182.5,177.4,183.8,177.1,184.7z"/>
				<path class="st15" d="M244.2,107.9c-0.9,0-33.7,4.6-40.5,12.3c-3.4,3.8-12.3,54.1-12.3,54.1s4.1,2.9,13.3,0.2
					c0,0,12-32.5,11.5-41.7c-0.1-2.5,29.2-3.6,34.4-4.8c5.2-1.2,11.6-4.2,8.8-9.2C256.5,113.7,244.2,107.9,244.2,107.9z"/>
				<path class="st16" d="M193.5,184.7h24.6c1.2-1.4,0.8-6.8,0.6-8.5c0-0.4-0.1-0.5-0.1-0.5s-8.4-6.7-9.6-1.6c0,0.2-0.1,0.3-0.1,0.5
					c-1.5,4.8-8,7-11.8,7.6C194.7,182.5,193.8,183.8,193.5,184.7z"/>
				<path class="st17" d="M257.3,110.5c-0.9,0-40.1,2-46.9,10.4c-3.4,4.2-3.9,53-3.9,53s4.2,5.2,13.3,2.2c0,0,8.4-25.9,7.8-43.5
					c-0.1-2.8,24.4-3.1,31.1-3.7c8.5-0.7,10.7-15,7.9-20.5C263.8,103,257.3,110.5,257.3,110.5z"/>
				<path class="st3" d="M214.6,110.5l-1.7,1.1c0,0-5.5,1-7,3c0,0-3.2,5.9-1.1,5.5s2.9-2.4,5.9-2.9c3-0.5,4.9-0.5,5.5-2.6l2.6-2.5
					L214.6,110.5z"/>
				<path class="st16" d="M234.1,75.4c-0.4,1.9-0.6,3.1-0.6,3.2c1.3,2.1,2.7,12.1,0.8,16.6c-0.2,0.4,0,1.9-0.3,2.4
					c-1.1,2.2-4.1,5.4-7.2,8.4l0,0c-4.1,4-8.4,7.5-8.4,7.5s-1.2,0.5-2.6-0.2c-1-0.6-2-2.4-2-2.4c0.6-1,4.6-11.3,7.8-17.9
					c1.4-2.8,3.5-28.8,6.2-32.3c2.2-2.9,10.9-4.9,10.9-4.9s-1.7,6.7-3.2,12.8C235.1,71.2,234.5,73.5,234.1,75.4
					C234.1,75.3,234.1,75.4,234.1,75.4z"/>
				<path class="st3" d="M236.3,46.2c0,0,3.2,5.4,2.5,10.1l4.9,11.5l8.6-13.5c0,0-4.3-5.1-6-12L236.3,46.2z"/>
				<path class="st3" d="M234.9,50.5c0,0,12.1,0.6,12.3-6.6c0.3-7.2,3.5-12-5.5-12.7c-7.4-0.6-9.9,2.5-10.6,4.9
					C230.5,38.4,230.4,50.1,234.9,50.5z"/>
				<path class="st14" d="M234.4,95.3c-0.2,0.4,0,1.9-0.3,2.4c-1.1,2.2-4.1,5.4-7.2,8.4l0,0c0,0,3-14,3-20c0-4.7,2.3-9.3,4.3-10.8
					c0,0,0,0.1,0,0.1c-0.4,1.9-0.6,3.1-0.6,3.2C234.8,80.7,236.2,90.7,234.4,95.3z"/>
				<path class="st16" d="M267.5,120.1c0,0-38,0.8-36.1-9.6c0.3-1.5,1.7-8.1,1.6-12.7c0-3.4-7-28-7-28s-0.1-8.7,9.6-12.7
					c1-0.4,2.1-0.8,3.3-1.1c0.4,1.1,1.6,3.1,4.5,2.7c4.4-0.5,7.5-3.1,8.9-4.4c0.2,0,1.2,0.1,1.2,0.1c0.3,0.9-0.3,1.8-0.1,2.8
					c0.8,3.4,1.2,7,3.3,9.7c2.1,2.7,3.8,5.3,5.3,7.9c1.2,2.1,2.4,4.2,3.2,6.3c1.5,3.8,2.5,8.3,3.2,13c0.4,2.9,0.7,5.9,0.9,8.7
					C270,112.1,269.2,119.9,267.5,120.1z"/>
				<path class="st12" d="M231,43.6c0,0-2.4,9.3,1.6,10.6c4,1.3,14.6,0.4,14.6-11.1c0,0-5.6,3.3-8.2,3.2c-2.6-0.1-4.4-1.6-6.8-0.5
					C232.2,45.9,231.3,45.8,231,43.6z"/>
				<path class="st12" d="M246.7,33.4c-0.2-0.7-1.1-1.1-1.1-1.1c-6.8-3-11.8,0.2-11.8,0.2c4.2-5.6,14.2-4.3,16.3,0.7
					c3.4,8.3-2.9,9.9-2.9,9.9s-6.3-2.7-2.6-6c1.2-1.1,1.8-2.1,2-2.9l0,0l0,0C246.7,33.9,246.7,33.7,246.7,33.4z"/>
				<g>
					<path class="st12" d="M229.8,184.4l0.3-91.1c0,0,0.7-6.6,6.4-6.6c6.1,0,6.5,6.5,6.5,6.5s-0.1,0.6-0.7,0.6
						c-0.7,0-0.8-0.6-0.8-0.6s-0.3-5-5-5c-4.4,0-5,5.1-5,5.1l0.5,91L229.8,184.4z"/>
					<path class="st12" d="M233,184.4l-3.8,0l0.3-4c0,0,0-0.5,0.7-0.6c0.7,0,2.1-0.1,2.3,0.3C232.6,180.5,233,184.4,233,184.4z"/>
				</g>
				<path class="st14" d="M269.4,102.8c-13.3-0.6-24.3-11-24.3-11l23.4,2.3C269,97,269.3,100,269.4,102.8z"/>
				<path class="st3" d="M244.4,87.2c0,0-4.5-3-7.5-2c0,0-5.3,3-3.4,4.1c1.9,1,2.8,0.2,5.4,1.7s4.7,1.5,6.2,0.8L244.4,87.2z"/>
				<path class="st3" d="M212,115.5c0,0-2.7,2.7-2.3,3.1s1.3-0.4,2.7-0.8c1.4-0.4,3.5-2.2,3.7-2.7C216.3,114.7,212,115.5,212,115.5z
					"/>
				<path class="st14" d="M245.1,87.2c0,0,7.2-2.2,9.1-4.1c1.9-1.8,1.7-7.3,1.7-7.3s6.1-0.9,4.4,6.8s-1.6,7.6-1.6,7.6L245.1,87.2z"
					/>
				<path class="st16" d="M252.7,54.4c0,0,8.4,0.2,12.9,6.1c3.4,4.5,10.8,28.9,6.6,35c-3.1,4.5-21.6,2.1-27.1-3.6
					c0,0-0.5-0.7-0.7-1.6c-0.5-2,0-2.9,0-2.9s12.7-0.4,13.2-2.4c1.1-4.6-3.8-13.6-3.8-13.6S247,62,252.7,54.4z"/>
			</g>
		</g>
		<g>
			<path class="st5" d="M214.8,24.3h-53.7c-6.2,0-11.2-5-11.2-11.2l0,0c0-6.2,5-11.2,11.2-11.2h53.7c6.2,0,11.2,5,11.2,11.2l0,0
				C226,19.3,221,24.3,214.8,24.3z"/>
			<g>
				<rect x="155.6" y="6.9" class="st8" width="61" height="1.7"/>
				<rect x="155.6" y="11.5" class="st8" width="53.5" height="1.7"/>
				<rect x="155.6" y="16" class="st8" width="43.1" height="1.7"/>
			</g>
			<path class="st5" d="M217.2,24.1l-7.2,7.2c-0.2,0.2-0.6,0.2-0.8,0l-7.2-7.2L217.2,24.1L217.2,24.1z"/>
		</g>
		<path class="st18" d="M310.7,185.7H70.4c-0.4,0-0.7-0.3-0.7-0.7l0,0c0-0.4,0.3-0.7,0.7-0.7h240.3c0.4,0,0.7,0.3,0.7,0.7l0,0
			C311.4,185.4,311.1,185.7,310.7,185.7z"/>
	</g>
	<g>
		
			<image style="overflow:visible;opacity:0.1;enable-background:new    ;" width="388" height="43" xlink:href="75AAAA2C.png"  transform="matrix(1 0 0 1 0.4969 203.7005)">
		</image>
		<g>
			<g>
				<path class="st19" d="M14,232.3c-1.5,0-2.9-0.2-4.4-0.5s-2.6-0.8-3.7-1.5c-0.5-0.3-0.8-0.7-0.9-1.2c-0.1-0.5-0.1-1,0.1-1.4
					s0.5-0.7,0.9-0.9c0.4-0.2,0.9-0.1,1.4,0.2c1,0.6,2,1,3.1,1.3c1.1,0.3,2.2,0.4,3.4,0.4c1.8,0,3-0.3,3.8-0.9s1.2-1.4,1.2-2.3
					c0-0.8-0.3-1.4-0.9-1.8c-0.6-0.4-1.5-0.8-2.9-1.1l-3.7-0.8c-4.2-0.9-6.3-3-6.3-6.4c0-1.5,0.4-2.7,1.2-3.8s1.9-1.9,3.2-2.5
					c1.4-0.6,3-0.9,4.8-0.9c1.3,0,2.6,0.2,3.8,0.5s2.3,0.8,3.2,1.5c0.4,0.3,0.7,0.7,0.8,1.1s0,0.9-0.2,1.3s-0.5,0.7-0.9,0.8
					s-0.9,0-1.5-0.3c-0.8-0.5-1.6-0.8-2.5-1c-0.8-0.2-1.8-0.3-2.7-0.3c-1.5,0-2.7,0.3-3.6,1c-0.9,0.6-1.3,1.5-1.3,2.5
					c0,0.8,0.3,1.4,0.8,1.9s1.4,0.9,2.7,1.1l3.6,0.8c2.2,0.5,3.8,1.2,4.9,2.2c1.1,1,1.6,2.3,1.6,4c0,1.4-0.4,2.6-1.1,3.7
					c-0.8,1.1-1.8,1.9-3.2,2.5C17.6,232,15.9,232.3,14,232.3z"/>
				<path class="st19" d="M33.9,232.3c-4.3,0-6.5-2.1-6.5-6.4v-7.1h-1.7c-1.1,0-1.7-0.5-1.7-1.6c0-1,0.6-1.6,1.7-1.6h1.7v-3
					c0-1.4,0.7-2.1,2.1-2.1c1.4,0,2.1,0.7,2.1,2.1v3h3.5c1.1,0,1.7,0.5,1.7,1.6c0,1-0.6,1.6-1.7,1.6h-3.5v6.9c0,1.1,0.2,1.9,0.7,2.4
					s1.2,0.8,2.3,0.8c0.4,0,0.7,0,1-0.1s0.5-0.1,0.8-0.1c0.3,0,0.5,0.1,0.7,0.2s0.3,0.6,0.3,1.1c0,0.4-0.1,0.8-0.2,1.2
					c-0.1,0.3-0.4,0.6-0.8,0.7c-0.3,0.1-0.7,0.2-1.1,0.2C34.6,232.2,34.2,232.3,33.9,232.3z"/>
				<path class="st19" d="M44.6,232.3c-1.2,0-2.2-0.2-3.1-0.7s-1.6-1.1-2.2-1.9c-0.5-0.8-0.8-1.6-0.8-2.6c0-1.2,0.3-2.1,0.9-2.9
					s1.6-1.2,3-1.5c1.4-0.3,3.3-0.5,5.6-0.5h1.2v-0.7c0-1.1-0.2-1.9-0.7-2.4s-1.3-0.7-2.5-0.7c-0.6,0-1.3,0.1-2.1,0.2
					c-0.7,0.2-1.5,0.4-2.4,0.8c-0.5,0.2-1,0.3-1.3,0.1c-0.4-0.2-0.6-0.5-0.7-0.9s-0.1-0.8,0.1-1.2s0.5-0.7,1-0.9
					c1-0.4,2-0.7,2.9-0.9s1.8-0.3,2.6-0.3c2.4,0,4.1,0.5,5.3,1.6c1.1,1.1,1.7,2.8,1.7,5.1v8c0,1.4-0.6,2.1-1.9,2.1
					c-1.3,0-2-0.7-2-2.1v-0.7c-0.4,0.9-1,1.6-1.8,2.1C46.7,232,45.7,232.3,44.6,232.3z M45.4,229.4c1.1,0,2-0.4,2.7-1.1
					s1.1-1.7,1.1-2.9v-0.7h-1.1c-2.1,0-3.5,0.2-4.4,0.5c-0.8,0.3-1.2,0.9-1.2,1.8c0,0.7,0.2,1.3,0.8,1.8
					C43.8,229.2,44.5,229.4,45.4,229.4z"/>
				<path class="st19" d="M59.5,232.2c-1.4,0-2.1-0.7-2.1-2.1v-12.6c0-1.4,0.7-2.1,2-2.1s2,0.7,2,2.1v1c0.8-1.9,2.5-3,5.1-3.2
					c0.9-0.1,1.5,0.4,1.6,1.6c0.1,1.2-0.5,1.8-1.7,2l-0.7,0.1c-2.7,0.3-4.1,1.7-4.1,4.2v6.9C61.6,231.5,60.9,232.2,59.5,232.2z"/>
				<path class="st19" d="M78.9,232.3c-4.3,0-6.5-2.1-6.5-6.4v-7.1h-1.7c-1.1,0-1.7-0.5-1.7-1.6c0-1,0.6-1.6,1.7-1.6h1.7v-3
					c0-1.4,0.7-2.1,2.1-2.1c1.4,0,2.1,0.7,2.1,2.1v3h3.5c1.1,0,1.7,0.5,1.7,1.6c0,1-0.6,1.6-1.7,1.6h-3.5v6.9c0,1.1,0.2,1.9,0.7,2.4
					s1.2,0.8,2.3,0.8c0.4,0,0.7,0,1-0.1s0.5-0.1,0.8-0.1c0.3,0,0.5,0.1,0.7,0.2s0.3,0.6,0.3,1.1c0,0.4-0.1,0.8-0.2,1.2
					c-0.1,0.3-0.4,0.6-0.8,0.7c-0.3,0.1-0.7,0.2-1.1,0.2C79.6,232.2,79.2,232.3,78.9,232.3z"/>
				<path class="st19" d="M98.6,232.3c-1.2,0-2.2-0.2-3.1-0.7s-1.6-1.1-2.2-1.9c-0.5-0.8-0.8-1.6-0.8-2.6c0-1.2,0.3-2.1,0.9-2.9
					s1.6-1.2,3-1.5c1.4-0.3,3.3-0.5,5.6-0.5h1.2v-0.7c0-1.1-0.2-1.9-0.7-2.4s-1.3-0.7-2.5-0.7c-0.6,0-1.3,0.1-2.1,0.2
					c-0.7,0.2-1.5,0.4-2.4,0.8c-0.5,0.2-1,0.3-1.3,0.1c-0.4-0.2-0.6-0.5-0.7-0.9s-0.1-0.8,0.1-1.2s0.5-0.7,1-0.9c1-0.4,2-0.7,3-0.9
					s1.8-0.3,2.6-0.3c2.4,0,4.1,0.5,5.3,1.6c1.1,1.1,1.7,2.8,1.7,5.1v8c0,1.4-0.6,2.1-1.9,2.1c-1.3,0-2-0.7-2-2.1v-0.7
					c-0.4,0.9-1,1.6-1.8,2.1C100.7,232,99.7,232.3,98.6,232.3z M99.4,229.4c1.1,0,2-0.4,2.7-1.1s1.1-1.7,1.1-2.9v-0.7h-1.1
					c-2.1,0-3.5,0.2-4.4,0.5s-1.2,0.9-1.2,1.8c0,0.7,0.2,1.3,0.8,1.8C97.8,229.2,98.5,229.4,99.4,229.4z"/>
				<path class="st19" d="M117.7,232.3c-1.4,0-2.7-0.3-3.8-1s-1.9-1.7-2.5-3c-0.6-1.3-0.9-2.8-0.9-4.5c0-1.8,0.3-3.3,0.9-4.5
					s1.4-2.2,2.5-2.9c1.1-0.7,2.3-1,3.8-1c1.1,0,2.2,0.3,3.1,0.8s1.6,1.2,2.1,2v-7.8c0-1.4,0.7-2.1,2.1-2.1c1.4,0,2.1,0.7,2.1,2.1
					v19.8c0,1.4-0.7,2.1-2.1,2.1s-2.1-0.7-2.1-2.1v-0.7c-0.5,0.9-1.2,1.6-2.1,2.1S118.9,232.3,117.7,232.3z M118.9,229.1
					c1.2,0,2.2-0.5,3-1.4c0.8-0.9,1.1-2.2,1.1-4c0-1.8-0.4-3.1-1.1-4c-0.8-0.9-1.8-1.3-3-1.3s-2.2,0.4-3,1.3s-1.1,2.2-1.1,4
					c0,1.8,0.4,3.1,1.1,4C116.6,228.7,117.6,229.1,118.9,229.1z"/>
				<path class="st19" d="M137.7,232.3c-1.4,0-2.7-0.3-3.8-1s-1.9-1.7-2.5-3c-0.6-1.3-0.9-2.8-0.9-4.5c0-1.8,0.3-3.3,0.9-4.5
					s1.4-2.2,2.5-2.9c1.1-0.7,2.3-1,3.8-1c1.1,0,2.2,0.3,3.1,0.8s1.6,1.2,2.1,2v-7.8c0-1.4,0.7-2.1,2.1-2.1c1.4,0,2.1,0.7,2.1,2.1
					v19.8c0,1.4-0.7,2.1-2.1,2.1s-2.1-0.7-2.1-2.1v-0.7c-0.5,0.9-1.2,1.6-2.1,2.1S138.9,232.3,137.7,232.3z M138.8,229.1
					c1.2,0,2.2-0.5,3-1.4c0.8-0.9,1.1-2.2,1.1-4c0-1.8-0.4-3.1-1.1-4c-0.8-0.9-1.8-1.3-3-1.3s-2.2,0.4-3,1.3s-1.1,2.2-1.1,4
					c0,1.8,0.4,3.1,1.1,4C136.6,228.7,137.6,229.1,138.8,229.1z"/>
				<path class="st19" d="M153.5,212.3c-0.8,0-1.4-0.2-1.8-0.6c-0.4-0.4-0.6-0.9-0.6-1.6c0-0.7,0.2-1.2,0.6-1.6s1-0.6,1.8-0.6
					c1.6,0,2.5,0.7,2.5,2.2S155.1,212.3,153.5,212.3z M153.5,232.2c-0.7,0-1.2-0.2-1.5-0.6c-0.4-0.4-0.5-1-0.5-1.7v-12.2
					c0-1.5,0.7-2.3,2.1-2.3c1.4,0,2.1,0.8,2.1,2.3v12.2c0,0.7-0.2,1.3-0.5,1.7C154.7,232,154.2,232.2,153.5,232.2z"/>
				<path class="st19" d="M162,232.2c-1.4,0-2.1-0.7-2.1-2.1v-12.6c0-1.4,0.7-2.1,2-2.1s2,0.7,2,2.1v0.7c0.6-0.9,1.3-1.6,2.2-2.1
					c0.9-0.5,2-0.7,3.2-0.7c3.8,0,5.8,2.2,5.8,6.7v8.1c0,1.4-0.7,2.1-2.1,2.1c-1.4,0-2.1-0.7-2.1-2.1v-7.9c0-1.3-0.2-2.2-0.7-2.8
					c-0.5-0.6-1.2-0.9-2.2-0.9c-1.2,0-2.2,0.4-2.9,1.1s-1.1,1.8-1.1,3v7.3C164.1,231.5,163.4,232.2,162,232.2z"/>
				<path class="st19" d="M187,238.3c-1.2,0-2.4-0.1-3.5-0.3c-1.1-0.2-2.1-0.6-3-1c-0.5-0.3-0.9-0.6-1-1s-0.1-0.8,0.1-1.2
					c0.2-0.4,0.5-0.6,0.8-0.8s0.8-0.1,1.2,0c1,0.5,1.9,0.8,2.8,1c0.9,0.1,1.6,0.2,2.2,0.2c3,0,4.5-1.4,4.5-4.3v-2.2
					c-0.5,0.9-1.2,1.6-2.1,2.2s-2,0.8-3.2,0.8c-1.5,0-2.7-0.3-3.8-1s-1.9-1.6-2.5-2.9s-0.9-2.6-0.9-4.3s0.3-3,0.9-4.2
					s1.4-2.1,2.5-2.8s2.4-1,3.8-1c1.2,0,2.2,0.3,3.2,0.8c1,0.5,1.6,1.2,2.1,2.1v-0.7c0-0.7,0.2-1.2,0.5-1.6c0.4-0.4,0.9-0.5,1.5-0.5
					c1.4,0,2.1,0.7,2.1,2.1v12.8c0,2.6-0.7,4.6-2.1,6C191.7,237.6,189.6,238.3,187,238.3z M186.9,228.4c1.3,0,2.3-0.4,3.1-1.3
					c0.8-0.9,1.1-2.1,1.1-3.6s-0.4-2.7-1.1-3.6c-0.8-0.9-1.8-1.3-3.1-1.3c-1.3,0-2.3,0.4-3.1,1.3c-0.8,0.9-1.1,2.1-1.1,3.6
					s0.4,2.7,1.1,3.6C184.6,227.9,185.6,228.4,186.9,228.4z"/>
				<path class="st19" d="M212.7,238.2c-0.8,0-1.3-0.3-1.6-0.8c-0.3-0.6-0.3-1.2,0-1.9l1.9-4.2l-5.7-13.1c-0.3-0.7-0.3-1.4,0-1.9
					s0.9-0.8,1.8-0.8c0.5,0,0.9,0.1,1.2,0.4s0.6,0.7,0.8,1.3l4,10l4.1-10c0.2-0.6,0.5-1,0.9-1.3c0.3-0.2,0.8-0.4,1.3-0.4
					c0.7,0,1.2,0.3,1.5,0.8c0.3,0.6,0.3,1.2,0,1.9l-8.1,18.5c-0.3,0.6-0.6,1-0.9,1.3S213.2,238.2,212.7,238.2z"/>
				<path class="st19" d="M233.1,232.3c-1.7,0-3.1-0.3-4.4-1c-1.2-0.7-2.2-1.7-2.9-3s-1-2.8-1-4.5s0.3-3.2,1-4.5s1.6-2.2,2.9-2.9
					c1.2-0.7,2.7-1,4.4-1s3.1,0.3,4.4,1c1.2,0.7,2.2,1.7,2.9,2.9c0.7,1.3,1,2.8,1,4.5c0,1.7-0.3,3.2-1,4.5c-0.7,1.3-1.6,2.3-2.9,3
					C236.3,231.9,234.8,232.3,233.1,232.3z M233.1,229.1c1.2,0,2.2-0.5,3-1.4c0.8-0.9,1.1-2.2,1.1-4c0-1.8-0.4-3.1-1.1-4
					s-1.8-1.3-3-1.3c-1.2,0-2.2,0.4-3,1.3s-1.1,2.2-1.1,4c0,1.8,0.4,3.1,1.1,4C230.9,228.7,231.9,229.1,233.1,229.1z"/>
				<path class="st19" d="M250.8,232.3c-4,0-6-2.2-6-6.7v-8.1c0-1.4,0.7-2.1,2.1-2.1c1.4,0,2.1,0.7,2.1,2.1v8.1c0,1.2,0.2,2,0.7,2.6
					c0.5,0.5,1.2,0.8,2.2,0.8c1.1,0,2-0.4,2.7-1.1c0.7-0.8,1.1-1.8,1.1-3v-7.3c0-1.4,0.7-2.1,2.1-2.1c1.4,0,2.1,0.7,2.1,2.1v12.6
					c0,1.4-0.7,2.1-2,2.1s-2-0.7-2-2.1v-0.6C254.7,231.4,253,232.3,250.8,232.3z"/>
				<path class="st19" d="M266.3,232.2c-1.4,0-2.1-0.7-2.1-2.1v-12.6c0-1.4,0.7-2.1,2-2.1s2,0.7,2,2.1v1c0.8-1.9,2.5-3,5.1-3.2
					c1-0.1,1.5,0.4,1.6,1.6c0.1,1.2-0.5,1.8-1.7,2l-0.7,0.1c-2.7,0.3-4.1,1.7-4.1,4.2v6.9C268.4,231.5,267.7,232.2,266.3,232.2z"/>
				<path class="st19" d="M292.9,232.2c-1.1,0-1.9-0.6-2.5-1.8l-5.3-12.3c-0.3-0.7-0.3-1.4,0-1.9c0.3-0.5,0.9-0.8,1.8-0.8
					c0.5,0,0.9,0.1,1.2,0.4s0.6,0.7,0.8,1.3l4,10l4.1-10c0.2-0.6,0.5-1,0.9-1.3s0.8-0.4,1.3-0.4c0.7,0,1.2,0.3,1.5,0.8
					c0.3,0.6,0.3,1.2,0,1.9l-5.4,12.3C294.8,231.6,294,232.2,292.9,232.2z"/>
				<path class="st19" d="M305.9,212.3c-0.8,0-1.4-0.2-1.8-0.6c-0.4-0.4-0.6-0.9-0.6-1.6c0-0.7,0.2-1.2,0.6-1.6s1-0.6,1.8-0.6
					c1.6,0,2.5,0.7,2.5,2.2S307.5,212.3,305.9,212.3z M305.9,232.2c-0.7,0-1.2-0.2-1.5-0.6c-0.4-0.4-0.5-1-0.5-1.7v-12.2
					c0-1.5,0.7-2.3,2.1-2.3c1.4,0,2.1,0.8,2.1,2.3v12.2c0,0.7-0.2,1.3-0.5,1.7C307.1,232,306.6,232.2,305.9,232.2z"/>
				<path class="st19" d="M318.3,232.3c-1,0-2-0.1-3-0.3c-1.1-0.2-2-0.5-2.9-1c-0.5-0.3-0.8-0.6-0.9-1s-0.1-0.8,0-1.1
					c0.1-0.3,0.4-0.6,0.7-0.8s0.8-0.1,1.2,0.1c0.9,0.4,1.7,0.7,2.5,0.9c0.8,0.2,1.5,0.2,2.3,0.2c1.1,0,1.9-0.2,2.4-0.5
					s0.8-0.9,0.8-1.5c0-0.9-0.7-1.5-2.1-1.8l-3.3-0.6c-2.8-0.5-4.2-2-4.2-4.4c0-1.1,0.3-2,0.9-2.8c0.6-0.8,1.4-1.4,2.5-1.8
					s2.2-0.6,3.6-0.6c2,0,3.7,0.4,5.2,1.3c0.4,0.2,0.7,0.5,0.8,0.9s0,0.8-0.1,1.1c-0.2,0.3-0.4,0.6-0.8,0.7
					c-0.4,0.1-0.8,0.1-1.2-0.1c-0.7-0.4-1.4-0.6-2-0.8c-0.6-0.1-1.2-0.2-1.8-0.2c-1.1,0-1.9,0.2-2.4,0.6c-0.5,0.4-0.8,0.9-0.8,1.5
					c0,1,0.6,1.6,1.9,1.8l3.3,0.6c1.4,0.3,2.5,0.8,3.3,1.5s1.1,1.7,1.1,2.9c0,1.6-0.6,2.9-1.9,3.8
					C322.1,231.8,320.4,232.3,318.3,232.3z"/>
				<path class="st19" d="M330.6,212.3c-0.8,0-1.4-0.2-1.8-0.6c-0.4-0.4-0.6-0.9-0.6-1.6c0-0.7,0.2-1.2,0.6-1.6s1-0.6,1.8-0.6
					c1.6,0,2.5,0.7,2.5,2.2S332.3,212.3,330.6,212.3z M330.6,232.2c-0.7,0-1.2-0.2-1.5-0.6c-0.4-0.4-0.5-1-0.5-1.7v-12.2
					c0-1.5,0.7-2.3,2.1-2.3c1.4,0,2.1,0.8,2.1,2.3v12.2c0,0.7-0.2,1.3-0.5,1.7C331.8,232,331.3,232.2,330.6,232.2z"/>
				<path class="st19" d="M344.5,232.3c-4.3,0-6.5-2.1-6.5-6.4v-7.1h-1.7c-1.1,0-1.7-0.5-1.7-1.6c0-1,0.5-1.6,1.7-1.6h1.7v-3
					c0-1.4,0.7-2.1,2.1-2.1c1.4,0,2.1,0.7,2.1,2.1v3h3.5c1.1,0,1.7,0.5,1.7,1.6c0,1-0.6,1.6-1.7,1.6h-3.5v6.9c0,1.1,0.2,1.9,0.7,2.4
					s1.2,0.8,2.3,0.8c0.4,0,0.7,0,1-0.1s0.5-0.1,0.8-0.1c0.3,0,0.5,0.1,0.7,0.2s0.3,0.6,0.3,1.1c0,0.4-0.1,0.8-0.2,1.2
					c-0.1,0.3-0.4,0.6-0.8,0.7c-0.3,0.1-0.7,0.2-1.1,0.2C345.3,232.2,344.9,232.3,344.5,232.3z"/>
				<path class="st19" d="M357.1,232.3c-1.7,0-3.2-0.3-4.4-1c-1.2-0.7-2.2-1.7-2.9-3s-1-2.8-1-4.5s0.3-3.2,1-4.5s1.6-2.2,2.9-2.9
					c1.2-0.7,2.7-1,4.4-1s3.2,0.3,4.4,1c1.2,0.7,2.2,1.7,2.9,2.9c0.7,1.3,1,2.8,1,4.5c0,1.7-0.3,3.2-1,4.5c-0.7,1.3-1.7,2.3-2.9,3
					C360.3,231.9,358.8,232.3,357.1,232.3z M357.1,229.1c1.2,0,2.2-0.5,3-1.4c0.8-0.9,1.1-2.2,1.1-4c0-1.8-0.4-3.1-1.1-4
					s-1.8-1.3-3-1.3c-1.2,0-2.2,0.4-3,1.3s-1.1,2.2-1.1,4c0,1.8,0.4,3.1,1.1,4C354.9,228.7,355.9,229.1,357.1,229.1z"/>
				<path class="st19" d="M371,232.2c-1.4,0-2.1-0.7-2.1-2.1v-12.6c0-1.4,0.7-2.1,2-2.1c1.3,0,2,0.7,2,2.1v1c0.8-1.9,2.5-3,5.1-3.2
					c1-0.1,1.5,0.4,1.6,1.6c0.1,1.2-0.5,1.8-1.7,2l-0.7,0.1c-2.7,0.3-4.1,1.7-4.1,4.2v6.9C373.1,231.5,372.4,232.2,371,232.2z"/>
			</g>
		</g>
	</g>
</g>
</svg>
