<?xml version="1.0" encoding="utf-8"?>
<!-- Generator: Adobe Illustrator 25.4.1, SVG Export Plug-In . SVG Version: 6.00 Build 0)  -->
<svg version="1.1" xmlns="http://www.w3.org/2000/svg" xmlns:xlink="http://www.w3.org/1999/xlink" x="0px" y="0px"
	 viewBox="0 0 151.74 178.16" style="enable-background:new 0 0 151.74 178.16;" xml:space="preserve">
<style type="text/css">
	.st0{display:none;}
	.st1{display:inline;}
	.st2{fill:#F6F7FB;}
	.st3{fill:#FFFFFF;}
	.st4{fill:#041D36;}
	.st5{fill:#FF5E5E;}
	.st6{opacity:0.3;fill:#041D36;}
	.st7{clip-path:url(#SVGID_00000088829351829101484280000000300831300254457494_);}
	.st8{fill:#4872F4;}
	.st9{opacity:0.4;fill:#041D36;}
	.st10{opacity:0.1;fill:#4872F4;}
	.st11{fill:#EAECF1;}
	.st12{clip-path:url(#SVGID_00000027593492325282667840000014394194931641449363_);}
	.st13{fill:#BFBFBF;}
	.st14{filter:url(#Adobe_OpacityMaskFilter);}
	.st15{mask:url(#SVGID_00000088839799797185237130000001639882635226551173_);}
	.st16{clip-path:url(#SVGID_00000160903354815637051980000008172060259561467796_);fill:#F3F3F3;}
	.st17{opacity:0.6;fill:#041D36;}
	.st18{fill:#EDEDED;}
	.st19{filter:url(#Adobe_OpacityMaskFilter_00000083060319735001106140000000426439072466723487_);}
	.st20{mask:url(#SVGID_00000000185938604346273410000011791614180226126524_);}
	.st21{clip-path:url(#SVGID_00000087406949868028751680000005970858579861045172_);fill:#F3F3F3;}
	.st22{filter:url(#Adobe_OpacityMaskFilter_00000054958983218381422060000006616076902322877843_);}
	.st23{mask:url(#SVGID_00000011008162765090065400000001876534673023853231_);}
	.st24{clip-path:url(#SVGID_00000159461879741399353830000005191301697040753835_);fill:#F3F3F3;}
	.st25{fill:#E5EAFA;}
	.st26{fill:#D6D3D3;}
	.st27{fill:#FF5D5D;}
	.st28{opacity:0.1;fill:#EAECF1;}
	.st29{opacity:0.1;clip-path:url(#SVGID_00000176016029080596292480000007153729624416614837_);fill:#041D36;}
	.st30{opacity:0.1;clip-path:url(#SVGID_00000019664292646607537270000011542008069229390754_);fill:#041D36;}
	.st31{fill:#06BC35;}
	.st32{fill:#FF7700;}
	.st33{fill:#BEE2FC;}
	.st34{display:none;clip-path:url(#SVGID_00000142159280023901276340000012086050122606977162_);}
	.st35{display:inline;fill:#EEDECF;}
	.st36{fill:#F7EFE4;}
	.st37{fill:#343A55;}
	.st38{fill:#E6DCCD;}
	.st39{fill:none;}
	.st40{fill:#2C3451;}
	.st41{fill:#618E77;}
	.st42{fill:#75AA8D;}
	.st43{fill:#35685E;}
	.st44{fill:#D19E66;}
	.st45{fill:#758FB3;}
	.st46{fill:#91AECE;}
	.st47{fill:#829CBF;}
	.st48{display:inline;fill:#2C3451;}
	.st49{clip-path:url(#SVGID_00000142159280023901276340000012086050122606977162_);}
	.st50{fill:#DEF0FD;}
	.st51{fill:#152C3C;}
	.st52{fill:#B6DEFB;}
	.st53{fill:#0E2536;}
	.st54{fill:#2F7DB5;}
	.st55{fill:#5696C3;}
	.st56{fill:#1E5176;}
	.st57{fill:#3FA9F5;}
	.st58{fill:#76838C;}
	.st59{fill:#97A1A8;}
	.st60{fill:#849098;}
	.st61{opacity:0.62;}
	.st62{fill:none;stroke:#FF7700;stroke-miterlimit:10;}
	.st63{opacity:0.7;fill:#FF7700;}
	.st64{display:none;clip-path:url(#SVGID_00000147925638692070590390000002726912555004873367_);}
	.st65{clip-path:url(#SVGID_00000147925638692070590390000002726912555004873367_);}
	.st66{fill:none;stroke:#06BC35;stroke-miterlimit:10;}
	.st67{opacity:0.75;fill:#06BC35;}
	.st68{display:inline;fill:#FFFFFF;}
	.st69{display:none;clip-path:url(#SVGID_00000054948707314419186990000016605559404720469648_);}
	.st70{clip-path:url(#SVGID_00000054948707314419186990000016605559404720469648_);}
	.st71{display:none;clip-path:url(#SVGID_00000047019057082446584170000001952952257042330775_);}
	.st72{clip-path:url(#SVGID_00000047019057082446584170000001952952257042330775_);}
	.st73{clip-path:url(#SVGID_00000024708090925640478680000009925081721692611988_);}
	.st74{fill:none;stroke:#1A1A1A;stroke-width:0.9401;stroke-linecap:round;stroke-linejoin:round;}
	.st75{fill:none;stroke:#1A1A1A;stroke-width:0.9401;stroke-linecap:round;stroke-linejoin:round;stroke-dasharray:5.6392,5.6392;}
	.st76{fill:url(#SVGID_00000173150381722077218110000003425277315370754195_);}
	.st77{fill:#B080B0;}
	.st78{fill:#572658;}
	.st79{fill:#1A1A1A;}
	.st80{fill:#339E7E;}
	.st81{fill:none;stroke:#10663F;stroke-width:0.9401;stroke-linecap:round;stroke-linejoin:round;stroke-miterlimit:10;}
	.st82{fill:#00593B;}
	.st83{fill:none;stroke:#3DBE88;stroke-width:0.9401;stroke-linecap:round;stroke-linejoin:round;stroke-miterlimit:10;}
	.st84{fill:#127755;}
	.st85{fill:#6584C6;}
	.st86{fill:none;stroke:#1A1A1A;stroke-width:0.9401;stroke-linecap:round;stroke-linejoin:round;stroke-miterlimit:10;}
	.st87{fill:#EFEFEF;}
	.st88{fill:#CCC4CC;}
	.st89{fill:#102140;}
	.st90{fill:#152A52;}
	.st91{fill:#1A1A1A;stroke:#1A1A1A;stroke-width:0.9401;stroke-linecap:round;stroke-linejoin:round;stroke-miterlimit:10;}
	.st92{fill:#0072FF;}
	.st93{fill:#044D96;}
	.st94{fill:#FC9590;}
	.st95{fill:#3B546B;}
	.st96{fill:url(#SVGID_00000022527273825032540930000016354985141315815577_);}
	.st97{fill:url(#SVGID_00000097487064287079227920000018120902468351255433_);}
	.st98{fill:url(#SVGID_00000009565700280314350810000010976187694701011367_);}
	.st99{fill:url(#SVGID_00000004535103089999404770000012270951543153297556_);}
	.st100{fill:none;stroke:#1A1A1A;stroke-width:1.4102;stroke-linecap:round;stroke-linejoin:round;stroke-miterlimit:10;}
	.st101{fill:none;stroke:#855B87;stroke-width:0.4701;stroke-linecap:round;stroke-linejoin:round;stroke-miterlimit:10;}
	.st102{fill:none;stroke:#FFFFFF;stroke-width:0.9401;stroke-linecap:round;stroke-linejoin:round;stroke-miterlimit:10;}
	.st103{fill:#EB485C;}
	.st104{fill:url(#SVGID_00000154385053850938013350000011115410093854203787_);}
	.st105{fill:#FFCF4A;}
	.st106{fill:#DB6767;}
	.st107{fill:none;stroke:#0072FF;stroke-width:0.4701;stroke-linecap:round;stroke-linejoin:round;stroke-miterlimit:10;}
	.st108{fill:#FFB114;}
	.st109{fill:#6E696E;}
	.st110{clip-path:url(#SVGID_00000167383712434360401250000004565683873679302581_);}
	.st111{fill:#B3B3B3;}
	.st112{fill:#FA9F78;}
	.st113{fill:#F0DDD3;}
	.st114{fill:#C96547;}
	.st115{fill:#808080;}
	.st116{fill:#BF6044;}
	.st117{fill:#333333;}
	.st118{fill:#C7A695;}
	.st119{clip-path:url(#SVGID_00000063634589988950499840000008179278652825819802_);}
	.st120{display:none;fill:#F6F7FB;}
	.st121{fill:#BFD1FF;}
	.st122{fill:url(#SVGID_00000013170682378046761220000016518102372569501354_);}
	.st123{display:inline;opacity:0.38;fill:url(#SVGID_00000000906987686027762100000013511469817173653673_);}
	.st124{display:inline;fill:#FFC800;}
	.st125{display:inline;fill:#608FFF;}
	.st126{fill:#203E87;}
	.st127{display:inline;fill:url(#SVGID_00000160909353377172015800000006244270441962327171_);}
	.st128{display:inline;fill:#FF9C91;}
	.st129{fill:#5D9454;}
	.st130{fill:#71B366;}
	.st131{fill:none;stroke:#2E5E26;stroke-width:0.7398;stroke-miterlimit:10;}
	.st132{fill:#FF9C91;}
	.st133{fill:url(#SVGID_00000062881333590590915350000016578569807043818426_);}
	.st134{fill:#608FFF;}
	.st135{fill:url(#SVGID_00000123409432464491691750000005902819239790068414_);}
	.st136{fill:url(#SVGID_00000113337276920394962870000006970858079270108849_);}
	.st137{fill:#3465D9;}
	.st138{display:inline;opacity:0.38;fill:url(#SVGID_00000153667713417717754850000008542417661092659371_);}
	.st139{display:inline;fill:#3465D9;}
	.st140{display:inline;fill:#FF5E00;}
	.st141{display:inline;fill:url(#SVGID_00000044890071777742538340000004968976229453232291_);}
	.st142{opacity:0.3;fill:url(#SVGID_00000022519036839784599920000010827623585426923906_);}
	.st143{fill:#FFC800;}
	.st144{fill:#FF5E00;}
	.st145{display:inline;fill:none;stroke:#FF5E00;stroke-linecap:round;stroke-linejoin:round;stroke-miterlimit:10;}
	.st146{opacity:0.3;fill:url(#SVGID_00000097476675780311990210000000168554057002179775_);}
	.st147{fill:#929292;}
	.st148{fill:url(#SVGID_00000173154963956477078840000014586224846350933388_);}
	.st149{fill:#DFDFDF;}
	.st150{fill:url(#SVGID_00000091708787651641346540000010310285629703020983_);}
	.st151{fill:url(#SVGID_00000152972931979221816330000008446270323553335691_);}
	.st152{fill:url(#SVGID_00000163764361867441863680000017256102135211035045_);}
	.st153{fill:url(#SVGID_00000155124853154074494560000007953210913940295077_);}
	.st154{fill:url(#SVGID_00000152235665694900744340000006372640653258596273_);}
	.st155{fill:url(#SVGID_00000094608290873431087660000017799690559554976130_);}
	.st156{fill:url(#SVGID_00000014636055164653493820000001037822088483976886_);}
	.st157{fill:url(#SVGID_00000116957968595871211820000013662174612361334920_);}
	.st158{fill:url(#SVGID_00000174583320736538147470000011094266854839988608_);}
	.st159{opacity:0.4;}
	.st160{fill:#3A3A5B;}
	.st161{fill:#2559C1;}
	.st162{fill:#80B4FF;}
	.st163{fill:#7398E6;}
	.st164{fill:#ECF1F9;}
	.st165{fill:#2C2C2C;}
	.st166{fill:url(#SVGID_00000041995192219953376820000004413710911671202973_);}
	.st167{fill:url(#SVGID_00000044165954207837882950000002257312305426438810_);}
	.st168{fill:none;stroke:#203E87;stroke-width:1.1172;stroke-miterlimit:10;}
	.st169{fill:#FF4A36;}
	.st170{opacity:0.3;fill:url(#SVGID_00000076570160886604580950000001635835262469831582_);}
	.st171{fill:url(#SVGID_00000021802252564317387020000015963726994317832858_);}
	.st172{opacity:0.3;fill:url(#SVGID_00000075136751816663415170000006371452693892865971_);}
	.st173{fill:url(#SVGID_00000162327165516078665680000004196652149062817210_);}
	.st174{fill:url(#SVGID_00000183245678624228432930000011630744404057887892_);}
	.st175{fill:url(#SVGID_00000023280152838083152460000007591393307250739108_);}
	.st176{fill:#747E96;}
	.st177{fill:url(#SVGID_00000072254395047756055610000004204111820123638915_);}
	.st178{display:inline;opacity:0.3;fill:url(#SVGID_00000005947079623577094370000009370395470508305855_);}
	.st179{display:inline;opacity:0.3;}
	.st180{fill:url(#SVGID_00000109712972715183609960000000069962371763403659_);}
	.st181{fill:none;stroke:#FFFFFF;stroke-width:1.2764;stroke-miterlimit:10;}
	.st182{display:inline;opacity:0.3;fill:url(#SVGID_00000012455261252179123250000002596538294218136510_);}
	.st183{fill:#182F66;}
	.st184{display:inline;fill:#203E87;}
	.st185{opacity:0.3;}
	.st186{opacity:0.3;fill:url(#SVGID_00000011747853447942819790000000723582754498480782_);}
	.st187{fill:#55A7FA;}
	.st188{fill:#E8E8DF;}
	.st189{fill:#D8D6C9;}
	.st190{fill:#F2D45B;}
	.st191{fill:#149F84;}
	.st192{fill:#26B899;}
	.st193{fill:#4EB9A1;}
	.st194{fill:#FEFEFE;}
	.st195{fill:#FE2116;}
	.st196{fill:#7F110B;}
	.st197{fill:#92130D;}
	.st198{fill:#D71C13;}
	.st199{fill:#F3F3F3;}
	.st200{fill:#F4F4F4;}
	.st201{clip-path:url(#SVGID_00000119811544149061313050000005625220535287896505_);}
	.st202{fill:url(#SVGID_00000038408401152470378160000000907093568802669973_);}
	.st203{fill:url(#SVGID_00000127026078656116897720000004922591982357947578_);}
	.st204{opacity:0.3;fill:url(#SVGID_00000059300037102804851190000002063781741570035131_);}
	.st205{fill:url(#SVGID_00000119092515853545701040000009487410506648773762_);}
	.st206{opacity:0.3;fill:url(#SVGID_00000078047095952831720170000010676914269746276744_);}
	.st207{fill:url(#SVGID_00000002366473375961551370000015263318968470848150_);}
	.st208{fill:url(#SVGID_00000127723278377572616770000015485077739523846054_);}
	.st209{fill:url(#SVGID_00000068658507261577851630000007124516271319539077_);}
	.st210{fill:url(#SVGID_00000002375622151747534060000011671571372930139045_);}
	.st211{display:inline;opacity:0.3;fill:url(#SVGID_00000068646315352197431330000006520735734767287949_);}
	.st212{fill:url(#SVGID_00000080891490187596125180000007605150898089203608_);}
	.st213{display:inline;opacity:0.3;fill:url(#SVGID_00000163041531780388133610000010428432335868479666_);}
	.st214{opacity:0.3;fill:url(#SVGID_00000163062813816228516980000006719350539396676026_);}
	.st215{clip-path:url(#SVGID_00000040538017134454705510000007611787770729248695_);}
	.st216{fill:#0F1216;}
	.st217{fill:#ED6343;}
	.st218{fill:#657283;}
	.st219{fill:#026EB7;}
	.st220{fill:#03A1FC;}
	.st221{fill:#364154;}
	.st222{fill:#131F2D;}
	.st223{fill:#525354;}
	.st224{fill:#275BC4;}
	.st225{fill:#051023;}
	.st226{fill:#2D3554;}
	.st227{clip-path:url(#SVGID_00000011714185437778271590000011333652173430558615_);}
	.st228{fill:url(#SVGID_00000182517159673099952170000006256643615948927884_);}
	.st229{fill:url(#SVGID_00000139286501604160289790000008749835650874910635_);}
	.st230{opacity:0.46;fill:#FFFFFF;}
	.st231{fill:#FFC590;}
	.st232{fill:url(#SVGID_00000103259388603805118800000003176404357019181975_);}
	.st233{fill:url(#SVGID_00000016040726233423677830000010694386422365460663_);}
	.st234{fill:url(#SVGID_00000102534705575205443410000001561751584019579828_);}
	.st235{fill:url(#SVGID_00000112634427924916826650000017279469524737349792_);}
	.st236{fill:url(#SVGID_00000039096802307851621490000006002849244524601247_);}
	.st237{fill:url(#SVGID_00000129926132872804335730000002026517673147335575_);}
	.st238{fill:url(#SVGID_00000073681941188118891600000013593772265703698560_);}
	.st239{fill:url(#SVGID_00000150822682147588180850000015680850363126589102_);}
	.st240{fill:#FFFFFE;}
	.st241{fill:url(#SVGID_00000085251414957183756290000006096483801819976110_);}
	.st242{fill:none;stroke:#FFFFFF;stroke-miterlimit:10;stroke-dasharray:5.0176,5.0176;}
	.st243{fill:#5E519D;}
	.st244{fill:url(#SVGID_00000176028470149634414430000013043353518672132531_);}
	.st245{fill:url(#SVGID_00000067938158335003776650000016745465938080067224_);}
	.st246{filter:url(#Adobe_OpacityMaskFilter_00000006672793242774369950000001417991683745818249_);}
	.st247{mask:url(#SVGID_00000152242721500872826470000007251619868828929422_);}
	.st248{fill:#150A2D;}
	.st249{fill:none;stroke:#FFFFFF;stroke-miterlimit:10;}
	.st250{fill:#FDB3BE;}
	.st251{fill:none;stroke:#003684;stroke-miterlimit:10;}
	.st252{fill:none;stroke:#004F9E;stroke-miterlimit:10;}
	.st253{clip-path:url(#SVGID_00000138543735577806718670000015228495813946181275_);}
	.st254{fill:#ECECEC;}
	.st255{fill:#E1E1E1;}
	.st256{fill:#E7E7E7;}
	.st257{fill:#F0F0F0;}
	.st258{fill:#FAFAFA;}
	.st259{opacity:0.5;fill:#E1E1E1;}
	.st260{fill:#F5F5F5;}
	.st261{opacity:0.8;fill:#FFFFFF;}
	.st262{opacity:0.3;fill:#007CFF;}
	.st263{fill:#CE5B51;}
	.st264{fill:#CD5B51;}
	.st265{fill:#007CFF;}
	.st266{fill:#1A2E35;}
	.st267{fill:#BA221F;}
	.st268{fill:#006AD3;}
	.st269{opacity:0.2;}
	.st270{display:none;clip-path:url(#SVGID_00000071519343172434641730000016004640860275257255_);}
	.st271{clip-path:url(#SVGID_00000071519343172434641730000016004640860275257255_);}
	.st272{display:none;clip-path:url(#SVGID_00000078015977811958720160000001627867175577531780_);}
	.st273{clip-path:url(#SVGID_00000078015977811958720160000001627867175577531780_);}
	.st274{fill:#071D34;}
	.st275{fill:#1E8ECD;}
	.st276{fill:url(#SVGID_00000106826682181925133920000012587611744577124522_);}
	.st277{fill:url(#SVGID_00000152248357026352881590000000887874137714475685_);}
	.st278{fill:#20C3C5;}
	.st279{fill:#C8E5FC;}
	.st280{fill:#9F9FF4;}
	.st281{fill:#1E3C72;}
	.st282{fill:url(#SVGID_00000177443699186569120960000014586974243167902906_);}
	.st283{fill:url(#SVGID_00000139260541251348995800000014790322082368115123_);}
	.st284{fill:url(#SVGID_00000111908797152215964180000009189588763450559890_);}
	.st285{fill:#4DF4F4;}
	.st286{fill:url(#SVGID_00000094605719117957854630000013938711338403008702_);}
	.st287{fill:none;stroke:#1E8ECD;stroke-width:6;}
	.st288{fill:#1C92D2;}
	.st289{fill:#2A5298;}
	.st290{fill:url(#SVGID_00000036221216913217693670000008499742581311151771_);}
	.st291{fill:url(#SVGID_00000145759267363636420770000011771604172075606151_);}
	.st292{fill:#007BFF;}
	.st293{fill:#000046;}
	.st294{fill:url(#SVGID_00000010274740562595293060000008099068263811754923_);}
	.st295{fill:none;stroke:#071D34;stroke-width:3;}
	.st296{fill:#F2FCFE;}
	.st297{fill:#00C6FF;}
	.st298{fill:url(#SVGID_00000150814933061228568870000008491545192039912124_);}
	.st299{fill:url(#SVGID_00000040552700571057436430000005798568778536361113_);}
	.st300{fill:#47A5FF;}
	.st301{fill:#1CB5E0;}
	.st302{fill:#FF3F54;}
	.st303{fill:#1DAEEF;}
	.st304{fill:#56CCF2;}
	.st305{fill:url(#SVGID_00000036216567473002757720000009605408693815462046_);}
	.st306{fill:#231F20;}
	.st307{fill:url(#SVGID_00000023252399054305175740000007401713989433403308_);}
	.st308{fill:#FD5668;}
	.st309{fill:#2F80ED;}
	.st310{fill:url(#SVGID_00000152953844683435478840000017008570367369016205_);}
	.st311{fill:#228FCD;}
	.st312{fill:url(#SVGID_00000014592335978086050180000002107152524306601641_);}
	.st313{fill:#1565C0;}
	.st314{fill:#2196F3;}
	.st315{fill:#0090D8;}
	.st316{fill:#4CDD75;}
	.st317{fill:url(#SVGID_00000040550898513679559640000007124691186667815863_);}
	.st318{fill:#0D47A1;}
	.st319{fill:#6DD5FA;}
	.st320{fill:url(#SVGID_00000153681936693253867130000001311036657008659894_);}
	.st321{fill:url(#SVGID_00000163757708625849791930000011059567734083273370_);}
	.st322{fill:#2980B9;}
	.st323{fill:#D4ECF9;}
	.st324{fill:url(#SVGID_00000018197713685693214660000002739614132514435748_);}
	.st325{fill:#D9F3FC;}
	.st326{fill:url(#SVGID_00000097462447497138695040000010674963404740341164_);}
	.st327{fill:#A7E0F9;}
	.st328{fill:#FD89A3;}
	.st329{fill:#FFCD8C;}
	.st330{fill:url(#SVGID_00000028317870308297326140000009266714718151111300_);}
	.st331{fill:#6991FB;}
	.st332{fill:#78B5FF;}
	.st333{fill:url(#SVGID_00000061473349548870060830000005813999435087480725_);}
	.st334{fill:url(#SVGID_00000166673629392267479240000003443990710408231843_);}
	.st335{fill:url(#SVGID_00000098912833893209708250000001815363459480784292_);}
	.st336{fill:#711DE1;}
	.st337{fill:#1B4EBB;}
	.st338{fill:#FF8E8B;}
	.st339{fill:url(#SVGID_00000127741345687465775300000008767201631439276193_);}
	.st340{fill:#6A8FFF;}
	.st341{fill:#7DB9FF;}
	.st342{fill:url(#SVGID_00000171699482834528801330000003930491260195873433_);}
	.st343{fill:#FA85A1;}
	.st344{fill:#FFD496;}
	.st345{fill:#FF6B7A;}
	.st346{fill:#BBDEFB;}
	.st347{fill:#90CAF9;}
	.st348{fill:#64B5F6;}
	.st349{fill:#42A5F5;}
	.st350{fill:#1E88E5;}
	.st351{fill:#1976D2;}
	.st352{fill:#E3F2FD;}
	.st353{fill:#EEF1F9;}
	.st354{fill:#AEB8D1;}
	.st355{fill:#D6DDEC;}
	.st356{fill:#859EFE;}
	.st357{fill:#42C56E;}
	.st358{fill:#373842;}
	.st359{fill:#515262;}
	.st360{fill:#53DA7D;}
	.st361{fill:#FE6465;}
	.st362{fill:#FE8CBA;}
	.st363{fill:#FEBE6E;}
	.st364{fill:#EFF2FA;}
	.st365{fill:#D7DEED;}
	.st366{fill:#AFB9D2;}
	.st367{fill:#42C66E;}
	.st368{fill:#859FFF;}
	.st369{fill:#53DB7D;}
	.st370{fill:#FFBF6E;}
	.st371{fill:#FF8DBB;}
	.st372{fill:#FF6465;}
	.st373{fill:#4AA4FE;}
	.st374{fill:#1C6CAF;}
	.st375{fill:#C7E3F9;}
	.st376{fill:#F9F9F9;}
	.st377{fill:#383838;}
</style>
<g id="Layer_1" class="st0">
</g>
<g id="Layer_2">
	<g>
		<rect x="17.37" y="104.36" class="st364" width="13.56" height="13.56"/>
		<rect x="17.37" y="142.24" class="st364" width="13.56" height="13.56"/>
		<rect x="17.37" y="66.49" class="st364" width="13.56" height="13.56"/>
		<path class="st364" d="M138.58,178.03h-13.24v0.01h-72.6v-25.42h-3.45c-1.61,0-2.92-1.31-2.92-2.92l0,0
			c0-1.61,1.31-2.92,2.92-2.92h3.45v-32.48h-3.45c-1.61,0-2.92-1.31-2.92-2.92v0c0-1.61,1.31-2.92,2.92-2.92h3.45V76.52h-3.45
			c-1.61,0-2.92-1.31-2.92-2.92c0-1.61,1.31-2.92,2.92-2.92h3.45V45.15h-3.45c-1.61,0-2.92-1.31-2.92-2.92
			c0-1.61,1.31-2.92,2.92-2.92h3.45v-8c0-7.91,6.41-14.32,14.32-14.32h58.27V13.2c0-6.21,4.29-11.42,10.08-12.83H16.1
			C7.21,0.38,0,7.59,0,16.48v148.33c0,7.37,5.98,13.35,13.35,13.35h125.03c3.93,0,7.46-1.7,9.91-4.4
			C145.87,176.38,142.42,178.03,138.58,178.03z M15.21,37.36c1.14-1.23,3.06-1.31,4.29-0.17l2.79,2.59l6.51-6.35
			c1.2-1.17,3.12-1.15,4.3,0.05c1.17,1.2,1.15,3.12-0.05,4.3l-8.57,8.36C23.88,46.72,23.12,47,22.35,47c-0.74,0-1.48-0.27-2.06-0.81
			l-4.91-4.55C14.14,40.51,14.07,38.59,15.21,37.36z M36.1,155.89c0,2.8-2.27,5.07-5.07,5.07H17.28c-2.8,0-5.07-2.27-5.07-5.07
			v-13.75c0-2.8,2.27-5.07,5.07-5.07h13.75c2.8,0,5.07,2.27,5.07,5.07V155.89z M36.1,118.02c0,2.8-2.27,5.07-5.07,5.07H17.28
			c-2.8,0-5.07-2.27-5.07-5.07v-13.75c0-2.8,2.27-5.07,5.07-5.07h13.75c2.8,0,5.07,2.27,5.07,5.07V118.02z M36.1,80.14
			c0,2.8-2.27,5.07-5.07,5.07H17.28c-2.8,0-5.07-2.27-5.07-5.07V66.4c0-2.8,2.27-5.07,5.07-5.07h13.75c2.8,0,5.07,2.27,5.07,5.07
			V80.14z"/>
		<path class="st364" d="M52.74,31.3v8h60.68c1.61,0,2.92,1.31,2.92,2.92c0,1.61-1.31,2.92-2.92,2.92H52.74v25.54h60.68
			c1.61,0,2.92,1.31,2.92,2.92c0,1.61-1.31,2.92-2.92,2.92H52.74v31.93h60.68c1.61,0,2.92,1.31,2.92,2.92v0
			c0,1.61-1.31,2.92-2.92,2.92H52.74v32.48h60.68c1.61,0,2.92,1.31,2.92,2.92l0,0c0,1.61-1.31,2.92-2.92,2.92H52.74v25.42h72.6
			v-0.01h0V16.98H67.06C59.15,16.98,52.74,23.39,52.74,31.3z"/>
		<path class="st366" d="M151.74,13.2c0-7.29-5.91-13.2-13.2-13.2h0c-1.08,0-2.12,0.13-3.13,0.38h2.96
			c7.37,0,13.35,5.98,13.35,13.35v151.09c0,3.44-1.3,6.57-3.44,8.94c2.15-2.34,3.46-5.46,3.46-8.89V13.2z"/>
		<path class="st366" d="M151.72,13.72c0-7.37-5.98-13.35-13.35-13.35h-2.96c-5.78,1.4-10.08,6.61-10.08,12.83v3.78h0v161.04h13.24
			c3.84,0,7.3-1.65,9.7-4.27c2.14-2.37,3.44-5.5,3.44-8.94V13.72z"/>
		<rect x="125.33" y="16.98" class="st366" width="0" height="161.04"/>
		<path class="st367" d="M20.29,46.2c0.58,0.54,1.32,0.81,2.06,0.81c0.77,0,1.53-0.29,2.12-0.86l8.57-8.36
			c1.2-1.17,1.22-3.1,0.05-4.3c-1.17-1.2-3.1-1.23-4.3-0.05l-6.51,6.35l-2.79-2.59c-1.23-1.14-3.15-1.07-4.29,0.17
			c-1.14,1.23-1.07,3.15,0.17,4.29L20.29,46.2z"/>
		<path class="st368" d="M31.03,61.33H17.28c-2.8,0-5.07,2.27-5.07,5.07v13.75c0,2.8,2.27,5.07,5.07,5.07h13.75
			c2.8,0,5.07-2.27,5.07-5.07V66.4C36.1,63.6,33.83,61.33,31.03,61.33z M30.94,80.05H17.37V66.49h13.56V80.05z"/>
		<path class="st368" d="M31.03,99.2H17.28c-2.8,0-5.07,2.27-5.07,5.07v13.75c0,2.8,2.27,5.07,5.07,5.07h13.75
			c2.8,0,5.07-2.27,5.07-5.07v-13.75C36.1,101.47,33.83,99.2,31.03,99.2z M30.94,117.93H17.37v-13.56h13.56V117.93z"/>
		<path class="st368" d="M31.03,137.08H17.28c-2.8,0-5.07,2.27-5.07,5.07v13.75c0,2.8,2.27,5.07,5.07,5.07h13.75
			c2.8,0,5.07-2.27,5.07-5.07v-13.75C36.1,139.35,33.83,137.08,31.03,137.08z M30.94,155.8H17.37v-13.56h13.56V155.8z"/>
		<path class="st366" d="M49.29,39.31c-1.61,0-2.92,1.31-2.92,2.92c0,1.61,1.31,2.92,2.92,2.92h3.45v-5.84H49.29z"/>
		<path class="st366" d="M116.34,42.23c0-1.61-1.31-2.92-2.92-2.92H52.74v5.84h60.68C115.03,45.15,116.34,43.84,116.34,42.23z"/>
		<path class="st366" d="M49.29,70.68c-1.61,0-2.92,1.31-2.92,2.92c0,1.61,1.31,2.92,2.92,2.92h3.45v-5.84H49.29z"/>
		<path class="st366" d="M116.34,73.6c0-1.61-1.31-2.92-2.92-2.92H52.74v5.84h60.68C115.03,76.52,116.34,75.22,116.34,73.6z"/>
		<path class="st366" d="M49.29,108.45c-1.61,0-2.92,1.31-2.92,2.92v0c0,1.61,1.31,2.92,2.92,2.92h3.45v-5.84H49.29z"/>
		<path class="st366" d="M116.34,111.37L116.34,111.37c0-1.61-1.31-2.92-2.92-2.92H52.74v5.84h60.68
			C115.03,114.29,116.34,112.98,116.34,111.37z"/>
		<path class="st366" d="M49.29,146.77c-1.61,0-2.92,1.31-2.92,2.92l0,0c0,1.61,1.31,2.92,2.92,2.92h3.45v-5.84H49.29z"/>
		<path class="st366" d="M116.34,149.69L116.34,149.69c0-1.61-1.31-2.92-2.92-2.92H52.74v5.84h60.68
			C115.03,152.61,116.34,151.31,116.34,149.69z"/>
	</g>
</g>
</svg>
