<?xml version="1.0" encoding="utf-8"?>
<!-- Generator: Adobe Illustrator 25.4.1, SVG Export Plug-In . SVG Version: 6.00 Build 0)  -->
<svg version="1.1" xmlns="http://www.w3.org/2000/svg" xmlns:xlink="http://www.w3.org/1999/xlink" x="0px" y="0px"
	 viewBox="0 0 176.14 178.16" style="enable-background:new 0 0 176.14 178.16;" xml:space="preserve">
<style type="text/css">
	.st0{display:none;}
	.st1{display:inline;}
	.st2{fill:#F6F7FB;}
	.st3{fill:#FFFFFF;}
	.st4{fill:#041D36;}
	.st5{fill:#FF5E5E;}
	.st6{opacity:0.3;fill:#041D36;}
	.st7{clip-path:url(#SVGID_00000046302483580043626380000017351489788509235900_);}
	.st8{fill:#4872F4;}
	.st9{opacity:0.4;fill:#041D36;}
	.st10{opacity:0.1;fill:#4872F4;}
	.st11{fill:#EAECF1;}
	.st12{clip-path:url(#SVGID_00000097486883437689238060000015825209941969435800_);}
	.st13{fill:#BFBFBF;}
	.st14{filter:url(#Adobe_OpacityMaskFilter);}
	.st15{mask:url(#SVGID_00000023986242944238582510000015449618610335918494_);}
	.st16{clip-path:url(#SVGID_00000127756950313521428540000000212805409449373344_);fill:#F3F3F3;}
	.st17{opacity:0.6;fill:#041D36;}
	.st18{fill:#EDEDED;}
	.st19{filter:url(#Adobe_OpacityMaskFilter_00000009551834707272952950000011659151606967908796_);}
	.st20{mask:url(#SVGID_00000080209030311678876890000005764888840100033422_);}
	.st21{clip-path:url(#SVGID_00000027586375777576100380000012080678069973605259_);fill:#F3F3F3;}
	.st22{filter:url(#Adobe_OpacityMaskFilter_00000083792667604870385800000016332075155125096078_);}
	.st23{mask:url(#SVGID_00000136410211349740447820000000229245373459121282_);}
	.st24{clip-path:url(#SVGID_00000036237331551128801080000004896922552073684357_);fill:#F3F3F3;}
	.st25{fill:#E5EAFA;}
	.st26{fill:#D6D3D3;}
	.st27{fill:#FF5D5D;}
	.st28{opacity:0.1;fill:#EAECF1;}
	.st29{opacity:0.1;clip-path:url(#SVGID_00000173853740564514708770000017363303965996701102_);fill:#041D36;}
	.st30{opacity:0.1;clip-path:url(#SVGID_00000178202461334122749300000017030524654195211681_);fill:#041D36;}
	.st31{fill:#06BC35;}
	.st32{fill:#FF7700;}
	.st33{fill:#BEE2FC;}
	.st34{display:none;clip-path:url(#SVGID_00000100367558208729872960000001961812143583905153_);}
	.st35{display:inline;fill:#EEDECF;}
	.st36{fill:#F7EFE4;}
	.st37{fill:#343A55;}
	.st38{fill:#E6DCCD;}
	.st39{fill:none;}
	.st40{fill:#2C3451;}
	.st41{fill:#618E77;}
	.st42{fill:#75AA8D;}
	.st43{fill:#35685E;}
	.st44{fill:#D19E66;}
	.st45{fill:#758FB3;}
	.st46{fill:#91AECE;}
	.st47{fill:#829CBF;}
	.st48{display:inline;fill:#2C3451;}
	.st49{clip-path:url(#SVGID_00000100367558208729872960000001961812143583905153_);}
	.st50{fill:#DEF0FD;}
	.st51{fill:#152C3C;}
	.st52{fill:#B6DEFB;}
	.st53{fill:#0E2536;}
	.st54{fill:#2F7DB5;}
	.st55{fill:#5696C3;}
	.st56{fill:#1E5176;}
	.st57{fill:#3FA9F5;}
	.st58{fill:#76838C;}
	.st59{fill:#97A1A8;}
	.st60{fill:#849098;}
	.st61{opacity:0.62;}
	.st62{fill:none;stroke:#FF7700;stroke-miterlimit:10;}
	.st63{opacity:0.7;fill:#FF7700;}
	.st64{display:none;clip-path:url(#SVGID_00000031924598150492124920000016915634568733203117_);}
	.st65{clip-path:url(#SVGID_00000031924598150492124920000016915634568733203117_);}
	.st66{fill:none;stroke:#06BC35;stroke-miterlimit:10;}
	.st67{opacity:0.75;fill:#06BC35;}
	.st68{display:inline;fill:#FFFFFF;}
	.st69{display:none;clip-path:url(#SVGID_00000005950793855434141210000012081146923098696614_);}
	.st70{clip-path:url(#SVGID_00000005950793855434141210000012081146923098696614_);}
	.st71{display:none;clip-path:url(#SVGID_00000074405972930362749010000018318962148442530448_);}
	.st72{clip-path:url(#SVGID_00000074405972930362749010000018318962148442530448_);}
	.st73{clip-path:url(#SVGID_00000103232469124864617700000012074916827702969492_);}
	.st74{fill:none;stroke:#1A1A1A;stroke-width:0.9401;stroke-linecap:round;stroke-linejoin:round;}
	.st75{fill:none;stroke:#1A1A1A;stroke-width:0.9401;stroke-linecap:round;stroke-linejoin:round;stroke-dasharray:5.6392,5.6392;}
	.st76{fill:url(#SVGID_00000154390910767561817600000018216506440607601066_);}
	.st77{fill:#B080B0;}
	.st78{fill:#572658;}
	.st79{fill:#1A1A1A;}
	.st80{fill:#339E7E;}
	.st81{fill:none;stroke:#10663F;stroke-width:0.9401;stroke-linecap:round;stroke-linejoin:round;stroke-miterlimit:10;}
	.st82{fill:#00593B;}
	.st83{fill:none;stroke:#3DBE88;stroke-width:0.9401;stroke-linecap:round;stroke-linejoin:round;stroke-miterlimit:10;}
	.st84{fill:#127755;}
	.st85{fill:#6584C6;}
	.st86{fill:none;stroke:#1A1A1A;stroke-width:0.9401;stroke-linecap:round;stroke-linejoin:round;stroke-miterlimit:10;}
	.st87{fill:#EFEFEF;}
	.st88{fill:#CCC4CC;}
	.st89{fill:#102140;}
	.st90{fill:#152A52;}
	.st91{fill:#1A1A1A;stroke:#1A1A1A;stroke-width:0.9401;stroke-linecap:round;stroke-linejoin:round;stroke-miterlimit:10;}
	.st92{fill:#0072FF;}
	.st93{fill:#044D96;}
	.st94{fill:#FC9590;}
	.st95{fill:#3B546B;}
	.st96{fill:url(#SVGID_00000067935675617786446180000018335731017409410747_);}
	.st97{fill:url(#SVGID_00000134932768739345963120000010909995343078787773_);}
	.st98{fill:url(#SVGID_00000084511932533603296830000013334891983921956525_);}
	.st99{fill:url(#SVGID_00000093162839781585279240000001810554556372428477_);}
	.st100{fill:none;stroke:#1A1A1A;stroke-width:1.4102;stroke-linecap:round;stroke-linejoin:round;stroke-miterlimit:10;}
	.st101{fill:none;stroke:#855B87;stroke-width:0.4701;stroke-linecap:round;stroke-linejoin:round;stroke-miterlimit:10;}
	.st102{fill:none;stroke:#FFFFFF;stroke-width:0.9401;stroke-linecap:round;stroke-linejoin:round;stroke-miterlimit:10;}
	.st103{fill:#EB485C;}
	.st104{fill:url(#SVGID_00000160879925317303928960000011257020507555300747_);}
	.st105{fill:#FFCF4A;}
	.st106{fill:#DB6767;}
	.st107{fill:none;stroke:#0072FF;stroke-width:0.4701;stroke-linecap:round;stroke-linejoin:round;stroke-miterlimit:10;}
	.st108{fill:#FFB114;}
	.st109{fill:#6E696E;}
	.st110{clip-path:url(#SVGID_00000039117751007554783910000011133587322293140874_);}
	.st111{fill:#B3B3B3;}
	.st112{fill:#FA9F78;}
	.st113{fill:#F0DDD3;}
	.st114{fill:#C96547;}
	.st115{fill:#808080;}
	.st116{fill:#BF6044;}
	.st117{fill:#333333;}
	.st118{fill:#C7A695;}
	.st119{clip-path:url(#SVGID_00000093892883753217930750000001444291254042166441_);}
	.st120{display:none;fill:#F6F7FB;}
	.st121{fill:#BFD1FF;}
	.st122{fill:url(#SVGID_00000081617160723528723530000007378968844869843390_);}
	.st123{display:inline;opacity:0.38;fill:url(#SVGID_00000029006247876268214200000003738893502106179515_);}
	.st124{display:inline;fill:#FFC800;}
	.st125{display:inline;fill:#608FFF;}
	.st126{fill:#203E87;}
	.st127{display:inline;fill:url(#SVGID_00000172399776175310856920000007943326663821323957_);}
	.st128{display:inline;fill:#FF9C91;}
	.st129{fill:#5D9454;}
	.st130{fill:#71B366;}
	.st131{fill:none;stroke:#2E5E26;stroke-width:0.7398;stroke-miterlimit:10;}
	.st132{fill:#FF9C91;}
	.st133{fill:url(#SVGID_00000098938903841926474200000001715758483755723684_);}
	.st134{fill:#608FFF;}
	.st135{fill:url(#SVGID_00000049219449996626657350000007469140939032013476_);}
	.st136{fill:url(#SVGID_00000044160326515017444360000005725107240413913485_);}
	.st137{fill:#3465D9;}
	.st138{display:inline;opacity:0.38;fill:url(#SVGID_00000158739441839461523960000011921930598283243928_);}
	.st139{display:inline;fill:#3465D9;}
	.st140{display:inline;fill:#FF5E00;}
	.st141{display:inline;fill:url(#SVGID_00000041974819247431483550000001017429731026379905_);}
	.st142{opacity:0.3;fill:url(#SVGID_00000020391289980181664760000006902599621655026599_);}
	.st143{fill:#FFC800;}
	.st144{fill:#FF5E00;}
	.st145{display:inline;fill:none;stroke:#FF5E00;stroke-linecap:round;stroke-linejoin:round;stroke-miterlimit:10;}
	.st146{opacity:0.3;fill:url(#SVGID_00000065792927013060747320000007323425126623958442_);}
	.st147{fill:#929292;}
	.st148{fill:url(#SVGID_00000073703317553516017970000004126922742936454794_);}
	.st149{fill:#DFDFDF;}
	.st150{fill:url(#SVGID_00000146499544256786919490000000323863211390999479_);}
	.st151{fill:url(#SVGID_00000109751477063829365270000007670515650315624105_);}
	.st152{fill:url(#SVGID_00000014632868084190674730000004138237487789014441_);}
	.st153{fill:url(#SVGID_00000025408372975755367700000008483008118453826432_);}
	.st154{fill:url(#SVGID_00000178173431417439504710000013321618322828536215_);}
	.st155{fill:url(#SVGID_00000142140568106548291740000007975943671399134902_);}
	.st156{fill:url(#SVGID_00000104669983220965150270000011030125797300213393_);}
	.st157{fill:url(#SVGID_00000076578768801251755120000000102408104484802740_);}
	.st158{fill:url(#SVGID_00000014594227294503413020000017627974973228050605_);}
	.st159{opacity:0.4;}
	.st160{fill:#3A3A5B;}
	.st161{fill:#2559C1;}
	.st162{fill:#80B4FF;}
	.st163{fill:#7398E6;}
	.st164{fill:#ECF1F9;}
	.st165{fill:#2C2C2C;}
	.st166{fill:url(#SVGID_00000178172681994704669060000012834361700437119167_);}
	.st167{fill:url(#SVGID_00000047745758871653639420000014263389188105097865_);}
	.st168{fill:none;stroke:#203E87;stroke-width:1.1172;stroke-miterlimit:10;}
	.st169{fill:#FF4A36;}
	.st170{opacity:0.3;fill:url(#SVGID_00000034066519816243212760000016069523723243051195_);}
	.st171{fill:url(#SVGID_00000067221617761861064290000005807400154599949702_);}
	.st172{opacity:0.3;fill:url(#SVGID_00000171688266425376476490000006446479158931523712_);}
	.st173{fill:url(#SVGID_00000164479595127361545640000010349909299564934041_);}
	.st174{fill:url(#SVGID_00000016036072943721844070000008296168834388544650_);}
	.st175{fill:url(#SVGID_00000018949974256723742560000001694880544567958160_);}
	.st176{fill:#747E96;}
	.st177{fill:url(#SVGID_00000155844480850842172550000006422431237491286441_);}
	.st178{display:inline;opacity:0.3;fill:url(#SVGID_00000031896169364914860100000012931866306076414113_);}
	.st179{display:inline;opacity:0.3;}
	.st180{fill:url(#SVGID_00000183970503983690412820000010504983497476127649_);}
	.st181{fill:none;stroke:#FFFFFF;stroke-width:1.2764;stroke-miterlimit:10;}
	.st182{display:inline;opacity:0.3;fill:url(#SVGID_00000077299458173987418460000015168494753764145848_);}
	.st183{fill:#182F66;}
	.st184{display:inline;fill:#203E87;}
	.st185{opacity:0.3;}
	.st186{opacity:0.3;fill:url(#SVGID_00000124143595534136584990000011251871726862578623_);}
	.st187{fill:#55A7FA;}
	.st188{fill:#E8E8DF;}
	.st189{fill:#D8D6C9;}
	.st190{fill:#F2D45B;}
	.st191{fill:#149F84;}
	.st192{fill:#26B899;}
	.st193{fill:#4EB9A1;}
	.st194{fill:#FEFEFE;}
	.st195{fill:#FE2116;}
	.st196{fill:#7F110B;}
	.st197{fill:#92130D;}
	.st198{fill:#D71C13;}
	.st199{fill:#F3F3F3;}
	.st200{fill:#F4F4F4;}
	.st201{clip-path:url(#SVGID_00000013910221534125166880000013166129987460111027_);}
	.st202{fill:url(#SVGID_00000023273965347671046590000017799634921850003848_);}
	.st203{fill:url(#SVGID_00000170263311373519658580000013361351303683336330_);}
	.st204{opacity:0.3;fill:url(#SVGID_00000110472330254876523790000017065811937839322790_);}
	.st205{fill:url(#SVGID_00000106131341227775517590000007143953209387552664_);}
	.st206{opacity:0.3;fill:url(#SVGID_00000134222008026952519670000015575409115466322852_);}
	.st207{fill:url(#SVGID_00000120556800197346037820000010257368440500415378_);}
	.st208{fill:url(#SVGID_00000183207732096360784020000010946190374756789674_);}
	.st209{fill:url(#SVGID_00000085208831671972125250000007387647925647510963_);}
	.st210{fill:url(#SVGID_00000013884823651044792780000001252740676956461970_);}
	.st211{display:inline;opacity:0.3;fill:url(#SVGID_00000153691018079633132430000012210343538133391490_);}
	.st212{fill:url(#SVGID_00000137832450566376580170000004043289556188972468_);}
	.st213{display:inline;opacity:0.3;fill:url(#SVGID_00000088835984660778292760000002003372100511529864_);}
	.st214{opacity:0.3;fill:url(#SVGID_00000040551551401648226150000007197305640233139084_);}
	.st215{clip-path:url(#SVGID_00000096745426233193626830000010684646219338886804_);}
	.st216{fill:#0F1216;}
	.st217{fill:#ED6343;}
	.st218{fill:#657283;}
	.st219{fill:#026EB7;}
	.st220{fill:#03A1FC;}
	.st221{fill:#364154;}
	.st222{fill:#131F2D;}
	.st223{fill:#525354;}
	.st224{fill:#275BC4;}
	.st225{fill:#051023;}
	.st226{fill:#2D3554;}
	.st227{clip-path:url(#SVGID_00000163783630639129713700000015681779468901809063_);}
	.st228{fill:url(#SVGID_00000042717788815185342270000004913610509499208617_);}
	.st229{fill:url(#SVGID_00000057843842986741377450000006143632193563324035_);}
	.st230{opacity:0.46;fill:#FFFFFF;}
	.st231{fill:#FFC590;}
	.st232{fill:url(#SVGID_00000058568946100166132180000012758890538370859956_);}
	.st233{fill:url(#SVGID_00000020359785205419151040000016091640046699746996_);}
	.st234{fill:url(#SVGID_00000179609152184424236250000016644868503140894086_);}
	.st235{fill:url(#SVGID_00000037668123667303147150000010854102221073192883_);}
	.st236{fill:url(#SVGID_00000058567139778190630430000009866118554329674382_);}
	.st237{fill:url(#SVGID_00000008857383334699936580000005153905036334231468_);}
	.st238{fill:url(#SVGID_00000145034540147557542880000005175555027453567891_);}
	.st239{fill:url(#SVGID_00000085929659137806285560000018192781571562109595_);}
	.st240{fill:#FFFFFE;}
	.st241{fill:url(#SVGID_00000017497818780423477680000002106666716183573393_);}
	.st242{fill:none;stroke:#FFFFFF;stroke-miterlimit:10;stroke-dasharray:5.0176,5.0176;}
	.st243{fill:#5E519D;}
	.st244{fill:url(#SVGID_00000115484306304185987770000017019663062353264808_);}
	.st245{fill:url(#SVGID_00000140011757792414049680000001174123009306818216_);}
	.st246{filter:url(#Adobe_OpacityMaskFilter_00000142175633241365759240000001666014054445469831_);}
	.st247{mask:url(#SVGID_00000128453219580515944190000008235106579621607870_);}
	.st248{fill:#150A2D;}
	.st249{fill:none;stroke:#FFFFFF;stroke-miterlimit:10;}
	.st250{fill:#FDB3BE;}
	.st251{fill:none;stroke:#003684;stroke-miterlimit:10;}
	.st252{fill:none;stroke:#004F9E;stroke-miterlimit:10;}
	.st253{clip-path:url(#SVGID_00000034776345339995637040000007609593876104778896_);}
	.st254{fill:#ECECEC;}
	.st255{fill:#E1E1E1;}
	.st256{fill:#E7E7E7;}
	.st257{fill:#F0F0F0;}
	.st258{fill:#FAFAFA;}
	.st259{opacity:0.5;fill:#E1E1E1;}
	.st260{fill:#F5F5F5;}
	.st261{opacity:0.8;fill:#FFFFFF;}
	.st262{opacity:0.3;fill:#007CFF;}
	.st263{fill:#CE5B51;}
	.st264{fill:#CD5B51;}
	.st265{fill:#007CFF;}
	.st266{fill:#1A2E35;}
	.st267{fill:#BA221F;}
	.st268{fill:#006AD3;}
	.st269{opacity:0.2;}
	.st270{display:none;clip-path:url(#SVGID_00000051373722573950144750000018378660739328781195_);}
	.st271{clip-path:url(#SVGID_00000051373722573950144750000018378660739328781195_);}
	.st272{display:none;clip-path:url(#SVGID_00000093135989325313177730000014219931834879296422_);}
	.st273{clip-path:url(#SVGID_00000093135989325313177730000014219931834879296422_);}
	.st274{fill:#071D34;}
	.st275{fill:#1E8ECD;}
	.st276{fill:url(#SVGID_00000005956752974244755240000015879578912096809110_);}
	.st277{fill:url(#SVGID_00000096751113178100761460000012584117539997141682_);}
	.st278{fill:#20C3C5;}
	.st279{fill:#C8E5FC;}
	.st280{fill:#9F9FF4;}
	.st281{fill:#1E3C72;}
	.st282{fill:url(#SVGID_00000096764827715070130090000001886770646391302310_);}
	.st283{fill:url(#SVGID_00000115489904043897629470000015732630733123455911_);}
	.st284{fill:url(#SVGID_00000153697947766679525590000006037220205408099244_);}
	.st285{fill:#4DF4F4;}
	.st286{fill:url(#SVGID_00000034790737634926585630000011006966369550471568_);}
	.st287{fill:none;stroke:#1E8ECD;stroke-width:6;}
	.st288{fill:#1C92D2;}
	.st289{fill:#2A5298;}
	.st290{fill:url(#SVGID_00000098926619522361309080000007703610755468600196_);}
	.st291{fill:url(#SVGID_00000037668498160794038130000003783601334526108321_);}
	.st292{fill:#007BFF;}
	.st293{fill:#000046;}
	.st294{fill:url(#SVGID_00000039826732466770529060000014457778732417374343_);}
	.st295{fill:none;stroke:#071D34;stroke-width:3;}
	.st296{fill:#F2FCFE;}
	.st297{fill:#00C6FF;}
	.st298{fill:url(#SVGID_00000168078087171541480850000001910298792603710867_);}
	.st299{fill:url(#SVGID_00000140708349702850592800000011289997597990397835_);}
	.st300{fill:#47A5FF;}
	.st301{fill:#1CB5E0;}
	.st302{fill:#FF3F54;}
	.st303{fill:#1DAEEF;}
	.st304{fill:#56CCF2;}
	.st305{fill:url(#SVGID_00000003792890676250667550000006323689811533594025_);}
	.st306{fill:#231F20;}
	.st307{fill:url(#SVGID_00000147205917017077097630000004783013684865138068_);}
	.st308{fill:#FD5668;}
	.st309{fill:#2F80ED;}
	.st310{fill:url(#SVGID_00000083087382210759127220000002216720907717207721_);}
	.st311{fill:#228FCD;}
	.st312{fill:url(#SVGID_00000098195314364534539330000008415558340576675755_);}
	.st313{fill:#1565C0;}
	.st314{fill:#2196F3;}
	.st315{fill:#0090D8;}
	.st316{fill:#4CDD75;}
	.st317{fill:url(#SVGID_00000001650109478821899490000007772755686364959635_);}
	.st318{fill:#0D47A1;}
	.st319{fill:#6DD5FA;}
	.st320{fill:url(#SVGID_00000182495912549812140190000002303647332062865331_);}
	.st321{fill:url(#SVGID_00000131332253018541883000000004298619141708264872_);}
	.st322{fill:#2980B9;}
	.st323{fill:#D4ECF9;}
	.st324{fill:url(#SVGID_00000115478754521990634680000017778712433805648297_);}
	.st325{fill:#D9F3FC;}
	.st326{fill:url(#SVGID_00000093158611300665595890000011819831069584266153_);}
	.st327{fill:#A7E0F9;}
	.st328{fill:#FD89A3;}
	.st329{fill:#FFCD8C;}
	.st330{fill:url(#SVGID_00000036237123367798279970000015919200276611255425_);}
	.st331{fill:#6991FB;}
	.st332{fill:#78B5FF;}
	.st333{fill:url(#SVGID_00000145052154332353041110000005756046466699120292_);}
	.st334{fill:url(#SVGID_00000158721268828442251380000015755834982521248911_);}
	.st335{fill:url(#SVGID_00000158029608029831747120000009210641548874747299_);}
	.st336{fill:#711DE1;}
	.st337{fill:#1B4EBB;}
	.st338{fill:#FF8E8B;}
	.st339{fill:url(#SVGID_00000160873445957284701960000018346067095711076281_);}
	.st340{fill:#6A8FFF;}
	.st341{fill:#7DB9FF;}
	.st342{fill:url(#SVGID_00000079470990916074656340000012365401558392697997_);}
	.st343{fill:#FA85A1;}
	.st344{fill:#FFD496;}
	.st345{fill:#FF6B7A;}
	.st346{fill:#BBDEFB;}
	.st347{fill:#90CAF9;}
	.st348{fill:#64B5F6;}
	.st349{fill:#42A5F5;}
	.st350{fill:#1E88E5;}
	.st351{fill:#1976D2;}
	.st352{fill:#E3F2FD;}
	.st353{fill:#EEF1F9;}
	.st354{fill:#AEB8D1;}
	.st355{fill:#D6DDEC;}
	.st356{fill:#859EFE;}
	.st357{fill:#42C56E;}
	.st358{fill:#373842;}
	.st359{fill:#515262;}
	.st360{fill:#53DA7D;}
	.st361{fill:#FE6465;}
	.st362{fill:#FE8CBA;}
	.st363{fill:#FEBE6E;}
	.st364{fill:#EFF2FA;}
	.st365{fill:#D7DEED;}
	.st366{fill:#AFB9D2;}
	.st367{fill:#42C66E;}
	.st368{fill:#859FFF;}
	.st369{fill:#53DB7D;}
	.st370{fill:#FFBF6E;}
	.st371{fill:#FF8DBB;}
	.st372{fill:#FF6465;}
	.st373{fill:#4AA4FE;}
	.st374{fill:#1C6CAF;}
	.st375{fill:#C7E3F9;}
	.st376{fill:#F9F9F9;}
	.st377{fill:#383838;}
</style>
<g id="Layer_1" class="st0">
</g>
<g id="Layer_2">
	<g>
		<g>
			<rect x="17.37" y="104.36" class="st364" width="13.56" height="13.56"/>
			<rect x="17.37" y="142.24" class="st364" width="13.56" height="13.56"/>
			<rect x="17.37" y="66.49" class="st364" width="13.56" height="13.56"/>
			<path class="st364" d="M138.58,178.03h-13.24v0.01h-72.6v-25.42h-3.45c-1.61,0-2.92-1.31-2.92-2.92l0,0
				c0-1.61,1.31-2.92,2.92-2.92h3.45v-32.48h-3.45c-1.61,0-2.92-1.31-2.92-2.92v0c0-1.61,1.31-2.92,2.92-2.92h3.45V76.52h-3.45
				c-1.61,0-2.92-1.31-2.92-2.92c0-1.61,1.31-2.92,2.92-2.92h3.45V45.15h-3.45c-1.61,0-2.92-1.31-2.92-2.92
				c0-1.61,1.31-2.92,2.92-2.92h3.45v-8c0-7.91,6.41-14.32,14.32-14.32h58.27V13.2c0-6.21,4.29-11.42,10.08-12.83H16.1
				C7.21,0.38,0,7.59,0,16.48v148.33c0,7.37,5.98,13.35,13.35,13.35h125.03c3.93,0,7.46-1.7,9.91-4.4
				C145.87,176.38,142.42,178.03,138.58,178.03z M15.21,37.36c1.14-1.23,3.06-1.31,4.29-0.17l2.79,2.59l6.51-6.35
				c1.2-1.17,3.12-1.15,4.3,0.05c1.17,1.2,1.15,3.12-0.05,4.3l-8.57,8.36C23.88,46.72,23.12,47,22.35,47
				c-0.74,0-1.48-0.27-2.06-0.81l-4.91-4.55C14.14,40.51,14.07,38.59,15.21,37.36z M36.1,155.89c0,2.8-2.27,5.07-5.07,5.07H17.28
				c-2.8,0-5.07-2.27-5.07-5.07v-13.75c0-2.8,2.27-5.07,5.07-5.07h13.75c2.8,0,5.07,2.27,5.07,5.07V155.89z M36.1,118.02
				c0,2.8-2.27,5.07-5.07,5.07H17.28c-2.8,0-5.07-2.27-5.07-5.07v-13.75c0-2.8,2.27-5.07,5.07-5.07h13.75c2.8,0,5.07,2.27,5.07,5.07
				V118.02z M36.1,80.14c0,2.8-2.27,5.07-5.07,5.07H17.28c-2.8,0-5.07-2.27-5.07-5.07V66.4c0-2.8,2.27-5.07,5.07-5.07h13.75
				c2.8,0,5.07,2.27,5.07,5.07V80.14z"/>
			<path class="st364" d="M52.74,31.3v8h60.68c1.61,0,2.92,1.31,2.92,2.92c0,1.61-1.31,2.92-2.92,2.92H52.74v25.54h60.68
				c1.61,0,2.92,1.31,2.92,2.92c0,1.61-1.31,2.92-2.92,2.92H52.74v31.93h60.68c1.61,0,2.92,1.31,2.92,2.92v0
				c0,1.61-1.31,2.92-2.92,2.92H52.74v32.48h60.68c1.61,0,2.92,1.31,2.92,2.92l0,0c0,1.61-1.31,2.92-2.92,2.92H52.74v25.42h72.6
				v-0.01h0V16.98H67.06C59.15,16.98,52.74,23.39,52.74,31.3z"/>
			<path class="st366" d="M151.74,13.2c0-7.29-5.91-13.2-13.2-13.2h0c-1.08,0-2.12,0.13-3.13,0.38h2.96
				c7.37,0,13.35,5.98,13.35,13.35v151.09c0,3.44-1.3,6.57-3.44,8.94c2.15-2.34,3.46-5.46,3.46-8.89V13.2z"/>
			<path class="st366" d="M151.72,13.72c0-7.37-5.98-13.35-13.35-13.35h-2.96c-5.78,1.4-10.08,6.61-10.08,12.83v3.78h0v161.04h13.24
				c3.84,0,7.3-1.65,9.7-4.27c2.14-2.37,3.44-5.5,3.44-8.94V13.72z"/>
			<rect x="125.33" y="16.98" class="st366" width="0" height="161.04"/>
			<path class="st367" d="M20.29,46.2c0.58,0.54,1.32,0.81,2.06,0.81c0.77,0,1.53-0.29,2.12-0.86l8.57-8.36
				c1.2-1.17,1.22-3.1,0.05-4.3c-1.17-1.2-3.1-1.23-4.3-0.05l-6.51,6.35l-2.79-2.59c-1.23-1.14-3.15-1.07-4.29,0.17
				c-1.14,1.23-1.07,3.15,0.17,4.29L20.29,46.2z"/>
			<path class="st368" d="M31.03,61.33H17.28c-2.8,0-5.07,2.27-5.07,5.07v13.75c0,2.8,2.27,5.07,5.07,5.07h13.75
				c2.8,0,5.07-2.27,5.07-5.07V66.4C36.1,63.6,33.83,61.33,31.03,61.33z M30.94,80.05H17.37V66.49h13.56V80.05z"/>
			<path class="st368" d="M31.03,99.2H17.28c-2.8,0-5.07,2.27-5.07,5.07v13.75c0,2.8,2.27,5.07,5.07,5.07h13.75
				c2.8,0,5.07-2.27,5.07-5.07v-13.75C36.1,101.47,33.83,99.2,31.03,99.2z M30.94,117.93H17.37v-13.56h13.56V117.93z"/>
			<path class="st368" d="M31.03,137.08H17.28c-2.8,0-5.07,2.27-5.07,5.07v13.75c0,2.8,2.27,5.07,5.07,5.07h13.75
				c2.8,0,5.07-2.27,5.07-5.07v-13.75C36.1,139.35,33.83,137.08,31.03,137.08z M30.94,155.8H17.37v-13.56h13.56V155.8z"/>
			<path class="st366" d="M49.29,39.31c-1.61,0-2.92,1.31-2.92,2.92c0,1.61,1.31,2.92,2.92,2.92h3.45v-5.84H49.29z"/>
			<path class="st366" d="M116.34,42.23c0-1.61-1.31-2.92-2.92-2.92H52.74v5.84h60.68C115.03,45.15,116.34,43.84,116.34,42.23z"/>
			<path class="st366" d="M49.29,70.68c-1.61,0-2.92,1.31-2.92,2.92c0,1.61,1.31,2.92,2.92,2.92h3.45v-5.84H49.29z"/>
			<path class="st366" d="M116.34,73.6c0-1.61-1.31-2.92-2.92-2.92H52.74v5.84h60.68C115.03,76.52,116.34,75.22,116.34,73.6z"/>
			<path class="st366" d="M49.29,108.45c-1.61,0-2.92,1.31-2.92,2.92v0c0,1.61,1.31,2.92,2.92,2.92h3.45v-5.84H49.29z"/>
			<path class="st366" d="M116.34,111.37L116.34,111.37c0-1.61-1.31-2.92-2.92-2.92H52.74v5.84h60.68
				C115.03,114.29,116.34,112.98,116.34,111.37z"/>
			<path class="st366" d="M49.29,146.77c-1.61,0-2.92,1.31-2.92,2.92l0,0c0,1.61,1.31,2.92,2.92,2.92h3.45v-5.84H49.29z"/>
			<path class="st366" d="M116.34,149.69L116.34,149.69c0-1.61-1.31-2.92-2.92-2.92H52.74v5.84h60.68
				C115.03,152.61,116.34,151.31,116.34,149.69z"/>
		</g>
		<g>
			<path class="st8" d="M107.89,143.11c0.03-18.82,15.34-34.09,34.16-34.07c18.86,0.02,34.15,15.37,34.09,34.23
				c-0.06,18.83-15.38,34.07-34.2,34.02C123.12,177.25,107.86,161.92,107.89,143.11z"/>
			<path class="st3" d="M147.03,131.79c0.38,0.58,0.8,0.99,0.94,1.47c0.37,1.3,1.24,1.47,2.41,1.39c1.36-0.09,2.72-0.03,4.09-0.02
				c1.1,0.01,1.77,0.57,1.75,1.44c-0.02,0.84-0.69,1.39-1.72,1.4c-1.57,0.01-3.14,0.02-4.71-0.01c-0.48-0.01-0.64,0.12-0.69,0.63
				c-0.47,4.67-4.02,7.88-8.69,7.91c-0.97,0.01-1.94,0-3.07,0c0.54,1.01,1.01,1.92,1.5,2.82c1.89,3.45,3.78,6.91,5.67,10.36
				c0.54,0.99,0.4,1.79-0.38,2.24c-0.81,0.46-1.57,0.14-2.14-0.91c-2.7-4.93-5.39-9.87-8.09-14.8c-0.84-1.54-0.26-2.51,1.51-2.55
				c2.16-0.05,4.33,0.23,6.47-0.17c2.29-0.43,4.16-2.57,4.4-4.88c0.08-0.76-0.4-0.63-0.83-0.63c-5.15,0-10.31,0-15.46,0
				c-1.53,0-2.2-0.45-2.18-1.45c0.02-0.98,0.66-1.39,2.15-1.39c4.8,0,9.6,0,14.39,0c0.32,0,0.63,0,1.11,0
				c-1.18-1.9-2.79-2.8-4.83-2.83c-3.73-0.05-7.46-0.02-11.19-0.01c-0.69,0-1.19-0.24-1.49-0.9c-0.26-0.57-0.08-1.05,0.26-1.48
				c0.37-0.47,0.92-0.47,1.46-0.47c5.21,0,10.42,0,15.64,0c3.11,0,6.22-0.01,9.33,0c0.9,0,1.46,0.48,1.57,1.26
				c0.09,0.64-0.42,1.39-1.08,1.54c-0.28,0.06-0.59,0.04-0.88,0.04C151.87,131.79,149.51,131.79,147.03,131.79z"/>
		</g>
	</g>
</g>
</svg>
