<svg width="109" height="108" viewBox="0 0 109 108" fill="none" xmlns="http://www.w3.org/2000/svg">
<rect x="0.5" width="108" height="108" rx="15.8824" fill="#F4AF48"/>
<path d="M45.6942 63.6637C47.2189 63.6637 47.9813 64.3117 47.9813 65.6077C47.9813 66.9291 47.2189 67.5898 45.6942 67.5898H29.4561C28.7954 67.5898 28.2617 67.3993 27.8551 67.0181C27.474 66.6115 27.2834 66.1033 27.2834 65.4934C27.2834 64.8835 27.4867 64.299 27.8933 63.74L41.5394 44.643H29.6085C28.0838 44.643 27.3215 43.995 27.3215 42.699C27.3215 41.3776 28.0838 40.7169 29.6085 40.7169H45.3511C46.0118 40.7169 46.5328 40.9202 46.914 41.3268C47.3205 41.708 47.5238 42.1908 47.5238 42.7753C47.5238 43.3597 47.3078 43.9442 46.8758 44.5287L33.2297 63.6637H45.6942ZM54.1777 67.8185C53.4408 67.8185 52.8436 67.5898 52.3862 67.1324C51.9542 66.675 51.7382 66.0778 51.7382 65.3409V42.9658C51.7382 42.2289 51.9542 41.6444 52.3862 41.2124C52.8436 40.755 53.4408 40.5263 54.1777 40.5263C54.9401 40.5263 55.5373 40.755 55.9693 41.2124C56.4267 41.6444 56.6554 42.2289 56.6554 42.9658V65.3409C56.6554 66.0778 56.4267 66.675 55.9693 67.1324C55.5373 67.5898 54.9401 67.8185 54.1777 67.8185ZM64.8983 67.8185C64.1614 67.8185 63.5642 67.6025 63.1068 67.1705C62.6748 66.7131 62.4588 66.1033 62.4588 65.3409V43.0421C62.4588 42.3051 62.6621 41.7334 63.0687 41.3268C63.5007 40.9202 64.0852 40.7169 64.8221 40.7169H74.199C77.0706 40.7169 79.3068 41.4411 80.9077 42.8896C82.5087 44.3127 83.3092 46.3202 83.3092 48.9122C83.3092 51.5042 82.5087 53.5244 80.9077 54.9729C79.3068 56.4214 77.0706 57.1456 74.199 57.1456H67.376V65.3409C67.376 66.1033 67.1473 66.7131 66.6899 67.1705C66.2579 67.6025 65.6607 67.8185 64.8983 67.8185ZM73.5892 53.372C76.9689 53.372 78.6588 51.8981 78.6588 48.9503C78.6588 46.0025 76.9689 44.5287 73.5892 44.5287H67.376V53.372H73.5892Z" fill="white"/>
</svg>
